<svg width="402" height="874" viewBox="0 0 402 874" fill="none" xmlns="http://www.w3.org/2000/svg">
<rect width="402" height="874" rx="47" fill="white"/>
<path d="M51.6 207.2L41.16 196.82L31.14 206.78L27.24 202.94L37.32 192.92L27.24 182.78L31.14 178.94L41.16 188.96L51.24 179L55.14 182.84L45.06 192.92L55.44 203.3L51.6 207.2ZM88.4241 196.82C88.4241 190.58 82.8441 188.54 75.8841 188.54H74.9841V183.56H75.7041C83.2641 183.56 87.2841 181.46 87.2841 176.36C87.2841 171.68 83.4441 169.28 78.8241 169.28C73.0041 169.28 69.8241 172.82 69.3441 177.74H63.7041C64.3641 170.06 69.8241 164.72 78.9441 164.72C86.5041 164.72 93.0441 167.72 93.0441 175.76C93.0441 180.2 90.5241 183.98 85.9641 185.84C92.4441 187.88 94.2441 192.2 94.2441 196.76C94.2441 205.52 86.8041 209.78 78.5241 209.78C68.3241 209.78 63.6441 203.42 63.0441 196.16H68.6841C69.2841 201.5 72.4641 205.22 78.5841 205.22C84.3441 205.22 88.4241 202.22 88.4241 196.82Z" fill="#FF2F00"/>
<path d="M47.46 106.5H52.92V150H47.46V145.14C45.48 148.56 42.06 150.78 36.9 150.78C29.52 150.78 23.1 144.66 23.1 133.98C23.1 123.36 29.52 117.18 36.9 117.18C42.06 117.18 45.48 119.4 47.46 122.82V106.5ZM38.28 121.86C32.7 121.86 29.04 126.3 29.04 133.98C29.04 141.66 32.7 146.1 38.28 146.1C43.14 146.1 47.7 142.5 47.7 133.98C47.7 125.46 43.14 121.86 38.28 121.86ZM65.1909 135.66C65.4309 142.62 70.3509 145.98 75.1509 145.98C79.9509 145.98 82.5909 143.82 83.9709 140.64H89.6109C88.1109 146.22 83.0109 150.78 75.1509 150.78C64.9509 150.78 59.3109 143.46 59.3109 133.92C59.3109 123.72 66.1509 117.18 74.9709 117.18C84.8109 117.18 90.7509 125.46 90.0309 135.66H65.1909ZM65.2509 130.98H84.2709C84.1509 126.42 80.7309 121.86 74.9709 121.86C70.1109 121.86 65.7309 124.5 65.2509 130.98ZM94.1813 141.48C94.1813 133.86 102.761 131.64 116.021 130.14V129.36C116.021 123.48 112.721 121.5 108.701 121.5C104.201 121.5 101.561 123.96 101.321 127.92H95.6813C96.2213 120.96 102.341 117.06 108.641 117.06C117.521 117.06 121.541 121.32 121.481 130.38L121.421 137.82C121.361 143.22 121.661 146.94 122.261 150H116.741C116.561 148.8 116.381 147.48 116.321 145.56C114.341 148.86 110.981 150.78 105.281 150.78C99.2213 150.78 94.1813 147.42 94.1813 141.48ZM116.441 134.46C106.541 135.48 100.241 136.92 100.241 141.36C100.241 144.42 102.581 146.46 106.481 146.46C111.581 146.46 116.441 144.12 116.441 136.5V134.46ZM151.757 106.5H157.217V150H151.757V145.14C149.777 148.56 146.357 150.78 141.197 150.78C133.817 150.78 127.397 144.66 127.397 133.98C127.397 123.36 133.817 117.18 141.197 117.18C146.357 117.18 149.777 119.4 151.757 122.82V106.5ZM142.577 121.86C136.997 121.86 133.337 126.3 133.337 133.98C133.337 141.66 136.997 146.1 142.577 146.1C147.437 146.1 151.997 142.5 151.997 133.98C151.997 125.46 147.437 121.86 142.577 121.86ZM171.288 150H165.828V106.5H171.288V150ZM185.409 106.5V113.1H179.949V106.5H185.409ZM185.409 117.72V150H179.949V117.72H185.409ZM195.45 115.38C195.45 108.66 196.83 106.5 204.15 106.5H206.97V111.06H204.27C201.39 111.06 200.91 111.72 200.91 115.08V117.72H206.97V122.1H200.91V150H195.45V122.1H190.95V117.72H195.45V115.38ZM214.439 109.62H219.899V117.72H226.019V122.1H219.899V141.24C219.899 144.6 220.139 145.44 223.259 145.44H226.019V150H222.059C215.879 150 214.439 148.62 214.439 141.9V122.1H209.339V117.72H214.439V109.62Z" fill="black"/>
<rect x="20.5" y="645.5" width="361" height="59" rx="29.5" stroke="black"/>
<path d="M188.04 678.42H185.38V682H183.54V678.42H176.34V676.7L183.52 667.5H185.38V676.7H188.04V678.42ZM178.36 676.7H183.54V670L178.36 676.7ZM195.08 682.26C191.22 682.26 189.44 679.34 189.44 674.74C189.44 670.16 191.22 667.24 195.08 667.24C198.94 667.24 200.72 670.16 200.72 674.74C200.72 679.34 198.94 682.26 195.08 682.26ZM195.08 668.76C192.8 668.76 191.38 670.72 191.38 674.74C191.38 678.78 192.8 680.74 195.08 680.74C197.36 680.74 198.78 678.78 198.78 674.74C198.78 670.72 197.36 668.76 195.08 668.76ZM211.209 677.22H209.829V682H207.989V671.24H209.829V675.64H211.169L214.589 671.24H216.749L212.689 676.32L217.169 682H214.909L211.209 677.22ZM220.727 672.82V682H218.907V671.24H225.767V672.82H220.727Z" fill="black"/>
<rect x="20.5" y="715.5" width="361" height="59" rx="29.5" stroke="black"/>
<path d="M166.1 752V740.66H162.74V739.42C164.82 739.34 165.88 739.08 166.68 737.5H167.92V752H166.1ZM176.463 752.26C172.603 752.26 170.823 749.34 170.823 744.74C170.823 740.16 172.603 737.24 176.463 737.24C180.323 737.24 182.103 740.16 182.103 744.74C182.103 749.34 180.323 752.26 176.463 752.26ZM176.463 738.76C174.183 738.76 172.763 740.72 172.763 744.74C172.763 748.78 174.183 750.74 176.463 750.74C178.743 750.74 180.163 748.78 180.163 744.74C180.163 740.72 178.743 738.76 176.463 738.76ZM189.792 738.54H191.612V741.24H193.652V742.7H191.612V749.08C191.612 750.2 191.692 750.48 192.732 750.48H193.652V752H192.332C190.272 752 189.792 751.54 189.792 749.3V742.7H188.092V741.24H189.792V738.54ZM197.791 737.5V739.7H195.971V737.5H197.791ZM197.791 741.24V752H195.971V741.24H197.791ZM202.498 752H200.678V741.24H202.498V742.86C203.118 741.84 204.118 741.06 205.738 741.06C207.378 741.06 208.358 741.78 208.838 742.96C209.698 741.64 210.958 741.06 212.458 741.06C214.958 741.06 215.938 742.74 215.938 745.2V752H214.118V745.74C214.118 744.08 213.798 742.64 211.818 742.64C210.258 742.64 209.218 743.86 209.218 746.16V752H207.398V745.74C207.398 744.08 207.078 742.64 205.098 742.64C203.538 742.64 202.498 743.86 202.498 746.16V752ZM219.887 747.22C219.967 749.54 221.607 750.66 223.207 750.66C224.807 750.66 225.687 749.94 226.147 748.88H228.027C227.527 750.74 225.827 752.26 223.207 752.26C219.807 752.26 217.927 749.82 217.927 746.64C217.927 743.24 220.207 741.06 223.147 741.06C226.427 741.06 228.407 743.82 228.167 747.22H219.887ZM219.907 745.66H226.247C226.207 744.14 225.067 742.62 223.147 742.62C221.527 742.62 220.067 743.5 219.907 745.66ZM236.487 744.38C236.207 743.1 235.207 742.6 233.947 742.6C232.887 742.6 231.687 742.98 231.687 743.96C231.687 744.82 232.287 745.22 233.327 745.42L234.847 745.72C236.807 746.1 238.527 746.84 238.527 748.92C238.527 751.04 236.607 752.26 234.147 752.26C231.327 752.26 229.727 750.4 229.527 748.52H231.447C231.727 749.9 232.587 750.72 234.187 750.72C235.567 750.72 236.687 750.12 236.687 749.12C236.687 748.04 235.667 747.58 234.507 747.34L232.907 747.02C231.447 746.72 229.847 746.04 229.847 744.04C229.847 742.14 231.767 741.04 234.147 741.04C236.467 741.04 238.047 742.34 238.387 744.38H236.487Z" fill="black"/>
<rect x="20" y="785" width="178.5" height="60" rx="30" fill="black"/>
<path d="M51.01 812.86C51.63 811.84 52.67 811.06 54.49 811.06C57.09 811.06 58.03 812.74 58.03 815.2V822H56.21V815.74C56.21 814.08 55.93 812.64 53.85 812.64C52.09 812.64 51.01 813.86 51.01 816.16V822H49.19V811.24H51.01V812.86ZM61.9725 817.22C62.0525 819.54 63.6925 820.66 65.2925 820.66C66.8925 820.66 67.7725 819.94 68.2325 818.88H70.1125C69.6125 820.74 67.9125 822.26 65.2925 822.26C61.8925 822.26 60.0125 819.82 60.0125 816.64C60.0125 813.24 62.2925 811.06 65.2325 811.06C68.5125 811.06 70.4925 813.82 70.2525 817.22H61.9725ZM61.9925 815.66H68.3325C68.2925 814.14 67.1525 812.62 65.2325 812.62C63.6125 812.62 62.1525 813.5 61.9925 815.66ZM76.9192 816.38L80.9392 822H78.7592L75.8392 817.9L72.9392 822H70.8592L74.8192 816.46L71.0992 811.24H73.2792L75.8992 814.94L78.5392 811.24H80.5792L76.9192 816.38ZM83.0498 808.54H84.8698V811.24H86.9098V812.7H84.8698V819.08C84.8698 820.2 84.9498 820.48 85.9898 820.48H86.9098V822H85.5898C83.5298 822 83.0498 821.54 83.0498 819.3V812.7H81.3498V811.24H83.0498V808.54ZM94.9998 817.22C95.0798 819.54 96.7198 820.66 98.3198 820.66C99.9198 820.66 100.8 819.94 101.26 818.88H103.14C102.64 820.74 100.94 822.26 98.3198 822.26C94.9198 822.26 93.0398 819.82 93.0398 816.64C93.0398 813.24 95.3198 811.06 98.2598 811.06C101.54 811.06 103.52 813.82 103.28 817.22H94.9998ZM95.0198 815.66H101.36C101.32 814.14 100.18 812.62 98.2598 812.62C96.6398 812.62 95.1798 813.5 95.0198 815.66ZM109.947 816.38L113.967 822H111.787L108.867 817.9L105.967 822H103.887L107.847 816.46L104.127 811.24H106.307L108.927 814.94L111.567 811.24H113.607L109.947 816.38ZM116.484 817.22C116.564 819.54 118.204 820.66 119.804 820.66C121.404 820.66 122.284 819.94 122.744 818.88H124.624C124.124 820.74 122.424 822.26 119.804 822.26C116.404 822.26 114.524 819.82 114.524 816.64C114.524 813.24 116.804 811.06 119.744 811.06C123.024 811.06 125.004 813.82 124.764 817.22H116.484ZM116.504 815.66H122.844C122.804 814.14 121.664 812.62 119.744 812.62C118.124 812.62 116.664 813.5 116.504 815.66ZM132.245 813.14C131.865 813.1 131.525 813.06 131.225 813.06C129.545 813.06 128.705 814 128.705 816.36V822H126.885V811.24H128.665V813.12C129.205 811.9 130.305 811.22 131.705 811.18C131.885 811.18 132.045 811.18 132.245 811.2V813.14ZM142.759 814.84H140.919C140.659 813.56 139.539 812.66 138.139 812.66C136.519 812.66 135.039 813.92 135.039 816.62C135.039 819.36 136.539 820.66 138.139 820.66C139.659 820.66 140.739 819.64 140.999 818.5H142.879C142.519 820.52 140.579 822.26 138.079 822.26C134.999 822.26 133.059 819.92 133.059 816.64C133.059 813.44 135.079 811.06 138.259 811.06C140.859 811.06 142.519 813.02 142.759 814.84ZM146.752 807.5V809.7H144.932V807.5H146.752ZM146.752 811.24V822H144.932V811.24H146.752ZM155.799 814.38C155.519 813.1 154.519 812.6 153.259 812.6C152.199 812.6 150.999 812.98 150.999 813.96C150.999 814.82 151.599 815.22 152.639 815.42L154.159 815.72C156.119 816.1 157.839 816.84 157.839 818.92C157.839 821.04 155.919 822.26 153.459 822.26C150.639 822.26 149.039 820.4 148.839 818.52H150.759C151.039 819.9 151.899 820.72 153.499 820.72C154.879 820.72 155.999 820.12 155.999 819.12C155.999 818.04 154.979 817.58 153.819 817.34L152.219 817.02C150.759 816.72 149.159 816.04 149.159 814.04C149.159 812.14 151.079 811.04 153.459 811.04C155.779 811.04 157.359 812.34 157.699 814.38H155.799ZM161.367 817.22C161.447 819.54 163.087 820.66 164.687 820.66C166.287 820.66 167.167 819.94 167.627 818.88H169.507C169.007 820.74 167.307 822.26 164.687 822.26C161.287 822.26 159.407 819.82 159.407 816.64C159.407 813.24 161.687 811.06 164.627 811.06C167.907 811.06 169.887 813.82 169.647 817.22H161.367ZM161.387 815.66H167.727C167.687 814.14 166.547 812.62 164.627 812.62C163.007 812.62 161.547 813.5 161.387 815.66Z" fill="white"/>
<rect x="203.5" y="785" width="178.5" height="60" rx="30" fill="#FF2F00"/>
<path d="M259.31 816.66C259.31 820.56 256.65 822.26 254.15 822.26C251.65 822.26 248.99 820.56 248.99 816.66C248.99 812.76 251.65 811.06 254.15 811.06C256.65 811.06 259.31 812.76 259.31 816.66ZM254.15 820.66C255.79 820.66 257.37 819.42 257.37 816.66C257.37 813.8 255.79 812.66 254.15 812.66C252.51 812.66 250.93 813.72 250.93 816.66C250.93 819.52 252.51 820.66 254.15 820.66ZM263.307 812.86C263.927 811.84 264.967 811.06 266.787 811.06C269.387 811.06 270.327 812.74 270.327 815.2V822H268.507V815.74C268.507 814.08 268.227 812.64 266.147 812.64C264.387 812.64 263.307 813.86 263.307 816.16V822H261.487V811.24H263.307V812.86ZM274.269 817.22C274.349 819.54 275.989 820.66 277.589 820.66C279.189 820.66 280.069 819.94 280.529 818.88H282.409C281.909 820.74 280.209 822.26 277.589 822.26C274.189 822.26 272.309 819.82 272.309 816.64C272.309 813.24 274.589 811.06 277.529 811.06C280.809 811.06 282.789 813.82 282.549 817.22H274.269ZM274.289 815.66H280.629C280.589 814.14 279.449 812.62 277.529 812.62C275.909 812.62 274.449 813.5 274.289 815.66ZM291.237 822H289.417V811.24H291.237V812.86C291.857 811.84 292.857 811.06 294.477 811.06C296.117 811.06 297.097 811.78 297.577 812.96C298.437 811.64 299.697 811.06 301.197 811.06C303.697 811.06 304.677 812.74 304.677 815.2V822H302.857V815.74C302.857 814.08 302.537 812.64 300.557 812.64C298.997 812.64 297.957 813.86 297.957 816.16V822H296.137V815.74C296.137 814.08 295.817 812.64 293.837 812.64C292.277 812.64 291.237 813.86 291.237 816.16V822ZM317.025 816.66C317.025 820.56 314.365 822.26 311.865 822.26C309.365 822.26 306.705 820.56 306.705 816.66C306.705 812.76 309.365 811.06 311.865 811.06C314.365 811.06 317.025 812.76 317.025 816.66ZM311.865 820.66C313.505 820.66 315.085 819.42 315.085 816.66C315.085 813.8 313.505 812.66 311.865 812.66C310.225 812.66 308.645 813.72 308.645 816.66C308.645 819.52 310.225 820.66 311.865 820.66ZM324.562 813.14C324.182 813.1 323.842 813.06 323.542 813.06C321.862 813.06 321.022 814 321.022 816.36V822H319.202V811.24H320.982V813.12C321.522 811.9 322.622 811.22 324.022 811.18C324.202 811.18 324.362 811.18 324.562 811.2V813.14ZM327.336 817.22C327.416 819.54 329.056 820.66 330.656 820.66C332.256 820.66 333.136 819.94 333.596 818.88H335.476C334.976 820.74 333.276 822.26 330.656 822.26C327.256 822.26 325.376 819.82 325.376 816.64C325.376 813.24 327.656 811.06 330.596 811.06C333.876 811.06 335.856 813.82 335.616 817.22H327.336ZM327.356 815.66H333.696C333.656 814.14 332.516 812.62 330.596 812.62C328.976 812.62 327.516 813.5 327.356 815.66Z" fill="white"/>
<path opacity="0.3" d="M26.6 70.26C22.74 70.26 20.96 67.34 20.96 62.74C20.96 58.16 22.74 55.24 26.6 55.24C30.46 55.24 32.24 58.16 32.24 62.74C32.24 67.34 30.46 70.26 26.6 70.26ZM26.6 56.76C24.32 56.76 22.9 58.72 22.9 62.74C22.9 66.78 24.32 68.74 26.6 68.74C28.88 68.74 30.3 66.78 30.3 62.74C30.3 58.72 28.88 56.76 26.6 56.76ZM34.5227 61.54V59.24H36.8227V61.54H34.5227ZM34.5227 70V67.7H36.8227V70H34.5227ZM44.725 70.26C40.865 70.26 39.085 67.34 39.085 62.74C39.085 58.16 40.865 55.24 44.725 55.24C48.585 55.24 50.365 58.16 50.365 62.74C50.365 67.34 48.585 70.26 44.725 70.26ZM44.725 56.76C42.445 56.76 41.025 58.72 41.025 62.74C41.025 66.78 42.445 68.74 44.725 68.74C47.005 68.74 48.425 66.78 48.425 62.74C48.425 58.72 47.005 56.76 44.725 56.76ZM54.9477 70V58.66H51.5877V57.42C53.6677 57.34 54.7277 57.08 55.5277 55.5H56.7677V70H54.9477Z" fill="black"/>
<path d="M333.9 58.46C333.9 56.22 334.36 55.5 336.8 55.5H337.74V57.02H336.84C335.88 57.02 335.72 57.24 335.72 58.36V59.24H337.74V60.7H335.72V70H333.9V60.7H332.4V59.24H333.9V58.46ZM341.53 55.5V57.7H339.71V55.5H341.53ZM341.53 59.24V70H339.71V59.24H341.53ZM346.237 60.86C346.857 59.84 347.897 59.06 349.717 59.06C352.317 59.06 353.257 60.74 353.257 63.2V70H351.437V63.74C351.437 62.08 351.157 60.64 349.077 60.64C347.317 60.64 346.237 61.86 346.237 64.16V70H344.417V59.24H346.237V60.86ZM357.799 55.5V57.7H355.979V55.5H357.799ZM357.799 59.24V70H355.979V59.24H357.799ZM366.846 62.38C366.566 61.1 365.566 60.6 364.306 60.6C363.246 60.6 362.046 60.98 362.046 61.96C362.046 62.82 362.646 63.22 363.686 63.42L365.206 63.72C367.166 64.1 368.886 64.84 368.886 66.92C368.886 69.04 366.966 70.26 364.506 70.26C361.686 70.26 360.086 68.4 359.886 66.52H361.806C362.086 67.9 362.946 68.72 364.546 68.72C365.926 68.72 367.046 68.12 367.046 67.12C367.046 66.04 366.026 65.58 364.866 65.34L363.266 65.02C361.806 64.72 360.206 64.04 360.206 62.04C360.206 60.14 362.126 59.04 364.506 59.04C366.826 59.04 368.406 60.34 368.746 62.38H366.846ZM373.014 60.86C373.634 59.84 374.674 59.06 376.494 59.06C379.094 59.06 380.034 60.74 380.034 63.2V70H378.214V63.74C378.214 62.08 377.934 60.64 375.854 60.64C374.094 60.64 373.014 61.86 373.014 64.16V70H371.194V55.5H373.014V60.86Z" fill="black"/>
<path d="M37.2364 308.32V310H28.0764V308.32H31.9564V298.86H28.0964V297.6C30.3164 297.54 31.7364 297.28 32.5364 295.68H33.7764V308.32H37.2364ZM40.7311 310V307.7H43.0311V310H40.7311ZM52.96 296.54H54.78V299.24H56.82V300.7H54.78V307.08C54.78 308.2 54.86 308.48 55.9 308.48H56.82V310H55.5C53.44 310 52.96 309.54 52.96 307.3V300.7H51.26V299.24H52.96V296.54ZM60.9592 300.86C61.5792 299.84 62.6192 299.06 64.4392 299.06C67.0392 299.06 67.9792 300.74 67.9792 303.2V310H66.1592V303.74C66.1592 302.08 65.8792 300.64 63.7992 300.64C62.0392 300.64 60.9592 301.86 60.9592 304.16V310H59.1392V295.5H60.9592V300.86ZM71.9217 305.22C72.0017 307.54 73.6417 308.66 75.2417 308.66C76.8417 308.66 77.7217 307.94 78.1817 306.88H80.0617C79.5617 308.74 77.8617 310.26 75.2417 310.26C71.8417 310.26 69.9617 307.82 69.9617 304.64C69.9617 301.24 72.2417 299.06 75.1817 299.06C78.4617 299.06 80.4417 301.82 80.2017 305.22H71.9217ZM71.9417 303.66H78.2817C78.2417 302.14 77.1017 300.62 75.1817 300.62C73.5617 300.62 72.1017 301.5 71.9417 303.66ZM88.8889 295.5V300.94C89.5489 299.8 90.6889 299.06 92.4089 299.06C94.8689 299.06 97.0089 301.12 97.0089 304.66C97.0089 308.22 94.8689 310.26 92.4089 310.26C90.6889 310.26 89.5489 309.52 88.8889 308.38V310H87.0689V295.5H88.8889ZM91.9489 308.7C93.8089 308.7 95.0289 307.22 95.0289 304.66C95.0289 302.1 93.8089 300.62 91.9489 300.62C90.3289 300.62 88.8089 301.82 88.8089 304.66C88.8089 307.5 90.3289 308.7 91.9489 308.7ZM98.4406 307.16C98.4406 304.62 101.301 303.88 105.721 303.38V303.12C105.721 301.16 104.621 300.5 103.281 300.5C101.781 300.5 100.901 301.32 100.821 302.64H98.9406C99.1206 300.32 101.161 299.02 103.261 299.02C106.221 299.02 107.561 300.44 107.541 303.46L107.521 305.94C107.501 307.74 107.601 308.98 107.801 310H105.961C105.901 309.6 105.841 309.16 105.821 308.52C105.161 309.62 104.041 310.26 102.141 310.26C100.121 310.26 98.4406 309.14 98.4406 307.16ZM105.861 304.82C102.561 305.16 100.461 305.64 100.461 307.12C100.461 308.14 101.241 308.82 102.541 308.82C104.241 308.82 105.861 308.04 105.861 305.5V304.82ZM115.613 301.14C115.233 301.1 114.893 301.06 114.593 301.06C112.913 301.06 112.073 302 112.073 304.36V310H110.253V299.24H112.033V301.12C112.573 299.9 113.673 299.22 115.073 299.18C115.253 299.18 115.413 299.18 115.613 299.2V301.14ZM119.182 295.5V300.94C119.842 299.8 120.982 299.06 122.702 299.06C125.162 299.06 127.302 301.12 127.302 304.66C127.302 308.22 125.162 310.26 122.702 310.26C120.982 310.26 119.842 309.52 119.182 308.38V310H117.362V295.5H119.182ZM122.242 308.7C124.102 308.7 125.322 307.22 125.322 304.66C125.322 302.1 124.102 300.62 122.242 300.62C120.622 300.62 119.102 301.82 119.102 304.66C119.102 307.5 120.622 308.7 122.242 308.7ZM130.75 305.22C130.83 307.54 132.47 308.66 134.07 308.66C135.67 308.66 136.55 307.94 137.01 306.88H138.89C138.39 308.74 136.69 310.26 134.07 310.26C130.67 310.26 128.79 307.82 128.79 304.64C128.79 301.24 131.07 299.06 134.01 299.06C137.29 299.06 139.27 301.82 139.03 305.22H130.75ZM130.77 303.66H137.11C137.07 302.14 135.93 300.62 134.01 300.62C132.39 300.62 130.93 301.5 130.77 303.66ZM142.971 310H141.151V295.5H142.971V310ZM147.678 310H145.858V295.5H147.678V310ZM157.131 295.5V297.7H155.311V295.5H157.131ZM157.131 299.24V310H155.311V299.24H157.131ZM166.178 302.38C165.898 301.1 164.898 300.6 163.638 300.6C162.578 300.6 161.378 300.98 161.378 301.96C161.378 302.82 161.978 303.22 163.018 303.42L164.538 303.72C166.498 304.1 168.218 304.84 168.218 306.92C168.218 309.04 166.298 310.26 163.838 310.26C161.018 310.26 159.418 308.4 159.218 306.52H161.138C161.418 307.9 162.278 308.72 163.878 308.72C165.258 308.72 166.378 308.12 166.378 307.12C166.378 306.04 165.358 305.58 164.198 305.34L162.598 305.02C161.138 304.72 159.538 304.04 159.538 302.04C159.538 300.14 161.458 299.04 163.838 299.04C166.158 299.04 167.738 300.34 168.078 302.38H166.178ZM184.892 304.66C184.892 308.56 182.232 310.26 179.732 310.26C177.232 310.26 174.572 308.56 174.572 304.66C174.572 300.76 177.232 299.06 179.732 299.06C182.232 299.06 184.892 300.76 184.892 304.66ZM179.732 308.66C181.372 308.66 182.952 307.42 182.952 304.66C182.952 301.8 181.372 300.66 179.732 300.66C178.092 300.66 176.512 301.72 176.512 304.66C176.512 307.52 178.092 308.66 179.732 308.66ZM188.889 300.86C189.509 299.84 190.549 299.06 192.369 299.06C194.969 299.06 195.909 300.74 195.909 303.2V310H194.089V303.74C194.089 302.08 193.809 300.64 191.729 300.64C189.969 300.64 188.889 301.86 188.889 304.16V310H187.069V299.24H188.889V300.86ZM203.898 296.54H205.718V299.24H207.758V300.7H205.718V307.08C205.718 308.2 205.798 308.48 206.838 308.48H207.758V310H206.438C204.378 310 203.898 309.54 203.898 307.3V300.7H202.198V299.24H203.898V296.54ZM211.897 300.86C212.517 299.84 213.557 299.06 215.377 299.06C217.977 299.06 218.917 300.74 218.917 303.2V310H217.097V303.74C217.097 302.08 216.817 300.64 214.737 300.64C212.977 300.64 211.897 301.86 211.897 304.16V310H210.077V295.5H211.897V300.86ZM222.859 305.22C222.939 307.54 224.579 308.66 226.179 308.66C227.779 308.66 228.659 307.94 229.119 306.88H230.999C230.499 308.74 228.799 310.26 226.179 310.26C222.779 310.26 220.899 307.82 220.899 304.64C220.899 301.24 223.179 299.06 226.119 299.06C229.399 299.06 231.379 301.82 231.139 305.22H222.859ZM222.879 303.66H229.219C229.179 302.14 228.039 300.62 226.119 300.62C224.499 300.62 223.039 301.5 222.879 303.66ZM238.466 298.46C238.466 296.22 238.926 295.5 241.366 295.5H242.306V297.02H241.406C240.446 297.02 240.286 297.24 240.286 298.36V299.24H242.306V300.7H240.286V310H238.466V300.7H236.966V299.24H238.466V298.46ZM246.096 310H244.276V295.5H246.096V310ZM258.603 304.66C258.603 308.56 255.943 310.26 253.443 310.26C250.943 310.26 248.283 308.56 248.283 304.66C248.283 300.76 250.943 299.06 253.443 299.06C255.943 299.06 258.603 300.76 258.603 304.66ZM253.443 308.66C255.083 308.66 256.663 307.42 256.663 304.66C256.663 301.8 255.083 300.66 253.443 300.66C251.803 300.66 250.223 301.72 250.223 304.66C250.223 307.52 251.803 308.66 253.443 308.66ZM270.556 304.66C270.556 308.56 267.896 310.26 265.396 310.26C262.896 310.26 260.236 308.56 260.236 304.66C260.236 300.76 262.896 299.06 265.396 299.06C267.896 299.06 270.556 300.76 270.556 304.66ZM265.396 308.66C267.036 308.66 268.616 307.42 268.616 304.66C268.616 301.8 267.036 300.66 265.396 300.66C263.756 300.66 262.176 301.72 262.176 304.66C262.176 307.52 263.756 308.66 265.396 308.66ZM278.093 301.14C277.713 301.1 277.373 301.06 277.073 301.06C275.393 301.06 274.553 302 274.553 304.36V310H272.733V299.24H274.513V301.12C275.053 299.9 276.153 299.22 277.553 299.18C277.733 299.18 277.893 299.18 278.093 299.2V301.14ZM283.788 305.38V303.66H296.968V305.38H283.788ZM305.608 295.5V300.94C306.268 299.8 307.408 299.06 309.128 299.06C311.588 299.06 313.728 301.12 313.728 304.66C313.728 308.22 311.588 310.26 309.128 310.26C307.408 310.26 306.268 309.52 305.608 308.38V310H303.788V295.5H305.608ZM308.668 308.7C310.528 308.7 311.748 307.22 311.748 304.66C311.748 302.1 310.528 300.62 308.668 300.62C307.048 300.62 305.528 301.82 305.528 304.66C305.528 307.5 307.048 308.7 308.668 308.7ZM317.176 305.22C317.256 307.54 318.896 308.66 320.496 308.66C322.096 308.66 322.976 307.94 323.436 306.88H325.316C324.816 308.74 323.116 310.26 320.496 310.26C317.096 310.26 315.216 307.82 315.216 304.64C315.216 301.24 317.496 299.06 320.436 299.06C323.716 299.06 325.696 301.82 325.456 305.22H317.176ZM317.196 303.66H323.536C323.496 302.14 322.356 300.62 320.436 300.62C318.816 300.62 317.356 301.5 317.196 303.66ZM329.397 300.86C330.017 299.84 331.057 299.06 332.877 299.06C335.477 299.06 336.417 300.74 336.417 303.2V310H334.597V303.74C334.597 302.08 334.317 300.64 332.237 300.64C330.477 300.64 329.397 301.86 329.397 304.16V310H327.577V299.24H329.397V300.86ZM346.519 295.5H348.339V310H346.519V308.38C345.859 309.52 344.719 310.26 342.999 310.26C340.539 310.26 338.399 308.22 338.399 304.66C338.399 301.12 340.539 299.06 342.999 299.06C344.719 299.06 345.859 299.8 346.519 300.94V295.5ZM343.459 300.62C341.599 300.62 340.379 302.1 340.379 304.66C340.379 307.22 341.599 308.7 343.459 308.7C345.079 308.7 346.599 307.5 346.599 304.66C346.599 301.82 345.079 300.62 343.459 300.62ZM59.82 321.5H61.64V336H59.82V334.38C59.16 335.52 58.02 336.26 56.3 336.26C53.84 336.26 51.7 334.22 51.7 330.66C51.7 327.12 53.84 325.06 56.3 325.06C58.02 325.06 59.16 325.8 59.82 326.94V321.5ZM56.76 326.62C54.9 326.62 53.68 328.1 53.68 330.66C53.68 333.22 54.9 334.7 56.76 334.7C58.38 334.7 59.9 333.5 59.9 330.66C59.9 327.82 58.38 326.62 56.76 326.62ZM74.1303 330.66C74.1303 334.56 71.4703 336.26 68.9703 336.26C66.4703 336.26 63.8103 334.56 63.8103 330.66C63.8103 326.76 66.4703 325.06 68.9703 325.06C71.4703 325.06 74.1303 326.76 74.1303 330.66ZM68.9703 334.66C70.6103 334.66 72.1903 333.42 72.1903 330.66C72.1903 327.8 70.6103 326.66 68.9703 326.66C67.3303 326.66 65.7503 327.72 65.7503 330.66C65.7503 333.52 67.3303 334.66 68.9703 334.66ZM81.0295 325.24H82.9095L85.0495 333.2L87.1095 325.24H89.0695L85.9695 336H84.3095L81.9295 327.34L79.6295 336H77.9695L74.8695 325.24H76.8295L78.8895 333.2L81.0295 325.24ZM92.4241 326.86C93.0441 325.84 94.0841 325.06 95.9041 325.06C98.5041 325.06 99.4441 326.74 99.4441 329.2V336H97.6241V329.74C97.6241 328.08 97.3441 326.64 95.2641 326.64C93.5041 326.64 92.4241 327.86 92.4241 330.16V336H90.6041V325.24H92.4241V326.86ZM102.183 333.7H104.483V336.16L103.263 338.78H102.103L103.163 336H102.183V333.7ZM119.211 325.24H121.031V334.56C121.031 336.76 120.631 337.66 120.011 338.34C119.231 339.24 117.891 339.76 116.291 339.76C113.851 339.76 112.211 338.64 111.871 336.46H113.811C114.051 337.42 114.631 338.16 116.311 338.16C117.291 338.16 118.031 337.88 118.511 337.36C118.911 336.94 119.211 336.44 119.211 334.98V333.96C118.551 335.1 117.511 335.82 115.791 335.82C113.411 335.82 111.231 333.9 111.231 330.44C111.231 327 113.411 325.06 115.791 325.06C117.511 325.06 118.551 325.8 119.211 326.94V325.24ZM116.251 326.62C114.471 326.62 113.211 328 113.211 330.44C113.211 332.9 114.471 334.28 116.251 334.28C117.871 334.28 119.291 333.18 119.291 330.44C119.291 327.72 117.871 326.62 116.251 326.62ZM129.265 327.14C128.885 327.1 128.545 327.06 128.245 327.06C126.565 327.06 125.725 328 125.725 330.36V336H123.905V325.24H125.685V327.12C126.225 325.9 127.325 325.22 128.725 325.18C128.905 325.18 129.065 325.18 129.265 325.2V327.14ZM129.984 333.16C129.984 330.62 132.844 329.88 137.264 329.38V329.12C137.264 327.16 136.164 326.5 134.824 326.5C133.324 326.5 132.444 327.32 132.364 328.64H130.484C130.664 326.32 132.704 325.02 134.804 325.02C137.764 325.02 139.104 326.44 139.084 329.46L139.064 331.94C139.044 333.74 139.144 334.98 139.344 336H137.504C137.444 335.6 137.384 335.16 137.364 334.52C136.704 335.62 135.584 336.26 133.684 336.26C131.664 336.26 129.984 335.14 129.984 333.16ZM137.404 330.82C134.104 331.16 132.004 331.64 132.004 333.12C132.004 334.14 132.784 334.82 134.084 334.82C135.784 334.82 137.404 334.04 137.404 331.5V330.82ZM143.615 321.5V326.94C144.275 325.8 145.415 325.06 147.135 325.06C149.595 325.06 151.735 327.12 151.735 330.66C151.735 334.22 149.595 336.26 147.135 336.26C145.415 336.26 144.275 335.52 143.615 334.38V336H141.795V321.5H143.615ZM146.675 334.7C148.535 334.7 149.755 333.22 149.755 330.66C149.755 328.1 148.535 326.62 146.675 326.62C145.055 326.62 143.535 327.82 143.535 330.66C143.535 333.5 145.055 334.7 146.675 334.7ZM160.373 321.5V323.7H158.553V321.5H160.373ZM160.373 325.24V336H158.553V325.24H160.373ZM163.78 322.54H165.6V325.24H167.64V326.7H165.6V333.08C165.6 334.2 165.68 334.48 166.72 334.48H167.64V336H166.32C164.26 336 163.78 335.54 163.78 333.3V326.7H162.08V325.24H163.78V322.54ZM169.624 333.7H171.924V336.16L170.704 338.78H169.544L170.604 336H169.624V333.7ZM178.773 333.16C178.773 330.62 181.633 329.88 186.053 329.38V329.12C186.053 327.16 184.953 326.5 183.613 326.5C182.113 326.5 181.233 327.32 181.153 328.64H179.273C179.453 326.32 181.493 325.02 183.593 325.02C186.553 325.02 187.893 326.44 187.873 329.46L187.853 331.94C187.833 333.74 187.933 334.98 188.133 336H186.293C186.233 335.6 186.173 335.16 186.153 334.52C185.493 335.62 184.373 336.26 182.473 336.26C180.453 336.26 178.773 335.14 178.773 333.16ZM186.193 330.82C182.893 331.16 180.793 331.64 180.793 333.12C180.793 334.14 181.573 334.82 182.873 334.82C184.573 334.82 186.193 334.04 186.193 331.5V330.82ZM192.405 326.86C193.025 325.84 194.065 325.06 195.885 325.06C198.485 325.06 199.425 326.74 199.425 329.2V336H197.605V329.74C197.605 328.08 197.325 326.64 195.245 326.64C193.485 326.64 192.405 327.86 192.405 330.16V336H190.585V325.24H192.405V326.86ZM209.527 321.5H211.347V336H209.527V334.38C208.867 335.52 207.727 336.26 206.007 336.26C203.547 336.26 201.407 334.22 201.407 330.66C201.407 327.12 203.547 325.06 206.007 325.06C207.727 325.06 208.867 325.8 209.527 326.94V321.5ZM206.467 326.62C204.607 326.62 203.387 328.1 203.387 330.66C203.387 333.22 204.607 334.7 206.467 334.7C208.087 334.7 209.607 333.5 209.607 330.66C209.607 327.82 208.087 326.62 206.467 326.62ZM225.123 328.38C224.843 327.1 223.843 326.6 222.583 326.6C221.523 326.6 220.323 326.98 220.323 327.96C220.323 328.82 220.923 329.22 221.963 329.42L223.483 329.72C225.443 330.1 227.163 330.84 227.163 332.92C227.163 335.04 225.243 336.26 222.783 336.26C219.963 336.26 218.363 334.4 218.163 332.52H220.083C220.363 333.9 221.223 334.72 222.823 334.72C224.203 334.72 225.323 334.12 225.323 333.12C225.323 332.04 224.303 331.58 223.143 331.34L221.543 331.02C220.083 330.72 218.483 330.04 218.483 328.04C218.483 326.14 220.403 325.04 222.783 325.04C225.103 325.04 226.683 326.34 227.023 328.38H225.123ZM229.991 322.54H231.811V325.24H233.851V326.7H231.811V333.08C231.811 334.2 231.891 334.48 232.931 334.48H233.851V336H232.531C230.471 336 229.991 335.54 229.991 333.3V326.7H228.291V325.24H229.991V322.54ZM235.335 333.16C235.335 330.62 238.195 329.88 242.615 329.38V329.12C242.615 327.16 241.515 326.5 240.175 326.5C238.675 326.5 237.795 327.32 237.715 328.64H235.835C236.015 326.32 238.055 325.02 240.155 325.02C243.115 325.02 244.455 326.44 244.435 329.46L244.415 331.94C244.395 333.74 244.495 334.98 244.695 336H242.855C242.795 335.6 242.735 335.16 242.715 334.52C242.055 335.62 240.935 336.26 239.035 336.26C237.015 336.26 235.335 335.14 235.335 333.16ZM242.755 330.82C239.455 331.16 237.355 331.64 237.355 333.12C237.355 334.14 238.135 334.82 239.435 334.82C241.135 334.82 242.755 334.04 242.755 331.5V330.82ZM248.967 326.86C249.587 325.84 250.627 325.06 252.447 325.06C255.047 325.06 255.987 326.74 255.987 329.2V336H254.167V329.74C254.167 328.08 253.887 326.64 251.807 326.64C250.047 326.64 248.967 327.86 248.967 330.16V336H247.147V325.24H248.967V326.86ZM266.09 321.5H267.91V336H266.09V334.38C265.43 335.52 264.29 336.26 262.57 336.26C260.11 336.26 257.97 334.22 257.97 330.66C257.97 327.12 260.11 325.06 262.57 325.06C264.29 325.06 265.43 325.8 266.09 326.94V321.5ZM263.03 326.62C261.17 326.62 259.95 328.1 259.95 330.66C259.95 333.22 261.17 334.7 263.03 334.7C264.65 334.7 266.17 333.5 266.17 330.66C266.17 327.82 264.65 326.62 263.03 326.62ZM282.186 334.46C281.566 335.48 280.586 336.26 278.806 336.26C276.306 336.26 275.366 334.58 275.366 332.12V325.24H277.186V331.58C277.186 333.24 277.466 334.68 279.446 334.68C281.166 334.68 282.186 333.46 282.186 331.16V325.24H284.006V336H282.186V334.46ZM288.713 325.24V326.94C289.373 325.8 290.513 325.06 292.233 325.06C294.693 325.06 296.833 327.12 296.833 330.66C296.833 334.22 294.693 336.26 292.233 336.26C290.513 336.26 289.373 335.52 288.713 334.38V339.5H286.893V325.24H288.713ZM291.773 334.7C293.633 334.7 294.853 333.22 294.853 330.66C294.853 328.1 293.633 326.62 291.773 326.62C290.153 326.62 288.633 327.82 288.633 330.66C288.633 333.5 290.153 334.7 291.773 334.7ZM298.433 333.7H300.733V336.16L299.513 338.78H298.353L299.413 336H298.433V333.7ZM307.581 333.16C307.581 330.62 310.441 329.88 314.861 329.38V329.12C314.861 327.16 313.761 326.5 312.421 326.5C310.921 326.5 310.041 327.32 309.961 328.64H308.081C308.261 326.32 310.301 325.02 312.401 325.02C315.361 325.02 316.701 326.44 316.681 329.46L316.661 331.94C316.641 333.74 316.741 334.98 316.941 336H315.101C315.041 335.6 314.981 335.16 314.961 334.52C314.301 335.62 313.181 336.26 311.281 336.26C309.261 336.26 307.581 335.14 307.581 333.16ZM315.001 330.82C311.701 331.16 309.601 331.64 309.601 333.12C309.601 334.14 310.381 334.82 311.681 334.82C313.381 334.82 315.001 334.04 315.001 331.5V330.82ZM325.553 328.38C325.273 327.1 324.273 326.6 323.013 326.6C321.953 326.6 320.753 326.98 320.753 327.96C320.753 328.82 321.353 329.22 322.393 329.42L323.913 329.72C325.873 330.1 327.593 330.84 327.593 332.92C327.593 335.04 325.673 336.26 323.213 336.26C320.393 336.26 318.793 334.4 318.593 332.52H320.513C320.793 333.9 321.653 334.72 323.253 334.72C324.633 334.72 325.753 334.12 325.753 333.12C325.753 332.04 324.733 331.58 323.573 331.34L321.973 331.02C320.513 330.72 318.913 330.04 318.913 328.04C318.913 326.14 320.833 325.04 323.213 325.04C325.533 325.04 327.113 326.34 327.453 328.38H325.553ZM336.467 321.5V323.7H334.647V321.5H336.467ZM336.467 325.24V336H334.647V325.24H336.467ZM339.814 324.46C339.814 322.22 340.274 321.5 342.714 321.5H343.654V323.02H342.754C341.794 323.02 341.634 323.24 341.634 324.36V325.24H343.654V326.7H341.634V336H339.814V326.7H338.314V325.24H339.814V324.46ZM54.26 362H52.44V347.5H54.26V362ZM58.967 347.5V349.7H57.147V347.5H58.967ZM58.967 351.24V362H57.147V351.24H58.967ZM62.3141 350.46C62.3141 348.22 62.7741 347.5 65.2141 347.5H66.1541V349.02H65.2541C64.2941 349.02 64.1341 349.24 64.1341 350.36V351.24H66.1541V352.7H64.1341V362H62.3141V352.7H60.8141V351.24H62.3141V350.46ZM68.6436 348.54H70.4636V351.24H72.5036V352.7H70.4636V359.08C70.4636 360.2 70.5436 360.48 71.5836 360.48H72.5036V362H71.1836C69.1236 362 68.6436 361.54 68.6436 359.3V352.7H66.9436V351.24H68.6436V348.54ZM76.6428 347.5V349.7H74.8228V347.5H76.6428ZM76.6428 351.24V362H74.8228V351.24H76.6428ZM81.3498 352.86C81.9698 351.84 83.0098 351.06 84.8298 351.06C87.4298 351.06 88.3698 352.74 88.3698 355.2V362H86.5498V355.74C86.5498 354.08 86.2698 352.64 84.1898 352.64C82.4298 352.64 81.3498 353.86 81.3498 356.16V362H79.5298V351.24H81.3498V352.86ZM98.3323 351.24H100.152V360.56C100.152 362.76 99.7523 363.66 99.1323 364.34C98.3523 365.24 97.0123 365.76 95.4123 365.76C92.9723 365.76 91.3323 364.64 90.9923 362.46H92.9323C93.1723 363.42 93.7523 364.16 95.4323 364.16C96.4123 364.16 97.1523 363.88 97.6323 363.36C98.0323 362.94 98.3323 362.44 98.3323 360.98V359.96C97.6723 361.1 96.6323 361.82 94.9123 361.82C92.5323 361.82 90.3523 359.9 90.3523 356.44C90.3523 353 92.5323 351.06 94.9123 351.06C96.6323 351.06 97.6723 351.8 98.3323 352.94V351.24ZM95.3723 352.62C93.5923 352.62 92.3323 354 92.3323 356.44C92.3323 358.9 93.5923 360.28 95.3723 360.28C96.9923 360.28 98.4123 359.18 98.4123 356.44C98.4123 353.72 96.9923 352.62 95.3723 352.62ZM107.132 359.16C107.132 356.62 109.992 355.88 114.412 355.38V355.12C114.412 353.16 113.312 352.5 111.972 352.5C110.472 352.5 109.592 353.32 109.512 354.64H107.632C107.812 352.32 109.852 351.02 111.952 351.02C114.912 351.02 116.252 352.44 116.232 355.46L116.212 357.94C116.192 359.74 116.292 360.98 116.492 362H114.652C114.592 361.6 114.532 361.16 114.512 360.52C113.852 361.62 112.732 362.26 110.832 362.26C108.812 362.26 107.132 361.14 107.132 359.16ZM114.552 356.82C111.252 357.16 109.152 357.64 109.152 359.12C109.152 360.14 109.932 360.82 111.232 360.82C112.932 360.82 114.552 360.04 114.552 357.5V356.82ZM125.51 352.86C126.13 351.84 127.17 351.06 128.99 351.06C131.59 351.06 132.53 352.74 132.53 355.2V362H130.71V355.74C130.71 354.08 130.43 352.64 128.35 352.64C126.59 352.64 125.51 353.86 125.51 356.16V362H123.69V347.5H125.51V352.86ZM136.473 357.22C136.553 359.54 138.193 360.66 139.793 360.66C141.393 360.66 142.273 359.94 142.733 358.88H144.613C144.113 360.74 142.413 362.26 139.793 362.26C136.393 362.26 134.513 359.82 134.513 356.64C134.513 353.24 136.793 351.06 139.733 351.06C143.013 351.06 144.993 353.82 144.753 357.22H136.473ZM136.493 355.66H142.833C142.793 354.14 141.653 352.62 139.733 352.62C138.113 352.62 136.653 353.5 136.493 355.66ZM146.136 359.16C146.136 356.62 148.996 355.88 153.416 355.38V355.12C153.416 353.16 152.316 352.5 150.976 352.5C149.476 352.5 148.596 353.32 148.516 354.64H146.636C146.816 352.32 148.856 351.02 150.956 351.02C153.916 351.02 155.256 352.44 155.236 355.46L155.216 357.94C155.196 359.74 155.296 360.98 155.496 362H153.656C153.596 361.6 153.536 361.16 153.516 360.52C152.856 361.62 151.736 362.26 149.836 362.26C147.816 362.26 146.136 361.14 146.136 359.16ZM153.556 356.82C150.256 357.16 148.156 357.64 148.156 359.12C148.156 360.14 148.936 360.82 150.236 360.82C151.936 360.82 153.556 360.04 153.556 357.5V356.82ZM161.35 359.48L164.27 351.24H166.15L162.09 362H160.47L156.41 351.24H158.43L161.35 359.48ZM175.633 351.24L171.793 362.46C171.013 364.8 170.453 365.5 168.053 365.5H167.113V363.98H167.853C169.053 363.98 169.633 363.9 170.113 362.22L170.193 362L166.312 351.24H168.333L171.073 359.54L173.733 351.24H175.633ZM183.635 347.5V352.94C184.295 351.8 185.435 351.06 187.155 351.06C189.615 351.06 191.755 353.12 191.755 356.66C191.755 360.22 189.615 362.26 187.155 362.26C185.435 362.26 184.295 361.52 183.635 360.38V362H181.815V347.5H183.635ZM186.695 360.7C188.555 360.7 189.775 359.22 189.775 356.66C189.775 354.1 188.555 352.62 186.695 352.62C185.075 352.62 183.555 353.82 183.555 356.66C183.555 359.5 185.075 360.7 186.695 360.7ZM203.603 356.66C203.603 360.56 200.943 362.26 198.443 362.26C195.943 362.26 193.283 360.56 193.283 356.66C193.283 352.76 195.943 351.06 198.443 351.06C200.943 351.06 203.603 352.76 203.603 356.66ZM198.443 360.66C200.083 360.66 201.663 359.42 201.663 356.66C201.663 353.8 200.083 352.66 198.443 352.66C196.803 352.66 195.223 353.72 195.223 356.66C195.223 359.52 196.803 360.66 198.443 360.66ZM210.267 356.38L214.287 362H212.107L209.187 357.9L206.287 362H204.207L208.167 356.46L204.447 351.24H206.627L209.247 354.94L211.887 351.24H213.927L210.267 356.38ZM221.084 350.46C221.084 348.22 221.544 347.5 223.984 347.5H224.924V349.02H224.024C223.064 349.02 222.904 349.24 222.904 350.36V351.24H224.924V352.7H222.904V362H221.084V352.7H219.584V351.24H221.084V350.46ZM232.253 353.14C231.873 353.1 231.533 353.06 231.233 353.06C229.553 353.06 228.713 354 228.713 356.36V362H226.893V351.24H228.673V353.12C229.213 351.9 230.313 351.22 231.713 351.18C231.893 351.18 232.053 351.18 232.253 351.2V353.14ZM243.427 356.66C243.427 360.56 240.767 362.26 238.267 362.26C235.767 362.26 233.107 360.56 233.107 356.66C233.107 352.76 235.767 351.06 238.267 351.06C240.767 351.06 243.427 352.76 243.427 356.66ZM238.267 360.66C239.907 360.66 241.487 359.42 241.487 356.66C241.487 353.8 239.907 352.66 238.267 352.66C236.627 352.66 235.047 353.72 235.047 356.66C235.047 359.52 236.627 360.66 238.267 360.66ZM247.424 362H245.604V351.24H247.424V352.86C248.044 351.84 249.044 351.06 250.664 351.06C252.304 351.06 253.284 351.78 253.764 352.96C254.624 351.64 255.884 351.06 257.384 351.06C259.884 351.06 260.864 352.74 260.864 355.2V362H259.044V355.74C259.044 354.08 258.724 352.64 256.744 352.64C255.184 352.64 254.144 353.86 254.144 356.16V362H252.324V355.74C252.324 354.08 252.004 352.64 250.024 352.64C248.464 352.64 247.424 353.86 247.424 356.16V362ZM268.858 348.54H270.678V351.24H272.718V352.7H270.678V359.08C270.678 360.2 270.758 360.48 271.798 360.48H272.718V362H271.398C269.338 362 268.858 361.54 268.858 359.3V352.7H267.158V351.24H268.858V348.54ZM276.858 352.86C277.478 351.84 278.518 351.06 280.338 351.06C282.938 351.06 283.878 352.74 283.878 355.2V362H282.058V355.74C282.058 354.08 281.778 352.64 279.698 352.64C277.938 352.64 276.858 353.86 276.858 356.16V362H275.038V347.5H276.858V352.86ZM287.82 357.22C287.9 359.54 289.54 360.66 291.14 360.66C292.74 360.66 293.62 359.94 294.08 358.88H295.96C295.46 360.74 293.76 362.26 291.14 362.26C287.74 362.26 285.86 359.82 285.86 356.64C285.86 353.24 288.14 351.06 291.08 351.06C294.36 351.06 296.34 353.82 296.1 357.22H287.82ZM287.84 355.66H294.18C294.14 354.14 293 352.62 291.08 352.62C289.46 352.62 288 353.5 287.84 355.66ZM310.207 351.24H312.027V360.56C312.027 362.76 311.627 363.66 311.007 364.34C310.227 365.24 308.887 365.76 307.287 365.76C304.847 365.76 303.207 364.64 302.867 362.46H304.807C305.047 363.42 305.627 364.16 307.307 364.16C308.287 364.16 309.027 363.88 309.507 363.36C309.907 362.94 310.207 362.44 310.207 360.98V359.96C309.547 361.1 308.507 361.82 306.787 361.82C304.407 361.82 302.227 359.9 302.227 356.44C302.227 353 304.407 351.06 306.787 351.06C308.507 351.06 309.547 351.8 310.207 352.94V351.24ZM307.247 352.62C305.467 352.62 304.207 354 304.207 356.44C304.207 358.9 305.467 360.28 307.247 360.28C308.867 360.28 310.287 359.18 310.287 356.44C310.287 353.72 308.867 352.62 307.247 352.62ZM320.261 353.14C319.881 353.1 319.541 353.06 319.241 353.06C317.561 353.06 316.721 354 316.721 356.36V362H314.901V351.24H316.681V353.12C317.221 351.9 318.321 351.22 319.721 351.18C319.901 351.18 320.061 351.18 320.261 351.2V353.14ZM331.435 356.66C331.435 360.56 328.775 362.26 326.275 362.26C323.775 362.26 321.115 360.56 321.115 356.66C321.115 352.76 323.775 351.06 326.275 351.06C328.775 351.06 331.435 352.76 331.435 356.66ZM326.275 360.66C327.915 360.66 329.495 359.42 329.495 356.66C329.495 353.8 327.915 352.66 326.275 352.66C324.635 352.66 323.055 353.72 323.055 356.66C323.055 359.52 324.635 360.66 326.275 360.66ZM340.272 360.46C339.652 361.48 338.672 362.26 336.892 362.26C334.392 362.26 333.452 360.58 333.452 358.12V351.24H335.272V357.58C335.272 359.24 335.552 360.68 337.532 360.68C339.252 360.68 340.272 359.46 340.272 357.16V351.24H342.092V362H340.272V360.46ZM346.799 352.86C347.419 351.84 348.459 351.06 350.279 351.06C352.879 351.06 353.819 352.74 353.819 355.2V362H351.999V355.74C351.999 354.08 351.719 352.64 349.639 352.64C347.879 352.64 346.799 353.86 346.799 356.16V362H344.979V351.24H346.799V352.86ZM363.922 347.5H365.742V362H363.922V360.38C363.262 361.52 362.122 362.26 360.402 362.26C357.942 362.26 355.802 360.22 355.802 356.66C355.802 353.12 357.942 351.06 360.402 351.06C362.122 351.06 363.262 351.8 363.922 352.94V347.5ZM360.862 352.62C359.002 352.62 357.782 354.1 357.782 356.66C357.782 359.22 359.002 360.7 360.862 360.7C362.482 360.7 364.002 359.5 364.002 356.66C364.002 353.82 362.482 352.62 360.862 352.62ZM37.4564 387.04C37.4564 390.4 33.9564 393.38 29.8964 396.3H37.8564V398H27.4164V396.36C32.5364 392.58 35.5364 389.84 35.5364 387.28C35.5364 385.78 34.5364 384.76 32.8164 384.76C31.2564 384.76 29.7364 385.62 29.6964 388.02H27.8164C27.7764 385.14 29.7764 383.24 32.8564 383.24C35.5364 383.24 37.4564 384.6 37.4564 387.04ZM40.7311 398V395.7H43.0311V398H40.7311ZM54.26 387.24V388.94C54.92 387.8 56.06 387.06 57.78 387.06C60.24 387.06 62.38 389.12 62.38 392.66C62.38 396.22 60.24 398.26 57.78 398.26C56.06 398.26 54.92 397.52 54.26 396.38V401.5H52.44V387.24H54.26ZM57.32 396.7C59.18 396.7 60.4 395.22 60.4 392.66C60.4 390.1 59.18 388.62 57.32 388.62C55.7 388.62 54.18 389.82 54.18 392.66C54.18 395.5 55.7 396.7 57.32 396.7ZM71.1703 396.46C70.5503 397.48 69.5703 398.26 67.7903 398.26C65.2903 398.26 64.3503 396.58 64.3503 394.12V387.24H66.1703V393.58C66.1703 395.24 66.4503 396.68 68.4303 396.68C70.1503 396.68 71.1703 395.46 71.1703 393.16V387.24H72.9903V398H71.1703V396.46ZM82.0375 390.38C81.7575 389.1 80.7575 388.6 79.4975 388.6C78.4375 388.6 77.2375 388.98 77.2375 389.96C77.2375 390.82 77.8375 391.22 78.8775 391.42L80.3975 391.72C82.3575 392.1 84.0775 392.84 84.0775 394.92C84.0775 397.04 82.1575 398.26 79.6975 398.26C76.8775 398.26 75.2775 396.4 75.0775 394.52H76.9975C77.2775 395.9 78.1375 396.72 79.7375 396.72C81.1175 396.72 82.2375 396.12 82.2375 395.12C82.2375 394.04 81.2175 393.58 80.0575 393.34L78.4575 393.02C76.9975 392.72 75.3975 392.04 75.3975 390.04C75.3975 388.14 77.3175 387.04 79.6975 387.04C82.0175 387.04 83.5975 388.34 83.9375 390.38H82.0375ZM88.2053 388.86C88.8253 387.84 89.8653 387.06 91.6853 387.06C94.2853 387.06 95.2253 388.74 95.2253 391.2V398H93.4053V391.74C93.4053 390.08 93.1253 388.64 91.0453 388.64C89.2853 388.64 88.2053 389.86 88.2053 392.16V398H86.3853V383.5H88.2053V388.86ZM103.214 384.54H105.034V387.24H107.074V388.7H105.034V395.08C105.034 396.2 105.114 396.48 106.154 396.48H107.074V398H105.754C103.694 398 103.214 397.54 103.214 395.3V388.7H101.514V387.24H103.214V384.54ZM111.213 388.86C111.833 387.84 112.873 387.06 114.693 387.06C117.293 387.06 118.233 388.74 118.233 391.2V398H116.413V391.74C116.413 390.08 116.133 388.64 114.053 388.64C112.293 388.64 111.213 389.86 111.213 392.16V398H109.393V383.5H111.213V388.86ZM122.176 393.22C122.256 395.54 123.896 396.66 125.496 396.66C127.096 396.66 127.976 395.94 128.436 394.88H130.316C129.816 396.74 128.116 398.26 125.496 398.26C122.096 398.26 120.216 395.82 120.216 392.64C120.216 389.24 122.496 387.06 125.436 387.06C128.716 387.06 130.696 389.82 130.456 393.22H122.176ZM122.196 391.66H128.536C128.496 390.14 127.356 388.62 125.436 388.62C123.816 388.62 122.356 389.5 122.196 391.66ZM137.783 386.46C137.783 384.22 138.243 383.5 140.683 383.5H141.623V385.02H140.723C139.763 385.02 139.603 385.24 139.603 386.36V387.24H141.623V388.7H139.603V398H137.783V388.7H136.283V387.24H137.783V386.46ZM145.412 398H143.592V383.5H145.412V398ZM157.919 392.66C157.919 396.56 155.259 398.26 152.759 398.26C150.259 398.26 147.599 396.56 147.599 392.66C147.599 388.76 150.259 387.06 152.759 387.06C155.259 387.06 157.919 388.76 157.919 392.66ZM152.759 396.66C154.399 396.66 155.979 395.42 155.979 392.66C155.979 389.8 154.399 388.66 152.759 388.66C151.119 388.66 149.539 389.72 149.539 392.66C149.539 395.52 151.119 396.66 152.759 396.66ZM169.873 392.66C169.873 396.56 167.213 398.26 164.713 398.26C162.213 398.26 159.553 396.56 159.553 392.66C159.553 388.76 162.213 387.06 164.713 387.06C167.213 387.06 169.873 388.76 169.873 392.66ZM164.713 396.66C166.353 396.66 167.933 395.42 167.933 392.66C167.933 389.8 166.353 388.66 164.713 388.66C163.073 388.66 161.493 389.72 161.493 392.66C161.493 395.52 163.073 396.66 164.713 396.66ZM177.409 389.14C177.029 389.1 176.689 389.06 176.389 389.06C174.709 389.06 173.869 390 173.869 392.36V398H172.049V387.24H173.829V389.12C174.369 387.9 175.469 387.22 176.869 387.18C177.049 387.18 177.209 387.18 177.409 387.2V389.14ZM188.725 387.24H190.605L192.745 395.2L194.805 387.24H196.765L193.665 398H192.005L189.625 389.34L187.325 398H185.665L182.565 387.24H184.525L186.585 395.2L188.725 387.24ZM200.119 383.5V385.7H198.299V383.5H200.119ZM200.119 387.24V398H198.299V387.24H200.119ZM203.526 384.54H205.346V387.24H207.386V388.7H205.346V395.08C205.346 396.2 205.426 396.48 206.466 396.48H207.386V398H206.066C204.006 398 203.526 397.54 203.526 395.3V388.7H201.826V387.24H203.526V384.54ZM211.526 388.86C212.146 387.84 213.186 387.06 215.006 387.06C217.606 387.06 218.546 388.74 218.546 391.2V398H216.726V391.74C216.726 390.08 216.446 388.64 214.366 388.64C212.606 388.64 211.526 389.86 211.526 392.16V398H209.706V383.5H211.526V388.86ZM233.894 387.24L230.054 398.46C229.274 400.8 228.714 401.5 226.314 401.5H225.374V399.98H226.114C227.314 399.98 227.894 399.9 228.374 398.22L228.454 398L224.574 387.24H226.594L229.334 395.54L231.994 387.24H233.894ZM244.755 392.66C244.755 396.56 242.095 398.26 239.595 398.26C237.095 398.26 234.435 396.56 234.435 392.66C234.435 388.76 237.095 387.06 239.595 387.06C242.095 387.06 244.755 388.76 244.755 392.66ZM239.595 396.66C241.235 396.66 242.815 395.42 242.815 392.66C242.815 389.8 241.235 388.66 239.595 388.66C237.955 388.66 236.375 389.72 236.375 392.66C236.375 395.52 237.955 396.66 239.595 396.66ZM253.592 396.46C252.972 397.48 251.992 398.26 250.212 398.26C247.712 398.26 246.772 396.58 246.772 394.12V387.24H248.592V393.58C248.592 395.24 248.872 396.68 250.852 396.68C252.572 396.68 253.592 395.46 253.592 393.16V387.24H255.412V398H253.592V396.46ZM263.659 389.14C263.279 389.1 262.939 389.06 262.639 389.06C260.959 389.06 260.119 390 260.119 392.36V398H258.299V387.24H260.079V389.12C260.619 387.9 261.719 387.22 263.119 387.18C263.299 387.18 263.459 387.18 263.659 387.2V389.14ZM271.975 398H270.155V383.5H271.975V398ZM276.082 393.22C276.162 395.54 277.802 396.66 279.402 396.66C281.002 396.66 281.882 395.94 282.342 394.88H284.222C283.722 396.74 282.022 398.26 279.402 398.26C276.002 398.26 274.122 395.82 274.122 392.64C274.122 389.24 276.402 387.06 279.342 387.06C282.622 387.06 284.602 389.82 284.362 393.22H276.082ZM276.102 391.66H282.442C282.402 390.14 281.262 388.62 279.342 388.62C277.722 388.62 276.262 389.5 276.102 391.66ZM293.821 387.24H295.641V396.56C295.641 398.76 295.241 399.66 294.621 400.34C293.841 401.24 292.501 401.76 290.901 401.76C288.461 401.76 286.821 400.64 286.481 398.46H288.421C288.661 399.42 289.241 400.16 290.921 400.16C291.901 400.16 292.641 399.88 293.121 399.36C293.521 398.94 293.821 398.44 293.821 396.98V395.96C293.161 397.1 292.121 397.82 290.401 397.82C288.021 397.82 285.841 395.9 285.841 392.44C285.841 389 288.021 387.06 290.401 387.06C292.121 387.06 293.161 387.8 293.821 388.94V387.24ZM290.861 388.62C289.081 388.62 287.821 390 287.821 392.44C287.821 394.9 289.081 396.28 290.861 396.28C292.481 396.28 293.901 395.18 293.901 392.44C293.901 389.72 292.481 388.62 290.861 388.62ZM304.674 390.38C304.394 389.1 303.394 388.6 302.134 388.6C301.074 388.6 299.874 388.98 299.874 389.96C299.874 390.82 300.474 391.22 301.514 391.42L303.034 391.72C304.994 392.1 306.714 392.84 306.714 394.92C306.714 397.04 304.794 398.26 302.334 398.26C299.514 398.26 297.914 396.4 297.714 394.52H299.634C299.914 395.9 300.774 396.72 302.374 396.72C303.754 396.72 304.874 396.12 304.874 395.12C304.874 394.04 303.854 393.58 302.694 393.34L301.094 393.02C299.634 392.72 298.034 392.04 298.034 390.04C298.034 388.14 299.954 387.04 302.334 387.04C304.654 387.04 306.234 388.34 306.574 390.38H304.674ZM308.687 395.7H310.987V398.16L309.767 400.78H308.607L309.667 398H308.687V395.7ZM320.295 398H318.475V383.5H320.295V398ZM324.402 393.22C324.482 395.54 326.122 396.66 327.722 396.66C329.322 396.66 330.202 395.94 330.662 394.88H332.542C332.042 396.74 330.342 398.26 327.722 398.26C324.322 398.26 322.442 395.82 322.442 392.64C322.442 389.24 324.722 387.06 327.662 387.06C330.942 387.06 332.922 389.82 332.682 393.22H324.402ZM324.422 391.66H330.762C330.722 390.14 329.582 388.62 327.662 388.62C326.042 388.62 324.582 389.5 324.422 391.66ZM335.323 384.54H337.143V387.24H339.183V388.7H337.143V395.08C337.143 396.2 337.223 396.48 338.263 396.48H339.183V398H337.863C335.803 398 335.323 397.54 335.323 395.3V388.7H333.623V387.24H335.323V384.54ZM346.573 384.54H348.393V387.24H350.433V388.7H348.393V395.08C348.393 396.2 348.473 396.48 349.513 396.48H350.433V398H349.113C347.053 398 346.573 397.54 346.573 395.3V388.7H344.873V387.24H346.573V384.54ZM354.573 388.86C355.193 387.84 356.233 387.06 358.053 387.06C360.653 387.06 361.592 388.74 361.592 391.2V398H359.773V391.74C359.773 390.08 359.493 388.64 357.413 388.64C355.653 388.64 354.573 389.86 354.573 392.16V398H352.753V383.5H354.573V388.86ZM365.535 393.22C365.615 395.54 367.255 396.66 368.855 396.66C370.455 396.66 371.335 395.94 371.795 394.88H373.675C373.175 396.74 371.475 398.26 368.855 398.26C365.455 398.26 363.575 395.82 363.575 392.64C363.575 389.24 365.855 387.06 368.795 387.06C372.075 387.06 374.055 389.82 373.815 393.22H365.535ZM365.555 391.66H371.895C371.855 390.14 370.715 388.62 368.795 388.62C367.175 388.62 365.715 389.5 365.555 391.66ZM54.26 409.5V414.94C54.92 413.8 56.06 413.06 57.78 413.06C60.24 413.06 62.38 415.12 62.38 418.66C62.38 422.22 60.24 424.26 57.78 424.26C56.06 424.26 54.92 423.52 54.26 422.38V424H52.44V409.5H54.26ZM57.32 422.7C59.18 422.7 60.4 421.22 60.4 418.66C60.4 416.1 59.18 414.62 57.32 414.62C55.7 414.62 54.18 415.82 54.18 418.66C54.18 421.5 55.7 422.7 57.32 422.7ZM63.8117 421.16C63.8117 418.62 66.6717 417.88 71.0917 417.38V417.12C71.0917 415.16 69.9917 414.5 68.6517 414.5C67.1517 414.5 66.2717 415.32 66.1917 416.64H64.3117C64.4917 414.32 66.5317 413.02 68.6317 413.02C71.5917 413.02 72.9317 414.44 72.9117 417.46L72.8917 419.94C72.8717 421.74 72.9717 422.98 73.1717 424H71.3317C71.2717 423.6 71.2117 423.16 71.1917 422.52C70.5317 423.62 69.4117 424.26 67.5117 424.26C65.4917 424.26 63.8117 423.14 63.8117 421.16ZM71.2317 418.82C67.9317 419.16 65.8317 419.64 65.8317 421.12C65.8317 422.14 66.6117 422.82 67.9117 422.82C69.6117 422.82 71.2317 422.04 71.2317 419.5V418.82ZM80.9836 415.14C80.6036 415.1 80.2636 415.06 79.9636 415.06C78.2836 415.06 77.4436 416 77.4436 418.36V424H75.6236V413.24H77.4036V415.12C77.9436 413.9 79.0436 413.22 80.4436 413.18C80.6236 413.18 80.7836 413.18 80.9836 413.2V415.14ZM93.6391 416.38C93.3591 415.1 92.3591 414.6 91.0991 414.6C90.0391 414.6 88.8391 414.98 88.8391 415.96C88.8391 416.82 89.4391 417.22 90.4791 417.42L91.9991 417.72C93.9591 418.1 95.6791 418.84 95.6791 420.92C95.6791 423.04 93.7591 424.26 91.2991 424.26C88.4791 424.26 86.8791 422.4 86.6791 420.52H88.5991C88.8791 421.9 89.7391 422.72 91.3391 422.72C92.7191 422.72 93.8391 422.12 93.8391 421.12C93.8391 420.04 92.8191 419.58 91.6591 419.34L90.0591 419.02C88.5991 418.72 86.9991 418.04 86.9991 416.04C86.9991 414.14 88.9191 413.04 91.2991 413.04C93.6191 413.04 95.1991 414.34 95.5391 416.38H93.6391ZM99.8069 424H97.9869V409.5H99.8069V424ZM104.514 409.5V411.7H102.694V409.5H104.514ZM104.514 413.24V424H102.694V413.24H104.514ZM114.781 409.5H116.601V424H114.781V422.38C114.121 423.52 112.981 424.26 111.261 424.26C108.801 424.26 106.661 422.22 106.661 418.66C106.661 415.12 108.801 413.06 111.261 413.06C112.981 413.06 114.121 413.8 114.781 414.94V409.5ZM111.721 414.62C109.861 414.62 108.641 416.1 108.641 418.66C108.641 421.22 109.861 422.7 111.721 422.7C113.341 422.7 114.861 421.5 114.861 418.66C114.861 415.82 113.341 414.62 111.721 414.62ZM120.691 419.22C120.771 421.54 122.411 422.66 124.011 422.66C125.611 422.66 126.491 421.94 126.951 420.88H128.831C128.331 422.74 126.631 424.26 124.011 424.26C120.611 424.26 118.731 421.82 118.731 418.64C118.731 415.24 121.011 413.06 123.951 413.06C127.231 413.06 129.211 415.82 128.971 419.22H120.691ZM120.711 417.66H127.051C127.011 416.14 125.871 414.62 123.951 414.62C122.331 414.62 120.871 415.5 120.711 417.66ZM142.498 422.46C141.878 423.48 140.898 424.26 139.118 424.26C136.618 424.26 135.678 422.58 135.678 420.12V413.24H137.498V419.58C137.498 421.24 137.778 422.68 139.758 422.68C141.478 422.68 142.498 421.46 142.498 419.16V413.24H144.318V424H142.498V422.46ZM149.026 413.24V414.94C149.686 413.8 150.826 413.06 152.546 413.06C155.006 413.06 157.146 415.12 157.146 418.66C157.146 422.22 155.006 424.26 152.546 424.26C150.826 424.26 149.686 423.52 149.026 422.38V427.5H147.206V413.24H149.026ZM152.086 422.7C153.946 422.7 155.166 421.22 155.166 418.66C155.166 416.1 153.946 414.62 152.086 414.62C150.466 414.62 148.946 415.82 148.946 418.66C148.946 421.5 150.466 422.7 152.086 422.7ZM163.382 421.16C163.382 418.62 166.242 417.88 170.662 417.38V417.12C170.662 415.16 169.562 414.5 168.222 414.5C166.722 414.5 165.842 415.32 165.762 416.64H163.882C164.062 414.32 166.102 413.02 168.202 413.02C171.162 413.02 172.502 414.44 172.482 417.46L172.462 419.94C172.442 421.74 172.542 422.98 172.742 424H170.902C170.842 423.6 170.782 423.16 170.762 422.52C170.102 423.62 168.982 424.26 167.082 424.26C165.062 424.26 163.382 423.14 163.382 421.16ZM170.802 418.82C167.502 419.16 165.402 419.64 165.402 421.12C165.402 422.14 166.182 422.82 167.482 422.82C169.182 422.82 170.802 422.04 170.802 419.5V418.82ZM177.014 424H175.194V409.5H177.014V424ZM189.521 418.66C189.521 422.56 186.861 424.26 184.361 424.26C181.861 424.26 179.201 422.56 179.201 418.66C179.201 414.76 181.861 413.06 184.361 413.06C186.861 413.06 189.521 414.76 189.521 418.66ZM184.361 422.66C186.001 422.66 187.581 421.42 187.581 418.66C187.581 415.8 186.001 414.66 184.361 414.66C182.721 414.66 181.141 415.72 181.141 418.66C181.141 421.52 182.721 422.66 184.361 422.66ZM193.518 414.86C194.138 413.84 195.178 413.06 196.998 413.06C199.598 413.06 200.538 414.74 200.538 417.2V424H198.718V417.74C198.718 416.08 198.438 414.64 196.358 414.64C194.598 414.64 193.518 415.86 193.518 418.16V424H191.698V413.24H193.518V414.86ZM210.5 413.24H212.32V422.56C212.32 424.76 211.92 425.66 211.3 426.34C210.52 427.24 209.18 427.76 207.58 427.76C205.14 427.76 203.5 426.64 203.16 424.46H205.1C205.34 425.42 205.92 426.16 207.6 426.16C208.58 426.16 209.32 425.88 209.8 425.36C210.2 424.94 210.5 424.44 210.5 422.98V421.96C209.84 423.1 208.8 423.82 207.08 423.82C204.7 423.82 202.52 421.9 202.52 418.44C202.52 415 204.7 413.06 207.08 413.06C208.8 413.06 209.84 413.8 210.5 414.94V413.24ZM207.54 414.62C205.76 414.62 204.5 416 204.5 418.44C204.5 420.9 205.76 422.28 207.54 422.28C209.16 422.28 210.58 421.18 210.58 418.44C210.58 415.72 209.16 414.62 207.54 414.62ZM227.82 413.24L223.98 424.46C223.2 426.8 222.64 427.5 220.24 427.5H219.3V425.98H220.04C221.24 425.98 221.82 425.9 222.3 424.22L222.38 424L218.5 413.24H220.52L223.26 421.54L225.92 413.24H227.82ZM238.681 418.66C238.681 422.56 236.021 424.26 233.521 424.26C231.021 424.26 228.361 422.56 228.361 418.66C228.361 414.76 231.021 413.06 233.521 413.06C236.021 413.06 238.681 414.76 238.681 418.66ZM233.521 422.66C235.161 422.66 236.741 421.42 236.741 418.66C236.741 415.8 235.161 414.66 233.521 414.66C231.881 414.66 230.301 415.72 230.301 418.66C230.301 421.52 231.881 422.66 233.521 422.66ZM247.518 422.46C246.898 423.48 245.918 424.26 244.138 424.26C241.638 424.26 240.698 422.58 240.698 420.12V413.24H242.518V419.58C242.518 421.24 242.798 422.68 244.778 422.68C246.498 422.68 247.518 421.46 247.518 419.16V413.24H249.338V424H247.518V422.46ZM257.585 415.14C257.205 415.1 256.865 415.06 256.565 415.06C254.885 415.06 254.045 416 254.045 418.36V424H252.225V413.24H254.005V415.12C254.545 413.9 255.645 413.22 257.045 413.18C257.225 413.18 257.385 413.18 257.585 413.2V415.14ZM270.241 416.38C269.961 415.1 268.961 414.6 267.701 414.6C266.641 414.6 265.441 414.98 265.441 415.96C265.441 416.82 266.041 417.22 267.081 417.42L268.601 417.72C270.561 418.1 272.281 418.84 272.281 420.92C272.281 423.04 270.361 424.26 267.901 424.26C265.081 424.26 263.481 422.4 263.281 420.52H265.201C265.481 421.9 266.341 422.72 267.941 422.72C269.321 422.72 270.441 422.12 270.441 421.12C270.441 420.04 269.421 419.58 268.261 419.34L266.661 419.02C265.201 418.72 263.601 418.04 263.601 416.04C263.601 414.14 265.521 413.04 267.901 413.04C270.221 413.04 271.801 414.34 272.141 416.38H270.241ZM276.408 414.86C277.028 413.84 278.068 413.06 279.888 413.06C282.488 413.06 283.428 414.74 283.428 417.2V424H281.608V417.74C281.608 416.08 281.328 414.64 279.248 414.64C277.488 414.64 276.408 415.86 276.408 418.16V424H274.588V409.5H276.408V414.86ZM287.971 409.5V411.7H286.151V409.5H287.971ZM287.971 413.24V424H286.151V413.24H287.971ZM292.678 414.86C293.298 413.84 294.338 413.06 296.158 413.06C298.758 413.06 299.698 414.74 299.698 417.2V424H297.878V417.74C297.878 416.08 297.598 414.64 295.518 414.64C293.758 414.64 292.678 415.86 292.678 418.16V424H290.858V413.24H292.678V414.86ZM308.58 416.38C308.3 415.1 307.3 414.6 306.04 414.6C304.98 414.6 303.78 414.98 303.78 415.96C303.78 416.82 304.38 417.22 305.42 417.42L306.94 417.72C308.9 418.1 310.62 418.84 310.62 420.92C310.62 423.04 308.7 424.26 306.24 424.26C303.42 424.26 301.82 422.4 301.62 420.52H303.54C303.82 421.9 304.68 422.72 306.28 422.72C307.66 422.72 308.78 422.12 308.78 421.12C308.78 420.04 307.76 419.58 306.6 419.34L305 419.02C303.54 418.72 301.94 418.04 301.94 416.04C301.94 414.14 303.86 413.04 306.24 413.04C308.56 413.04 310.14 414.34 310.48 416.38H308.58ZM35.9164 455.94C35.9164 453.86 34.0564 453.18 31.7364 453.18H31.4364V451.52H31.6764C34.1964 451.52 35.5364 450.82 35.5364 449.12C35.5364 447.56 34.2564 446.76 32.7164 446.76C30.7764 446.76 29.7164 447.94 29.5564 449.58H27.6764C27.8964 447.02 29.7164 445.24 32.7564 445.24C35.2764 445.24 37.4564 446.24 37.4564 448.92C37.4564 450.4 36.6164 451.66 35.0964 452.28C37.2564 452.96 37.8564 454.4 37.8564 455.92C37.8564 458.84 35.3764 460.26 32.6164 460.26C29.2164 460.26 27.6564 458.14 27.4564 455.72H29.3364C29.5364 457.5 30.5964 458.74 32.6364 458.74C34.5564 458.74 35.9164 457.74 35.9164 455.94ZM40.7311 460V457.7H43.0311V460H40.7311ZM61.4 452.84H59.56C59.3 451.56 58.18 450.66 56.78 450.66C55.16 450.66 53.68 451.92 53.68 454.62C53.68 457.36 55.18 458.66 56.78 458.66C58.3 458.66 59.38 457.64 59.64 456.5H61.52C61.16 458.52 59.22 460.26 56.72 460.26C53.64 460.26 51.7 457.92 51.7 454.64C51.7 451.44 53.72 449.06 56.9 449.06C59.5 449.06 61.16 451.02 61.4 452.84ZM65.3928 450.86C66.0128 449.84 67.0528 449.06 68.8728 449.06C71.4728 449.06 72.4128 450.74 72.4128 453.2V460H70.5928V453.74C70.5928 452.08 70.3128 450.64 68.2328 450.64C66.4728 450.64 65.3928 451.86 65.3928 454.16V460H63.5728V445.5H65.3928V450.86ZM76.3553 455.22C76.4353 457.54 78.0753 458.66 79.6753 458.66C81.2753 458.66 82.1553 457.94 82.6153 456.88H84.4953C83.9953 458.74 82.2953 460.26 79.6753 460.26C76.2753 460.26 74.3953 457.82 74.3953 454.64C74.3953 451.24 76.6753 449.06 79.6153 449.06C82.8953 449.06 84.8753 451.82 84.6353 455.22H76.3553ZM76.3753 453.66H82.7153C82.6753 452.14 81.5353 450.62 79.6153 450.62C77.9953 450.62 76.5353 451.5 76.3753 453.66ZM92.9555 452.38C92.6755 451.1 91.6755 450.6 90.4155 450.6C89.3555 450.6 88.1555 450.98 88.1555 451.96C88.1555 452.82 88.7555 453.22 89.7955 453.42L91.3155 453.72C93.2755 454.1 94.9955 454.84 94.9955 456.92C94.9955 459.04 93.0755 460.26 90.6155 460.26C87.7955 460.26 86.1955 458.4 85.9955 456.52H87.9155C88.1955 457.9 89.0555 458.72 90.6555 458.72C92.0355 458.72 93.1555 458.12 93.1555 457.12C93.1555 456.04 92.1355 455.58 90.9755 455.34L89.3755 455.02C87.9155 454.72 86.3155 454.04 86.3155 452.04C86.3155 450.14 88.2355 449.04 90.6155 449.04C92.9355 449.04 94.5155 450.34 94.8555 452.38H92.9555ZM97.8233 446.54H99.6433V449.24H101.683V450.7H99.6433V457.08C99.6433 458.2 99.7233 458.48 100.763 458.48H101.683V460H100.363C98.3033 460 97.8233 459.54 97.8233 457.3V450.7H96.1233V449.24H97.8233V446.54ZM109.013 448.46C109.013 446.22 109.473 445.5 111.913 445.5H112.853V447.02H111.953C110.993 447.02 110.833 447.24 110.833 448.36V449.24H112.853V450.7H110.833V460H109.013V450.7H107.513V449.24H109.013V448.46ZM124.052 454.66C124.052 458.56 121.392 460.26 118.892 460.26C116.392 460.26 113.732 458.56 113.732 454.66C113.732 450.76 116.392 449.06 118.892 449.06C121.392 449.06 124.052 450.76 124.052 454.66ZM118.892 458.66C120.532 458.66 122.112 457.42 122.112 454.66C122.112 451.8 120.532 450.66 118.892 450.66C117.252 450.66 115.672 451.72 115.672 454.66C115.672 457.52 117.252 458.66 118.892 458.66ZM131.589 451.14C131.209 451.1 130.869 451.06 130.569 451.06C128.889 451.06 128.049 452 128.049 454.36V460H126.229V449.24H128.009V451.12C128.549 449.9 129.649 449.22 131.049 449.18C131.229 449.18 131.389 449.18 131.589 449.2V451.14ZM138.158 449.24H140.038L142.178 457.2L144.238 449.24H146.198L143.098 460H141.438L139.058 451.34L136.758 460H135.098L131.998 449.24H133.958L136.018 457.2L138.158 449.24ZM146.898 457.16C146.898 454.62 149.758 453.88 154.178 453.38V453.12C154.178 451.16 153.078 450.5 151.738 450.5C150.238 450.5 149.358 451.32 149.278 452.64H147.398C147.578 450.32 149.618 449.02 151.718 449.02C154.678 449.02 156.018 450.44 155.998 453.46L155.978 455.94C155.958 457.74 156.058 458.98 156.258 460H154.418C154.358 459.6 154.298 459.16 154.278 458.52C153.618 459.62 152.498 460.26 150.598 460.26C148.578 460.26 146.898 459.14 146.898 457.16ZM154.318 454.82C151.018 455.16 148.918 455.64 148.918 457.12C148.918 458.14 149.698 458.82 150.998 458.82C152.698 458.82 154.318 458.04 154.318 455.5V454.82ZM164.07 451.14C163.69 451.1 163.35 451.06 163.05 451.06C161.37 451.06 160.53 452 160.53 454.36V460H158.71V449.24H160.49V451.12C161.03 449.9 162.13 449.22 163.53 449.18C163.71 449.18 163.87 449.18 164.07 449.2V451.14ZM173.004 445.5H174.824V460H173.004V458.38C172.344 459.52 171.204 460.26 169.484 460.26C167.024 460.26 164.884 458.22 164.884 454.66C164.884 451.12 167.024 449.06 169.484 449.06C171.204 449.06 172.344 449.8 173.004 450.94V445.5ZM169.944 450.62C168.084 450.62 166.864 452.1 166.864 454.66C166.864 457.22 168.084 458.7 169.944 458.7C171.564 458.7 173.084 457.5 173.084 454.66C173.084 451.82 171.564 450.62 169.944 450.62ZM177.554 457.7H179.854V460.16L178.634 462.78H177.474L178.534 460H177.554V457.7ZM189.162 445.5V450.94C189.822 449.8 190.962 449.06 192.682 449.06C195.142 449.06 197.282 451.12 197.282 454.66C197.282 458.22 195.142 460.26 192.682 460.26C190.962 460.26 189.822 459.52 189.162 458.38V460H187.342V445.5H189.162ZM192.222 458.7C194.082 458.7 195.302 457.22 195.302 454.66C195.302 452.1 194.082 450.62 192.222 450.62C190.602 450.62 189.082 451.82 189.082 454.66C189.082 457.5 190.602 458.7 192.222 458.7ZM198.714 457.16C198.714 454.62 201.574 453.88 205.994 453.38V453.12C205.994 451.16 204.894 450.5 203.554 450.5C202.054 450.5 201.174 451.32 201.094 452.64H199.214C199.394 450.32 201.434 449.02 203.534 449.02C206.494 449.02 207.834 450.44 207.814 453.46L207.794 455.94C207.774 457.74 207.874 458.98 208.074 460H206.234C206.174 459.6 206.114 459.16 206.094 458.52C205.434 459.62 204.314 460.26 202.414 460.26C200.394 460.26 198.714 459.14 198.714 457.16ZM206.134 454.82C202.834 455.16 200.734 455.64 200.734 457.12C200.734 458.14 201.514 458.82 202.814 458.82C204.514 458.82 206.134 458.04 206.134 455.5V454.82ZM219.486 452.84H217.646C217.386 451.56 216.266 450.66 214.866 450.66C213.246 450.66 211.766 451.92 211.766 454.62C211.766 457.36 213.266 458.66 214.866 458.66C216.386 458.66 217.466 457.64 217.726 456.5H219.606C219.246 458.52 217.306 460.26 214.806 460.26C211.726 460.26 209.786 457.92 209.786 454.64C209.786 451.44 211.806 449.06 214.986 449.06C217.586 449.06 219.246 451.02 219.486 452.84ZM223.479 445.5V454.08L227.819 449.24H230.059L225.959 453.7L230.619 460H228.399L224.739 455.04L223.479 456.4V460H221.659V445.5H223.479ZM242.663 452.38C242.383 451.1 241.383 450.6 240.123 450.6C239.063 450.6 237.863 450.98 237.863 451.96C237.863 452.82 238.463 453.22 239.503 453.42L241.023 453.72C242.983 454.1 244.703 454.84 244.703 456.92C244.703 459.04 242.783 460.26 240.323 460.26C237.503 460.26 235.903 458.4 235.703 456.52H237.623C237.903 457.9 238.763 458.72 240.363 458.72C241.743 458.72 242.863 458.12 242.863 457.12C242.863 456.04 241.843 455.58 240.683 455.34L239.083 455.02C237.623 454.72 236.023 454.04 236.023 452.04C236.023 450.14 237.943 449.04 240.323 449.04C242.643 449.04 244.223 450.34 244.563 452.38H242.663ZM247.53 446.54H249.35V449.24H251.39V450.7H249.35V457.08C249.35 458.2 249.43 458.48 250.47 458.48H251.39V460H250.07C248.01 460 247.53 459.54 247.53 457.3V450.7H245.83V449.24H247.53V446.54ZM258.874 451.14C258.494 451.1 258.154 451.06 257.854 451.06C256.174 451.06 255.334 452 255.334 454.36V460H253.514V449.24H255.294V451.12C255.834 449.9 256.934 449.22 258.334 449.18C258.514 449.18 258.674 449.18 258.874 449.2V451.14ZM259.593 457.16C259.593 454.62 262.453 453.88 266.873 453.38V453.12C266.873 451.16 265.773 450.5 264.433 450.5C262.933 450.5 262.053 451.32 261.973 452.64H260.093C260.273 450.32 262.313 449.02 264.413 449.02C267.373 449.02 268.713 450.44 268.693 453.46L268.673 455.94C268.653 457.74 268.753 458.98 268.953 460H267.113C267.053 459.6 266.993 459.16 266.973 458.52C266.313 459.62 265.193 460.26 263.293 460.26C261.273 460.26 259.593 459.14 259.593 457.16ZM267.013 454.82C263.713 455.16 261.613 455.64 261.613 457.12C261.613 458.14 262.393 458.82 263.693 458.82C265.393 458.82 267.013 458.04 267.013 455.5V454.82ZM273.225 445.5V447.7H271.405V445.5H273.225ZM273.225 449.24V460H271.405V449.24H273.225ZM283.352 449.24H285.172V458.56C285.172 460.76 284.772 461.66 284.152 462.34C283.372 463.24 282.032 463.76 280.432 463.76C277.992 463.76 276.352 462.64 276.012 460.46H277.952C278.192 461.42 278.772 462.16 280.452 462.16C281.432 462.16 282.172 461.88 282.652 461.36C283.052 460.94 283.352 460.44 283.352 458.98V457.96C282.692 459.1 281.652 459.82 279.932 459.82C277.552 459.82 275.372 457.9 275.372 454.44C275.372 451 277.552 449.06 279.932 449.06C281.652 449.06 282.692 449.8 283.352 450.94V449.24ZM280.392 450.62C278.612 450.62 277.352 452 277.352 454.44C277.352 456.9 278.612 458.28 280.392 458.28C282.012 458.28 283.432 457.18 283.432 454.44C283.432 451.72 282.012 450.62 280.392 450.62ZM289.865 450.86C290.485 449.84 291.525 449.06 293.345 449.06C295.945 449.06 296.885 450.74 296.885 453.2V460H295.065V453.74C295.065 452.08 294.785 450.64 292.705 450.64C290.945 450.64 289.865 451.86 289.865 454.16V460H288.045V445.5H289.865V450.86ZM300.128 446.54H301.948V449.24H303.988V450.7H301.948V457.08C301.948 458.2 302.028 458.48 303.068 458.48H303.988V460H302.668C300.608 460 300.128 459.54 300.128 457.3V450.7H298.428V449.24H300.128V446.54ZM305.972 457.7H308.272V460.16L307.052 462.78H305.892L306.952 460H305.972V457.7ZM317.58 450.86C318.2 449.84 319.24 449.06 321.06 449.06C323.66 449.06 324.6 450.74 324.6 453.2V460H322.78V453.74C322.78 452.08 322.5 450.64 320.42 450.64C318.66 450.64 317.58 451.86 317.58 454.16V460H315.76V445.5H317.58V450.86ZM329.143 445.5V447.7H327.323V445.5H329.143ZM329.143 449.24V460H327.323V449.24H329.143ZM333.85 449.24V450.94C334.51 449.8 335.65 449.06 337.37 449.06C339.83 449.06 341.97 451.12 341.97 454.66C341.97 458.22 339.83 460.26 337.37 460.26C335.65 460.26 334.51 459.52 333.85 458.38V463.5H332.03V449.24H333.85ZM336.91 458.7C338.77 458.7 339.99 457.22 339.99 454.66C339.99 452.1 338.77 450.62 336.91 450.62C335.29 450.62 333.77 451.82 333.77 454.66C333.77 457.5 335.29 458.7 336.91 458.7ZM350.26 452.38C349.98 451.1 348.98 450.6 347.72 450.6C346.66 450.6 345.46 450.98 345.46 451.96C345.46 452.82 346.06 453.22 347.1 453.42L348.62 453.72C350.58 454.1 352.3 454.84 352.3 456.92C352.3 459.04 350.38 460.26 347.92 460.26C345.1 460.26 343.5 458.4 343.3 456.52H345.22C345.5 457.9 346.36 458.72 347.96 458.72C349.34 458.72 350.46 458.12 350.46 457.12C350.46 456.04 349.44 455.58 348.28 455.34L346.68 455.02C345.22 454.72 343.62 454.04 343.62 452.04C343.62 450.14 345.54 449.04 347.92 449.04C350.24 449.04 351.82 450.34 352.16 452.38H350.26ZM54.26 471.5V476.94C54.92 475.8 56.06 475.06 57.78 475.06C60.24 475.06 62.38 477.12 62.38 480.66C62.38 484.22 60.24 486.26 57.78 486.26C56.06 486.26 54.92 485.52 54.26 484.38V486H52.44V471.5H54.26ZM57.32 484.7C59.18 484.7 60.4 483.22 60.4 480.66C60.4 478.1 59.18 476.62 57.32 476.62C55.7 476.62 54.18 477.82 54.18 480.66C54.18 483.5 55.7 484.7 57.32 484.7ZM63.8117 483.16C63.8117 480.62 66.6717 479.88 71.0917 479.38V479.12C71.0917 477.16 69.9917 476.5 68.6517 476.5C67.1517 476.5 66.2717 477.32 66.1917 478.64H64.3117C64.4917 476.32 66.5317 475.02 68.6317 475.02C71.5917 475.02 72.9317 476.44 72.9117 479.46L72.8917 481.94C72.8717 483.74 72.9717 484.98 73.1717 486H71.3317C71.2717 485.6 71.2117 485.16 71.1917 484.52C70.5317 485.62 69.4117 486.26 67.5117 486.26C65.4917 486.26 63.8117 485.14 63.8117 483.16ZM71.2317 480.82C67.9317 481.16 65.8317 481.64 65.8317 483.12C65.8317 484.14 66.6117 484.82 67.9117 484.82C69.6117 484.82 71.2317 484.04 71.2317 481.5V480.82ZM84.5836 478.84H82.7436C82.4836 477.56 81.3636 476.66 79.9636 476.66C78.3436 476.66 76.8636 477.92 76.8636 480.62C76.8636 483.36 78.3636 484.66 79.9636 484.66C81.4836 484.66 82.5636 483.64 82.8236 482.5H84.7036C84.3436 484.52 82.4036 486.26 79.9036 486.26C76.8236 486.26 74.8836 483.92 74.8836 480.64C74.8836 477.44 76.9036 475.06 80.0836 475.06C82.6836 475.06 84.3436 477.02 84.5836 478.84ZM88.5764 471.5V480.08L92.9164 475.24H95.1564L91.0564 479.7L95.7164 486H93.4964L89.8364 481.04L88.5764 482.4V486H86.7564V471.5H88.5764ZM100.8 481.38V479.66H113.98V481.38H100.8ZM128.179 471.5H129.999V486H128.179V484.38C127.519 485.52 126.379 486.26 124.659 486.26C122.199 486.26 120.059 484.22 120.059 480.66C120.059 477.12 122.199 475.06 124.659 475.06C126.379 475.06 127.519 475.8 128.179 476.94V471.5ZM125.119 476.62C123.259 476.62 122.039 478.1 122.039 480.66C122.039 483.22 123.259 484.7 125.119 484.7C126.739 484.7 128.259 483.5 128.259 480.66C128.259 477.82 126.739 476.62 125.119 476.62ZM142.49 480.66C142.49 484.56 139.83 486.26 137.33 486.26C134.83 486.26 132.17 484.56 132.17 480.66C132.17 476.76 134.83 475.06 137.33 475.06C139.83 475.06 142.49 476.76 142.49 480.66ZM137.33 484.66C138.97 484.66 140.55 483.42 140.55 480.66C140.55 477.8 138.97 476.66 137.33 476.66C135.69 476.66 134.11 477.72 134.11 480.66C134.11 483.52 135.69 484.66 137.33 484.66ZM146.487 476.86C147.107 475.84 148.147 475.06 149.967 475.06C152.567 475.06 153.507 476.74 153.507 479.2V486H151.687V479.74C151.687 478.08 151.407 476.64 149.327 476.64C147.567 476.64 146.487 477.86 146.487 480.16V486H144.667V475.24H146.487V476.86ZM155.386 471.5H157.686V473.96L156.466 476.58H155.306L156.366 473.8H155.386V471.5ZM161.339 472.54H163.159V475.24H165.199V476.7H163.159V483.08C163.159 484.2 163.239 484.48 164.279 484.48H165.199V486H163.879C161.819 486 161.339 485.54 161.339 483.3V476.7H159.639V475.24H161.339V472.54ZM173.889 471.5V476.94C174.549 475.8 175.689 475.06 177.409 475.06C179.869 475.06 182.009 477.12 182.009 480.66C182.009 484.22 179.869 486.26 177.409 486.26C175.689 486.26 174.549 485.52 173.889 484.38V486H172.069V471.5H173.889ZM176.949 484.7C178.809 484.7 180.029 483.22 180.029 480.66C180.029 478.1 178.809 476.62 176.949 476.62C175.329 476.62 173.809 477.82 173.809 480.66C173.809 483.5 175.329 484.7 176.949 484.7ZM185.457 481.22C185.537 483.54 187.177 484.66 188.777 484.66C190.377 484.66 191.257 483.94 191.717 482.88H193.597C193.097 484.74 191.397 486.26 188.777 486.26C185.377 486.26 183.497 483.82 183.497 480.64C183.497 477.24 185.777 475.06 188.717 475.06C191.997 475.06 193.977 477.82 193.737 481.22H185.457ZM185.477 479.66H191.817C191.777 478.14 190.637 476.62 188.717 476.62C187.097 476.62 185.637 477.5 185.477 479.66ZM197.678 476.86C198.298 475.84 199.338 475.06 201.158 475.06C203.758 475.06 204.698 476.74 204.698 479.2V486H202.878V479.74C202.878 478.08 202.598 476.64 200.518 476.64C198.758 476.64 197.678 477.86 197.678 480.16V486H195.858V475.24H197.678V476.86ZM214.8 471.5H216.62V486H214.8V484.38C214.14 485.52 213 486.26 211.28 486.26C208.82 486.26 206.68 484.22 206.68 480.66C206.68 477.12 208.82 475.06 211.28 475.06C213 475.06 214.14 475.8 214.8 476.94V471.5ZM211.74 476.62C209.88 476.62 208.66 478.1 208.66 480.66C208.66 483.22 209.88 484.7 211.74 484.7C213.36 484.7 214.88 483.5 214.88 480.66C214.88 477.82 213.36 476.62 211.74 476.62ZM232.117 475.24L228.277 486.46C227.497 488.8 226.937 489.5 224.537 489.5H223.597V487.98H224.337C225.537 487.98 226.117 487.9 226.597 486.22L226.677 486L222.797 475.24H224.817L227.557 483.54L230.217 475.24H232.117ZM242.978 480.66C242.978 484.56 240.318 486.26 237.818 486.26C235.318 486.26 232.658 484.56 232.658 480.66C232.658 476.76 235.318 475.06 237.818 475.06C240.318 475.06 242.978 476.76 242.978 480.66ZM237.818 484.66C239.458 484.66 241.038 483.42 241.038 480.66C241.038 477.8 239.458 476.66 237.818 476.66C236.178 476.66 234.598 477.72 234.598 480.66C234.598 483.52 236.178 484.66 237.818 484.66ZM251.815 484.46C251.195 485.48 250.215 486.26 248.435 486.26C245.935 486.26 244.995 484.58 244.995 482.12V475.24H246.815V481.58C246.815 483.24 247.095 484.68 249.075 484.68C250.795 484.68 251.815 483.46 251.815 481.16V475.24H253.635V486H251.815V484.46ZM261.882 477.14C261.502 477.1 261.162 477.06 260.862 477.06C259.182 477.06 258.342 478 258.342 480.36V486H256.522V475.24H258.302V477.12C258.842 475.9 259.942 475.22 261.342 475.18C261.522 475.18 261.682 475.18 261.882 475.2V477.14ZM269.598 481.22C269.678 483.54 271.318 484.66 272.918 484.66C274.518 484.66 275.398 483.94 275.858 482.88H277.738C277.238 484.74 275.538 486.26 272.918 486.26C269.518 486.26 267.638 483.82 267.638 480.64C267.638 477.24 269.918 475.06 272.858 475.06C276.138 475.06 278.118 477.82 277.878 481.22H269.598ZM269.618 479.66H275.958C275.918 478.14 274.778 476.62 272.858 476.62C271.238 476.62 269.778 477.5 269.618 479.66ZM281.819 486H279.999V471.5H281.819V486ZM286.526 471.5V476.94C287.186 475.8 288.326 475.06 290.046 475.06C292.506 475.06 294.646 477.12 294.646 480.66C294.646 484.22 292.506 486.26 290.046 486.26C288.326 486.26 287.186 485.52 286.526 484.38V486H284.706V471.5H286.526ZM289.586 484.7C291.446 484.7 292.666 483.22 292.666 480.66C292.666 478.1 291.446 476.62 289.586 476.62C287.966 476.62 286.446 477.82 286.446 480.66C286.446 483.5 287.966 484.7 289.586 484.7ZM306.494 480.66C306.494 484.56 303.834 486.26 301.334 486.26C298.834 486.26 296.174 484.56 296.174 480.66C296.174 476.76 298.834 475.06 301.334 475.06C303.834 475.06 306.494 476.76 306.494 480.66ZM301.334 484.66C302.974 484.66 304.554 483.42 304.554 480.66C304.554 477.8 302.974 476.66 301.334 476.66C299.694 476.66 298.114 477.72 298.114 480.66C298.114 483.52 299.694 484.66 301.334 484.66ZM313.393 475.24H315.273L317.413 483.2L319.473 475.24H321.433L318.333 486H316.673L314.293 477.34L311.993 486H310.333L307.233 475.24H309.193L311.253 483.2L313.393 475.24ZM329.127 478.38C328.847 477.1 327.847 476.6 326.587 476.6C325.527 476.6 324.327 476.98 324.327 477.96C324.327 478.82 324.927 479.22 325.967 479.42L327.487 479.72C329.447 480.1 331.167 480.84 331.167 482.92C331.167 485.04 329.247 486.26 326.787 486.26C323.967 486.26 322.367 484.4 322.167 482.52H324.087C324.367 483.9 325.227 484.72 326.827 484.72C328.207 484.72 329.327 484.12 329.327 483.12C329.327 482.04 328.307 481.58 327.147 481.34L325.547 481.02C324.087 480.72 322.487 480.04 322.487 478.04C322.487 476.14 324.407 475.04 326.787 475.04C329.107 475.04 330.687 476.34 331.027 478.38H329.127Z" fill="black"/>
</svg>
