<svg width="402" height="874" viewBox="0 0 402 874" fill="none" xmlns="http://www.w3.org/2000/svg">
<rect width="402" height="874" rx="47" fill="white"/>
<path d="M39.78 176.72H45.42L51.84 200.6L58.02 176.72H63.9L54.6 209H49.62L42.48 183.02L35.58 209H30.6L21.3 176.72H27.18L33.36 200.6L39.78 176.72ZM65.9977 200.48C65.9977 192.86 74.5777 190.64 87.8377 189.14V188.36C87.8377 182.48 84.5377 180.5 80.5177 180.5C76.0177 180.5 73.3777 182.96 73.1377 186.92H67.4977C68.0377 179.96 74.1577 176.06 80.4577 176.06C89.3377 176.06 93.3577 180.32 93.2977 189.38L93.2377 196.82C93.1777 202.22 93.4777 205.94 94.0777 209H88.5577C88.3777 207.8 88.1977 206.48 88.1377 204.56C86.1577 207.86 82.7977 209.78 77.0977 209.78C71.0377 209.78 65.9977 206.42 65.9977 200.48ZM88.2577 193.46C78.3577 194.48 72.0577 195.92 72.0577 200.36C72.0577 203.42 74.3977 205.46 78.2977 205.46C83.3977 205.46 88.2577 203.12 88.2577 195.5V193.46ZM117.513 182.42C116.373 182.3 115.353 182.18 114.453 182.18C109.413 182.18 106.893 185 106.893 192.08V209H101.433V176.72H106.773V182.36C108.393 178.7 111.693 176.66 115.893 176.54C116.433 176.54 116.913 176.54 117.513 176.6V182.42ZM128.221 209H122.761V176.72H128.221V181.58C130.081 178.52 133.081 176.18 137.941 176.18C142.861 176.18 145.801 178.34 147.241 181.88C149.821 177.92 153.601 176.18 158.101 176.18C165.601 176.18 168.541 181.22 168.541 188.6V209H163.081V190.22C163.081 185.24 162.121 180.92 156.181 180.92C151.501 180.92 148.381 184.58 148.381 191.48V209H142.921V190.22C142.921 185.24 141.961 180.92 136.021 180.92C131.341 180.92 128.221 184.58 128.221 191.48V209ZM210.945 204.38C209.085 207.44 206.145 209.78 200.805 209.78C193.305 209.78 190.485 204.74 190.485 197.36V176.72H195.945V195.74C195.945 200.72 196.785 205.04 202.725 205.04C207.885 205.04 210.945 201.38 210.945 194.48V176.72H216.405V209H210.945V204.38ZM230.526 176.72V181.82C232.506 178.4 235.926 176.18 241.086 176.18C248.466 176.18 254.886 182.36 254.886 192.98C254.886 203.66 248.466 209.78 241.086 209.78C235.926 209.78 232.506 207.56 230.526 204.14V219.5H225.066V176.72H230.526ZM239.706 205.1C245.286 205.1 248.946 200.66 248.946 192.98C248.946 185.3 245.286 180.86 239.706 180.86C234.846 180.86 230.286 184.46 230.286 192.98C230.286 201.5 234.846 205.1 239.706 205.1Z" fill="#FF2F00"/>
<path d="M30.78 106.5V122.82C32.76 119.4 36.18 117.18 41.34 117.18C48.72 117.18 55.14 123.36 55.14 133.98C55.14 144.66 48.72 150.78 41.34 150.78C36.18 150.78 32.76 148.56 30.78 145.14V150H25.32V106.5H30.78ZM39.96 146.1C45.54 146.1 49.2 141.66 49.2 133.98C49.2 126.3 45.54 121.86 39.96 121.86C35.1 121.86 30.54 125.46 30.54 133.98C30.54 142.5 35.1 146.1 39.96 146.1ZM65.4839 135.66C65.7239 142.62 70.6439 145.98 75.4439 145.98C80.2439 145.98 82.8839 143.82 84.2639 140.64H89.9039C88.4039 146.22 83.3039 150.78 75.4439 150.78C65.2439 150.78 59.6039 143.46 59.6039 133.92C59.6039 123.72 66.4439 117.18 75.2639 117.18C85.1039 117.18 91.0439 125.46 90.3239 135.66H65.4839ZM65.5439 130.98H84.5639C84.4439 126.42 81.0239 121.86 75.2639 121.86C70.4039 121.86 66.0239 124.5 65.5439 130.98ZM102.147 122.58C104.007 119.52 107.127 117.18 112.587 117.18C120.387 117.18 123.207 122.22 123.207 129.6V150H117.747V131.22C117.747 126.24 116.907 121.92 110.667 121.92C105.387 121.92 102.147 125.58 102.147 132.48V150H96.6872V117.72H102.147V122.58ZM158.255 128.52H152.735C151.955 124.68 148.595 121.98 144.395 121.98C139.535 121.98 135.095 125.76 135.095 133.86C135.095 142.08 139.595 145.98 144.395 145.98C148.955 145.98 152.195 142.92 152.975 139.5H158.615C157.535 145.56 151.715 150.78 144.215 150.78C134.975 150.78 129.155 143.76 129.155 133.92C129.155 124.32 135.215 117.18 144.755 117.18C152.555 117.18 157.535 123.06 158.255 128.52ZM170.233 122.58C172.093 119.52 175.213 117.18 180.673 117.18C188.473 117.18 191.293 122.22 191.293 129.6V150H185.833V131.22C185.833 126.24 184.993 121.92 178.753 121.92C173.473 121.92 170.233 125.58 170.233 132.48V150H164.773V106.5H170.233V122.58ZM219.159 117.72V122.82C221.139 119.4 224.559 117.18 229.719 117.18C237.099 117.18 243.519 123.36 243.519 133.98C243.519 144.66 237.099 150.78 229.719 150.78C224.559 150.78 221.139 148.56 219.159 145.14V160.5H213.699V117.72H219.159ZM228.339 146.1C233.919 146.1 237.579 141.66 237.579 133.98C237.579 126.3 233.919 121.86 228.339 121.86C223.479 121.86 218.919 125.46 218.919 133.98C218.919 142.5 223.479 146.1 228.339 146.1ZM265.99 123.42C264.85 123.3 263.83 123.18 262.93 123.18C257.89 123.18 255.37 126 255.37 133.08V150H249.91V117.72H255.25V123.36C256.87 119.7 260.17 117.66 264.37 117.54C264.91 117.54 265.39 117.54 265.99 117.6V123.42ZM274.312 135.66C274.552 142.62 279.472 145.98 284.272 145.98C289.072 145.98 291.712 143.82 293.092 140.64H298.732C297.232 146.22 292.132 150.78 284.272 150.78C274.072 150.78 268.432 143.46 268.432 133.92C268.432 123.72 275.272 117.18 284.092 117.18C293.932 117.18 299.872 125.46 299.152 135.66H274.312ZM274.372 130.98H293.392C293.272 126.42 289.852 121.86 284.092 121.86C279.232 121.86 274.852 124.5 274.372 130.98ZM324.113 127.14C323.273 123.3 320.273 121.8 316.493 121.8C313.313 121.8 309.713 122.94 309.713 125.88C309.713 128.46 311.513 129.66 314.633 130.26L319.193 131.16C325.073 132.3 330.233 134.52 330.233 140.76C330.233 147.12 324.473 150.78 317.093 150.78C308.633 150.78 303.833 145.2 303.233 139.56H308.993C309.833 143.7 312.413 146.16 317.213 146.16C321.353 146.16 324.713 144.36 324.713 141.36C324.713 138.12 321.653 136.74 318.173 136.02L313.373 135.06C308.993 134.16 304.193 132.12 304.193 126.12C304.193 120.42 309.953 117.12 317.093 117.12C324.053 117.12 328.793 121.02 329.813 127.14H324.113ZM355.636 127.14C354.796 123.3 351.796 121.8 348.016 121.8C344.836 121.8 341.236 122.94 341.236 125.88C341.236 128.46 343.036 129.66 346.156 130.26L350.716 131.16C356.596 132.3 361.756 134.52 361.756 140.76C361.756 147.12 355.996 150.78 348.616 150.78C340.156 150.78 335.356 145.2 334.756 139.56H340.516C341.356 143.7 343.936 146.16 348.736 146.16C352.876 146.16 356.236 144.36 356.236 141.36C356.236 138.12 353.176 136.74 349.696 136.02L344.896 135.06C340.516 134.16 335.716 132.12 335.716 126.12C335.716 120.42 341.476 117.12 348.616 117.12C355.576 117.12 360.316 121.02 361.336 127.14H355.636Z" fill="black"/>
<rect x="20.5" y="645.5" width="361" height="59" rx="29.5" stroke="black"/>
<path d="M124.16 677.22C124.24 679.54 125.88 680.66 127.48 680.66C129.08 680.66 129.96 679.94 130.42 678.88H132.3C131.8 680.74 130.1 682.26 127.48 682.26C124.08 682.26 122.2 679.82 122.2 676.64C122.2 673.24 124.48 671.06 127.42 671.06C130.7 671.06 132.68 673.82 132.44 677.22H124.16ZM124.18 675.66H130.52C130.48 674.14 129.34 672.62 127.42 672.62C125.8 672.62 124.34 673.5 124.18 675.66ZM136.381 682H134.561V671.24H136.381V672.86C137.001 671.84 138.001 671.06 139.621 671.06C141.261 671.06 142.241 671.78 142.721 672.96C143.581 671.64 144.841 671.06 146.341 671.06C148.841 671.06 149.821 672.74 149.821 675.2V682H148.001V675.74C148.001 674.08 147.681 672.64 145.701 672.64C144.141 672.64 143.101 673.86 143.101 676.16V682H141.281V675.74C141.281 674.08 140.961 672.64 138.981 672.64C137.421 672.64 136.381 673.86 136.381 676.16V682ZM154.369 671.24V672.94C155.029 671.8 156.169 671.06 157.889 671.06C160.349 671.06 162.489 673.12 162.489 676.66C162.489 680.22 160.349 682.26 157.889 682.26C156.169 682.26 155.029 681.52 154.369 680.38V685.5H152.549V671.24H154.369ZM157.429 680.7C159.289 680.7 160.509 679.22 160.509 676.66C160.509 674.1 159.289 672.62 157.429 672.62C155.809 672.62 154.289 673.82 154.289 676.66C154.289 679.5 155.809 680.7 157.429 680.7ZM165.042 668.54H166.862V671.24H168.902V672.7H166.862V679.08C166.862 680.2 166.942 680.48 167.982 680.48H168.902V682H167.582C165.522 682 165.042 681.54 165.042 679.3V672.7H163.342V671.24H165.042V668.54ZM178.906 671.24L175.066 682.46C174.286 684.8 173.726 685.5 171.326 685.5H170.386V683.98H171.126C172.326 683.98 172.906 683.9 173.386 682.22L173.466 682L169.586 671.24H171.606L174.346 679.54L177.006 671.24H178.906ZM186.908 667.5V672.94C187.568 671.8 188.708 671.06 190.428 671.06C192.888 671.06 195.028 673.12 195.028 676.66C195.028 680.22 192.888 682.26 190.428 682.26C188.708 682.26 187.568 681.52 186.908 680.38V682H185.088V667.5H186.908ZM189.968 680.7C191.828 680.7 193.048 679.22 193.048 676.66C193.048 674.1 191.828 672.62 189.968 672.62C188.348 672.62 186.828 673.82 186.828 676.66C186.828 679.5 188.348 680.7 189.968 680.7ZM196.46 679.16C196.46 676.62 199.32 675.88 203.74 675.38V675.12C203.74 673.16 202.64 672.5 201.3 672.5C199.8 672.5 198.92 673.32 198.84 674.64H196.96C197.14 672.32 199.18 671.02 201.28 671.02C204.24 671.02 205.58 672.44 205.56 675.46L205.54 677.94C205.52 679.74 205.62 680.98 205.82 682H203.98C203.92 681.6 203.86 681.16 203.84 680.52C203.18 681.62 202.06 682.26 200.16 682.26C198.14 682.26 196.46 681.14 196.46 679.16ZM203.88 676.82C200.58 677.16 198.48 677.64 198.48 679.12C198.48 680.14 199.26 680.82 200.56 680.82C202.26 680.82 203.88 680.04 203.88 677.5V676.82ZM213.632 673.14C213.252 673.1 212.912 673.06 212.612 673.06C210.932 673.06 210.092 674 210.092 676.36V682H208.272V671.24H210.052V673.12C210.592 671.9 211.692 671.22 213.092 671.18C213.272 671.18 213.432 671.18 213.632 671.2V673.14ZM222.088 667.5H223.588C222.268 669.64 221.208 672.72 221.208 676.5C221.208 680.26 222.268 683.36 223.588 685.5H222.088C220.868 683.76 219.328 680.54 219.328 676.5C219.328 672.44 220.868 669.24 222.088 667.5ZM234.23 671.04C234.23 674.4 230.73 677.38 226.67 680.3H234.63V682H224.19V680.36C229.31 676.58 232.31 673.84 232.31 671.28C232.31 669.78 231.31 668.76 229.59 668.76C228.03 668.76 226.51 669.62 226.47 672.02H224.59C224.55 669.14 226.55 667.24 229.63 667.24C232.31 667.24 234.23 668.6 234.23 671.04ZM241.987 682.26C238.127 682.26 236.347 679.34 236.347 674.74C236.347 670.16 238.127 667.24 241.987 667.24C245.847 667.24 247.627 670.16 247.627 674.74C247.627 679.34 245.847 682.26 241.987 682.26ZM241.987 668.76C239.707 668.76 238.287 670.72 238.287 674.74C238.287 678.78 239.707 680.74 241.987 680.74C244.267 680.74 245.687 678.78 245.687 674.74C245.687 670.72 244.267 668.76 241.987 668.76ZM256.615 667.5V676.08L260.955 671.24H263.195L259.095 675.7L263.755 682H261.535L257.875 677.04L256.615 678.4V682H254.795V667.5H256.615ZM271.84 671.24H273.66V680.56C273.66 682.76 273.26 683.66 272.64 684.34C271.86 685.24 270.52 685.76 268.92 685.76C266.48 685.76 264.84 684.64 264.5 682.46H266.44C266.68 683.42 267.26 684.16 268.94 684.16C269.92 684.16 270.66 683.88 271.14 683.36C271.54 682.94 271.84 682.44 271.84 680.98V679.96C271.18 681.1 270.14 681.82 268.42 681.82C266.04 681.82 263.86 679.9 263.86 676.44C263.86 673 266.04 671.06 268.42 671.06C270.14 671.06 271.18 671.8 271.84 672.94V671.24ZM268.88 672.62C267.1 672.62 265.84 674 265.84 676.44C265.84 678.9 267.1 680.28 268.88 680.28C270.5 680.28 271.92 679.18 271.92 676.44C271.92 673.72 270.5 672.62 268.88 672.62ZM276.594 685.5H275.094C276.414 683.36 277.474 680.26 277.474 676.5C277.474 672.72 276.414 669.64 275.094 667.5H276.594C277.814 669.24 279.354 672.44 279.354 676.5C279.354 680.54 277.814 683.76 276.594 685.5Z" fill="black"/>
<rect x="20.5" y="715.5" width="361" height="59" rx="29.5" stroke="black"/>
<path d="M166.1 752V740.66H162.74V739.42C164.82 739.34 165.88 739.08 166.68 737.5H167.92V752H166.1ZM176.463 752.26C172.603 752.26 170.823 749.34 170.823 744.74C170.823 740.16 172.603 737.24 176.463 737.24C180.323 737.24 182.103 740.16 182.103 744.74C182.103 749.34 180.323 752.26 176.463 752.26ZM176.463 738.76C174.183 738.76 172.763 740.72 172.763 744.74C172.763 748.78 174.183 750.74 176.463 750.74C178.743 750.74 180.163 748.78 180.163 744.74C180.163 740.72 178.743 738.76 176.463 738.76ZM189.792 738.54H191.612V741.24H193.652V742.7H191.612V749.08C191.612 750.2 191.692 750.48 192.732 750.48H193.652V752H192.332C190.272 752 189.792 751.54 189.792 749.3V742.7H188.092V741.24H189.792V738.54ZM197.791 737.5V739.7H195.971V737.5H197.791ZM197.791 741.24V752H195.971V741.24H197.791ZM202.498 752H200.678V741.24H202.498V742.86C203.118 741.84 204.118 741.06 205.738 741.06C207.378 741.06 208.358 741.78 208.838 742.96C209.698 741.64 210.958 741.06 212.458 741.06C214.958 741.06 215.938 742.74 215.938 745.2V752H214.118V745.74C214.118 744.08 213.798 742.64 211.818 742.64C210.258 742.64 209.218 743.86 209.218 746.16V752H207.398V745.74C207.398 744.08 207.078 742.64 205.098 742.64C203.538 742.64 202.498 743.86 202.498 746.16V752ZM219.887 747.22C219.967 749.54 221.607 750.66 223.207 750.66C224.807 750.66 225.687 749.94 226.147 748.88H228.027C227.527 750.74 225.827 752.26 223.207 752.26C219.807 752.26 217.927 749.82 217.927 746.64C217.927 743.24 220.207 741.06 223.147 741.06C226.427 741.06 228.407 743.82 228.167 747.22H219.887ZM219.907 745.66H226.247C226.207 744.14 225.067 742.62 223.147 742.62C221.527 742.62 220.067 743.5 219.907 745.66ZM236.487 744.38C236.207 743.1 235.207 742.6 233.947 742.6C232.887 742.6 231.687 742.98 231.687 743.96C231.687 744.82 232.287 745.22 233.327 745.42L234.847 745.72C236.807 746.1 238.527 746.84 238.527 748.92C238.527 751.04 236.607 752.26 234.147 752.26C231.327 752.26 229.727 750.4 229.527 748.52H231.447C231.727 749.9 232.587 750.72 234.187 750.72C235.567 750.72 236.687 750.12 236.687 749.12C236.687 748.04 235.667 747.58 234.507 747.34L232.907 747.02C231.447 746.72 229.847 746.04 229.847 744.04C229.847 742.14 231.767 741.04 234.147 741.04C236.467 741.04 238.047 742.34 238.387 744.38H236.487Z" fill="black"/>
<rect x="20" y="785" width="178.5" height="60" rx="30" fill="black"/>
<path d="M51.01 812.86C51.63 811.84 52.67 811.06 54.49 811.06C57.09 811.06 58.03 812.74 58.03 815.2V822H56.21V815.74C56.21 814.08 55.93 812.64 53.85 812.64C52.09 812.64 51.01 813.86 51.01 816.16V822H49.19V811.24H51.01V812.86ZM61.9725 817.22C62.0525 819.54 63.6925 820.66 65.2925 820.66C66.8925 820.66 67.7725 819.94 68.2325 818.88H70.1125C69.6125 820.74 67.9125 822.26 65.2925 822.26C61.8925 822.26 60.0125 819.82 60.0125 816.64C60.0125 813.24 62.2925 811.06 65.2325 811.06C68.5125 811.06 70.4925 813.82 70.2525 817.22H61.9725ZM61.9925 815.66H68.3325C68.2925 814.14 67.1525 812.62 65.2325 812.62C63.6125 812.62 62.1525 813.5 61.9925 815.66ZM76.9192 816.38L80.9392 822H78.7592L75.8392 817.9L72.9392 822H70.8592L74.8192 816.46L71.0992 811.24H73.2792L75.8992 814.94L78.5392 811.24H80.5792L76.9192 816.38ZM83.0498 808.54H84.8698V811.24H86.9098V812.7H84.8698V819.08C84.8698 820.2 84.9498 820.48 85.9898 820.48H86.9098V822H85.5898C83.5298 822 83.0498 821.54 83.0498 819.3V812.7H81.3498V811.24H83.0498V808.54ZM94.9998 817.22C95.0798 819.54 96.7198 820.66 98.3198 820.66C99.9198 820.66 100.8 819.94 101.26 818.88H103.14C102.64 820.74 100.94 822.26 98.3198 822.26C94.9198 822.26 93.0398 819.82 93.0398 816.64C93.0398 813.24 95.3198 811.06 98.2598 811.06C101.54 811.06 103.52 813.82 103.28 817.22H94.9998ZM95.0198 815.66H101.36C101.32 814.14 100.18 812.62 98.2598 812.62C96.6398 812.62 95.1798 813.5 95.0198 815.66ZM109.947 816.38L113.967 822H111.787L108.867 817.9L105.967 822H103.887L107.847 816.46L104.127 811.24H106.307L108.927 814.94L111.567 811.24H113.607L109.947 816.38ZM116.484 817.22C116.564 819.54 118.204 820.66 119.804 820.66C121.404 820.66 122.284 819.94 122.744 818.88H124.624C124.124 820.74 122.424 822.26 119.804 822.26C116.404 822.26 114.524 819.82 114.524 816.64C114.524 813.24 116.804 811.06 119.744 811.06C123.024 811.06 125.004 813.82 124.764 817.22H116.484ZM116.504 815.66H122.844C122.804 814.14 121.664 812.62 119.744 812.62C118.124 812.62 116.664 813.5 116.504 815.66ZM132.245 813.14C131.865 813.1 131.525 813.06 131.225 813.06C129.545 813.06 128.705 814 128.705 816.36V822H126.885V811.24H128.665V813.12C129.205 811.9 130.305 811.22 131.705 811.18C131.885 811.18 132.045 811.18 132.245 811.2V813.14ZM142.759 814.84H140.919C140.659 813.56 139.539 812.66 138.139 812.66C136.519 812.66 135.039 813.92 135.039 816.62C135.039 819.36 136.539 820.66 138.139 820.66C139.659 820.66 140.739 819.64 140.999 818.5H142.879C142.519 820.52 140.579 822.26 138.079 822.26C134.999 822.26 133.059 819.92 133.059 816.64C133.059 813.44 135.079 811.06 138.259 811.06C140.859 811.06 142.519 813.02 142.759 814.84ZM146.752 807.5V809.7H144.932V807.5H146.752ZM146.752 811.24V822H144.932V811.24H146.752ZM155.799 814.38C155.519 813.1 154.519 812.6 153.259 812.6C152.199 812.6 150.999 812.98 150.999 813.96C150.999 814.82 151.599 815.22 152.639 815.42L154.159 815.72C156.119 816.1 157.839 816.84 157.839 818.92C157.839 821.04 155.919 822.26 153.459 822.26C150.639 822.26 149.039 820.4 148.839 818.52H150.759C151.039 819.9 151.899 820.72 153.499 820.72C154.879 820.72 155.999 820.12 155.999 819.12C155.999 818.04 154.979 817.58 153.819 817.34L152.219 817.02C150.759 816.72 149.159 816.04 149.159 814.04C149.159 812.14 151.079 811.04 153.459 811.04C155.779 811.04 157.359 812.34 157.699 814.38H155.799ZM161.367 817.22C161.447 819.54 163.087 820.66 164.687 820.66C166.287 820.66 167.167 819.94 167.627 818.88H169.507C169.007 820.74 167.307 822.26 164.687 822.26C161.287 822.26 159.407 819.82 159.407 816.64C159.407 813.24 161.687 811.06 164.627 811.06C167.907 811.06 169.887 813.82 169.647 817.22H161.367ZM161.387 815.66H167.727C167.687 814.14 166.547 812.62 164.627 812.62C163.007 812.62 161.547 813.5 161.387 815.66Z" fill="white"/>
<rect x="203.5" y="785" width="178.5" height="60" rx="30" fill="#FF2F00"/>
<path d="M259.31 816.66C259.31 820.56 256.65 822.26 254.15 822.26C251.65 822.26 248.99 820.56 248.99 816.66C248.99 812.76 251.65 811.06 254.15 811.06C256.65 811.06 259.31 812.76 259.31 816.66ZM254.15 820.66C255.79 820.66 257.37 819.42 257.37 816.66C257.37 813.8 255.79 812.66 254.15 812.66C252.51 812.66 250.93 813.72 250.93 816.66C250.93 819.52 252.51 820.66 254.15 820.66ZM263.307 812.86C263.927 811.84 264.967 811.06 266.787 811.06C269.387 811.06 270.327 812.74 270.327 815.2V822H268.507V815.74C268.507 814.08 268.227 812.64 266.147 812.64C264.387 812.64 263.307 813.86 263.307 816.16V822H261.487V811.24H263.307V812.86ZM274.269 817.22C274.349 819.54 275.989 820.66 277.589 820.66C279.189 820.66 280.069 819.94 280.529 818.88H282.409C281.909 820.74 280.209 822.26 277.589 822.26C274.189 822.26 272.309 819.82 272.309 816.64C272.309 813.24 274.589 811.06 277.529 811.06C280.809 811.06 282.789 813.82 282.549 817.22H274.269ZM274.289 815.66H280.629C280.589 814.14 279.449 812.62 277.529 812.62C275.909 812.62 274.449 813.5 274.289 815.66ZM291.237 822H289.417V811.24H291.237V812.86C291.857 811.84 292.857 811.06 294.477 811.06C296.117 811.06 297.097 811.78 297.577 812.96C298.437 811.64 299.697 811.06 301.197 811.06C303.697 811.06 304.677 812.74 304.677 815.2V822H302.857V815.74C302.857 814.08 302.537 812.64 300.557 812.64C298.997 812.64 297.957 813.86 297.957 816.16V822H296.137V815.74C296.137 814.08 295.817 812.64 293.837 812.64C292.277 812.64 291.237 813.86 291.237 816.16V822ZM317.025 816.66C317.025 820.56 314.365 822.26 311.865 822.26C309.365 822.26 306.705 820.56 306.705 816.66C306.705 812.76 309.365 811.06 311.865 811.06C314.365 811.06 317.025 812.76 317.025 816.66ZM311.865 820.66C313.505 820.66 315.085 819.42 315.085 816.66C315.085 813.8 313.505 812.66 311.865 812.66C310.225 812.66 308.645 813.72 308.645 816.66C308.645 819.52 310.225 820.66 311.865 820.66ZM324.562 813.14C324.182 813.1 323.842 813.06 323.542 813.06C321.862 813.06 321.022 814 321.022 816.36V822H319.202V811.24H320.982V813.12C321.522 811.9 322.622 811.22 324.022 811.18C324.202 811.18 324.362 811.18 324.562 811.2V813.14ZM327.336 817.22C327.416 819.54 329.056 820.66 330.656 820.66C332.256 820.66 333.136 819.94 333.596 818.88H335.476C334.976 820.74 333.276 822.26 330.656 822.26C327.256 822.26 325.376 819.82 325.376 816.64C325.376 813.24 327.656 811.06 330.596 811.06C333.876 811.06 335.856 813.82 335.616 817.22H327.336ZM327.356 815.66H333.696C333.656 814.14 332.516 812.62 330.596 812.62C328.976 812.62 327.516 813.5 327.356 815.66Z" fill="white"/>
<path opacity="0.3" d="M32.04 66.42H29.38V70H27.54V66.42H20.34V64.7L27.52 55.5H29.38V64.7H32.04V66.42ZM22.36 64.7H27.54V58L22.36 64.7ZM35.3205 62.36C35.9805 61.22 37.2205 60.34 39.1405 60.34C41.8405 60.34 43.8205 62.36 43.8205 65.26C43.8205 67.96 41.8205 70.26 38.7205 70.26C35.1005 70.26 33.4405 67.74 33.4405 63.26C33.4405 59.16 34.9005 55.24 39.1005 55.24C41.9405 55.24 43.2805 57.02 43.5805 58.86H41.6005C41.3605 57.56 40.3605 56.76 38.8805 56.76C36.6405 56.76 35.4205 59 35.3205 62.36ZM38.7005 68.74C40.5605 68.74 41.8805 67.34 41.8805 65.36C41.8805 63.38 40.5805 61.92 38.7205 61.92C36.8205 61.92 35.5405 63.38 35.5405 65.36C35.5405 67.36 36.7805 68.74 38.7005 68.74ZM46.0852 61.54V59.24H48.3852V61.54H46.0852ZM46.0852 70V67.7H48.3852V70H46.0852ZM58.9675 65.24C58.9675 62.84 57.2875 61.8 55.7075 61.8C54.2075 61.8 53.2275 62.68 52.9075 63.4L51.0875 63.3L52.0275 55.5H60.3475V57.2H53.5075L53.0075 61.32C53.7675 60.58 54.9275 60.22 56.1275 60.22C58.6675 60.22 60.8875 62.02 60.8875 65.22C60.8875 68.54 58.4275 70.26 55.7275 70.26C52.3675 70.26 50.8475 68.14 50.5675 65.8H52.4475C52.7275 67.62 53.7075 68.74 55.7275 68.74C57.4675 68.74 58.9675 67.48 58.9675 65.24ZM64.6759 62.36C65.3359 61.22 66.5759 60.34 68.4959 60.34C71.1959 60.34 73.1759 62.36 73.1759 65.26C73.1759 67.96 71.1759 70.26 68.0759 70.26C64.4559 70.26 62.7959 67.74 62.7959 63.26C62.7959 59.16 64.2559 55.24 68.4559 55.24C71.2959 55.24 72.6359 57.02 72.9359 58.86H70.9559C70.7159 57.56 69.7159 56.76 68.2359 56.76C65.9959 56.76 64.7759 59 64.6759 62.36ZM68.0559 68.74C69.9159 68.74 71.2359 67.34 71.2359 65.36C71.2359 63.38 69.9359 61.92 68.0759 61.92C66.1759 61.92 64.8959 63.38 64.8959 65.36C64.8959 67.36 66.1359 68.74 68.0559 68.74Z" fill="black"/>
<path d="M333.9 58.46C333.9 56.22 334.36 55.5 336.8 55.5H337.74V57.02H336.84C335.88 57.02 335.72 57.24 335.72 58.36V59.24H337.74V60.7H335.72V70H333.9V60.7H332.4V59.24H333.9V58.46ZM341.53 55.5V57.7H339.71V55.5H341.53ZM341.53 59.24V70H339.71V59.24H341.53ZM346.237 60.86C346.857 59.84 347.897 59.06 349.717 59.06C352.317 59.06 353.257 60.74 353.257 63.2V70H351.437V63.74C351.437 62.08 351.157 60.64 349.077 60.64C347.317 60.64 346.237 61.86 346.237 64.16V70H344.417V59.24H346.237V60.86ZM357.799 55.5V57.7H355.979V55.5H357.799ZM357.799 59.24V70H355.979V59.24H357.799ZM366.846 62.38C366.566 61.1 365.566 60.6 364.306 60.6C363.246 60.6 362.046 60.98 362.046 61.96C362.046 62.82 362.646 63.22 363.686 63.42L365.206 63.72C367.166 64.1 368.886 64.84 368.886 66.92C368.886 69.04 366.966 70.26 364.506 70.26C361.686 70.26 360.086 68.4 359.886 66.52H361.806C362.086 67.9 362.946 68.72 364.546 68.72C365.926 68.72 367.046 68.12 367.046 67.12C367.046 66.04 366.026 65.58 364.866 65.34L363.266 65.02C361.806 64.72 360.206 64.04 360.206 62.04C360.206 60.14 362.126 59.04 364.506 59.04C366.826 59.04 368.406 60.34 368.746 62.38H366.846ZM373.014 60.86C373.634 59.84 374.674 59.06 376.494 59.06C379.094 59.06 380.034 60.74 380.034 63.2V70H378.214V63.74C378.214 62.08 377.934 60.64 375.854 60.64C374.094 60.64 373.014 61.86 373.014 64.16V70H371.194V55.5H373.014V60.86Z" fill="black"/>
<path d="M37.2364 308.32V310H28.0764V308.32H31.9564V298.86H28.0964V297.6C30.3164 297.54 31.7364 297.28 32.5364 295.68H33.7764V308.32H37.2364ZM40.7311 310V307.7H43.0311V310H40.7311ZM54.26 310H52.44V295.5H54.26V310ZM58.967 295.5V297.7H57.147V295.5H58.967ZM58.967 299.24V310H57.147V299.24H58.967ZM63.0741 305.22C63.1541 307.54 64.7941 308.66 66.3941 308.66C67.9941 308.66 68.8741 307.94 69.3341 306.88H71.2141C70.7141 308.74 69.0141 310.26 66.3941 310.26C62.9941 310.26 61.1141 307.82 61.1141 304.64C61.1141 301.24 63.3941 299.06 66.3341 299.06C69.6141 299.06 71.5941 301.82 71.3541 305.22H63.0741ZM63.0941 303.66H69.4341C69.3941 302.14 68.2541 300.62 66.3341 300.62C64.7141 300.62 63.2541 301.5 63.0941 303.66ZM87.8413 304.66C87.8413 308.56 85.1813 310.26 82.6813 310.26C80.1813 310.26 77.5213 308.56 77.5213 304.66C77.5213 300.76 80.1813 299.06 82.6813 299.06C85.1813 299.06 87.8413 300.76 87.8413 304.66ZM82.6813 308.66C84.3213 308.66 85.9013 307.42 85.9013 304.66C85.9013 301.8 84.3213 300.66 82.6813 300.66C81.0413 300.66 79.4613 301.72 79.4613 304.66C79.4613 307.52 81.0413 308.66 82.6813 308.66ZM91.8381 300.86C92.4581 299.84 93.4981 299.06 95.3181 299.06C97.9181 299.06 98.8581 300.74 98.8581 303.2V310H97.0381V303.74C97.0381 302.08 96.7581 300.64 94.6781 300.64C92.9181 300.64 91.8381 301.86 91.8381 304.16V310H90.0181V299.24H91.8381V300.86ZM105.687 307.16C105.687 304.62 108.547 303.88 112.967 303.38V303.12C112.967 301.16 111.867 300.5 110.527 300.5C109.027 300.5 108.147 301.32 108.067 302.64H106.187C106.367 300.32 108.407 299.02 110.507 299.02C113.467 299.02 114.807 300.44 114.787 303.46L114.767 305.94C114.747 307.74 114.847 308.98 115.047 310H113.207C113.147 309.6 113.087 309.16 113.067 308.52C112.407 309.62 111.287 310.26 109.387 310.26C107.367 310.26 105.687 309.14 105.687 307.16ZM113.107 304.82C109.807 305.16 107.707 305.64 107.707 307.12C107.707 308.14 108.487 308.82 109.787 308.82C111.487 308.82 113.107 308.04 113.107 305.5V304.82ZM124.065 295.5V300.94C124.725 299.8 125.865 299.06 127.585 299.06C130.045 299.06 132.185 301.12 132.185 304.66C132.185 308.22 130.045 310.26 127.585 310.26C125.865 310.26 124.725 309.52 124.065 308.38V310H122.245V295.5H124.065ZM127.125 308.7C128.985 308.7 130.205 307.22 130.205 304.66C130.205 302.1 128.985 300.62 127.125 300.62C125.505 300.62 123.985 301.82 123.985 304.66C123.985 307.5 125.505 308.7 127.125 308.7ZM135.633 305.22C135.713 307.54 137.353 308.66 138.953 308.66C140.553 308.66 141.433 307.94 141.893 306.88H143.773C143.273 308.74 141.573 310.26 138.953 310.26C135.553 310.26 133.673 307.82 133.673 304.64C133.673 301.24 135.953 299.06 138.893 299.06C142.173 299.06 144.153 301.82 143.913 305.22H135.633ZM135.653 303.66H141.993C141.953 302.14 140.813 300.62 138.893 300.62C137.273 300.62 135.813 301.5 135.653 303.66ZM147.854 300.86C148.474 299.84 149.514 299.06 151.334 299.06C153.934 299.06 154.874 300.74 154.874 303.2V310H153.054V303.74C153.054 302.08 152.774 300.64 150.694 300.64C148.934 300.64 147.854 301.86 147.854 304.16V310H146.034V299.24H147.854V300.86ZM166.556 302.84H164.716C164.456 301.56 163.336 300.66 161.936 300.66C160.316 300.66 158.836 301.92 158.836 304.62C158.836 307.36 160.336 308.66 161.936 308.66C163.456 308.66 164.536 307.64 164.796 306.5H166.676C166.316 308.52 164.376 310.26 161.876 310.26C158.796 310.26 156.856 307.92 156.856 304.64C156.856 301.44 158.876 299.06 162.056 299.06C164.656 299.06 166.316 301.02 166.556 302.84ZM170.549 300.86C171.169 299.84 172.209 299.06 174.029 299.06C176.629 299.06 177.569 300.74 177.569 303.2V310H175.749V303.74C175.749 302.08 175.469 300.64 173.389 300.64C171.629 300.64 170.549 301.86 170.549 304.16V310H168.729V295.5H170.549V300.86ZM180.308 307.7H182.608V310.16L181.388 312.78H180.228L181.288 310H180.308V307.7ZM191.916 300.86C192.536 299.84 193.576 299.06 195.396 299.06C197.996 299.06 198.936 300.74 198.936 303.2V310H197.116V303.74C197.116 302.08 196.836 300.64 194.756 300.64C192.996 300.64 191.916 301.86 191.916 304.16V310H190.096V295.5H191.916V300.86ZM211.279 304.66C211.279 308.56 208.619 310.26 206.119 310.26C203.619 310.26 200.959 308.56 200.959 304.66C200.959 300.76 203.619 299.06 206.119 299.06C208.619 299.06 211.279 300.76 211.279 304.66ZM206.119 308.66C207.759 308.66 209.339 307.42 209.339 304.66C209.339 301.8 207.759 300.66 206.119 300.66C204.479 300.66 202.899 301.72 202.899 304.66C202.899 307.52 204.479 308.66 206.119 308.66ZM215.276 310H213.456V295.5H215.276V310ZM225.543 295.5H227.363V310H225.543V308.38C224.883 309.52 223.743 310.26 222.023 310.26C219.563 310.26 217.423 308.22 217.423 304.66C217.423 301.12 219.563 299.06 222.023 299.06C223.743 299.06 224.883 299.8 225.543 300.94V295.5ZM222.483 300.62C220.623 300.62 219.403 302.1 219.403 304.66C219.403 307.22 220.623 308.7 222.483 308.7C224.103 308.7 225.623 307.5 225.623 304.66C225.623 301.82 224.103 300.62 222.483 300.62ZM235.499 296.54H237.319V299.24H239.359V300.7H237.319V307.08C237.319 308.2 237.399 308.48 238.439 308.48H239.359V310H238.039C235.979 310 235.499 309.54 235.499 307.3V300.7H233.799V299.24H235.499V296.54ZM243.498 300.86C244.118 299.84 245.158 299.06 246.978 299.06C249.578 299.06 250.518 300.74 250.518 303.2V310H248.698V303.74C248.698 302.08 248.418 300.64 246.338 300.64C244.578 300.64 243.498 301.86 243.498 304.16V310H241.678V295.5H243.498V300.86ZM254.461 305.22C254.541 307.54 256.181 308.66 257.781 308.66C259.381 308.66 260.261 307.94 260.721 306.88H262.601C262.101 308.74 260.401 310.26 257.781 310.26C254.381 310.26 252.501 307.82 252.501 304.64C252.501 301.24 254.781 299.06 257.721 299.06C261.001 299.06 262.981 301.82 262.741 305.22H254.461ZM254.481 303.66H260.821C260.781 302.14 259.641 300.62 257.721 300.62C256.101 300.62 254.641 301.5 254.481 303.66ZM271.428 295.5V300.94C272.088 299.8 273.228 299.06 274.948 299.06C277.408 299.06 279.548 301.12 279.548 304.66C279.548 308.22 277.408 310.26 274.948 310.26C273.228 310.26 272.088 309.52 271.428 308.38V310H269.608V295.5H271.428ZM274.488 308.7C276.348 308.7 277.568 307.22 277.568 304.66C277.568 302.1 276.348 300.62 274.488 300.62C272.868 300.62 271.348 301.82 271.348 304.66C271.348 307.5 272.868 308.7 274.488 308.7ZM280.98 307.16C280.98 304.62 283.84 303.88 288.26 303.38V303.12C288.26 301.16 287.16 300.5 285.82 300.5C284.32 300.5 283.44 301.32 283.36 302.64H281.48C281.66 300.32 283.7 299.02 285.8 299.02C288.76 299.02 290.1 300.44 290.08 303.46L290.06 305.94C290.04 307.74 290.14 308.98 290.34 310H288.5C288.44 309.6 288.38 309.16 288.36 308.52C287.7 309.62 286.58 310.26 284.68 310.26C282.66 310.26 280.98 309.14 280.98 307.16ZM288.4 304.82C285.1 305.16 283 305.64 283 307.12C283 308.14 283.78 308.82 285.08 308.82C286.78 308.82 288.4 308.04 288.4 305.5V304.82ZM298.152 301.14C297.772 301.1 297.432 301.06 297.132 301.06C295.452 301.06 294.612 302 294.612 304.36V310H292.792V299.24H294.572V301.12C295.112 299.9 296.212 299.22 297.612 299.18C297.792 299.18 297.952 299.18 298.152 299.2V301.14ZM304.007 307.16C304.007 304.62 306.867 303.88 311.287 303.38V303.12C311.287 301.16 310.187 300.5 308.847 300.5C307.347 300.5 306.467 301.32 306.387 302.64H304.507C304.687 300.32 306.727 299.02 308.827 299.02C311.787 299.02 313.127 300.44 313.107 303.46L313.087 305.94C313.067 307.74 313.167 308.98 313.367 310H311.527C311.467 309.6 311.407 309.16 311.387 308.52C310.727 309.62 309.607 310.26 307.707 310.26C305.687 310.26 304.007 309.14 304.007 307.16ZM311.427 304.82C308.127 305.16 306.027 305.64 306.027 307.12C306.027 308.14 306.807 308.82 308.107 308.82C309.807 308.82 311.427 308.04 311.427 305.5V304.82ZM317.639 295.5V300.94C318.299 299.8 319.439 299.06 321.159 299.06C323.619 299.06 325.759 301.12 325.759 304.66C325.759 308.22 323.619 310.26 321.159 310.26C319.439 310.26 318.299 309.52 317.639 308.38V310H315.819V295.5H317.639ZM320.699 308.7C322.559 308.7 323.779 307.22 323.779 304.66C323.779 302.1 322.559 300.62 320.699 300.62C319.079 300.62 317.559 301.82 317.559 304.66C317.559 307.5 319.079 308.7 320.699 308.7ZM337.607 304.66C337.607 308.56 334.947 310.26 332.447 310.26C329.947 310.26 327.287 308.56 327.287 304.66C327.287 300.76 329.947 299.06 332.447 299.06C334.947 299.06 337.607 300.76 337.607 304.66ZM332.447 308.66C334.087 308.66 335.667 307.42 335.667 304.66C335.667 301.8 334.087 300.66 332.447 300.66C330.807 300.66 329.227 301.72 329.227 304.66C329.227 307.52 330.807 308.66 332.447 308.66ZM343.088 307.48L346.008 299.24H347.888L343.828 310H342.208L338.148 299.24H340.168L343.088 307.48ZM350.359 305.22C350.439 307.54 352.079 308.66 353.679 308.66C355.279 308.66 356.159 307.94 356.619 306.88H358.499C357.999 308.74 356.299 310.26 353.679 310.26C350.279 310.26 348.399 307.82 348.399 304.64C348.399 301.24 350.679 299.06 353.619 299.06C356.899 299.06 358.879 301.82 358.639 305.22H350.359ZM350.379 303.66H356.719C356.679 302.14 355.539 300.62 353.619 300.62C351.999 300.62 350.539 301.5 350.379 303.66ZM60.32 325.24L56.48 336.46C55.7 338.8 55.14 339.5 52.74 339.5H51.8V337.98H52.54C53.74 337.98 54.32 337.9 54.8 336.22L54.88 336L51 325.24H53.02L55.76 333.54L58.42 325.24H60.32ZM71.1811 330.66C71.1811 334.56 68.5211 336.26 66.0211 336.26C63.5211 336.26 60.8611 334.56 60.8611 330.66C60.8611 326.76 63.5211 325.06 66.0211 325.06C68.5211 325.06 71.1811 326.76 71.1811 330.66ZM66.0211 334.66C67.6611 334.66 69.2411 333.42 69.2411 330.66C69.2411 327.8 67.6611 326.66 66.0211 326.66C64.3811 326.66 62.8011 327.72 62.8011 330.66C62.8011 333.52 64.3811 334.66 66.0211 334.66ZM80.018 334.46C79.398 335.48 78.418 336.26 76.638 336.26C74.138 336.26 73.198 334.58 73.198 332.12V325.24H75.018V331.58C75.018 333.24 75.298 334.68 77.278 334.68C78.998 334.68 80.018 333.46 80.018 331.16V325.24H81.838V336H80.018V334.46ZM90.0852 327.14C89.7052 327.1 89.3652 327.06 89.0652 327.06C87.3852 327.06 86.5452 328 86.5452 330.36V336H84.7252V325.24H86.5052V327.12C87.0452 325.9 88.1452 325.22 89.5452 325.18C89.7252 325.18 89.8852 325.18 90.0852 325.2V327.14ZM105.541 328.84H103.701C103.441 327.56 102.321 326.66 100.921 326.66C99.3006 326.66 97.8206 327.92 97.8206 330.62C97.8206 333.36 99.3206 334.66 100.921 334.66C102.441 334.66 103.521 333.64 103.781 332.5H105.661C105.301 334.52 103.361 336.26 100.861 336.26C97.7806 336.26 95.8406 333.92 95.8406 330.64C95.8406 327.44 97.8606 325.06 101.041 325.06C103.641 325.06 105.301 327.02 105.541 328.84ZM109.533 326.86C110.153 325.84 111.193 325.06 113.013 325.06C115.613 325.06 116.553 326.74 116.553 329.2V336H114.733V329.74C114.733 328.08 114.453 326.64 112.373 326.64C110.613 326.64 109.533 327.86 109.533 330.16V336H107.713V321.5H109.533V326.86ZM120.496 331.22C120.576 333.54 122.216 334.66 123.816 334.66C125.416 334.66 126.296 333.94 126.756 332.88H128.636C128.136 334.74 126.436 336.26 123.816 336.26C120.416 336.26 118.536 333.82 118.536 330.64C118.536 327.24 120.816 325.06 123.756 325.06C127.036 325.06 129.016 327.82 128.776 331.22H120.496ZM120.516 329.66H126.856C126.816 328.14 125.676 326.62 123.756 326.62C122.136 326.62 120.676 327.5 120.516 329.66ZM137.096 328.38C136.816 327.1 135.816 326.6 134.556 326.6C133.496 326.6 132.296 326.98 132.296 327.96C132.296 328.82 132.896 329.22 133.936 329.42L135.456 329.72C137.416 330.1 139.136 330.84 139.136 332.92C139.136 335.04 137.216 336.26 134.756 336.26C131.936 336.26 130.336 334.4 130.136 332.52H132.056C132.336 333.9 133.196 334.72 134.796 334.72C136.176 334.72 137.296 334.12 137.296 333.12C137.296 332.04 136.276 331.58 135.116 331.34L133.516 331.02C132.056 330.72 130.456 330.04 130.456 328.04C130.456 326.14 132.376 325.04 134.756 325.04C137.076 325.04 138.656 326.34 138.996 328.38H137.096ZM141.964 322.54H143.784V325.24H145.824V326.7H143.784V333.08C143.784 334.2 143.864 334.48 144.904 334.48H145.824V336H144.504C142.444 336 141.964 335.54 141.964 333.3V326.7H140.264V325.24H141.964V322.54ZM157.514 325.24H159.394L161.534 333.2L163.594 325.24H165.554L162.454 336H160.794L158.414 327.34L156.114 336H154.454L151.354 325.24H153.314L155.374 333.2L157.514 325.24ZM168.908 321.5V323.7H167.088V321.5H168.908ZM168.908 325.24V336H167.088V325.24H168.908ZM172.315 322.54H174.135V325.24H176.175V326.7H174.135V333.08C174.135 334.2 174.215 334.48 175.255 334.48H176.175V336H174.855C172.795 336 172.315 335.54 172.315 333.3V326.7H170.615V325.24H172.315V322.54ZM180.315 326.86C180.935 325.84 181.975 325.06 183.795 325.06C186.395 325.06 187.335 326.74 187.335 329.2V336H185.515V329.74C185.515 328.08 185.235 326.64 183.155 326.64C181.395 326.64 180.315 327.86 180.315 330.16V336H178.495V321.5H180.315V326.86ZM200.963 328.38C200.683 327.1 199.683 326.6 198.423 326.6C197.363 326.6 196.163 326.98 196.163 327.96C196.163 328.82 196.763 329.22 197.803 329.42L199.323 329.72C201.283 330.1 203.003 330.84 203.003 332.92C203.003 335.04 201.083 336.26 198.623 336.26C195.803 336.26 194.203 334.4 194.003 332.52H195.923C196.203 333.9 197.063 334.72 198.663 334.72C200.043 334.72 201.163 334.12 201.163 333.12C201.163 332.04 200.143 331.58 198.983 331.34L197.383 331.02C195.923 330.72 194.323 330.04 194.323 328.04C194.323 326.14 196.243 325.04 198.623 325.04C200.943 325.04 202.523 326.34 202.863 328.38H200.963ZM205.831 322.54H207.651V325.24H209.691V326.7H207.651V333.08C207.651 334.2 207.731 334.48 208.771 334.48H209.691V336H208.371C206.311 336 205.831 335.54 205.831 333.3V326.7H204.131V325.24H205.831V322.54ZM217.175 327.14C216.795 327.1 216.455 327.06 216.155 327.06C214.475 327.06 213.635 328 213.635 330.36V336H211.815V325.24H213.595V327.12C214.135 325.9 215.235 325.22 216.635 325.18C216.815 325.18 216.975 325.18 217.175 325.2V327.14ZM217.894 333.16C217.894 330.62 220.754 329.88 225.174 329.38V329.12C225.174 327.16 224.074 326.5 222.734 326.5C221.234 326.5 220.354 327.32 220.274 328.64H218.394C218.574 326.32 220.614 325.02 222.714 325.02C225.674 325.02 227.014 326.44 226.994 329.46L226.974 331.94C226.954 333.74 227.054 334.98 227.254 336H225.414C225.354 335.6 225.294 335.16 225.274 334.52C224.614 335.62 223.494 336.26 221.594 336.26C219.574 336.26 217.894 335.14 217.894 333.16ZM225.314 330.82C222.014 331.16 219.914 331.64 219.914 333.12C219.914 334.14 220.694 334.82 221.994 334.82C223.694 334.82 225.314 334.04 225.314 331.5V330.82ZM231.526 321.5V323.7H229.706V321.5H231.526ZM231.526 325.24V336H229.706V325.24H231.526ZM241.653 325.24H243.473V334.56C243.473 336.76 243.073 337.66 242.453 338.34C241.673 339.24 240.333 339.76 238.733 339.76C236.293 339.76 234.653 338.64 234.313 336.46H236.253C236.493 337.42 237.073 338.16 238.753 338.16C239.733 338.16 240.473 337.88 240.953 337.36C241.353 336.94 241.653 336.44 241.653 334.98V333.96C240.993 335.1 239.953 335.82 238.233 335.82C235.853 335.82 233.673 333.9 233.673 330.44C233.673 327 235.853 325.06 238.233 325.06C239.953 325.06 240.993 325.8 241.653 326.94V325.24ZM238.693 326.62C236.913 326.62 235.653 328 235.653 330.44C235.653 332.9 236.913 334.28 238.693 334.28C240.313 334.28 241.733 333.18 241.733 330.44C241.733 327.72 240.313 326.62 238.693 326.62ZM248.166 326.86C248.786 325.84 249.826 325.06 251.646 325.06C254.246 325.06 255.186 326.74 255.186 329.2V336H253.366V329.74C253.366 328.08 253.086 326.64 251.006 326.64C249.246 326.64 248.166 327.86 248.166 330.16V336H246.346V321.5H248.166V326.86ZM258.429 322.54H260.249V325.24H262.289V326.7H260.249V333.08C260.249 334.2 260.329 334.48 261.369 334.48H262.289V336H260.969C258.909 336 258.429 335.54 258.429 333.3V326.7H256.729V325.24H258.429V322.54ZM268.519 333.16C268.519 330.62 271.379 329.88 275.799 329.38V329.12C275.799 327.16 274.699 326.5 273.359 326.5C271.859 326.5 270.979 327.32 270.899 328.64H269.019C269.199 326.32 271.239 325.02 273.339 325.02C276.299 325.02 277.639 326.44 277.619 329.46L277.599 331.94C277.579 333.74 277.679 334.98 277.879 336H276.039C275.979 335.6 275.919 335.16 275.899 334.52C275.239 335.62 274.119 336.26 272.219 336.26C270.199 336.26 268.519 335.14 268.519 333.16ZM275.939 330.82C272.639 331.16 270.539 331.64 270.539 333.12C270.539 334.14 271.319 334.82 272.619 334.82C274.319 334.82 275.939 334.04 275.939 331.5V330.82ZM285.691 327.14C285.311 327.1 284.971 327.06 284.671 327.06C282.991 327.06 282.151 328 282.151 330.36V336H280.331V325.24H282.111V327.12C282.651 325.9 283.751 325.22 285.151 325.18C285.331 325.18 285.491 325.18 285.691 325.2V327.14ZM289.26 336H287.44V325.24H289.26V326.86C289.88 325.84 290.88 325.06 292.5 325.06C294.14 325.06 295.12 325.78 295.6 326.96C296.46 325.64 297.72 325.06 299.22 325.06C301.72 325.06 302.7 326.74 302.7 329.2V336H300.88V329.74C300.88 328.08 300.56 326.64 298.58 326.64C297.02 326.64 295.98 327.86 295.98 330.16V336H294.16V329.74C294.16 328.08 293.84 326.64 291.86 326.64C290.3 326.64 289.26 327.86 289.26 330.16V336ZM311.588 328.38C311.308 327.1 310.308 326.6 309.048 326.6C307.988 326.6 306.788 326.98 306.788 327.96C306.788 328.82 307.388 329.22 308.428 329.42L309.948 329.72C311.908 330.1 313.628 330.84 313.628 332.92C313.628 335.04 311.708 336.26 309.248 336.26C306.428 336.26 304.828 334.4 304.628 332.52H306.548C306.828 333.9 307.688 334.72 309.288 334.72C310.668 334.72 311.788 334.12 311.788 333.12C311.788 332.04 310.768 331.58 309.608 331.34L308.008 331.02C306.548 330.72 304.948 330.04 304.948 328.04C304.948 326.14 306.868 325.04 309.248 325.04C311.568 325.04 313.148 326.34 313.488 328.38H311.588ZM37.4564 361.04C37.4564 364.4 33.9564 367.38 29.8964 370.3H37.8564V372H27.4164V370.36C32.5364 366.58 35.5364 363.84 35.5364 361.28C35.5364 359.78 34.5364 358.76 32.8164 358.76C31.2564 358.76 29.7364 359.62 29.6964 362.02H27.8164C27.7764 359.14 29.7764 357.24 32.8564 357.24C35.5364 357.24 37.4564 358.6 37.4564 361.04ZM40.7311 372V369.7H43.0311V372H40.7311ZM58.6 364.38C58.32 363.1 57.32 362.6 56.06 362.6C55 362.6 53.8 362.98 53.8 363.96C53.8 364.82 54.4 365.22 55.44 365.42L56.96 365.72C58.92 366.1 60.64 366.84 60.64 368.92C60.64 371.04 58.72 372.26 56.26 372.26C53.44 372.26 51.84 370.4 51.64 368.52H53.56C53.84 369.9 54.7 370.72 56.3 370.72C57.68 370.72 58.8 370.12 58.8 369.12C58.8 368.04 57.78 367.58 56.62 367.34L55.02 367.02C53.56 366.72 51.96 366.04 51.96 364.04C51.96 362.14 53.88 361.04 56.26 361.04C58.58 361.04 60.16 362.34 60.5 364.38H58.6ZM64.7678 372H62.9478V357.5H64.7678V372ZM77.2748 366.66C77.2748 370.56 74.6148 372.26 72.1148 372.26C69.6148 372.26 66.9548 370.56 66.9548 366.66C66.9548 362.76 69.6148 361.06 72.1148 361.06C74.6148 361.06 77.2748 362.76 77.2748 366.66ZM72.1148 370.66C73.7548 370.66 75.3348 369.42 75.3348 366.66C75.3348 363.8 73.7548 362.66 72.1148 362.66C70.4748 362.66 68.8948 363.72 68.8948 366.66C68.8948 369.52 70.4748 370.66 72.1148 370.66ZM84.1741 361.24H86.0541L88.1941 369.2L90.2541 361.24H92.2141L89.1141 372H87.4541L85.0741 363.34L82.7741 372H81.1141L78.0141 361.24H79.9741L82.0341 369.2L84.1741 361.24ZM95.5686 372H93.7486V357.5H95.5686V372ZM106.336 361.24L102.496 372.46C101.716 374.8 101.156 375.5 98.7556 375.5H97.8156V373.98H98.5556C99.7556 373.98 100.336 373.9 100.816 372.22L100.896 372L97.0156 361.24H99.0356L101.776 369.54L104.436 361.24H106.336ZM114.338 372H112.518V357.5H114.338V372ZM126.845 366.66C126.845 370.56 124.185 372.26 121.685 372.26C119.185 372.26 116.525 370.56 116.525 366.66C116.525 362.76 119.185 361.06 121.685 361.06C124.185 361.06 126.845 362.76 126.845 366.66ZM121.685 370.66C123.325 370.66 124.905 369.42 124.905 366.66C124.905 363.8 123.325 362.66 121.685 362.66C120.045 362.66 118.465 363.72 118.465 366.66C118.465 369.52 120.045 370.66 121.685 370.66ZM133.744 361.24H135.624L137.764 369.2L139.824 361.24H141.784L138.684 372H137.024L134.644 363.34L132.344 372H130.684L127.584 361.24H129.544L131.604 369.2L133.744 361.24ZM144.441 367.22C144.521 369.54 146.161 370.66 147.761 370.66C149.361 370.66 150.241 369.94 150.701 368.88H152.581C152.081 370.74 150.381 372.26 147.761 372.26C144.361 372.26 142.481 369.82 142.481 366.64C142.481 363.24 144.761 361.06 147.701 361.06C150.981 361.06 152.961 363.82 152.721 367.22H144.441ZM144.461 365.66H150.801C150.761 364.14 149.621 362.62 147.701 362.62C146.081 362.62 144.621 363.5 144.461 365.66ZM160.202 363.14C159.822 363.1 159.482 363.06 159.182 363.06C157.502 363.06 156.662 364 156.662 366.36V372H154.842V361.24H156.622V363.12C157.162 361.9 158.262 361.22 159.662 361.18C159.842 361.18 160.002 361.18 160.202 361.2V363.14ZM168.518 357.5V359.7H166.698V357.5H168.518ZM168.518 361.24V372H166.698V361.24H168.518ZM171.925 358.54H173.745V361.24H175.785V362.7H173.745V369.08C173.745 370.2 173.825 370.48 174.865 370.48H175.785V372H174.465C172.405 372 171.925 371.54 171.925 369.3V362.7H170.225V361.24H171.925V358.54ZM183.175 358.54H184.995V361.24H187.035V362.7H184.995V369.08C184.995 370.2 185.075 370.48 186.115 370.48H187.035V372H185.715C183.655 372 183.175 371.54 183.175 369.3V362.7H181.475V361.24H183.175V358.54ZM198.681 366.66C198.681 370.56 196.021 372.26 193.521 372.26C191.021 372.26 188.361 370.56 188.361 366.66C188.361 362.76 191.021 361.06 193.521 361.06C196.021 361.06 198.681 362.76 198.681 366.66ZM193.521 370.66C195.161 370.66 196.741 369.42 196.741 366.66C196.741 363.8 195.161 362.66 193.521 362.66C191.881 362.66 190.301 363.72 190.301 366.66C190.301 369.52 191.881 370.66 193.521 370.66ZM213.484 361.24L209.644 372.46C208.864 374.8 208.304 375.5 205.904 375.5H204.964V373.98H205.704C206.904 373.98 207.484 373.9 207.964 372.22L208.044 372L204.164 361.24H206.184L208.924 369.54L211.584 361.24H213.484ZM224.345 366.66C224.345 370.56 221.685 372.26 219.185 372.26C216.685 372.26 214.025 370.56 214.025 366.66C214.025 362.76 216.685 361.06 219.185 361.06C221.685 361.06 224.345 362.76 224.345 366.66ZM219.185 370.66C220.825 370.66 222.405 369.42 222.405 366.66C222.405 363.8 220.825 362.66 219.185 362.66C217.545 362.66 215.965 363.72 215.965 366.66C215.965 369.52 217.545 370.66 219.185 370.66ZM233.182 370.46C232.562 371.48 231.582 372.26 229.802 372.26C227.302 372.26 226.362 370.58 226.362 368.12V361.24H228.182V367.58C228.182 369.24 228.462 370.68 230.442 370.68C232.162 370.68 233.182 369.46 233.182 367.16V361.24H235.002V372H233.182V370.46ZM243.249 363.14C242.869 363.1 242.529 363.06 242.229 363.06C240.549 363.06 239.709 364 239.709 366.36V372H237.889V361.24H239.669V363.12C240.209 361.9 241.309 361.22 242.709 361.18C242.889 361.18 243.049 361.18 243.249 361.2V363.14ZM258.705 364.84H256.865C256.605 363.56 255.485 362.66 254.085 362.66C252.465 362.66 250.985 363.92 250.985 366.62C250.985 369.36 252.485 370.66 254.085 370.66C255.605 370.66 256.685 369.64 256.945 368.5H258.825C258.465 370.52 256.525 372.26 254.025 372.26C250.945 372.26 249.005 369.92 249.005 366.64C249.005 363.44 251.025 361.06 254.205 361.06C256.805 361.06 258.465 363.02 258.705 364.84ZM262.698 362.86C263.318 361.84 264.358 361.06 266.178 361.06C268.778 361.06 269.717 362.74 269.717 365.2V372H267.898V365.74C267.898 364.08 267.618 362.64 265.538 362.64C263.778 362.64 262.698 363.86 262.698 366.16V372H260.878V357.5H262.698V362.86ZM273.66 367.22C273.74 369.54 275.38 370.66 276.98 370.66C278.58 370.66 279.46 369.94 279.92 368.88H281.8C281.3 370.74 279.6 372.26 276.98 372.26C273.58 372.26 271.7 369.82 271.7 366.64C271.7 363.24 273.98 361.06 276.92 361.06C280.2 361.06 282.18 363.82 281.94 367.22H273.66ZM273.68 365.66H280.02C279.98 364.14 278.84 362.62 276.92 362.62C275.3 362.62 273.84 363.5 273.68 365.66ZM290.26 364.38C289.98 363.1 288.98 362.6 287.72 362.6C286.66 362.6 285.46 362.98 285.46 363.96C285.46 364.82 286.06 365.22 287.1 365.42L288.62 365.72C290.58 366.1 292.3 366.84 292.3 368.92C292.3 371.04 290.38 372.26 287.92 372.26C285.1 372.26 283.5 370.4 283.3 368.52H285.22C285.5 369.9 286.36 370.72 287.96 370.72C289.34 370.72 290.46 370.12 290.46 369.12C290.46 368.04 289.44 367.58 288.28 367.34L286.68 367.02C285.22 366.72 283.62 366.04 283.62 364.04C283.62 362.14 285.54 361.04 287.92 361.04C290.24 361.04 291.82 362.34 292.16 364.38H290.26ZM295.128 358.54H296.948V361.24H298.988V362.7H296.948V369.08C296.948 370.2 297.028 370.48 298.068 370.48H298.988V372H297.668C295.608 372 295.128 371.54 295.128 369.3V362.7H293.428V361.24H295.128V358.54ZM35.9164 403.94C35.9164 401.86 34.0564 401.18 31.7364 401.18H31.4364V399.52H31.6764C34.1964 399.52 35.5364 398.82 35.5364 397.12C35.5364 395.56 34.2564 394.76 32.7164 394.76C30.7764 394.76 29.7164 395.94 29.5564 397.58H27.6764C27.8964 395.02 29.7164 393.24 32.7564 393.24C35.2764 393.24 37.4564 394.24 37.4564 396.92C37.4564 398.4 36.6164 399.66 35.0964 400.28C37.2564 400.96 37.8564 402.4 37.8564 403.92C37.8564 406.84 35.3764 408.26 32.6164 408.26C29.2164 408.26 27.6564 406.14 27.4564 403.72H29.3364C29.5364 405.5 30.5964 406.74 32.6364 406.74C34.5564 406.74 35.9164 405.74 35.9164 403.94ZM40.7311 408V405.7H43.0311V408H40.7311ZM54.26 397.24V398.94C54.92 397.8 56.06 397.06 57.78 397.06C60.24 397.06 62.38 399.12 62.38 402.66C62.38 406.22 60.24 408.26 57.78 408.26C56.06 408.26 54.92 407.52 54.26 406.38V411.5H52.44V397.24H54.26ZM57.32 406.7C59.18 406.7 60.4 405.22 60.4 402.66C60.4 400.1 59.18 398.62 57.32 398.62C55.7 398.62 54.18 399.82 54.18 402.66C54.18 405.5 55.7 406.7 57.32 406.7ZM71.1703 406.46C70.5503 407.48 69.5703 408.26 67.7903 408.26C65.2903 408.26 64.3503 406.58 64.3503 404.12V397.24H66.1703V403.58C66.1703 405.24 66.4503 406.68 68.4303 406.68C70.1503 406.68 71.1703 405.46 71.1703 403.16V397.24H72.9903V408H71.1703V406.46ZM82.0375 400.38C81.7575 399.1 80.7575 398.6 79.4975 398.6C78.4375 398.6 77.2375 398.98 77.2375 399.96C77.2375 400.82 77.8375 401.22 78.8775 401.42L80.3975 401.72C82.3575 402.1 84.0775 402.84 84.0775 404.92C84.0775 407.04 82.1575 408.26 79.6975 408.26C76.8775 408.26 75.2775 406.4 75.0775 404.52H76.9975C77.2775 405.9 78.1375 406.72 79.7375 406.72C81.1175 406.72 82.2375 406.12 82.2375 405.12C82.2375 404.04 81.2175 403.58 80.0575 403.34L78.4575 403.02C76.9975 402.72 75.3975 402.04 75.3975 400.04C75.3975 398.14 77.3175 397.04 79.6975 397.04C82.0175 397.04 83.5975 398.34 83.9375 400.38H82.0375ZM88.2053 398.86C88.8253 397.84 89.8653 397.06 91.6853 397.06C94.2853 397.06 95.2253 398.74 95.2253 401.2V408H93.4053V401.74C93.4053 400.08 93.1253 398.64 91.0453 398.64C89.2853 398.64 88.2053 399.86 88.2053 402.16V408H86.3853V393.5H88.2053V398.86ZM104.514 393.5V395.7H102.694V393.5H104.514ZM104.514 397.24V408H102.694V397.24H104.514ZM107.921 394.54H109.741V397.24H111.781V398.7H109.741V405.08C109.741 406.2 109.821 406.48 110.861 406.48H111.781V408H110.461C108.401 408 107.921 407.54 107.921 405.3V398.7H106.221V397.24H107.921V394.54ZM120.471 393.5V398.94C121.131 397.8 122.271 397.06 123.991 397.06C126.451 397.06 128.591 399.12 128.591 402.66C128.591 406.22 126.451 408.26 123.991 408.26C122.271 408.26 121.131 407.52 120.471 406.38V408H118.651V393.5H120.471ZM123.531 406.7C125.391 406.7 126.611 405.22 126.611 402.66C126.611 400.1 125.391 398.62 123.531 398.62C121.911 398.62 120.391 399.82 120.391 402.66C120.391 405.5 121.911 406.7 123.531 406.7ZM130.023 405.16C130.023 402.62 132.883 401.88 137.303 401.38V401.12C137.303 399.16 136.203 398.5 134.863 398.5C133.363 398.5 132.483 399.32 132.403 400.64H130.523C130.703 398.32 132.743 397.02 134.843 397.02C137.803 397.02 139.143 398.44 139.123 401.46L139.103 403.94C139.083 405.74 139.183 406.98 139.383 408H137.543C137.483 407.6 137.423 407.16 137.403 406.52C136.743 407.62 135.623 408.26 133.723 408.26C131.703 408.26 130.023 407.14 130.023 405.16ZM137.443 402.82C134.143 403.16 132.043 403.64 132.043 405.12C132.043 406.14 132.823 406.82 134.123 406.82C135.823 406.82 137.443 406.04 137.443 403.5V402.82ZM150.795 400.84H148.955C148.695 399.56 147.575 398.66 146.175 398.66C144.555 398.66 143.075 399.92 143.075 402.62C143.075 405.36 144.575 406.66 146.175 406.66C147.695 406.66 148.775 405.64 149.035 404.5H150.915C150.555 406.52 148.615 408.26 146.115 408.26C143.035 408.26 141.095 405.92 141.095 402.64C141.095 399.44 143.115 397.06 146.295 397.06C148.895 397.06 150.555 399.02 150.795 400.84ZM154.787 393.5V402.08L159.127 397.24H161.367L157.267 401.7L161.927 408H159.707L156.047 403.04L154.787 404.4V408H152.967V393.5H154.787ZM174.471 406.46C173.851 407.48 172.871 408.26 171.091 408.26C168.591 408.26 167.651 406.58 167.651 404.12V397.24H169.471V403.58C169.471 405.24 169.751 406.68 171.731 406.68C173.451 406.68 174.471 405.46 174.471 403.16V397.24H176.291V408H174.471V406.46ZM180.998 397.24V398.94C181.658 397.8 182.798 397.06 184.518 397.06C186.978 397.06 189.118 399.12 189.118 402.66C189.118 406.22 186.978 408.26 184.518 408.26C182.798 408.26 181.658 407.52 180.998 406.38V411.5H179.178V397.24H180.998ZM184.058 406.7C185.918 406.7 187.138 405.22 187.138 402.66C187.138 400.1 185.918 398.62 184.058 398.62C182.438 398.62 180.918 399.82 180.918 402.66C180.918 405.5 182.438 406.7 184.058 406.7ZM200.815 397.24H202.695L204.835 405.2L206.895 397.24H208.855L205.755 408H204.095L201.715 399.34L199.415 408H197.755L194.655 397.24H196.615L198.675 405.2L200.815 397.24ZM212.209 398.86C212.829 397.84 213.869 397.06 215.689 397.06C218.289 397.06 219.229 398.74 219.229 401.2V408H217.409V401.74C217.409 400.08 217.129 398.64 215.049 398.64C213.289 398.64 212.209 399.86 212.209 402.16V408H210.389V393.5H212.209V398.86ZM223.772 393.5V395.7H221.952V393.5H223.772ZM223.772 397.24V408H221.952V397.24H223.772ZM228.479 408H226.659V393.5H228.479V408ZM232.586 403.22C232.666 405.54 234.306 406.66 235.906 406.66C237.506 406.66 238.386 405.94 238.846 404.88H240.726C240.226 406.74 238.526 408.26 235.906 408.26C232.506 408.26 230.626 405.82 230.626 402.64C230.626 399.24 232.906 397.06 235.846 397.06C239.126 397.06 241.106 399.82 240.866 403.22H232.586ZM232.606 401.66H238.946C238.906 400.14 237.766 398.62 235.846 398.62C234.226 398.62 232.766 399.5 232.606 401.66ZM249.553 393.5V402.08L253.893 397.24H256.133L252.033 401.7L256.693 408H254.473L250.813 403.04L249.553 404.4V408H247.733V393.5H249.553ZM258.758 403.22C258.838 405.54 260.478 406.66 262.078 406.66C263.678 406.66 264.558 405.94 265.018 404.88H266.898C266.398 406.74 264.698 408.26 262.078 408.26C258.678 408.26 256.798 405.82 256.798 402.64C256.798 399.24 259.078 397.06 262.018 397.06C265.298 397.06 267.278 399.82 267.038 403.22H258.758ZM258.778 401.66H265.118C265.078 400.14 263.938 398.62 262.018 398.62C260.398 398.62 258.938 399.5 258.778 401.66ZM270.476 403.22C270.556 405.54 272.196 406.66 273.796 406.66C275.396 406.66 276.276 405.94 276.736 404.88H278.616C278.116 406.74 276.416 408.26 273.796 408.26C270.396 408.26 268.516 405.82 268.516 402.64C268.516 399.24 270.796 397.06 273.736 397.06C277.016 397.06 278.996 399.82 278.756 403.22H270.476ZM270.496 401.66H276.836C276.796 400.14 275.656 398.62 273.736 398.62C272.116 398.62 270.656 399.5 270.496 401.66ZM282.698 397.24V398.94C283.358 397.8 284.498 397.06 286.218 397.06C288.678 397.06 290.818 399.12 290.818 402.66C290.818 406.22 288.678 408.26 286.218 408.26C284.498 408.26 283.358 407.52 282.698 406.38V411.5H280.878V397.24H282.698ZM285.758 406.7C287.618 406.7 288.838 405.22 288.838 402.66C288.838 400.1 287.618 398.62 285.758 398.62C284.138 398.62 282.618 399.82 282.618 402.66C282.618 405.5 284.138 406.7 285.758 406.7ZM294.768 393.5V395.7H292.948V393.5H294.768ZM294.768 397.24V408H292.948V397.24H294.768ZM299.475 398.86C300.095 397.84 301.135 397.06 302.955 397.06C305.555 397.06 306.495 398.74 306.495 401.2V408H304.675V401.74C304.675 400.08 304.395 398.64 302.315 398.64C300.555 398.64 299.475 399.86 299.475 402.16V408H297.655V397.24H299.475V398.86ZM316.457 397.24H318.277V406.56C318.277 408.76 317.877 409.66 317.257 410.34C316.477 411.24 315.137 411.76 313.537 411.76C311.097 411.76 309.457 410.64 309.117 408.46H311.057C311.297 409.42 311.877 410.16 313.557 410.16C314.537 410.16 315.277 409.88 315.757 409.36C316.157 408.94 316.457 408.44 316.457 406.98V405.96C315.797 407.1 314.757 407.82 313.037 407.82C310.657 407.82 308.477 405.9 308.477 402.44C308.477 399 310.657 397.06 313.037 397.06C314.757 397.06 315.797 397.8 316.457 398.94V397.24ZM313.497 398.62C311.717 398.62 310.457 400 310.457 402.44C310.457 404.9 311.717 406.28 313.497 406.28C315.117 406.28 316.537 405.18 316.537 402.44C316.537 399.72 315.117 398.62 313.497 398.62ZM333.777 397.24L329.937 408.46C329.157 410.8 328.597 411.5 326.197 411.5H325.257V409.98H325.997C327.197 409.98 327.777 409.9 328.257 408.22L328.337 408L324.457 397.24H326.477L329.217 405.54L331.877 397.24H333.777ZM344.638 402.66C344.638 406.56 341.978 408.26 339.478 408.26C336.978 408.26 334.318 406.56 334.318 402.66C334.318 398.76 336.978 397.06 339.478 397.06C341.978 397.06 344.638 398.76 344.638 402.66ZM339.478 406.66C341.118 406.66 342.698 405.42 342.698 402.66C342.698 399.8 341.118 398.66 339.478 398.66C337.838 398.66 336.258 399.72 336.258 402.66C336.258 405.52 337.838 406.66 339.478 406.66ZM353.475 406.46C352.855 407.48 351.875 408.26 350.095 408.26C347.595 408.26 346.655 406.58 346.655 404.12V397.24H348.475V403.58C348.475 405.24 348.755 406.68 350.735 406.68C352.455 406.68 353.475 405.46 353.475 403.16V397.24H355.295V408H353.475V406.46ZM363.542 399.14C363.162 399.1 362.822 399.06 362.522 399.06C360.842 399.06 360.002 400 360.002 402.36V408H358.182V397.24H359.962V399.12C360.502 397.9 361.602 397.22 363.002 397.18C363.182 397.18 363.342 397.18 363.542 397.2V399.14ZM54.26 419.5V424.94C54.92 423.8 56.06 423.06 57.78 423.06C60.24 423.06 62.38 425.12 62.38 428.66C62.38 432.22 60.24 434.26 57.78 434.26C56.06 434.26 54.92 433.52 54.26 432.38V434H52.44V419.5H54.26ZM57.32 432.7C59.18 432.7 60.4 431.22 60.4 428.66C60.4 426.1 59.18 424.62 57.32 424.62C55.7 424.62 54.18 425.82 54.18 428.66C54.18 431.5 55.7 432.7 57.32 432.7ZM63.8117 431.16C63.8117 428.62 66.6717 427.88 71.0917 427.38V427.12C71.0917 425.16 69.9917 424.5 68.6517 424.5C67.1517 424.5 66.2717 425.32 66.1917 426.64H64.3117C64.4917 424.32 66.5317 423.02 68.6317 423.02C71.5917 423.02 72.9317 424.44 72.9117 427.46L72.8917 429.94C72.8717 431.74 72.9717 432.98 73.1717 434H71.3317C71.2717 433.6 71.2117 433.16 71.1917 432.52C70.5317 433.62 69.4117 434.26 67.5117 434.26C65.4917 434.26 63.8117 433.14 63.8117 431.16ZM71.2317 428.82C67.9317 429.16 65.8317 429.64 65.8317 431.12C65.8317 432.14 66.6117 432.82 67.9117 432.82C69.6117 432.82 71.2317 432.04 71.2317 429.5V428.82ZM84.5836 426.84H82.7436C82.4836 425.56 81.3636 424.66 79.9636 424.66C78.3436 424.66 76.8636 425.92 76.8636 428.62C76.8636 431.36 78.3636 432.66 79.9636 432.66C81.4836 432.66 82.5636 431.64 82.8236 430.5H84.7036C84.3436 432.52 82.4036 434.26 79.9036 434.26C76.8236 434.26 74.8836 431.92 74.8836 428.64C74.8836 425.44 76.9036 423.06 80.0836 423.06C82.6836 423.06 84.3436 425.02 84.5836 426.84ZM88.5764 419.5V428.08L92.9164 423.24H95.1564L91.0564 427.7L95.7164 434H93.4964L89.8364 429.04L88.5764 430.4V434H86.7564V419.5H88.5764ZM102.06 422.46C102.06 420.22 102.52 419.5 104.96 419.5H105.9V421.02H105C104.04 421.02 103.88 421.24 103.88 422.36V423.24H105.9V424.7H103.88V434H102.06V424.7H100.56V423.24H102.06V422.46ZM109.69 434H107.87V419.5H109.69V434ZM111.937 431.16C111.937 428.62 114.797 427.88 119.217 427.38V427.12C119.217 425.16 118.117 424.5 116.777 424.5C115.277 424.5 114.397 425.32 114.317 426.64H112.437C112.617 424.32 114.657 423.02 116.757 423.02C119.717 423.02 121.057 424.44 121.037 427.46L121.017 429.94C120.997 431.74 121.097 432.98 121.297 434H119.457C119.397 433.6 119.337 433.16 119.317 432.52C118.657 433.62 117.537 434.26 115.637 434.26C113.617 434.26 111.937 433.14 111.937 431.16ZM119.357 428.82C116.057 429.16 113.957 429.64 113.957 431.12C113.957 432.14 114.737 432.82 116.037 432.82C117.737 432.82 119.357 432.04 119.357 429.5V428.82ZM124.269 420.54H126.089V423.24H128.129V424.7H126.089V431.08C126.089 432.2 126.169 432.48 127.209 432.48H128.129V434H126.809C124.749 434 124.269 433.54 124.269 431.3V424.7H122.569V423.24H124.269V420.54ZM134.359 431.16C134.359 428.62 137.219 427.88 141.639 427.38V427.12C141.639 425.16 140.539 424.5 139.199 424.5C137.699 424.5 136.819 425.32 136.739 426.64H134.859C135.039 424.32 137.079 423.02 139.179 423.02C142.139 423.02 143.479 424.44 143.459 427.46L143.439 429.94C143.419 431.74 143.519 432.98 143.719 434H141.879C141.819 433.6 141.759 433.16 141.739 432.52C141.079 433.62 139.959 434.26 138.059 434.26C136.039 434.26 134.359 433.14 134.359 431.16ZM141.779 428.82C138.479 429.16 136.379 429.64 136.379 431.12C136.379 432.14 137.159 432.82 138.459 432.82C140.159 432.82 141.779 432.04 141.779 429.5V428.82ZM147.99 424.86C148.61 423.84 149.65 423.06 151.47 423.06C154.07 423.06 155.01 424.74 155.01 427.2V434H153.19V427.74C153.19 426.08 152.91 424.64 150.83 424.64C149.07 424.64 147.99 425.86 147.99 428.16V434H146.17V423.24H147.99V424.86ZM165.113 419.5H166.933V434H165.113V432.38C164.453 433.52 163.313 434.26 161.593 434.26C159.133 434.26 156.993 432.22 156.993 428.66C156.993 425.12 159.133 423.06 161.593 423.06C163.313 423.06 164.453 423.8 165.113 424.94V419.5ZM162.053 424.62C160.193 424.62 158.973 426.1 158.973 428.66C158.973 431.22 160.193 432.7 162.053 432.7C163.673 432.7 165.193 431.5 165.193 428.66C165.193 425.82 163.673 424.62 162.053 424.62ZM175.009 422.46C175.009 420.22 175.469 419.5 177.909 419.5H178.849V421.02H177.949C176.989 421.02 176.829 421.24 176.829 422.36V423.24H178.849V424.7H176.829V434H175.009V424.7H173.509V423.24H175.009V422.46ZM181.648 429.22C181.728 431.54 183.368 432.66 184.968 432.66C186.568 432.66 187.448 431.94 187.908 430.88H189.788C189.288 432.74 187.588 434.26 184.968 434.26C181.568 434.26 179.688 431.82 179.688 428.64C179.688 425.24 181.968 423.06 184.908 423.06C188.188 423.06 190.168 425.82 189.928 429.22H181.648ZM181.668 427.66H188.008C187.968 426.14 186.828 424.62 184.908 424.62C183.288 424.62 181.828 425.5 181.668 427.66ZM193.367 429.22C193.447 431.54 195.087 432.66 196.687 432.66C198.287 432.66 199.167 431.94 199.627 430.88H201.507C201.007 432.74 199.307 434.26 196.687 434.26C193.287 434.26 191.407 431.82 191.407 428.64C191.407 425.24 193.687 423.06 196.627 423.06C199.907 423.06 201.887 425.82 201.647 429.22H193.367ZM193.387 427.66H199.727C199.687 426.14 198.547 424.62 196.627 424.62C195.007 424.62 193.547 425.5 193.387 427.66ZM204.288 420.54H206.108V423.24H208.148V424.7H206.108V431.08C206.108 432.2 206.188 432.48 207.228 432.48H208.148V434H206.828C204.768 434 204.288 433.54 204.288 431.3V424.7H202.588V423.24H204.288V420.54ZM224.638 428.66C224.638 432.56 221.978 434.26 219.478 434.26C216.978 434.26 214.318 432.56 214.318 428.66C214.318 424.76 216.978 423.06 219.478 423.06C221.978 423.06 224.638 424.76 224.638 428.66ZM219.478 432.66C221.118 432.66 222.698 431.42 222.698 428.66C222.698 425.8 221.118 424.66 219.478 424.66C217.838 424.66 216.258 425.72 216.258 428.66C216.258 431.52 217.838 432.66 219.478 432.66ZM228.635 424.86C229.255 423.84 230.295 423.06 232.115 423.06C234.715 423.06 235.655 424.74 235.655 427.2V434H233.835V427.74C233.835 426.08 233.555 424.64 231.475 424.64C229.715 424.64 228.635 425.86 228.635 428.16V434H226.815V423.24H228.635V424.86ZM243.644 420.54H245.464V423.24H247.504V424.7H245.464V431.08C245.464 432.2 245.544 432.48 246.584 432.48H247.504V434H246.184C244.124 434 243.644 433.54 243.644 431.3V424.7H241.944V423.24H243.644V420.54ZM251.643 424.86C252.263 423.84 253.303 423.06 255.123 423.06C257.723 423.06 258.663 424.74 258.663 427.2V434H256.843V427.74C256.843 426.08 256.563 424.64 254.483 424.64C252.723 424.64 251.643 425.86 251.643 428.16V434H249.823V419.5H251.643V424.86ZM262.605 429.22C262.685 431.54 264.325 432.66 265.925 432.66C267.525 432.66 268.405 431.94 268.865 430.88H270.745C270.245 432.74 268.545 434.26 265.925 434.26C262.525 434.26 260.645 431.82 260.645 428.64C260.645 425.24 262.925 423.06 265.865 423.06C269.145 423.06 271.125 425.82 270.885 429.22H262.605ZM262.625 427.66H268.965C268.925 426.14 267.785 424.62 265.865 424.62C264.245 424.62 262.785 425.5 262.625 427.66ZM278.213 422.46C278.213 420.22 278.673 419.5 281.113 419.5H282.053V421.02H281.153C280.193 421.02 280.033 421.24 280.033 422.36V423.24H282.053V424.7H280.033V434H278.213V424.7H276.713V423.24H278.213V422.46ZM285.842 434H284.022V419.5H285.842V434ZM298.349 428.66C298.349 432.56 295.689 434.26 293.189 434.26C290.689 434.26 288.029 432.56 288.029 428.66C288.029 424.76 290.689 423.06 293.189 423.06C295.689 423.06 298.349 424.76 298.349 428.66ZM293.189 432.66C294.829 432.66 296.409 431.42 296.409 428.66C296.409 425.8 294.829 424.66 293.189 424.66C291.549 424.66 289.969 425.72 289.969 428.66C289.969 431.52 291.549 432.66 293.189 432.66ZM310.302 428.66C310.302 432.56 307.642 434.26 305.142 434.26C302.642 434.26 299.982 432.56 299.982 428.66C299.982 424.76 302.642 423.06 305.142 423.06C307.642 423.06 310.302 424.76 310.302 428.66ZM305.142 432.66C306.782 432.66 308.362 431.42 308.362 428.66C308.362 425.8 306.782 424.66 305.142 424.66C303.502 424.66 301.922 425.72 301.922 428.66C301.922 431.52 303.502 432.66 305.142 432.66ZM317.839 425.14C317.459 425.1 317.119 425.06 316.819 425.06C315.139 425.06 314.299 426 314.299 428.36V434H312.479V423.24H314.259V425.12C314.799 423.9 315.899 423.22 317.299 423.18C317.479 423.18 317.639 423.18 317.839 423.2V425.14Z" fill="black"/>
</svg>
