<svg width="402" height="874" viewBox="0 0 402 874" fill="none" xmlns="http://www.w3.org/2000/svg">
<rect width="402" height="874" rx="47" fill="white"/>
<rect x="20" y="788" width="359" height="60" rx="30" fill="black"/>
<path d="M184.9 817.84H183.06C182.8 816.56 181.68 815.66 180.28 815.66C178.66 815.66 177.18 816.92 177.18 819.62C177.18 822.36 178.68 823.66 180.28 823.66C181.8 823.66 182.88 822.64 183.14 821.5H185.02C184.66 823.52 182.72 825.26 180.22 825.26C177.14 825.26 175.2 822.92 175.2 819.64C175.2 816.44 177.22 814.06 180.4 814.06C183 814.06 184.66 816.02 184.9 817.84ZM188.893 825H187.073V810.5H188.893V825ZM201.4 819.66C201.4 823.56 198.74 825.26 196.24 825.26C193.74 825.26 191.08 823.56 191.08 819.66C191.08 815.76 193.74 814.06 196.24 814.06C198.74 814.06 201.4 815.76 201.4 819.66ZM196.24 823.66C197.88 823.66 199.46 822.42 199.46 819.66C199.46 816.8 197.88 815.66 196.24 815.66C194.6 815.66 193.02 816.72 193.02 819.66C193.02 822.52 194.6 823.66 196.24 823.66ZM209.737 817.38C209.457 816.1 208.457 815.6 207.197 815.6C206.137 815.6 204.937 815.98 204.937 816.96C204.937 817.82 205.537 818.22 206.577 818.42L208.097 818.72C210.057 819.1 211.777 819.84 211.777 821.92C211.777 824.04 209.857 825.26 207.397 825.26C204.577 825.26 202.977 823.4 202.777 821.52H204.697C204.977 822.9 205.837 823.72 207.437 823.72C208.817 823.72 209.937 823.12 209.937 822.12C209.937 821.04 208.917 820.58 207.757 820.34L206.157 820.02C204.697 819.72 203.097 819.04 203.097 817.04C203.097 815.14 205.017 814.04 207.397 814.04C209.717 814.04 211.297 815.34 211.637 817.38H209.737ZM215.305 820.22C215.385 822.54 217.025 823.66 218.625 823.66C220.225 823.66 221.105 822.94 221.565 821.88H223.445C222.945 823.74 221.245 825.26 218.625 825.26C215.225 825.26 213.345 822.82 213.345 819.64C213.345 816.24 215.625 814.06 218.565 814.06C221.845 814.06 223.825 816.82 223.585 820.22H215.305ZM215.325 818.66H221.665C221.625 817.14 220.485 815.62 218.565 815.62C216.945 815.62 215.485 816.5 215.325 818.66Z" fill="white"/>
<rect x="20" y="720" width="359" height="60" rx="30" fill="black"/>
<path d="M146.46 743.54H148.28V746.24H150.32V747.7H148.28V754.08C148.28 755.2 148.36 755.48 149.4 755.48H150.32V757H149C146.94 757 146.46 756.54 146.46 754.3V747.7H144.76V746.24H146.46V743.54ZM151.804 754.16C151.804 751.62 154.664 750.88 159.084 750.38V750.12C159.084 748.16 157.984 747.5 156.644 747.5C155.144 747.5 154.264 748.32 154.184 749.64H152.304C152.484 747.32 154.524 746.02 156.624 746.02C159.584 746.02 160.924 747.44 160.904 750.46L160.884 752.94C160.864 754.74 160.964 755.98 161.164 757H159.324C159.264 756.6 159.204 756.16 159.184 755.52C158.524 756.62 157.404 757.26 155.504 757.26C153.484 757.26 151.804 756.14 151.804 754.16ZM159.224 751.82C155.924 752.16 153.824 752.64 153.824 754.12C153.824 755.14 154.604 755.82 155.904 755.82C157.604 755.82 159.224 755.04 159.224 752.5V751.82ZM165.436 742.5V751.08L169.776 746.24H172.016L167.916 750.7L172.576 757H170.356L166.696 752.04L165.436 753.4V757H163.616V742.5H165.436ZM174.64 752.22C174.72 754.54 176.36 755.66 177.96 755.66C179.56 755.66 180.44 754.94 180.9 753.88H182.78C182.28 755.74 180.58 757.26 177.96 757.26C174.56 757.26 172.68 754.82 172.68 751.64C172.68 748.24 174.96 746.06 177.9 746.06C181.18 746.06 183.16 748.82 182.92 752.22H174.64ZM174.66 750.66H181C180.96 749.14 179.82 747.62 177.9 747.62C176.28 747.62 174.82 748.5 174.66 750.66ZM189.148 754.16C189.148 751.62 192.008 750.88 196.428 750.38V750.12C196.428 748.16 195.328 747.5 193.988 747.5C192.488 747.5 191.608 748.32 191.528 749.64H189.648C189.828 747.32 191.868 746.02 193.968 746.02C196.928 746.02 198.268 747.44 198.248 750.46L198.228 752.94C198.208 754.74 198.308 755.98 198.508 757H196.668C196.608 756.6 196.548 756.16 196.528 755.52C195.868 756.62 194.748 757.26 192.848 757.26C190.828 757.26 189.148 756.14 189.148 754.16ZM196.568 751.82C193.268 752.16 191.168 752.64 191.168 754.12C191.168 755.14 191.948 755.82 193.248 755.82C194.948 755.82 196.568 755.04 196.568 752.5V751.82ZM211.866 749.38C211.586 748.1 210.586 747.6 209.326 747.6C208.266 747.6 207.066 747.98 207.066 748.96C207.066 749.82 207.666 750.22 208.706 750.42L210.226 750.72C212.186 751.1 213.906 751.84 213.906 753.92C213.906 756.04 211.986 757.26 209.526 757.26C206.706 757.26 205.106 755.4 204.906 753.52H206.826C207.106 754.9 207.966 755.72 209.566 755.72C210.946 755.72 212.066 755.12 212.066 754.12C212.066 753.04 211.046 752.58 209.886 752.34L208.286 752.02C206.826 751.72 205.226 751.04 205.226 749.04C205.226 747.14 207.146 746.04 209.526 746.04C211.846 746.04 213.426 747.34 213.766 749.38H211.866ZM217.433 752.22C217.513 754.54 219.153 755.66 220.753 755.66C222.353 755.66 223.233 754.94 223.693 753.88H225.573C225.073 755.74 223.373 757.26 220.753 757.26C217.353 757.26 215.473 754.82 215.473 751.64C215.473 748.24 217.753 746.06 220.693 746.06C223.973 746.06 225.953 748.82 225.713 752.22H217.433ZM217.453 750.66H223.793C223.753 749.14 222.613 747.62 220.693 747.62C219.073 747.62 217.613 748.5 217.453 750.66ZM229.655 757H227.835V742.5H229.655V757ZM233.002 745.46C233.002 743.22 233.462 742.5 235.902 742.5H236.842V744.02H235.942C234.982 744.02 234.822 744.24 234.822 745.36V746.24H236.842V747.7H234.822V757H233.002V747.7H231.502V746.24H233.002V745.46ZM240.631 742.5V744.7H238.811V742.5H240.631ZM240.631 746.24V757H238.811V746.24H240.631ZM244.738 752.22C244.818 754.54 246.458 755.66 248.058 755.66C249.658 755.66 250.538 754.94 250.998 753.88H252.878C252.378 755.74 250.678 757.26 248.058 757.26C244.658 757.26 242.778 754.82 242.778 751.64C242.778 748.24 245.058 746.06 247.998 746.06C251.278 746.06 253.258 748.82 253.018 752.22H244.738ZM244.758 750.66H251.098C251.058 749.14 249.918 747.62 247.998 747.62C246.378 747.62 244.918 748.5 244.758 750.66Z" fill="white"/>
<path d="M56.12 140.26H48.14V151H42.62V140.26H21.02V135.1L42.56 107.5H48.14V135.1H56.12V140.26ZM27.08 135.1H42.62V115L27.08 135.1ZM65.9614 128.08C67.9414 124.66 71.6614 122.02 77.4214 122.02C85.5214 122.02 91.4614 128.08 91.4614 136.78C91.4614 144.88 85.4614 151.78 76.1614 151.78C65.3014 151.78 60.3214 144.22 60.3214 130.78C60.3214 118.48 64.7014 106.72 77.3014 106.72C85.8214 106.72 89.8414 112.06 90.7414 117.58H84.8014C84.0814 113.68 81.0814 111.28 76.6414 111.28C69.9214 111.28 66.2614 118 65.9614 128.08ZM76.1014 147.22C81.6814 147.22 85.6414 143.02 85.6414 137.08C85.6414 131.14 81.7414 126.76 76.1614 126.76C70.4614 126.76 66.6214 131.14 66.6214 137.08C66.6214 143.08 70.3414 147.22 76.1014 147.22ZM98.2555 125.62V118.72H105.155V125.62H98.2555ZM98.2555 151V144.1H105.155V151H98.2555ZM136.903 136.72C136.903 129.52 131.863 126.4 127.123 126.4C122.623 126.4 119.683 129.04 118.723 131.2L113.263 130.9L116.083 107.5H141.043V112.6H120.523L119.023 124.96C121.303 122.74 124.783 121.66 128.383 121.66C136.003 121.66 142.663 127.06 142.663 136.66C142.663 146.62 135.283 151.78 127.183 151.78C117.103 151.78 112.543 145.42 111.703 138.4H117.343C118.183 143.86 121.123 147.22 127.183 147.22C132.403 147.22 136.903 143.44 136.903 136.72ZM154.028 128.08C156.008 124.66 159.728 122.02 165.488 122.02C173.588 122.02 179.528 128.08 179.528 136.78C179.528 144.88 173.528 151.78 164.228 151.78C153.368 151.78 148.388 144.22 148.388 130.78C148.388 118.48 152.768 106.72 165.368 106.72C173.888 106.72 177.908 112.06 178.808 117.58H172.868C172.148 113.68 169.148 111.28 164.708 111.28C157.988 111.28 154.328 118 154.028 128.08ZM164.168 147.22C169.748 147.22 173.708 143.02 173.708 137.08C173.708 131.14 169.808 126.76 164.228 126.76C158.528 126.76 154.688 131.14 154.688 137.08C154.688 143.08 158.408 147.22 164.168 147.22Z" fill="black"/>
<path d="M20 72.4H40V52.4H20V72.4Z" fill="black"/>
<line x1="20" y1="209.85" x2="372" y2="209.85" stroke="black" stroke-width="0.3"/>
<path d="M21.96 225.04H23.78V227.74H25.82V229.2H23.78V235.58C23.78 236.7 23.86 236.98 24.9 236.98H25.82V238.5H24.5C22.44 238.5 21.96 238.04 21.96 235.8V229.2H20.26V227.74H21.96V225.04ZM37.4663 233.16C37.4663 237.06 34.8063 238.76 32.3063 238.76C29.8063 238.76 27.1463 237.06 27.1463 233.16C27.1463 229.26 29.8063 227.56 32.3063 227.56C34.8063 227.56 37.4663 229.26 37.4663 233.16ZM32.3063 237.16C33.9463 237.16 35.5263 235.92 35.5263 233.16C35.5263 230.3 33.9463 229.16 32.3063 229.16C30.6663 229.16 29.0863 230.22 29.0863 233.16C29.0863 236.02 30.6663 237.16 32.3063 237.16ZM40.0655 225.04H41.8855V227.74H43.9255V229.2H41.8855V235.58C41.8855 236.7 41.9655 236.98 43.0055 236.98H43.9255V238.5H42.6055C40.5455 238.5 40.0655 238.04 40.0655 235.8V229.2H38.3655V227.74H40.0655V225.04ZM45.4094 235.66C45.4094 233.12 48.2694 232.38 52.6894 231.88V231.62C52.6894 229.66 51.5894 229 50.2494 229C48.7494 229 47.8694 229.82 47.7894 231.14H45.9094C46.0894 228.82 48.1294 227.52 50.2294 227.52C53.1894 227.52 54.5294 228.94 54.5094 231.96L54.4894 234.44C54.4694 236.24 54.5694 237.48 54.7694 238.5H52.9294C52.8694 238.1 52.8094 237.66 52.7894 237.02C52.1294 238.12 51.0094 238.76 49.1094 238.76C47.0894 238.76 45.4094 237.64 45.4094 235.66ZM52.8294 233.32C49.5294 233.66 47.4294 234.14 47.4294 235.62C47.4294 236.64 48.2094 237.32 49.5094 237.32C51.2094 237.32 52.8294 236.54 52.8294 234V233.32ZM59.0413 238.5H57.2213V224H59.0413V238.5ZM71.4944 227.74H73.3744L75.5144 235.7L77.5744 227.74H79.5344L76.4344 238.5H74.7744L72.3944 229.84L70.0944 238.5H68.4344L65.3344 227.74H67.2944L69.3544 235.7L71.4944 227.74ZM90.5913 233.16C90.5913 237.06 87.9313 238.76 85.4313 238.76C82.9313 238.76 80.2713 237.06 80.2713 233.16C80.2713 229.26 82.9313 227.56 85.4313 227.56C87.9313 227.56 90.5913 229.26 90.5913 233.16ZM85.4313 237.16C87.0713 237.16 88.6513 235.92 88.6513 233.16C88.6513 230.3 87.0713 229.16 85.4313 229.16C83.7913 229.16 82.2113 230.22 82.2113 233.16C82.2113 236.02 83.7913 237.16 85.4313 237.16ZM98.1281 229.64C97.7481 229.6 97.4081 229.56 97.1081 229.56C95.4281 229.56 94.5881 230.5 94.5881 232.86V238.5H92.7681V227.74H94.5481V229.62C95.0881 228.4 96.1881 227.72 97.5881 227.68C97.7681 227.68 97.9281 227.68 98.1281 227.7V229.64ZM101.698 224V232.58L106.038 227.74H108.278L104.178 232.2L108.838 238.5H106.618L102.958 233.54L101.698 234.9V238.5H99.8775V224H101.698ZM119.302 233.16C119.302 237.06 116.642 238.76 114.142 238.76C111.642 238.76 108.982 237.06 108.982 233.16C108.982 229.26 111.642 227.56 114.142 227.56C116.642 227.56 119.302 229.26 119.302 233.16ZM114.142 237.16C115.782 237.16 117.362 235.92 117.362 233.16C117.362 230.3 115.782 229.16 114.142 229.16C112.502 229.16 110.922 230.22 110.922 233.16C110.922 236.02 112.502 237.16 114.142 237.16ZM128.139 236.96C127.519 237.98 126.539 238.76 124.759 238.76C122.259 238.76 121.319 237.08 121.319 234.62V227.74H123.139V234.08C123.139 235.74 123.419 237.18 125.399 237.18C127.119 237.18 128.139 235.96 128.139 233.66V227.74H129.959V238.5H128.139V236.96ZM133.366 225.04H135.186V227.74H137.226V229.2H135.186V235.58C135.186 236.7 135.266 236.98 136.306 236.98H137.226V238.5H135.906C133.846 238.5 133.366 238.04 133.366 235.8V229.2H131.666V227.74H133.366V225.04ZM145.51 230.88C145.23 229.6 144.23 229.1 142.97 229.1C141.91 229.1 140.71 229.48 140.71 230.46C140.71 231.32 141.31 231.72 142.35 231.92L143.87 232.22C145.83 232.6 147.55 233.34 147.55 235.42C147.55 237.54 145.63 238.76 143.17 238.76C140.35 238.76 138.75 236.9 138.55 235.02H140.47C140.75 236.4 141.61 237.22 143.21 237.22C144.59 237.22 145.71 236.62 145.71 235.62C145.71 234.54 144.69 234.08 143.53 233.84L141.93 233.52C140.47 233.22 138.87 232.54 138.87 230.54C138.87 228.64 140.79 227.54 143.17 227.54C145.49 227.54 147.07 228.84 147.41 230.88H145.51Z" fill="black"/>
<path d="M365.1 227.44C365.1 228.62 364.54 230 363.1 230.78C364.98 231.54 365.54 233.1 365.54 234.42C365.54 237.18 363.24 238.76 360.26 238.76C357.26 238.76 354.96 237.18 354.96 234.42C354.96 233.1 355.52 231.54 357.42 230.78C355.98 230 355.42 228.62 355.42 227.44C355.42 225.3 357.28 223.74 360.26 223.74C363.22 223.74 365.1 225.3 365.1 227.44ZM360.26 225.26C358.44 225.26 357.24 226.22 357.24 227.66C357.24 229.12 358.44 230.2 360.26 230.2C362.06 230.2 363.26 229.12 363.26 227.66C363.26 226.22 362.06 225.26 360.26 225.26ZM356.9 234.42C356.9 236.12 358.2 237.24 360.26 237.24C362.3 237.24 363.62 236.12 363.62 234.42C363.62 232.72 362.3 231.54 360.26 231.54C358.2 231.54 356.9 232.72 356.9 234.42ZM375.86 231.64C375.2 232.78 373.94 233.66 372.02 233.66C369.34 233.66 367.36 231.64 367.36 228.72C367.36 226.04 369.36 223.74 372.46 223.74C376.08 223.74 377.74 226.26 377.74 230.74C377.74 234.84 376.26 238.76 372.08 238.76C369.24 238.76 367.9 236.98 367.6 235.14H369.58C369.82 236.44 370.8 237.24 372.28 237.24C374.52 237.24 375.76 235 375.86 231.64ZM372.48 225.26C370.6 225.26 369.3 226.66 369.3 228.64C369.3 230.62 370.58 232.06 372.46 232.06C374.36 232.06 375.62 230.62 375.62 228.64C375.62 226.64 374.4 225.26 372.48 225.26Z" fill="black"/>
<line x1="20" y1="252.85" x2="372" y2="252.85" stroke="black" stroke-width="0.3"/>
<path d="M21.96 268.04H23.78V270.74H25.82V272.2H23.78V278.58C23.78 279.7 23.86 279.98 24.9 279.98H25.82V281.5H24.5C22.44 281.5 21.96 281.04 21.96 278.8V272.2H20.26V270.74H21.96V268.04ZM37.4663 276.16C37.4663 280.06 34.8063 281.76 32.3063 281.76C29.8063 281.76 27.1463 280.06 27.1463 276.16C27.1463 272.26 29.8063 270.56 32.3063 270.56C34.8063 270.56 37.4663 272.26 37.4663 276.16ZM32.3063 280.16C33.9463 280.16 35.5263 278.92 35.5263 276.16C35.5263 273.3 33.9463 272.16 32.3063 272.16C30.6663 272.16 29.0863 273.22 29.0863 276.16C29.0863 279.02 30.6663 280.16 32.3063 280.16ZM40.0655 268.04H41.8855V270.74H43.9255V272.2H41.8855V278.58C41.8855 279.7 41.9655 279.98 43.0055 279.98H43.9255V281.5H42.6055C40.5455 281.5 40.0655 281.04 40.0655 278.8V272.2H38.3655V270.74H40.0655V268.04ZM45.4094 278.66C45.4094 276.12 48.2694 275.38 52.6894 274.88V274.62C52.6894 272.66 51.5894 272 50.2494 272C48.7494 272 47.8694 272.82 47.7894 274.14H45.9094C46.0894 271.82 48.1294 270.52 50.2294 270.52C53.1894 270.52 54.5294 271.94 54.5094 274.96L54.4894 277.44C54.4694 279.24 54.5694 280.48 54.7694 281.5H52.9294C52.8694 281.1 52.8094 280.66 52.7894 280.02C52.1294 281.12 51.0094 281.76 49.1094 281.76C47.0894 281.76 45.4094 280.64 45.4094 278.66ZM52.8294 276.32C49.5294 276.66 47.4294 277.14 47.4294 278.62C47.4294 279.64 48.2094 280.32 49.5094 280.32C51.2094 280.32 52.8294 279.54 52.8294 277V276.32ZM59.0413 281.5H57.2213V267H59.0413V281.5ZM71.4944 270.74H73.3744L75.5144 278.7L77.5744 270.74H79.5344L76.4344 281.5H74.7744L72.3944 272.84L70.0944 281.5H68.4344L65.3344 270.74H67.2944L69.3544 278.7L71.4944 270.74ZM82.1913 276.72C82.2713 279.04 83.9113 280.16 85.5113 280.16C87.1113 280.16 87.9913 279.44 88.4513 278.38H90.3313C89.8313 280.24 88.1313 281.76 85.5113 281.76C82.1113 281.76 80.2313 279.32 80.2313 276.14C80.2313 272.74 82.5113 270.56 85.4513 270.56C88.7313 270.56 90.7113 273.32 90.4713 276.72H82.1913ZM82.2113 275.16H88.5513C88.5113 273.64 87.3713 272.12 85.4513 272.12C83.8313 272.12 82.3713 273 82.2113 275.16ZM94.4123 267V269.2H92.5923V267H94.4123ZM94.4123 270.74V281.5H92.5923V270.74H94.4123ZM104.539 270.74H106.359V280.06C106.359 282.26 105.959 283.16 105.339 283.84C104.559 284.74 103.219 285.26 101.619 285.26C99.1794 285.26 97.5394 284.14 97.1994 281.96H99.1394C99.3794 282.92 99.9594 283.66 101.639 283.66C102.619 283.66 103.359 283.38 103.839 282.86C104.239 282.44 104.539 281.94 104.539 280.48V279.46C103.879 280.6 102.839 281.32 101.119 281.32C98.7394 281.32 96.5594 279.4 96.5594 275.94C96.5594 272.5 98.7394 270.56 101.119 270.56C102.839 270.56 103.879 271.3 104.539 272.44V270.74ZM101.579 272.12C99.7994 272.12 98.5394 273.5 98.5394 275.94C98.5394 278.4 99.7994 279.78 101.579 279.78C103.199 279.78 104.619 278.68 104.619 275.94C104.619 273.22 103.199 272.12 101.579 272.12ZM111.053 272.36C111.673 271.34 112.713 270.56 114.533 270.56C117.133 270.56 118.073 272.24 118.073 274.7V281.5H116.253V275.24C116.253 273.58 115.973 272.14 113.893 272.14C112.133 272.14 111.053 273.36 111.053 275.66V281.5H109.233V267H111.053V272.36ZM121.315 268.04H123.135V270.74H125.175V272.2H123.135V278.58C123.135 279.7 123.215 279.98 124.255 279.98H125.175V281.5H123.855C121.795 281.5 121.315 281.04 121.315 278.8V272.2H119.615V270.74H121.315V268.04Z" fill="black"/>
<path d="M310.6 281.5V270.16H307.24V268.92C309.32 268.84 310.38 268.58 311.18 267H312.42V281.5H310.6ZM323.703 274.64C323.043 275.78 321.783 276.66 319.863 276.66C317.183 276.66 315.203 274.64 315.203 271.72C315.203 269.04 317.203 266.74 320.303 266.74C323.923 266.74 325.583 269.26 325.583 273.74C325.583 277.84 324.103 281.76 319.923 281.76C317.083 281.76 315.743 279.98 315.443 278.14H317.423C317.663 279.44 318.643 280.24 320.123 280.24C322.363 280.24 323.603 278 323.703 274.64ZM320.323 268.26C318.443 268.26 317.143 269.66 317.143 271.64C317.143 273.62 318.423 275.06 320.303 275.06C322.203 275.06 323.463 273.62 323.463 271.64C323.463 269.64 322.243 268.26 320.323 268.26ZM335.85 276.74C335.85 274.34 334.17 273.3 332.59 273.3C331.09 273.3 330.11 274.18 329.79 274.9L327.97 274.8L328.91 267H337.23V268.7H330.39L329.89 272.82C330.65 272.08 331.81 271.72 333.01 271.72C335.55 271.72 337.77 273.52 337.77 276.72C337.77 280.04 335.31 281.76 332.61 281.76C329.25 281.76 327.73 279.64 327.45 277.3H329.33C329.61 279.12 330.59 280.24 332.61 280.24C334.35 280.24 335.85 278.98 335.85 276.74ZM345.319 281.76C341.459 281.76 339.679 278.84 339.679 274.24C339.679 269.66 341.459 266.74 345.319 266.74C349.179 266.74 350.959 269.66 350.959 274.24C350.959 278.84 349.179 281.76 345.319 281.76ZM345.319 268.26C343.039 268.26 341.619 270.22 341.619 274.24C341.619 278.28 343.039 280.24 345.319 280.24C347.599 280.24 349.019 278.28 349.019 274.24C349.019 270.22 347.599 268.26 345.319 268.26ZM359.948 267V275.58L364.288 270.74H366.528L362.428 275.2L367.088 281.5H364.868L361.208 276.54L359.948 277.9V281.5H358.128V267H359.948ZM375.172 270.74H376.992V280.06C376.992 282.26 376.592 283.16 375.972 283.84C375.192 284.74 373.852 285.26 372.252 285.26C369.812 285.26 368.172 284.14 367.832 281.96H369.772C370.012 282.92 370.592 283.66 372.272 283.66C373.252 283.66 373.992 283.38 374.472 282.86C374.872 282.44 375.172 281.94 375.172 280.48V279.46C374.512 280.6 373.472 281.32 371.752 281.32C369.372 281.32 367.192 279.4 367.192 275.94C367.192 272.5 369.372 270.56 371.752 270.56C373.472 270.56 374.512 271.3 375.172 272.44V270.74ZM372.212 272.12C370.432 272.12 369.172 273.5 369.172 275.94C369.172 278.4 370.432 279.78 372.212 279.78C373.832 279.78 375.252 278.68 375.252 275.94C375.252 273.22 373.832 272.12 372.212 272.12Z" fill="black"/>
<line x1="20" y1="295.85" x2="372" y2="295.85" stroke="black" stroke-width="0.3"/>
<path d="M28.82 310H30.64V324.5H28.82V322.88C28.16 324.02 27.02 324.76 25.3 324.76C22.84 324.76 20.7 322.72 20.7 319.16C20.7 315.62 22.84 313.56 25.3 313.56C27.02 313.56 28.16 314.3 28.82 315.44V310ZM25.76 315.12C23.9 315.12 22.68 316.6 22.68 319.16C22.68 321.72 23.9 323.2 25.76 323.2C27.38 323.2 28.9 322 28.9 319.16C28.9 316.32 27.38 315.12 25.76 315.12ZM34.7303 319.72C34.8103 322.04 36.4503 323.16 38.0503 323.16C39.6503 323.16 40.5303 322.44 40.9903 321.38H42.8703C42.3703 323.24 40.6703 324.76 38.0503 324.76C34.6503 324.76 32.7703 322.32 32.7703 319.14C32.7703 315.74 35.0503 313.56 37.9903 313.56C41.2703 313.56 43.2503 316.32 43.0103 319.72H34.7303ZM34.7503 318.16H41.0903C41.0503 316.64 39.9103 315.12 37.9903 315.12C36.3703 315.12 34.9103 316 34.7503 318.16ZM44.3938 321.66C44.3938 319.12 47.2538 318.38 51.6738 317.88V317.62C51.6738 315.66 50.5738 315 49.2338 315C47.7338 315 46.8538 315.82 46.7738 317.14H44.8938C45.0738 314.82 47.1138 313.52 49.2138 313.52C52.1738 313.52 53.5138 314.94 53.4938 317.96L53.4738 320.44C53.4538 322.24 53.5538 323.48 53.7538 324.5H51.9138C51.8538 324.1 51.7938 323.66 51.7738 323.02C51.1138 324.12 49.9938 324.76 48.0938 324.76C46.0738 324.76 44.3938 323.64 44.3938 321.66ZM51.8138 319.32C48.5138 319.66 46.4138 320.14 46.4138 321.62C46.4138 322.64 47.1938 323.32 48.4938 323.32C50.1938 323.32 51.8138 322.54 51.8138 320V319.32ZM63.5856 310H65.4056V324.5H63.5856V322.88C62.9256 324.02 61.7856 324.76 60.0656 324.76C57.6056 324.76 55.4656 322.72 55.4656 319.16C55.4656 315.62 57.6056 313.56 60.0656 313.56C61.7856 313.56 62.9256 314.3 63.5856 315.44V310ZM60.5256 315.12C58.6656 315.12 57.4456 316.6 57.4456 319.16C57.4456 321.72 58.6656 323.2 60.5256 323.2C62.1456 323.2 63.6656 322 63.6656 319.16C63.6656 316.32 62.1456 315.12 60.5256 315.12ZM70.0959 324.5H68.2759V310H70.0959V324.5ZM74.803 310V312.2H72.983V310H74.803ZM74.803 313.74V324.5H72.983V313.74H74.803ZM78.15 312.96C78.15 310.72 78.61 310 81.05 310H81.99V311.52H81.09C80.13 311.52 79.97 311.74 79.97 312.86V313.74H81.99V315.2H79.97V324.5H78.15V315.2H76.65V313.74H78.15V312.96ZM84.4795 311.04H86.2995V313.74H88.3395V315.2H86.2995V321.58C86.2995 322.7 86.3795 322.98 87.4195 322.98H88.3395V324.5H87.0195C84.9595 324.5 84.4795 324.04 84.4795 321.8V315.2H82.7795V313.74H84.4795V311.04ZM101.776 315.36C102.396 314.34 103.436 313.56 105.256 313.56C107.856 313.56 108.796 315.24 108.796 317.7V324.5H106.976V318.24C106.976 316.58 106.696 315.14 104.616 315.14C102.856 315.14 101.776 316.36 101.776 318.66V324.5H99.9556V313.74H101.776V315.36ZM112.738 319.72C112.818 322.04 114.458 323.16 116.058 323.16C117.658 323.16 118.538 322.44 118.998 321.38H120.878C120.378 323.24 118.678 324.76 116.058 324.76C112.658 324.76 110.778 322.32 110.778 319.14C110.778 315.74 113.058 313.56 115.998 313.56C119.278 313.56 121.258 316.32 121.018 319.72H112.738ZM112.758 318.16H119.098C119.058 316.64 117.918 315.12 115.998 315.12C114.378 315.12 112.918 316 112.758 318.16ZM127.901 313.74H129.781L131.921 321.7L133.981 313.74H135.941L132.841 324.5H131.181L128.801 315.84L126.501 324.5H124.841L121.741 313.74H123.701L125.761 321.7L127.901 313.74ZM144.041 324.5H142.221V313.74H144.041V315.36C144.661 314.34 145.661 313.56 147.281 313.56C148.921 313.56 149.901 314.28 150.381 315.46C151.241 314.14 152.501 313.56 154.001 313.56C156.501 313.56 157.481 315.24 157.481 317.7V324.5H155.661V318.24C155.661 316.58 155.341 315.14 153.361 315.14C151.801 315.14 150.761 316.36 150.761 318.66V324.5H148.941V318.24C148.941 316.58 148.621 315.14 146.641 315.14C145.081 315.14 144.041 316.36 144.041 318.66V324.5ZM159.57 321.66C159.57 319.12 162.43 318.38 166.85 317.88V317.62C166.85 315.66 165.75 315 164.41 315C162.91 315 162.03 315.82 161.95 317.14H160.07C160.25 314.82 162.29 313.52 164.39 313.52C167.35 313.52 168.69 314.94 168.67 317.96L168.65 320.44C168.63 322.24 168.73 323.48 168.93 324.5H167.09C167.03 324.1 166.97 323.66 166.95 323.02C166.29 324.12 165.17 324.76 163.27 324.76C161.25 324.76 159.57 323.64 159.57 321.66ZM166.99 319.32C163.69 319.66 161.59 320.14 161.59 321.62C161.59 322.64 162.37 323.32 163.67 323.32C165.37 323.32 166.99 322.54 166.99 320V319.32ZM176.161 318.88L180.181 324.5H178.001L175.081 320.4L172.181 324.5H170.101L174.061 318.96L170.341 313.74H172.521L175.141 317.44L177.781 313.74H179.821L176.161 318.88Z" fill="black"/>
<path d="M306.34 317.64C305.68 318.78 304.42 319.66 302.5 319.66C299.82 319.66 297.84 317.64 297.84 314.72C297.84 312.04 299.84 309.74 302.94 309.74C306.56 309.74 308.22 312.26 308.22 316.74C308.22 320.84 306.74 324.76 302.56 324.76C299.72 324.76 298.38 322.98 298.08 321.14H300.06C300.3 322.44 301.28 323.24 302.76 323.24C305 323.24 306.24 321 306.34 317.64ZM302.96 311.26C301.08 311.26 299.78 312.66 299.78 314.64C299.78 316.62 301.06 318.06 302.94 318.06C304.84 318.06 306.1 316.62 306.1 314.64C306.1 312.64 304.88 311.26 302.96 311.26ZM315.807 324.76C311.947 324.76 310.167 321.84 310.167 317.24C310.167 312.66 311.947 309.74 315.807 309.74C319.667 309.74 321.447 312.66 321.447 317.24C321.447 321.84 319.667 324.76 315.807 324.76ZM315.807 311.26C313.527 311.26 312.107 313.22 312.107 317.24C312.107 321.28 313.527 323.24 315.807 323.24C318.087 323.24 319.507 321.28 319.507 317.24C319.507 313.22 318.087 311.26 315.807 311.26ZM325.69 310V318.58L330.03 313.74H332.27L328.17 318.2L332.83 324.5H330.61L326.95 319.54L325.69 320.9V324.5H323.87V310H325.69ZM340.914 313.74H342.734V323.06C342.734 325.26 342.334 326.16 341.714 326.84C340.934 327.74 339.594 328.26 337.994 328.26C335.554 328.26 333.914 327.14 333.574 324.96H335.514C335.754 325.92 336.334 326.66 338.014 326.66C338.994 326.66 339.734 326.38 340.214 325.86C340.614 325.44 340.914 324.94 340.914 323.48V322.46C340.254 323.6 339.214 324.32 337.494 324.32C335.114 324.32 332.934 322.4 332.934 318.94C332.934 315.5 335.114 313.56 337.494 313.56C339.214 313.56 340.254 314.3 340.914 315.44V313.74ZM337.954 315.12C336.174 315.12 334.914 316.5 334.914 318.94C334.914 321.4 336.174 322.78 337.954 322.78C339.574 322.78 340.994 321.68 340.994 318.94C340.994 316.22 339.574 315.12 337.954 315.12ZM354.368 323.9L350.888 320.44L347.548 323.76L346.248 322.48L349.608 319.14L346.248 315.76L347.548 314.48L350.888 317.82L354.248 314.5L355.548 315.78L352.188 319.14L355.648 322.6L354.368 323.9ZM361.323 324.5V313.16H357.963V311.92C360.043 311.84 361.103 311.58 361.903 310H363.143V324.5H361.323ZM371.686 324.76C367.826 324.76 366.046 321.84 366.046 317.24C366.046 312.66 367.826 309.74 371.686 309.74C375.546 309.74 377.326 312.66 377.326 317.24C377.326 321.84 375.546 324.76 371.686 324.76ZM371.686 311.26C369.406 311.26 367.986 313.22 367.986 317.24C367.986 321.28 369.406 323.24 371.686 323.24C373.966 323.24 375.386 321.28 375.386 317.24C375.386 313.22 373.966 311.26 371.686 311.26Z" fill="black"/>
<line x1="20" y1="338.85" x2="372" y2="338.85" stroke="black" stroke-width="0.3"/>
</svg>
