<svg width="402" height="874" viewBox="0 0 402 874" fill="none" xmlns="http://www.w3.org/2000/svg">
<rect width="402" height="874" rx="47" fill="white"/>
<path d="M49.02 188.42C47.04 191.84 43.26 194.48 37.5 194.48C29.46 194.48 23.52 188.42 23.52 179.66C23.52 171.62 29.52 164.72 38.82 164.72C49.68 164.72 54.66 172.28 54.66 185.72C54.66 198.02 50.22 209.78 37.68 209.78C29.16 209.78 25.14 204.44 24.24 198.92H30.18C30.9 202.82 33.84 205.22 38.28 205.22C45 205.22 48.72 198.5 49.02 188.42ZM38.88 169.28C33.24 169.28 29.34 173.48 29.34 179.42C29.34 185.36 33.18 189.68 38.82 189.68C44.52 189.68 48.3 185.36 48.3 179.42C48.3 173.42 44.64 169.28 38.88 169.28ZM61.5211 183.62V176.72H68.4211V183.62H61.5211ZM61.5211 209V202.1H68.4211V209H61.5211ZM100.168 194.72C100.168 187.52 95.1281 184.4 90.3881 184.4C85.8881 184.4 82.9481 187.04 81.9881 189.2L76.5281 188.9L79.3481 165.5H104.308V170.6H83.7881L82.2881 182.96C84.5681 180.74 88.0481 179.66 91.6481 179.66C99.2681 179.66 105.928 185.06 105.928 194.66C105.928 204.62 98.5481 209.78 90.4481 209.78C80.3681 209.78 75.8081 203.42 74.9681 196.4H80.6081C81.4481 201.86 84.3881 205.22 90.4481 205.22C95.6681 205.22 100.168 201.44 100.168 194.72ZM136.793 188.42C134.813 191.84 131.033 194.48 125.273 194.48C117.233 194.48 111.293 188.42 111.293 179.66C111.293 171.62 117.293 164.72 126.593 164.72C137.453 164.72 142.433 172.28 142.433 185.72C142.433 198.02 137.993 209.78 125.453 209.78C116.933 209.78 112.913 204.44 112.013 198.92H117.953C118.673 202.82 121.613 205.22 126.053 205.22C132.773 205.22 136.493 198.5 136.793 188.42ZM126.653 169.28C121.013 169.28 117.113 173.48 117.113 179.42C117.113 185.36 120.953 189.68 126.593 189.68C132.293 189.68 136.073 185.36 136.073 179.42C136.073 173.42 132.413 169.28 126.653 169.28Z" fill="#FF2F00"/>
<path opacity="0.4" d="M23.26 295.5V297.7H21.44V295.5H23.26ZM21.44 299.24H23.26V310.54C23.26 312.78 22.8 313.5 20.72 313.5H19.8V311.98H20.32C21.26 311.98 21.44 311.7 21.44 310.58V299.24ZM32.807 308.46C32.187 309.48 31.207 310.26 29.427 310.26C26.927 310.26 25.987 308.58 25.987 306.12V299.24H27.807V305.58C27.807 307.24 28.087 308.68 30.067 308.68C31.787 308.68 32.807 307.46 32.807 305.16V299.24H34.627V310H32.807V308.46ZM39.3342 310H37.5142V299.24H39.3342V300.86C39.9542 299.84 40.9542 299.06 42.5742 299.06C44.2142 299.06 45.1942 299.78 45.6742 300.96C46.5342 299.64 47.7942 299.06 49.2942 299.06C51.7942 299.06 52.7742 300.74 52.7742 303.2V310H50.9542V303.74C50.9542 302.08 50.6342 300.64 48.6542 300.64C47.0942 300.64 46.0542 301.86 46.0542 304.16V310H44.2342V303.74C44.2342 302.08 43.9142 300.64 41.9342 300.64C40.3742 300.64 39.3342 301.86 39.3342 304.16V310ZM57.3225 299.24V300.94C57.9825 299.8 59.1225 299.06 60.8425 299.06C63.3025 299.06 65.4425 301.12 65.4425 304.66C65.4425 308.22 63.3025 310.26 60.8425 310.26C59.1225 310.26 57.9825 309.52 57.3225 308.38V313.5H55.5025V299.24H57.3225ZM60.3825 308.7C62.2425 308.7 63.4625 307.22 63.4625 304.66C63.4625 302.1 62.2425 300.62 60.3825 300.62C58.7625 300.62 57.2425 301.82 57.2425 304.66C57.2425 307.5 58.7625 308.7 60.3825 308.7ZM69.3928 295.5V297.7H67.5728V295.5H69.3928ZM69.3928 299.24V310H67.5728V299.24H69.3928ZM74.0998 300.86C74.7198 299.84 75.7598 299.06 77.5798 299.06C80.1798 299.06 81.1198 300.74 81.1198 303.2V310H79.2998V303.74C79.2998 302.08 79.0198 300.64 76.9398 300.64C75.1798 300.64 74.0998 301.86 74.0998 304.16V310H72.2798V299.24H74.0998V300.86ZM91.0823 299.24H92.9023V308.56C92.9023 310.76 92.5023 311.66 91.8823 312.34C91.1023 313.24 89.7623 313.76 88.1623 313.76C85.7223 313.76 84.0823 312.64 83.7423 310.46H85.6823C85.9223 311.42 86.5023 312.16 88.1823 312.16C89.1623 312.16 89.9023 311.88 90.3823 311.36C90.7823 310.94 91.0823 310.44 91.0823 308.98V307.96C90.4223 309.1 89.3823 309.82 87.6623 309.82C85.2823 309.82 83.1023 307.9 83.1023 304.44C83.1023 301 85.2823 299.06 87.6623 299.06C89.3823 299.06 90.4223 299.8 91.0823 300.94V299.24ZM88.1223 300.62C86.3423 300.62 85.0823 302 85.0823 304.44C85.0823 306.9 86.3423 308.28 88.1223 308.28C89.7423 308.28 91.1623 307.18 91.1623 304.44C91.1623 301.72 89.7423 300.62 88.1223 300.62ZM102.342 295.5V297.7H100.522V295.5H102.342ZM100.522 299.24H102.342V310.54C102.342 312.78 101.882 313.5 99.802 313.5H98.882V311.98H99.402C100.342 311.98 100.522 311.7 100.522 310.58V299.24ZM104.589 307.16C104.589 304.62 107.449 303.88 111.869 303.38V303.12C111.869 301.16 110.769 300.5 109.429 300.5C107.929 300.5 107.049 301.32 106.969 302.64H105.089C105.269 300.32 107.309 299.02 109.409 299.02C112.369 299.02 113.709 300.44 113.689 303.46L113.669 305.94C113.649 307.74 113.749 308.98 113.949 310H112.109C112.049 309.6 111.989 309.16 111.969 308.52C111.309 309.62 110.189 310.26 108.289 310.26C106.269 310.26 104.589 309.14 104.589 307.16ZM112.009 304.82C108.709 305.16 106.609 305.64 106.609 307.12C106.609 308.14 107.389 308.82 108.689 308.82C110.389 308.82 112.009 308.04 112.009 305.5V304.82ZM125.361 302.84H123.521C123.261 301.56 122.141 300.66 120.741 300.66C119.121 300.66 117.641 301.92 117.641 304.62C117.641 307.36 119.141 308.66 120.741 308.66C122.261 308.66 123.341 307.64 123.601 306.5H125.481C125.121 308.52 123.181 310.26 120.681 310.26C117.601 310.26 115.661 307.92 115.661 304.64C115.661 301.44 117.681 299.06 120.861 299.06C123.461 299.06 125.121 301.02 125.361 302.84ZM129.354 295.5V304.08L133.694 299.24H135.934L131.834 303.7L136.494 310H134.274L130.614 305.04L129.354 306.4V310H127.534V295.5H129.354ZM143.694 302.38C143.414 301.1 142.414 300.6 141.154 300.6C140.094 300.6 138.894 300.98 138.894 301.96C138.894 302.82 139.494 303.22 140.534 303.42L142.054 303.72C144.014 304.1 145.734 304.84 145.734 306.92C145.734 309.04 143.814 310.26 141.354 310.26C138.534 310.26 136.934 308.4 136.734 306.52H138.654C138.934 307.9 139.794 308.72 141.394 308.72C142.774 308.72 143.894 308.12 143.894 307.12C143.894 306.04 142.874 305.58 141.714 305.34L140.114 305.02C138.654 304.72 137.054 304.04 137.054 302.04C137.054 300.14 138.974 299.04 141.354 299.04C143.674 299.04 145.254 300.34 145.594 302.38H143.694ZM161.548 309.4L158.068 305.94L154.728 309.26L153.428 307.98L156.788 304.64L153.428 301.26L154.728 299.98L158.068 303.32L161.428 300L162.728 301.28L159.368 304.64L162.828 308.1L161.548 309.4ZM180.288 299.04C180.288 302.4 176.788 305.38 172.728 308.3H180.688V310H170.248V308.36C175.368 304.58 178.368 301.84 178.368 299.28C178.368 297.78 177.368 296.76 175.648 296.76C174.088 296.76 172.568 297.62 172.528 300.02H170.648C170.608 297.14 172.608 295.24 175.688 295.24C178.368 295.24 180.288 296.6 180.288 299.04ZM188.045 310.26C184.185 310.26 182.405 307.34 182.405 302.74C182.405 298.16 184.185 295.24 188.045 295.24C191.905 295.24 193.685 298.16 193.685 302.74C193.685 307.34 191.905 310.26 188.045 310.26ZM188.045 296.76C185.765 296.76 184.345 298.72 184.345 302.74C184.345 306.78 185.765 308.74 188.045 308.74C190.325 308.74 191.745 306.78 191.745 302.74C191.745 298.72 190.325 296.76 188.045 296.76Z" fill="black"/>
<path d="M23.26 321.5V323.7H21.44V321.5H23.26ZM21.44 325.24H23.26V336.54C23.26 338.78 22.8 339.5 20.72 339.5H19.8V337.98H20.32C21.26 337.98 21.44 337.7 21.44 336.58V325.24ZM32.807 334.46C32.187 335.48 31.207 336.26 29.427 336.26C26.927 336.26 25.987 334.58 25.987 332.12V325.24H27.807V331.58C27.807 333.24 28.087 334.68 30.067 334.68C31.787 334.68 32.807 333.46 32.807 331.16V325.24H34.627V336H32.807V334.46ZM39.3342 336H37.5142V325.24H39.3342V326.86C39.9542 325.84 40.9542 325.06 42.5742 325.06C44.2142 325.06 45.1942 325.78 45.6742 326.96C46.5342 325.64 47.7942 325.06 49.2942 325.06C51.7942 325.06 52.7742 326.74 52.7742 329.2V336H50.9542V329.74C50.9542 328.08 50.6342 326.64 48.6542 326.64C47.0942 326.64 46.0542 327.86 46.0542 330.16V336H44.2342V329.74C44.2342 328.08 43.9142 326.64 41.9342 326.64C40.3742 326.64 39.3342 327.86 39.3342 330.16V336ZM57.3225 325.24V326.94C57.9825 325.8 59.1225 325.06 60.8425 325.06C63.3025 325.06 65.4425 327.12 65.4425 330.66C65.4425 334.22 63.3025 336.26 60.8425 336.26C59.1225 336.26 57.9825 335.52 57.3225 334.38V339.5H55.5025V325.24H57.3225ZM60.3825 334.7C62.2425 334.7 63.4625 333.22 63.4625 330.66C63.4625 328.1 62.2425 326.62 60.3825 326.62C58.7625 326.62 57.2425 327.82 57.2425 330.66C57.2425 333.5 58.7625 334.7 60.3825 334.7ZM67.0422 333.7H69.3422V336.16L68.1222 338.78H66.9622L68.0222 336H67.0422V333.7ZM82.9906 328.38C82.7106 327.1 81.7106 326.6 80.4506 326.6C79.3906 326.6 78.1906 326.98 78.1906 327.96C78.1906 328.82 78.7906 329.22 79.8306 329.42L81.3506 329.72C83.3106 330.1 85.0306 330.84 85.0306 332.92C85.0306 335.04 83.1106 336.26 80.6506 336.26C77.8306 336.26 76.2306 334.4 76.0306 332.52H77.9506C78.2306 333.9 79.0906 334.72 80.6906 334.72C82.0706 334.72 83.1906 334.12 83.1906 333.12C83.1906 332.04 82.1706 331.58 81.0106 331.34L79.4106 331.02C77.9506 330.72 76.3506 330.04 76.3506 328.04C76.3506 326.14 78.2706 325.04 80.6506 325.04C82.9706 325.04 84.5506 326.34 84.8906 328.38H82.9906ZM89.1584 325.24V326.94C89.8184 325.8 90.9584 325.06 92.6784 325.06C95.1384 325.06 97.2784 327.12 97.2784 330.66C97.2784 334.22 95.1384 336.26 92.6784 336.26C90.9584 336.26 89.8184 335.52 89.1584 334.38V339.5H87.3384V325.24H89.1584ZM92.2184 334.7C94.0784 334.7 95.2984 333.22 95.2984 330.66C95.2984 328.1 94.0784 326.62 92.2184 326.62C90.5984 326.62 89.0784 327.82 89.0784 330.66C89.0784 333.5 90.5984 334.7 92.2184 334.7ZM104.769 327.14C104.389 327.1 104.049 327.06 103.749 327.06C102.069 327.06 101.229 328 101.229 330.36V336H99.4088V325.24H101.189V327.12C101.729 325.9 102.829 325.22 104.229 325.18C104.409 325.18 104.569 325.18 104.769 325.2V327.14ZM107.543 331.22C107.623 333.54 109.263 334.66 110.863 334.66C112.463 334.66 113.343 333.94 113.803 332.88H115.683C115.183 334.74 113.483 336.26 110.863 336.26C107.463 336.26 105.583 333.82 105.583 330.64C105.583 327.24 107.863 325.06 110.803 325.06C114.083 325.06 116.063 327.82 115.823 331.22H107.543ZM107.563 329.66H113.903C113.863 328.14 112.723 326.62 110.803 326.62C109.183 326.62 107.723 327.5 107.563 329.66ZM117.206 333.16C117.206 330.62 120.066 329.88 124.486 329.38V329.12C124.486 327.16 123.386 326.5 122.046 326.5C120.546 326.5 119.666 327.32 119.586 328.64H117.706C117.886 326.32 119.926 325.02 122.026 325.02C124.986 325.02 126.326 326.44 126.306 329.46L126.286 331.94C126.266 333.74 126.366 334.98 126.566 336H124.726C124.666 335.6 124.606 335.16 124.586 334.52C123.926 335.62 122.806 336.26 120.906 336.26C118.886 336.26 117.206 335.14 117.206 333.16ZM124.626 330.82C121.326 331.16 119.226 331.64 119.226 333.12C119.226 334.14 120.006 334.82 121.306 334.82C123.006 334.82 124.626 334.04 124.626 331.5V330.82ZM136.398 321.5H138.218V336H136.398V334.38C135.738 335.52 134.598 336.26 132.878 336.26C130.418 336.26 128.278 334.22 128.278 330.66C128.278 327.12 130.418 325.06 132.878 325.06C134.598 325.06 135.738 325.8 136.398 326.94V321.5ZM133.338 326.62C131.478 326.62 130.258 328.1 130.258 330.66C130.258 333.22 131.478 334.7 133.338 334.7C134.958 334.7 136.478 333.5 136.478 330.66C136.478 327.82 134.958 326.62 133.338 326.62ZM142.908 321.5V323.7H141.088V321.5H142.908ZM142.908 325.24V336H141.088V325.24H142.908ZM147.615 326.86C148.235 325.84 149.275 325.06 151.095 325.06C153.695 325.06 154.635 326.74 154.635 329.2V336H152.815V329.74C152.815 328.08 152.535 326.64 150.455 326.64C148.695 326.64 147.615 327.86 147.615 330.16V336H145.795V325.24H147.615V326.86ZM164.598 325.24H166.418V334.56C166.418 336.76 166.018 337.66 165.398 338.34C164.618 339.24 163.278 339.76 161.678 339.76C159.238 339.76 157.598 338.64 157.258 336.46H159.198C159.438 337.42 160.018 338.16 161.698 338.16C162.678 338.16 163.418 337.88 163.898 337.36C164.298 336.94 164.598 336.44 164.598 334.98V333.96C163.938 335.1 162.898 335.82 161.178 335.82C158.798 335.82 156.618 333.9 156.618 330.44C156.618 327 158.798 325.06 161.178 325.06C162.898 325.06 163.938 325.8 164.598 326.94V325.24ZM161.638 326.62C159.858 326.62 158.598 328 158.598 330.44C158.598 332.9 159.858 334.28 161.638 334.28C163.258 334.28 164.678 333.18 164.678 330.44C164.678 327.72 163.258 326.62 161.638 326.62ZM181.918 325.24L178.078 336.46C177.298 338.8 176.738 339.5 174.338 339.5H173.398V337.98H174.138C175.338 337.98 175.918 337.9 176.398 336.22L176.478 336L172.598 325.24H174.618L177.358 333.54L180.018 325.24H181.918ZM192.779 330.66C192.779 334.56 190.119 336.26 187.619 336.26C185.119 336.26 182.459 334.56 182.459 330.66C182.459 326.76 185.119 325.06 187.619 325.06C190.119 325.06 192.779 326.76 192.779 330.66ZM187.619 334.66C189.259 334.66 190.839 333.42 190.839 330.66C190.839 327.8 189.259 326.66 187.619 326.66C185.979 326.66 184.399 327.72 184.399 330.66C184.399 333.52 185.979 334.66 187.619 334.66ZM201.616 334.46C200.996 335.48 200.016 336.26 198.236 336.26C195.736 336.26 194.796 334.58 194.796 332.12V325.24H196.616V331.58C196.616 333.24 196.896 334.68 198.876 334.68C200.596 334.68 201.616 333.46 201.616 331.16V325.24H203.436V336H201.616V334.46ZM211.683 327.14C211.303 327.1 210.963 327.06 210.663 327.06C208.983 327.06 208.143 328 208.143 330.36V336H206.323V325.24H208.103V327.12C208.643 325.9 209.743 325.22 211.143 325.18C211.323 325.18 211.483 325.18 211.683 325.2V327.14ZM219.998 336H218.178V321.5H219.998V336ZM224.105 331.22C224.185 333.54 225.825 334.66 227.425 334.66C229.025 334.66 229.905 333.94 230.365 332.88H232.245C231.745 334.74 230.045 336.26 227.425 336.26C224.025 336.26 222.145 333.82 222.145 330.64C222.145 327.24 224.425 325.06 227.365 325.06C230.645 325.06 232.625 327.82 232.385 331.22H224.105ZM224.125 329.66H230.465C230.425 328.14 229.285 326.62 227.365 326.62C225.745 326.62 224.285 327.5 224.125 329.66ZM241.844 325.24H243.664V334.56C243.664 336.76 243.264 337.66 242.644 338.34C241.864 339.24 240.524 339.76 238.924 339.76C236.484 339.76 234.844 338.64 234.504 336.46H236.444C236.684 337.42 237.264 338.16 238.944 338.16C239.924 338.16 240.664 337.88 241.144 337.36C241.544 336.94 241.844 336.44 241.844 334.98V333.96C241.184 335.1 240.144 335.82 238.424 335.82C236.044 335.82 233.864 333.9 233.864 330.44C233.864 327 236.044 325.06 238.424 325.06C240.144 325.06 241.184 325.8 241.844 326.94V325.24ZM238.884 326.62C237.104 326.62 235.844 328 235.844 330.44C235.844 332.9 237.104 334.28 238.884 334.28C240.504 334.28 241.924 333.18 241.924 330.44C241.924 327.72 240.504 326.62 238.884 326.62ZM252.698 328.38C252.418 327.1 251.418 326.6 250.158 326.6C249.098 326.6 247.898 326.98 247.898 327.96C247.898 328.82 248.498 329.22 249.538 329.42L251.058 329.72C253.018 330.1 254.738 330.84 254.738 332.92C254.738 335.04 252.818 336.26 250.358 336.26C247.538 336.26 245.938 334.4 245.738 332.52H247.658C247.938 333.9 248.798 334.72 250.398 334.72C251.778 334.72 252.898 334.12 252.898 333.12C252.898 332.04 251.878 331.58 250.718 331.34L249.118 331.02C247.658 330.72 246.058 330.04 246.058 328.04C246.058 326.14 247.978 325.04 250.358 325.04C252.678 325.04 254.258 326.34 254.598 328.38H252.698ZM262.312 322.54H264.132V325.24H266.172V326.7H264.132V333.08C264.132 334.2 264.212 334.48 265.252 334.48H266.172V336H264.852C262.792 336 262.312 335.54 262.312 333.3V326.7H260.612V325.24H262.312V322.54ZM277.818 330.66C277.818 334.56 275.158 336.26 272.658 336.26C270.158 336.26 267.498 334.56 267.498 330.66C267.498 326.76 270.158 325.06 272.658 325.06C275.158 325.06 277.818 326.76 277.818 330.66ZM272.658 334.66C274.298 334.66 275.878 333.42 275.878 330.66C275.878 327.8 274.298 326.66 272.658 326.66C271.018 326.66 269.438 327.72 269.438 330.66C269.438 333.52 271.018 334.66 272.658 334.66ZM285.261 322.54H287.081V325.24H289.121V326.7H287.081V333.08C287.081 334.2 287.161 334.48 288.201 334.48H289.121V336H287.801C285.741 336 285.261 335.54 285.261 333.3V326.7H283.561V325.24H285.261V322.54ZM293.26 326.86C293.88 325.84 294.92 325.06 296.74 325.06C299.34 325.06 300.28 326.74 300.28 329.2V336H298.46V329.74C298.46 328.08 298.18 326.64 296.1 326.64C294.34 326.64 293.26 327.86 293.26 330.16V336H291.44V321.5H293.26V326.86ZM304.223 331.22C304.303 333.54 305.943 334.66 307.543 334.66C309.143 334.66 310.023 333.94 310.483 332.88H312.363C311.863 334.74 310.163 336.26 307.543 336.26C304.143 336.26 302.263 333.82 302.263 330.64C302.263 327.24 304.543 325.06 307.483 325.06C310.763 325.06 312.743 327.82 312.503 331.22H304.223ZM304.243 329.66H310.583C310.543 328.14 309.403 326.62 307.483 326.62C305.863 326.62 304.403 327.5 304.243 329.66ZM325.53 328.38C325.25 327.1 324.25 326.6 322.99 326.6C321.93 326.6 320.73 326.98 320.73 327.96C320.73 328.82 321.33 329.22 322.37 329.42L323.89 329.72C325.85 330.1 327.57 330.84 327.57 332.92C327.57 335.04 325.65 336.26 323.19 336.26C320.37 336.26 318.77 334.4 318.57 332.52H320.49C320.77 333.9 321.63 334.72 323.23 334.72C324.61 334.72 325.73 334.12 325.73 333.12C325.73 332.04 324.71 331.58 323.55 331.34L321.95 331.02C320.49 330.72 318.89 330.04 318.89 328.04C318.89 326.14 320.81 325.04 323.19 325.04C325.51 325.04 327.09 326.34 327.43 328.38H325.53ZM331.698 321.5V323.7H329.878V321.5H331.698ZM331.698 325.24V336H329.878V325.24H331.698ZM341.965 321.5H343.785V336H341.965V334.38C341.305 335.52 340.165 336.26 338.445 336.26C335.985 336.26 333.845 334.22 333.845 330.66C333.845 327.12 335.985 325.06 338.445 325.06C340.165 325.06 341.305 325.8 341.965 326.94V321.5ZM338.905 326.62C337.045 326.62 335.825 328.1 335.825 330.66C335.825 333.22 337.045 334.7 338.905 334.7C340.525 334.7 342.045 333.5 342.045 330.66C342.045 327.82 340.525 326.62 338.905 326.62ZM347.875 331.22C347.955 333.54 349.595 334.66 351.195 334.66C352.795 334.66 353.675 333.94 354.135 332.88H356.015C355.515 334.74 353.815 336.26 351.195 336.26C347.795 336.26 345.915 333.82 345.915 330.64C345.915 327.24 348.195 325.06 351.135 325.06C354.415 325.06 356.395 327.82 356.155 331.22H347.875ZM347.895 329.66H354.235C354.195 328.14 353.055 326.62 351.135 326.62C349.515 326.62 348.055 327.5 347.895 329.66ZM364.475 328.38C364.195 327.1 363.195 326.6 361.935 326.6C360.875 326.6 359.675 326.98 359.675 327.96C359.675 328.82 360.275 329.22 361.315 329.42L362.835 329.72C364.795 330.1 366.515 330.84 366.515 332.92C366.515 335.04 364.595 336.26 362.135 336.26C359.315 336.26 357.715 334.4 357.515 332.52H359.435C359.715 333.9 360.575 334.72 362.175 334.72C363.555 334.72 364.675 334.12 364.675 333.12C364.675 332.04 363.655 331.58 362.495 331.34L360.895 331.02C359.435 330.72 357.835 330.04 357.835 328.04C357.835 326.14 359.755 325.04 362.135 325.04C364.455 325.04 366.035 326.34 366.375 328.38H364.475ZM368.488 333.7H370.788V336.16L369.568 338.78H368.408L369.468 336H368.488V333.7ZM30.4 354.84H28.56C28.3 353.56 27.18 352.66 25.78 352.66C24.16 352.66 22.68 353.92 22.68 356.62C22.68 359.36 24.18 360.66 25.78 360.66C27.3 360.66 28.38 359.64 28.64 358.5H30.52C30.16 360.52 28.22 362.26 25.72 362.26C22.64 362.26 20.7 359.92 20.7 356.64C20.7 353.44 22.72 351.06 25.9 351.06C28.5 351.06 30.16 353.02 30.4 354.84ZM34.3928 362H32.5728V347.5H34.3928V362ZM36.6398 359.16C36.6398 356.62 39.4998 355.88 43.9198 355.38V355.12C43.9198 353.16 42.8198 352.5 41.4798 352.5C39.9798 352.5 39.0998 353.32 39.0198 354.64H37.1398C37.3198 352.32 39.3598 351.02 41.4598 351.02C44.4198 351.02 45.7598 352.44 45.7398 355.46L45.7198 357.94C45.6998 359.74 45.7998 360.98 45.9998 362H44.1598C44.0998 361.6 44.0398 361.16 44.0198 360.52C43.3598 361.62 42.2398 362.26 40.3398 362.26C38.3198 362.26 36.6398 361.14 36.6398 359.16ZM44.0598 356.82C40.7598 357.16 38.6598 357.64 38.6598 359.12C38.6598 360.14 39.4398 360.82 40.7398 360.82C42.4398 360.82 44.0598 360.04 44.0598 357.5V356.82ZM50.2717 351.24V352.94C50.9317 351.8 52.0717 351.06 53.7917 351.06C56.2517 351.06 58.3917 353.12 58.3917 356.66C58.3917 360.22 56.2517 362.26 53.7917 362.26C52.0717 362.26 50.9317 361.52 50.2717 360.38V365.5H48.4517V351.24H50.2717ZM53.3317 360.7C55.1917 360.7 56.4117 359.22 56.4117 356.66C56.4117 354.1 55.1917 352.62 53.3317 352.62C51.7117 352.62 50.1917 353.82 50.1917 356.66C50.1917 359.5 51.7117 360.7 53.3317 360.7ZM73.1481 351.24L69.3081 362.46C68.5281 364.8 67.9681 365.5 65.5681 365.5H64.6281V363.98H65.3681C66.5681 363.98 67.1481 363.9 67.6281 362.22L67.7081 362L63.8281 351.24H65.8481L68.5881 359.54L71.2481 351.24H73.1481ZM84.0092 356.66C84.0092 360.56 81.3492 362.26 78.8492 362.26C76.3492 362.26 73.6892 360.56 73.6892 356.66C73.6892 352.76 76.3492 351.06 78.8492 351.06C81.3492 351.06 84.0092 352.76 84.0092 356.66ZM78.8492 360.66C80.4892 360.66 82.0692 359.42 82.0692 356.66C82.0692 353.8 80.4892 352.66 78.8492 352.66C77.2092 352.66 75.6292 353.72 75.6292 356.66C75.6292 359.52 77.2092 360.66 78.8492 360.66ZM92.8461 360.46C92.2261 361.48 91.2461 362.26 89.4661 362.26C86.9661 362.26 86.0261 360.58 86.0261 358.12V351.24H87.8461V357.58C87.8461 359.24 88.1261 360.68 90.1061 360.68C91.8261 360.68 92.8461 359.46 92.8461 357.16V351.24H94.6661V362H92.8461V360.46ZM102.913 353.14C102.533 353.1 102.193 353.06 101.893 353.06C100.213 353.06 99.3733 354 99.3733 356.36V362H97.5533V351.24H99.3333V353.12C99.8733 351.9 100.973 351.22 102.373 351.18C102.553 351.18 102.713 351.18 102.913 351.2V353.14ZM111.229 352.86C111.849 351.84 112.889 351.06 114.709 351.06C117.309 351.06 118.249 352.74 118.249 355.2V362H116.429V355.74C116.429 354.08 116.149 352.64 114.069 352.64C112.309 352.64 111.229 353.86 111.229 356.16V362H109.409V347.5H111.229V352.86ZM120.331 359.16C120.331 356.62 123.191 355.88 127.611 355.38V355.12C127.611 353.16 126.511 352.5 125.171 352.5C123.671 352.5 122.791 353.32 122.711 354.64H120.831C121.011 352.32 123.051 351.02 125.151 351.02C128.111 351.02 129.451 352.44 129.431 355.46L129.411 357.94C129.391 359.74 129.491 360.98 129.691 362H127.851C127.791 361.6 127.731 361.16 127.711 360.52C127.051 361.62 125.931 362.26 124.031 362.26C122.011 362.26 120.331 361.14 120.331 359.16ZM127.751 356.82C124.451 357.16 122.351 357.64 122.351 359.12C122.351 360.14 123.131 360.82 124.431 360.82C126.131 360.82 127.751 360.04 127.751 357.5V356.82ZM133.963 352.86C134.583 351.84 135.623 351.06 137.443 351.06C140.043 351.06 140.983 352.74 140.983 355.2V362H139.163V355.74C139.163 354.08 138.883 352.64 136.803 352.64C135.043 352.64 133.963 353.86 133.963 356.16V362H132.143V351.24H133.963V352.86ZM151.086 347.5H152.906V362H151.086V360.38C150.426 361.52 149.286 362.26 147.566 362.26C145.106 362.26 142.966 360.22 142.966 356.66C142.966 353.12 145.106 351.06 147.566 351.06C149.286 351.06 150.426 351.8 151.086 352.94V347.5ZM148.026 352.62C146.166 352.62 144.946 354.1 144.946 356.66C144.946 359.22 146.166 360.7 148.026 360.7C149.646 360.7 151.166 359.5 151.166 356.66C151.166 353.82 149.646 352.62 148.026 352.62ZM161.936 354.38C161.656 353.1 160.656 352.6 159.396 352.6C158.336 352.6 157.136 352.98 157.136 353.96C157.136 354.82 157.736 355.22 158.776 355.42L160.296 355.72C162.256 356.1 163.976 356.84 163.976 358.92C163.976 361.04 162.056 362.26 159.596 362.26C156.776 362.26 155.176 360.4 154.976 358.52H156.896C157.176 359.9 158.036 360.72 159.636 360.72C161.016 360.72 162.136 360.12 162.136 359.12C162.136 358.04 161.116 357.58 159.956 357.34L158.356 357.02C156.896 356.72 155.296 356.04 155.296 354.04C155.296 352.14 157.216 351.04 159.596 351.04C161.916 351.04 163.496 352.34 163.836 354.38H161.936ZM180.65 356.66C180.65 360.56 177.99 362.26 175.49 362.26C172.99 362.26 170.33 360.56 170.33 356.66C170.33 352.76 172.99 351.06 175.49 351.06C177.99 351.06 180.65 352.76 180.65 356.66ZM175.49 360.66C177.13 360.66 178.71 359.42 178.71 356.66C178.71 353.8 177.13 352.66 175.49 352.66C173.85 352.66 172.27 353.72 172.27 356.66C172.27 359.52 173.85 360.66 175.49 360.66ZM186.131 359.48L189.051 351.24H190.931L186.871 362H185.251L181.191 351.24H183.211L186.131 359.48ZM193.402 357.22C193.482 359.54 195.122 360.66 196.722 360.66C198.322 360.66 199.202 359.94 199.662 358.88H201.542C201.042 360.74 199.342 362.26 196.722 362.26C193.322 362.26 191.442 359.82 191.442 356.64C191.442 353.24 193.722 351.06 196.662 351.06C199.942 351.06 201.922 353.82 201.682 357.22H193.402ZM193.422 355.66H199.762C199.722 354.14 198.582 352.62 196.662 352.62C195.042 352.62 193.582 353.5 193.422 355.66ZM209.163 353.14C208.783 353.1 208.443 353.06 208.143 353.06C206.463 353.06 205.623 354 205.623 356.36V362H203.803V351.24H205.583V353.12C206.123 351.9 207.223 351.22 208.623 351.18C208.803 351.18 208.963 351.18 209.163 351.2V353.14ZM212.733 352.86C213.353 351.84 214.393 351.06 216.213 351.06C218.813 351.06 219.753 352.74 219.753 355.2V362H217.933V355.74C217.933 354.08 217.653 352.64 215.573 352.64C213.813 352.64 212.733 353.86 212.733 356.16V362H210.913V347.5H212.733V352.86ZM223.695 357.22C223.775 359.54 225.415 360.66 227.015 360.66C228.615 360.66 229.495 359.94 229.955 358.88H231.835C231.335 360.74 229.635 362.26 227.015 362.26C223.615 362.26 221.735 359.82 221.735 356.64C221.735 353.24 224.015 351.06 226.955 351.06C230.235 351.06 232.215 353.82 231.975 357.22H223.695ZM223.715 355.66H230.055C230.015 354.14 228.875 352.62 226.955 352.62C225.335 352.62 223.875 353.5 223.715 355.66ZM233.359 359.16C233.359 356.62 236.219 355.88 240.639 355.38V355.12C240.639 353.16 239.539 352.5 238.199 352.5C236.699 352.5 235.819 353.32 235.739 354.64H233.859C234.039 352.32 236.079 351.02 238.179 351.02C241.139 351.02 242.479 352.44 242.459 355.46L242.439 357.94C242.419 359.74 242.519 360.98 242.719 362H240.879C240.819 361.6 240.759 361.16 240.739 360.52C240.079 361.62 238.959 362.26 237.059 362.26C235.039 362.26 233.359 361.14 233.359 359.16ZM240.779 356.82C237.479 357.16 235.379 357.64 235.379 359.12C235.379 360.14 236.159 360.82 237.459 360.82C239.159 360.82 240.779 360.04 240.779 357.5V356.82ZM252.55 347.5H254.37V362H252.55V360.38C251.89 361.52 250.75 362.26 249.03 362.26C246.57 362.26 244.43 360.22 244.43 356.66C244.43 353.12 246.57 351.06 249.03 351.06C250.75 351.06 251.89 351.8 252.55 352.94V347.5ZM249.49 352.62C247.63 352.62 246.41 354.1 246.41 356.66C246.41 359.22 247.63 360.7 249.49 360.7C251.11 360.7 252.63 359.5 252.63 356.66C252.63 353.82 251.11 352.62 249.49 352.62Z" fill="black"/>
<path d="M39.78 117.72H45.42L51.84 141.6L58.02 117.72H63.9L54.6 150H49.62L42.48 124.02L35.58 150H30.6L21.3 117.72H27.18L33.36 141.6L39.78 117.72ZM65.9977 141.48C65.9977 133.86 74.5777 131.64 87.8377 130.14V129.36C87.8377 123.48 84.5377 121.5 80.5177 121.5C76.0177 121.5 73.3777 123.96 73.1377 127.92H67.4977C68.0377 120.96 74.1577 117.06 80.4577 117.06C89.3377 117.06 93.3577 121.32 93.2977 130.38L93.2377 137.82C93.1777 143.22 93.4777 146.94 94.0777 150H88.5577C88.3777 148.8 88.1977 147.48 88.1377 145.56C86.1577 148.86 82.7977 150.78 77.0977 150.78C71.0377 150.78 65.9977 147.42 65.9977 141.48ZM88.2577 134.46C78.3577 135.48 72.0577 136.92 72.0577 141.36C72.0577 144.42 74.3977 146.46 78.2977 146.46C83.3977 146.46 88.2577 144.12 88.2577 136.5V134.46ZM117.513 123.42C116.373 123.3 115.353 123.18 114.453 123.18C109.413 123.18 106.893 126 106.893 133.08V150H101.433V117.72H106.773V123.36C108.393 119.7 111.693 117.66 115.893 117.54C116.433 117.54 116.913 117.54 117.513 117.6V123.42ZM128.221 150H122.761V117.72H128.221V122.58C130.081 119.52 133.081 117.18 137.941 117.18C142.861 117.18 145.801 119.34 147.241 122.88C149.821 118.92 153.601 117.18 158.101 117.18C165.601 117.18 168.541 122.22 168.541 129.6V150H163.081V131.22C163.081 126.24 162.121 121.92 156.181 121.92C151.501 121.92 148.381 125.58 148.381 132.48V150H142.921V131.22C142.921 126.24 141.961 121.92 136.021 121.92C131.341 121.92 128.221 125.58 128.221 132.48V150ZM210.945 145.38C209.085 148.44 206.145 150.78 200.805 150.78C193.305 150.78 190.485 145.74 190.485 138.36V117.72H195.945V136.74C195.945 141.72 196.785 146.04 202.725 146.04C207.885 146.04 210.945 142.38 210.945 135.48V117.72H216.405V150H210.945V145.38ZM230.526 117.72V122.82C232.506 119.4 235.926 117.18 241.086 117.18C248.466 117.18 254.886 123.36 254.886 133.98C254.886 144.66 248.466 150.78 241.086 150.78C235.926 150.78 232.506 148.56 230.526 145.14V160.5H225.066V117.72H230.526ZM239.706 146.1C245.286 146.1 248.946 141.66 248.946 133.98C248.946 126.3 245.286 121.86 239.706 121.86C234.846 121.86 230.286 125.46 230.286 133.98C230.286 142.5 234.846 146.1 239.706 146.1Z" fill="black"/>
<rect x="20" y="782" width="359" height="60" rx="30" fill="black"/>
<path d="M182.76 809.86C183.38 808.84 184.42 808.06 186.24 808.06C188.84 808.06 189.78 809.74 189.78 812.2V819H187.96V812.74C187.96 811.08 187.68 809.64 185.6 809.64C183.84 809.64 182.76 810.86 182.76 813.16V819H180.94V808.24H182.76V809.86ZM193.723 814.22C193.803 816.54 195.443 817.66 197.043 817.66C198.643 817.66 199.523 816.94 199.983 815.88H201.863C201.363 817.74 199.663 819.26 197.043 819.26C193.643 819.26 191.763 816.82 191.763 813.64C191.763 810.24 194.043 808.06 196.983 808.06C200.263 808.06 202.243 810.82 202.003 814.22H193.723ZM193.743 812.66H200.083C200.043 811.14 198.903 809.62 196.983 809.62C195.363 809.62 193.903 810.5 193.743 812.66ZM208.669 813.38L212.689 819H210.509L207.589 814.9L204.689 819H202.609L206.569 813.46L202.849 808.24H205.029L207.649 811.94L210.289 808.24H212.329L208.669 813.38ZM214.8 805.54H216.62V808.24H218.66V809.7H216.62V816.08C216.62 817.2 216.7 817.48 217.74 817.48H218.66V819H217.34C215.28 819 214.8 818.54 214.8 816.3V809.7H213.1V808.24H214.8V805.54Z" fill="white"/>
<rect x="20.5" y="713.5" width="358" height="59" rx="29.5" stroke="black"/>
<path d="M130.3 747.16C130.3 744.62 133.16 743.88 137.58 743.38V743.12C137.58 741.16 136.48 740.5 135.14 740.5C133.64 740.5 132.76 741.32 132.68 742.64H130.8C130.98 740.32 133.02 739.02 135.12 739.02C138.08 739.02 139.42 740.44 139.4 743.46L139.38 745.94C139.36 747.74 139.46 748.98 139.66 750H137.82C137.76 749.6 137.7 749.16 137.68 748.52C137.02 749.62 135.9 750.26 134 750.26C131.98 750.26 130.3 749.14 130.3 747.16ZM137.72 744.82C134.42 745.16 132.32 745.64 132.32 747.12C132.32 748.14 133.1 748.82 134.4 748.82C136.1 748.82 137.72 748.04 137.72 745.5V744.82ZM149.492 735.5H151.312V750H149.492V748.38C148.832 749.52 147.692 750.26 145.972 750.26C143.512 750.26 141.372 748.22 141.372 744.66C141.372 741.12 143.512 739.06 145.972 739.06C147.692 739.06 148.832 739.8 149.492 740.94V735.5ZM146.432 740.62C144.572 740.62 143.352 742.1 143.352 744.66C143.352 747.22 144.572 748.7 146.432 748.7C148.052 748.7 149.572 747.5 149.572 744.66C149.572 741.82 148.052 740.62 146.432 740.62ZM156.002 735.5V737.7H154.182V735.5H156.002ZM154.182 739.24H156.002V750.54C156.002 752.78 155.542 753.5 153.462 753.5H152.542V751.98H153.062C154.002 751.98 154.182 751.7 154.182 750.58V739.24ZM165.549 748.46C164.929 749.48 163.949 750.26 162.169 750.26C159.669 750.26 158.729 748.58 158.729 746.12V739.24H160.549V745.58C160.549 747.24 160.829 748.68 162.809 748.68C164.529 748.68 165.549 747.46 165.549 745.16V739.24H167.369V750H165.549V748.46ZM176.416 742.38C176.136 741.1 175.136 740.6 173.876 740.6C172.816 740.6 171.616 740.98 171.616 741.96C171.616 742.82 172.216 743.22 173.256 743.42L174.776 743.72C176.736 744.1 178.456 744.84 178.456 746.92C178.456 749.04 176.536 750.26 174.076 750.26C171.256 750.26 169.656 748.4 169.456 746.52H171.376C171.656 747.9 172.516 748.72 174.116 748.72C175.496 748.72 176.616 748.12 176.616 747.12C176.616 746.04 175.596 745.58 174.436 745.34L172.836 745.02C171.376 744.72 169.776 744.04 169.776 742.04C169.776 740.14 171.696 739.04 174.076 739.04C176.396 739.04 177.976 740.34 178.316 742.38H176.416ZM181.284 736.54H183.104V739.24H185.144V740.7H183.104V747.08C183.104 748.2 183.184 748.48 184.224 748.48H185.144V750H183.824C181.764 750 181.284 749.54 181.284 747.3V740.7H179.584V739.24H181.284V736.54ZM196.834 739.24H198.714L200.854 747.2L202.914 739.24H204.874L201.774 750H200.114L197.734 741.34L195.434 750H193.774L190.674 739.24H192.634L194.694 747.2L196.834 739.24ZM205.573 747.16C205.573 744.62 208.433 743.88 212.853 743.38V743.12C212.853 741.16 211.753 740.5 210.413 740.5C208.913 740.5 208.033 741.32 207.953 742.64H206.073C206.253 740.32 208.293 739.02 210.393 739.02C213.353 739.02 214.693 740.44 214.673 743.46L214.653 745.94C214.633 747.74 214.733 748.98 214.933 750H213.093C213.033 749.6 212.973 749.16 212.953 748.52C212.293 749.62 211.173 750.26 209.273 750.26C207.253 750.26 205.573 749.14 205.573 747.16ZM212.993 744.82C209.693 745.16 207.593 745.64 207.593 747.12C207.593 748.14 208.373 748.82 209.673 748.82C211.373 748.82 212.993 748.04 212.993 745.5V744.82ZM222.745 741.14C222.365 741.1 222.025 741.06 221.725 741.06C220.045 741.06 219.205 742 219.205 744.36V750H217.385V739.24H219.165V741.12C219.705 739.9 220.805 739.22 222.205 739.18C222.385 739.18 222.545 739.18 222.745 739.2V741.14ZM226.315 750H224.495V739.24H226.315V740.86C226.935 739.84 227.935 739.06 229.555 739.06C231.195 739.06 232.175 739.78 232.655 740.96C233.515 739.64 234.775 739.06 236.275 739.06C238.775 739.06 239.755 740.74 239.755 743.2V750H237.935V743.74C237.935 742.08 237.615 740.64 235.635 740.64C234.075 740.64 233.035 741.86 233.035 744.16V750H231.215V743.74C231.215 742.08 230.895 740.64 228.915 740.64C227.355 740.64 226.315 741.86 226.315 744.16V750ZM253.889 748.46C253.269 749.48 252.289 750.26 250.509 750.26C248.009 750.26 247.069 748.58 247.069 746.12V739.24H248.889V745.58C248.889 747.24 249.169 748.68 251.149 748.68C252.869 748.68 253.889 747.46 253.889 745.16V739.24H255.709V750H253.889V748.46ZM260.416 739.24V740.94C261.076 739.8 262.216 739.06 263.936 739.06C266.396 739.06 268.536 741.12 268.536 744.66C268.536 748.22 266.396 750.26 263.936 750.26C262.216 750.26 261.076 749.52 260.416 748.38V753.5H258.596V739.24H260.416ZM263.476 748.7C265.336 748.7 266.556 747.22 266.556 744.66C266.556 742.1 265.336 740.62 263.476 740.62C261.856 740.62 260.336 741.82 260.336 744.66C260.336 747.5 261.856 748.7 263.476 748.7Z" fill="black"/>
<path opacity="0.3" d="M26.6 70.26C22.74 70.26 20.96 67.34 20.96 62.74C20.96 58.16 22.74 55.24 26.6 55.24C30.46 55.24 32.24 58.16 32.24 62.74C32.24 67.34 30.46 70.26 26.6 70.26ZM26.6 56.76C24.32 56.76 22.9 58.72 22.9 62.74C22.9 66.78 24.32 68.74 26.6 68.74C28.88 68.74 30.3 66.78 30.3 62.74C30.3 58.72 28.88 56.76 26.6 56.76ZM34.5227 61.54V59.24H36.8227V61.54H34.5227ZM34.5227 70V67.7H36.8227V70H34.5227ZM44.725 70.26C40.865 70.26 39.085 67.34 39.085 62.74C39.085 58.16 40.865 55.24 44.725 55.24C48.585 55.24 50.365 58.16 50.365 62.74C50.365 67.34 48.585 70.26 44.725 70.26ZM44.725 56.76C42.445 56.76 41.025 58.72 41.025 62.74C41.025 66.78 42.445 68.74 44.725 68.74C47.005 68.74 48.425 66.78 48.425 62.74C48.425 58.72 47.005 56.76 44.725 56.76ZM54.9477 70V58.66H51.5877V57.42C53.6677 57.34 54.7277 57.08 55.5277 55.5H56.7677V70H54.9477Z" fill="black"/>
<path d="M333.9 58.46C333.9 56.22 334.36 55.5 336.8 55.5H337.74V57.02H336.84C335.88 57.02 335.72 57.24 335.72 58.36V59.24H337.74V60.7H335.72V70H333.9V60.7H332.4V59.24H333.9V58.46ZM341.53 55.5V57.7H339.71V55.5H341.53ZM341.53 59.24V70H339.71V59.24H341.53ZM346.237 60.86C346.857 59.84 347.897 59.06 349.717 59.06C352.317 59.06 353.257 60.74 353.257 63.2V70H351.437V63.74C351.437 62.08 351.157 60.64 349.077 60.64C347.317 60.64 346.237 61.86 346.237 64.16V70H344.417V59.24H346.237V60.86ZM357.799 55.5V57.7H355.979V55.5H357.799ZM357.799 59.24V70H355.979V59.24H357.799ZM366.846 62.38C366.566 61.1 365.566 60.6 364.306 60.6C363.246 60.6 362.046 60.98 362.046 61.96C362.046 62.82 362.646 63.22 363.686 63.42L365.206 63.72C367.166 64.1 368.886 64.84 368.886 66.92C368.886 69.04 366.966 70.26 364.506 70.26C361.686 70.26 360.086 68.4 359.886 66.52H361.806C362.086 67.9 362.946 68.72 364.546 68.72C365.926 68.72 367.046 68.12 367.046 67.12C367.046 66.04 366.026 65.58 364.866 65.34L363.266 65.02C361.806 64.72 360.206 64.04 360.206 62.04C360.206 60.14 362.126 59.04 364.506 59.04C366.826 59.04 368.406 60.34 368.746 62.38H366.846ZM373.014 60.86C373.634 59.84 374.674 59.06 376.494 59.06C379.094 59.06 380.034 60.74 380.034 63.2V70H378.214V63.74C378.214 62.08 377.934 60.64 375.854 60.64C374.094 60.64 373.014 61.86 373.014 64.16V70H371.194V55.5H373.014V60.86Z" fill="black"/>
</svg>
