<svg width="402" height="874" viewBox="0 0 402 874" fill="none" xmlns="http://www.w3.org/2000/svg">
<rect width="402" height="874" rx="47" fill="black"/>
<path d="M31.8 209V174.98H21.72V171.26C27.96 171.02 31.14 170.24 33.54 165.5H37.26V209H31.8ZM46.9898 183.62V176.72H53.8898V183.62H46.9898ZM46.9898 209V202.1H53.8898V209H46.9898ZM85.6369 194.72C85.6369 187.52 80.5969 184.4 75.8569 184.4C71.3569 184.4 68.4169 187.04 67.4569 189.2L61.9969 188.9L64.8169 165.5H89.7769V170.6H69.2569L67.7569 182.96C70.0369 180.74 73.5169 179.66 77.1169 179.66C84.7369 179.66 91.3969 185.06 91.3969 194.66C91.3969 204.62 84.0169 209.78 75.9169 209.78C65.8369 209.78 61.2769 203.42 60.4369 196.4H66.0769C66.9169 201.86 69.8569 205.22 75.9169 205.22C81.1369 205.22 85.6369 201.44 85.6369 194.72ZM122.262 188.42C120.282 191.84 116.502 194.48 110.742 194.48C102.702 194.48 96.7622 188.42 96.7622 179.66C96.7622 171.62 102.762 164.72 112.062 164.72C122.922 164.72 127.902 172.28 127.902 185.72C127.902 198.02 123.462 209.78 110.922 209.78C102.402 209.78 98.3822 204.44 97.4822 198.92H103.422C104.142 202.82 107.082 205.22 111.522 205.22C118.242 205.22 121.962 198.5 122.262 188.42ZM112.122 169.28C106.482 169.28 102.582 173.48 102.582 179.42C102.582 185.36 106.422 189.68 112.062 189.68C117.762 189.68 121.542 185.36 121.542 179.42C121.542 173.42 117.882 169.28 112.122 169.28Z" fill="#FF2F00"/>
<path d="M41.4 123.42C40.26 123.3 39.24 123.18 38.34 123.18C33.3 123.18 30.78 126 30.78 133.08V150H25.32V117.72H30.66V123.36C32.28 119.7 35.58 117.66 39.78 117.54C40.32 117.54 40.8 117.54 41.4 117.6V123.42ZM49.7222 135.66C49.9622 142.62 54.8822 145.98 59.6822 145.98C64.4822 145.98 67.1222 143.82 68.5022 140.64H74.1422C72.6422 146.22 67.5422 150.78 59.6822 150.78C49.4822 150.78 43.8422 143.46 43.8422 133.92C43.8422 123.72 50.6822 117.18 59.5022 117.18C69.3422 117.18 75.2822 125.46 74.5622 135.66H49.7222ZM49.7822 130.98H68.8022C68.6822 126.42 65.2622 121.86 59.5022 121.86C54.6422 121.86 50.2622 124.5 49.7822 130.98ZM99.5227 127.14C98.6827 123.3 95.6827 121.8 91.9027 121.8C88.7227 121.8 85.1227 122.94 85.1227 125.88C85.1227 128.46 86.9227 129.66 90.0427 130.26L94.6027 131.16C100.483 132.3 105.643 134.52 105.643 140.76C105.643 147.12 99.8827 150.78 92.5027 150.78C84.0427 150.78 79.2427 145.2 78.6427 139.56H84.4027C85.2427 143.7 87.8227 146.16 92.6227 146.16C96.7627 146.16 100.123 144.36 100.123 141.36C100.123 138.12 97.0627 136.74 93.5827 136.02L88.7827 135.06C84.4027 134.16 79.6027 132.12 79.6027 126.12C79.6027 120.42 85.3627 117.12 92.5027 117.12C99.4627 117.12 104.203 121.02 105.223 127.14H99.5227ZM114.126 109.62H119.586V117.72H125.706V122.1H119.586V141.24C119.586 144.6 119.826 145.44 122.946 145.44H125.706V150H121.746C115.566 150 114.126 148.62 114.126 141.9V122.1H109.026V117.72H114.126V109.62Z" fill="white"/>
<path opacity="0.3" d="M26.6 70.26C22.74 70.26 20.96 67.34 20.96 62.74C20.96 58.16 22.74 55.24 26.6 55.24C30.46 55.24 32.24 58.16 32.24 62.74C32.24 67.34 30.46 70.26 26.6 70.26ZM26.6 56.76C24.32 56.76 22.9 58.72 22.9 62.74C22.9 66.78 24.32 68.74 26.6 68.74C28.88 68.74 30.3 66.78 30.3 62.74C30.3 58.72 28.88 56.76 26.6 56.76ZM34.5227 61.54V59.24H36.8227V61.54H34.5227ZM34.5227 70V67.7H36.8227V70H34.5227ZM44.725 70.26C40.865 70.26 39.085 67.34 39.085 62.74C39.085 58.16 40.865 55.24 44.725 55.24C48.585 55.24 50.365 58.16 50.365 62.74C50.365 67.34 48.585 70.26 44.725 70.26ZM44.725 56.76C42.445 56.76 41.025 58.72 41.025 62.74C41.025 66.78 42.445 68.74 44.725 68.74C47.005 68.74 48.425 66.78 48.425 62.74C48.425 58.72 47.005 56.76 44.725 56.76ZM54.9477 70V58.66H51.5877V57.42C53.6677 57.34 54.7277 57.08 55.5277 55.5H56.7677V70H54.9477Z" fill="white"/>
<path d="M333.9 58.46C333.9 56.22 334.36 55.5 336.8 55.5H337.74V57.02H336.84C335.88 57.02 335.72 57.24 335.72 58.36V59.24H337.74V60.7H335.72V70H333.9V60.7H332.4V59.24H333.9V58.46ZM341.53 55.5V57.7H339.71V55.5H341.53ZM341.53 59.24V70H339.71V59.24H341.53ZM346.237 60.86C346.857 59.84 347.897 59.06 349.717 59.06C352.317 59.06 353.257 60.74 353.257 63.2V70H351.437V63.74C351.437 62.08 351.157 60.64 349.077 60.64C347.317 60.64 346.237 61.86 346.237 64.16V70H344.417V59.24H346.237V60.86ZM357.799 55.5V57.7H355.979V55.5H357.799ZM357.799 59.24V70H355.979V59.24H357.799ZM366.846 62.38C366.566 61.1 365.566 60.6 364.306 60.6C363.246 60.6 362.046 60.98 362.046 61.96C362.046 62.82 362.646 63.22 363.686 63.42L365.206 63.72C367.166 64.1 368.886 64.84 368.886 66.92C368.886 69.04 366.966 70.26 364.506 70.26C361.686 70.26 360.086 68.4 359.886 66.52H361.806C362.086 67.9 362.946 68.72 364.546 68.72C365.926 68.72 367.046 68.12 367.046 67.12C367.046 66.04 366.026 65.58 364.866 65.34L363.266 65.02C361.806 64.72 360.206 64.04 360.206 62.04C360.206 60.14 362.126 59.04 364.506 59.04C366.826 59.04 368.406 60.34 368.746 62.38H366.846ZM373.014 60.86C373.634 59.84 374.674 59.06 376.494 59.06C379.094 59.06 380.034 60.74 380.034 63.2V70H378.214V63.74C378.214 62.08 377.934 60.64 375.854 60.64C374.094 60.64 373.014 61.86 373.014 64.16V70H371.194V55.5H373.014V60.86Z" fill="white"/>
</svg>
