<svg width="402" height="874" viewBox="0 0 402 874" fill="none" xmlns="http://www.w3.org/2000/svg">
<rect width="402" height="874" rx="47" fill="white"/>
<path d="M52.92 176.12C52.92 186.2 42.42 195.14 30.24 203.9H54.12V209H22.8V204.08C38.16 192.74 47.16 184.52 47.16 176.84C47.16 172.34 44.16 169.28 39 169.28C34.32 169.28 29.76 171.86 29.64 179.06H24C23.88 170.42 29.88 164.72 39.12 164.72C47.16 164.72 52.92 168.8 52.92 176.12ZM60.2906 183.62V176.72H67.1906V183.62H60.2906ZM60.2906 209V202.1H67.1906V209H60.2906ZM90.8977 209.78C79.3177 209.78 73.9777 201.02 73.9777 187.22C73.9777 173.48 79.3177 164.72 90.8977 164.72C102.478 164.72 107.818 173.48 107.818 187.22C107.818 201.02 102.478 209.78 90.8977 209.78ZM90.8977 169.28C84.0577 169.28 79.7977 175.16 79.7977 187.22C79.7977 199.34 84.0577 205.22 90.8977 205.22C97.7377 205.22 101.998 199.34 101.998 187.22C101.998 175.16 97.7377 169.28 90.8977 169.28ZM130.566 209.78C118.986 209.78 113.646 201.02 113.646 187.22C113.646 173.48 118.986 164.72 130.566 164.72C142.146 164.72 147.486 173.48 147.486 187.22C147.486 201.02 142.146 209.78 130.566 209.78ZM130.566 169.28C123.726 169.28 119.466 175.16 119.466 187.22C119.466 199.34 123.726 205.22 130.566 205.22C137.406 205.22 141.666 199.34 141.666 187.22C141.666 175.16 137.406 169.28 130.566 169.28Z" fill="#FF2F00"/>
<path d="M23.6 310V298.66H20.24V297.42C22.32 297.34 23.38 297.08 24.18 295.5H25.42V310H23.6ZM33.9633 310.26C30.1033 310.26 28.3233 307.34 28.3233 302.74C28.3233 298.16 30.1033 295.24 33.9633 295.24C37.8233 295.24 39.6033 298.16 39.6033 302.74C39.6033 307.34 37.8233 310.26 33.9633 310.26ZM33.9633 296.76C31.6833 296.76 30.2633 298.72 30.2633 302.74C30.2633 306.78 31.6833 308.74 33.9633 308.74C36.2433 308.74 37.6633 306.78 37.6633 302.74C37.6633 298.72 36.2433 296.76 33.9633 296.76ZM52.932 302.38C52.652 301.1 51.652 300.6 50.392 300.6C49.332 300.6 48.132 300.98 48.132 301.96C48.132 302.82 48.732 303.22 49.772 303.42L51.292 303.72C53.252 304.1 54.972 304.84 54.972 306.92C54.972 309.04 53.052 310.26 50.592 310.26C47.772 310.26 46.172 308.4 45.972 306.52H47.892C48.172 307.9 49.032 308.72 50.632 308.72C52.012 308.72 53.132 308.12 53.132 307.12C53.132 306.04 52.112 305.58 50.952 305.34L49.352 305.02C47.892 304.72 46.292 304.04 46.292 302.04C46.292 300.14 48.212 299.04 50.592 299.04C52.912 299.04 54.492 300.34 54.832 302.38H52.932ZM64.6598 299.24H66.4798V313.5H64.6598V308.38C63.9998 309.52 62.8598 310.26 61.1398 310.26C58.6798 310.26 56.5398 308.22 56.5398 304.66C56.5398 301.12 58.6798 299.06 61.1398 299.06C62.8598 299.06 63.9998 299.8 64.6598 300.94V299.24ZM61.5998 300.62C59.7398 300.62 58.5198 302.1 58.5198 304.66C58.5198 307.22 59.7398 308.7 61.5998 308.7C63.2198 308.7 64.7398 307.5 64.7398 304.66C64.7398 301.82 63.2198 300.62 61.5998 300.62ZM76.0102 308.46C75.3902 309.48 74.4102 310.26 72.6302 310.26C70.1302 310.26 69.1902 308.58 69.1902 306.12V299.24H71.0102V305.58C71.0102 307.24 71.2902 308.68 73.2702 308.68C74.9902 308.68 76.0102 307.46 76.0102 305.16V299.24H77.8302V310H76.0102V308.46ZM80.0773 307.16C80.0773 304.62 82.9373 303.88 87.3573 303.38V303.12C87.3573 301.16 86.2573 300.5 84.9173 300.5C83.4173 300.5 82.5373 301.32 82.4573 302.64H80.5773C80.7573 300.32 82.7973 299.02 84.8973 299.02C87.8573 299.02 89.1973 300.44 89.1773 303.46L89.1573 305.94C89.1373 307.74 89.2373 308.98 89.4373 310H87.5973C87.5373 309.6 87.4773 309.16 87.4573 308.52C86.7973 309.62 85.6773 310.26 83.7773 310.26C81.7573 310.26 80.0773 309.14 80.0773 307.16ZM87.4973 304.82C84.1973 305.16 82.0973 305.64 82.0973 307.12C82.0973 308.14 82.8773 308.82 84.1773 308.82C85.8773 308.82 87.4973 308.04 87.4973 305.5V304.82ZM92.4092 296.54H94.2292V299.24H96.2692V300.7H94.2292V307.08C94.2292 308.2 94.3092 308.48 95.3492 308.48H96.2692V310H94.9492C92.8892 310 92.4092 309.54 92.4092 307.3V300.7H90.7092V299.24H92.4092V296.54ZM104.553 302.38C104.273 301.1 103.273 300.6 102.013 300.6C100.953 300.6 99.7531 300.98 99.7531 301.96C99.7531 302.82 100.353 303.22 101.393 303.42L102.913 303.72C104.873 304.1 106.593 304.84 106.593 306.92C106.593 309.04 104.673 310.26 102.213 310.26C99.3931 310.26 97.7931 308.4 97.5931 306.52H99.5131C99.7931 307.9 100.653 308.72 102.253 308.72C103.633 308.72 104.753 308.12 104.753 307.12C104.753 306.04 103.733 305.58 102.573 305.34L100.973 305.02C99.5131 304.72 97.9131 304.04 97.9131 302.04C97.9131 300.14 99.8331 299.04 102.213 299.04C104.533 299.04 106.113 300.34 106.453 302.38H104.553Z" fill="black"/>
<path d="M39.78 117.72H45.42L51.84 141.6L58.02 117.72H63.9L54.6 150H49.62L42.48 124.02L35.58 150H30.6L21.3 117.72H27.18L33.36 141.6L39.78 117.72ZM65.9977 141.48C65.9977 133.86 74.5777 131.64 87.8377 130.14V129.36C87.8377 123.48 84.5377 121.5 80.5177 121.5C76.0177 121.5 73.3777 123.96 73.1377 127.92H67.4977C68.0377 120.96 74.1577 117.06 80.4577 117.06C89.3377 117.06 93.3577 121.32 93.2977 130.38L93.2377 137.82C93.1777 143.22 93.4777 146.94 94.0777 150H88.5577C88.3777 148.8 88.1977 147.48 88.1377 145.56C86.1577 148.86 82.7977 150.78 77.0977 150.78C71.0377 150.78 65.9977 147.42 65.9977 141.48ZM88.2577 134.46C78.3577 135.48 72.0577 136.92 72.0577 141.36C72.0577 144.42 74.3977 146.46 78.2977 146.46C83.3977 146.46 88.2577 144.12 88.2577 136.5V134.46ZM117.513 123.42C116.373 123.3 115.353 123.18 114.453 123.18C109.413 123.18 106.893 126 106.893 133.08V150H101.433V117.72H106.773V123.36C108.393 119.7 111.693 117.66 115.893 117.54C116.433 117.54 116.913 117.54 117.513 117.6V123.42ZM128.221 150H122.761V117.72H128.221V122.58C130.081 119.52 133.081 117.18 137.941 117.18C142.861 117.18 145.801 119.34 147.241 122.88C149.821 118.92 153.601 117.18 158.101 117.18C165.601 117.18 168.541 122.22 168.541 129.6V150H163.081V131.22C163.081 126.24 162.121 121.92 156.181 121.92C151.501 121.92 148.381 125.58 148.381 132.48V150H142.921V131.22C142.921 126.24 141.961 121.92 136.021 121.92C131.341 121.92 128.221 125.58 128.221 132.48V150ZM210.945 145.38C209.085 148.44 206.145 150.78 200.805 150.78C193.305 150.78 190.485 145.74 190.485 138.36V117.72H195.945V136.74C195.945 141.72 196.785 146.04 202.725 146.04C207.885 146.04 210.945 142.38 210.945 135.48V117.72H216.405V150H210.945V145.38ZM230.526 117.72V122.82C232.506 119.4 235.926 117.18 241.086 117.18C248.466 117.18 254.886 123.36 254.886 133.98C254.886 144.66 248.466 150.78 241.086 150.78C235.926 150.78 232.506 148.56 230.526 145.14V160.5H225.066V117.72H230.526ZM239.706 146.1C245.286 146.1 248.946 141.66 248.946 133.98C248.946 126.3 245.286 121.86 239.706 121.86C234.846 121.86 230.286 125.46 230.286 133.98C230.286 142.5 234.846 146.1 239.706 146.1Z" fill="black"/>
<rect x="20" y="782" width="359" height="60" rx="30" fill="black"/>
<path d="M182.76 809.86C183.38 808.84 184.42 808.06 186.24 808.06C188.84 808.06 189.78 809.74 189.78 812.2V819H187.96V812.74C187.96 811.08 187.68 809.64 185.6 809.64C183.84 809.64 182.76 810.86 182.76 813.16V819H180.94V808.24H182.76V809.86ZM193.723 814.22C193.803 816.54 195.443 817.66 197.043 817.66C198.643 817.66 199.523 816.94 199.983 815.88H201.863C201.363 817.74 199.663 819.26 197.043 819.26C193.643 819.26 191.763 816.82 191.763 813.64C191.763 810.24 194.043 808.06 196.983 808.06C200.263 808.06 202.243 810.82 202.003 814.22H193.723ZM193.743 812.66H200.083C200.043 811.14 198.903 809.62 196.983 809.62C195.363 809.62 193.903 810.5 193.743 812.66ZM208.669 813.38L212.689 819H210.509L207.589 814.9L204.689 819H202.609L206.569 813.46L202.849 808.24H205.029L207.649 811.94L210.289 808.24H212.329L208.669 813.38ZM214.8 805.54H216.62V808.24H218.66V809.7H216.62V816.08C216.62 817.2 216.7 817.48 217.74 817.48H218.66V819H217.34C215.28 819 214.8 818.54 214.8 816.3V809.7H213.1V808.24H214.8V805.54Z" fill="white"/>
<rect x="20.5" y="713.5" width="358" height="59" rx="29.5" stroke="black"/>
<path d="M130.3 747.16C130.3 744.62 133.16 743.88 137.58 743.38V743.12C137.58 741.16 136.48 740.5 135.14 740.5C133.64 740.5 132.76 741.32 132.68 742.64H130.8C130.98 740.32 133.02 739.02 135.12 739.02C138.08 739.02 139.42 740.44 139.4 743.46L139.38 745.94C139.36 747.74 139.46 748.98 139.66 750H137.82C137.76 749.6 137.7 749.16 137.68 748.52C137.02 749.62 135.9 750.26 134 750.26C131.98 750.26 130.3 749.14 130.3 747.16ZM137.72 744.82C134.42 745.16 132.32 745.64 132.32 747.12C132.32 748.14 133.1 748.82 134.4 748.82C136.1 748.82 137.72 748.04 137.72 745.5V744.82ZM149.492 735.5H151.312V750H149.492V748.38C148.832 749.52 147.692 750.26 145.972 750.26C143.512 750.26 141.372 748.22 141.372 744.66C141.372 741.12 143.512 739.06 145.972 739.06C147.692 739.06 148.832 739.8 149.492 740.94V735.5ZM146.432 740.62C144.572 740.62 143.352 742.1 143.352 744.66C143.352 747.22 144.572 748.7 146.432 748.7C148.052 748.7 149.572 747.5 149.572 744.66C149.572 741.82 148.052 740.62 146.432 740.62ZM156.002 735.5V737.7H154.182V735.5H156.002ZM154.182 739.24H156.002V750.54C156.002 752.78 155.542 753.5 153.462 753.5H152.542V751.98H153.062C154.002 751.98 154.182 751.7 154.182 750.58V739.24ZM165.549 748.46C164.929 749.48 163.949 750.26 162.169 750.26C159.669 750.26 158.729 748.58 158.729 746.12V739.24H160.549V745.58C160.549 747.24 160.829 748.68 162.809 748.68C164.529 748.68 165.549 747.46 165.549 745.16V739.24H167.369V750H165.549V748.46ZM176.416 742.38C176.136 741.1 175.136 740.6 173.876 740.6C172.816 740.6 171.616 740.98 171.616 741.96C171.616 742.82 172.216 743.22 173.256 743.42L174.776 743.72C176.736 744.1 178.456 744.84 178.456 746.92C178.456 749.04 176.536 750.26 174.076 750.26C171.256 750.26 169.656 748.4 169.456 746.52H171.376C171.656 747.9 172.516 748.72 174.116 748.72C175.496 748.72 176.616 748.12 176.616 747.12C176.616 746.04 175.596 745.58 174.436 745.34L172.836 745.02C171.376 744.72 169.776 744.04 169.776 742.04C169.776 740.14 171.696 739.04 174.076 739.04C176.396 739.04 177.976 740.34 178.316 742.38H176.416ZM181.284 736.54H183.104V739.24H185.144V740.7H183.104V747.08C183.104 748.2 183.184 748.48 184.224 748.48H185.144V750H183.824C181.764 750 181.284 749.54 181.284 747.3V740.7H179.584V739.24H181.284V736.54ZM196.834 739.24H198.714L200.854 747.2L202.914 739.24H204.874L201.774 750H200.114L197.734 741.34L195.434 750H193.774L190.674 739.24H192.634L194.694 747.2L196.834 739.24ZM205.573 747.16C205.573 744.62 208.433 743.88 212.853 743.38V743.12C212.853 741.16 211.753 740.5 210.413 740.5C208.913 740.5 208.033 741.32 207.953 742.64H206.073C206.253 740.32 208.293 739.02 210.393 739.02C213.353 739.02 214.693 740.44 214.673 743.46L214.653 745.94C214.633 747.74 214.733 748.98 214.933 750H213.093C213.033 749.6 212.973 749.16 212.953 748.52C212.293 749.62 211.173 750.26 209.273 750.26C207.253 750.26 205.573 749.14 205.573 747.16ZM212.993 744.82C209.693 745.16 207.593 745.64 207.593 747.12C207.593 748.14 208.373 748.82 209.673 748.82C211.373 748.82 212.993 748.04 212.993 745.5V744.82ZM222.745 741.14C222.365 741.1 222.025 741.06 221.725 741.06C220.045 741.06 219.205 742 219.205 744.36V750H217.385V739.24H219.165V741.12C219.705 739.9 220.805 739.22 222.205 739.18C222.385 739.18 222.545 739.18 222.745 739.2V741.14ZM226.315 750H224.495V739.24H226.315V740.86C226.935 739.84 227.935 739.06 229.555 739.06C231.195 739.06 232.175 739.78 232.655 740.96C233.515 739.64 234.775 739.06 236.275 739.06C238.775 739.06 239.755 740.74 239.755 743.2V750H237.935V743.74C237.935 742.08 237.615 740.64 235.635 740.64C234.075 740.64 233.035 741.86 233.035 744.16V750H231.215V743.74C231.215 742.08 230.895 740.64 228.915 740.64C227.355 740.64 226.315 741.86 226.315 744.16V750ZM253.889 748.46C253.269 749.48 252.289 750.26 250.509 750.26C248.009 750.26 247.069 748.58 247.069 746.12V739.24H248.889V745.58C248.889 747.24 249.169 748.68 251.149 748.68C252.869 748.68 253.889 747.46 253.889 745.16V739.24H255.709V750H253.889V748.46ZM260.416 739.24V740.94C261.076 739.8 262.216 739.06 263.936 739.06C266.396 739.06 268.536 741.12 268.536 744.66C268.536 748.22 266.396 750.26 263.936 750.26C262.216 750.26 261.076 749.52 260.416 748.38V753.5H258.596V739.24H260.416ZM263.476 748.7C265.336 748.7 266.556 747.22 266.556 744.66C266.556 742.1 265.336 740.62 263.476 740.62C261.856 740.62 260.336 741.82 260.336 744.66C260.336 747.5 261.856 748.7 263.476 748.7Z" fill="black"/>
<path opacity="0.3" d="M26.6 70.26C22.74 70.26 20.96 67.34 20.96 62.74C20.96 58.16 22.74 55.24 26.6 55.24C30.46 55.24 32.24 58.16 32.24 62.74C32.24 67.34 30.46 70.26 26.6 70.26ZM26.6 56.76C24.32 56.76 22.9 58.72 22.9 62.74C22.9 66.78 24.32 68.74 26.6 68.74C28.88 68.74 30.3 66.78 30.3 62.74C30.3 58.72 28.88 56.76 26.6 56.76ZM34.5227 61.54V59.24H36.8227V61.54H34.5227ZM34.5227 70V67.7H36.8227V70H34.5227ZM44.725 70.26C40.865 70.26 39.085 67.34 39.085 62.74C39.085 58.16 40.865 55.24 44.725 55.24C48.585 55.24 50.365 58.16 50.365 62.74C50.365 67.34 48.585 70.26 44.725 70.26ZM44.725 56.76C42.445 56.76 41.025 58.72 41.025 62.74C41.025 66.78 42.445 68.74 44.725 68.74C47.005 68.74 48.425 66.78 48.425 62.74C48.425 58.72 47.005 56.76 44.725 56.76ZM54.9477 70V58.66H51.5877V57.42C53.6677 57.34 54.7277 57.08 55.5277 55.5H56.7677V70H54.9477Z" fill="black"/>
<path d="M333.9 58.46C333.9 56.22 334.36 55.5 336.8 55.5H337.74V57.02H336.84C335.88 57.02 335.72 57.24 335.72 58.36V59.24H337.74V60.7H335.72V70H333.9V60.7H332.4V59.24H333.9V58.46ZM341.53 55.5V57.7H339.71V55.5H341.53ZM341.53 59.24V70H339.71V59.24H341.53ZM346.237 60.86C346.857 59.84 347.897 59.06 349.717 59.06C352.317 59.06 353.257 60.74 353.257 63.2V70H351.437V63.74C351.437 62.08 351.157 60.64 349.077 60.64C347.317 60.64 346.237 61.86 346.237 64.16V70H344.417V59.24H346.237V60.86ZM357.799 55.5V57.7H355.979V55.5H357.799ZM357.799 59.24V70H355.979V59.24H357.799ZM366.846 62.38C366.566 61.1 365.566 60.6 364.306 60.6C363.246 60.6 362.046 60.98 362.046 61.96C362.046 62.82 362.646 63.22 363.686 63.42L365.206 63.72C367.166 64.1 368.886 64.84 368.886 66.92C368.886 69.04 366.966 70.26 364.506 70.26C361.686 70.26 360.086 68.4 359.886 66.52H361.806C362.086 67.9 362.946 68.72 364.546 68.72C365.926 68.72 367.046 68.12 367.046 67.12C367.046 66.04 366.026 65.58 364.866 65.34L363.266 65.02C361.806 64.72 360.206 64.04 360.206 62.04C360.206 60.14 362.126 59.04 364.506 59.04C366.826 59.04 368.406 60.34 368.746 62.38H366.846ZM373.014 60.86C373.634 59.84 374.674 59.06 376.494 59.06C379.094 59.06 380.034 60.74 380.034 63.2V70H378.214V63.74C378.214 62.08 377.934 60.64 375.854 60.64C374.094 60.64 373.014 61.86 373.014 64.16V70H371.194V55.5H373.014V60.86Z" fill="black"/>
</svg>
