<svg width="402" height="874" viewBox="0 0 402 874" fill="none" xmlns="http://www.w3.org/2000/svg">
<g clip-path="url(#clip0_4_273)">
<rect width="402" height="874" rx="47" fill="white"/>
<line x1="20" y1="225.85" x2="372" y2="225.85" stroke="black" stroke-width="0.3"/>
<path d="M26.26 245.24H28.14L30.28 253.2L32.34 245.24H34.3L31.2 256H29.54L27.16 247.34L24.86 256H23.2L20.1 245.24H22.06L24.12 253.2L26.26 245.24ZM34.9992 253.16C34.9992 250.62 37.8592 249.88 42.2792 249.38V249.12C42.2792 247.16 41.1792 246.5 39.8392 246.5C38.3392 246.5 37.4592 247.32 37.3792 248.64H35.4992C35.6792 246.32 37.7192 245.02 39.8192 245.02C42.7792 245.02 44.1192 246.44 44.0992 249.46L44.0792 251.94C44.0592 253.74 44.1592 254.98 44.3592 256H42.5192C42.4592 255.6 42.3992 255.16 42.3792 254.52C41.7192 255.62 40.5992 256.26 38.6992 256.26C36.6792 256.26 34.9992 255.14 34.9992 253.16ZM42.4192 250.82C39.1192 251.16 37.0192 251.64 37.0192 253.12C37.0192 254.14 37.7992 254.82 39.0992 254.82C40.7992 254.82 42.4192 254.04 42.4192 251.5V250.82ZM52.1711 247.14C51.7911 247.1 51.4511 247.06 51.1511 247.06C49.4711 247.06 48.6311 248 48.6311 250.36V256H46.8111V245.24H48.5911V247.12C49.1311 245.9 50.2311 245.22 51.6311 245.18C51.8111 245.18 51.9711 245.18 52.1711 245.2V247.14ZM55.7405 256H53.9205V245.24H55.7405V246.86C56.3605 245.84 57.3605 245.06 58.9805 245.06C60.6205 245.06 61.6005 245.78 62.0805 246.96C62.9405 245.64 64.2005 245.06 65.7005 245.06C68.2005 245.06 69.1805 246.74 69.1805 249.2V256H67.3605V249.74C67.3605 248.08 67.0405 246.64 65.0605 246.64C63.5005 246.64 62.4605 247.86 62.4605 250.16V256H60.6405V249.74C60.6405 248.08 60.3205 246.64 58.3405 246.64C56.7805 246.64 55.7405 247.86 55.7405 250.16V256ZM83.3148 254.46C82.6948 255.48 81.7148 256.26 79.9348 256.26C77.4348 256.26 76.4948 254.58 76.4948 252.12V245.24H78.3148V251.58C78.3148 253.24 78.5948 254.68 80.5748 254.68C82.2948 254.68 83.3148 253.46 83.3148 251.16V245.24H85.1348V256H83.3148V254.46ZM89.842 245.24V246.94C90.502 245.8 91.642 245.06 93.362 245.06C95.822 245.06 97.962 247.12 97.962 250.66C97.962 254.22 95.822 256.26 93.362 256.26C91.642 256.26 90.502 255.52 89.842 254.38V259.5H88.022V245.24H89.842ZM92.902 254.7C94.762 254.7 95.982 253.22 95.982 250.66C95.982 248.1 94.762 246.62 92.902 246.62C91.282 246.62 89.762 247.82 89.762 250.66C89.762 253.5 91.282 254.7 92.902 254.7Z" fill="black"/>
<line x1="20" y1="271.85" x2="372" y2="271.85" stroke="black" stroke-width="0.3"/>
<path d="M28.82 286H30.64V300.5H28.82V298.88C28.16 300.02 27.02 300.76 25.3 300.76C22.84 300.76 20.7 298.72 20.7 295.16C20.7 291.62 22.84 289.56 25.3 289.56C27.02 289.56 28.16 290.3 28.82 291.44V286ZM25.76 291.12C23.9 291.12 22.68 292.6 22.68 295.16C22.68 297.72 23.9 299.2 25.76 299.2C27.38 299.2 28.9 298 28.9 295.16C28.9 292.32 27.38 291.12 25.76 291.12ZM34.7303 295.72C34.8103 298.04 36.4503 299.16 38.0503 299.16C39.6503 299.16 40.5303 298.44 40.9903 297.38H42.8703C42.3703 299.24 40.6703 300.76 38.0503 300.76C34.6503 300.76 32.7703 298.32 32.7703 295.14C32.7703 291.74 35.0503 289.56 37.9903 289.56C41.2703 289.56 43.2503 292.32 43.0103 295.72H34.7303ZM34.7503 294.16H41.0903C41.0503 292.64 39.9103 291.12 37.9903 291.12C36.3703 291.12 34.9103 292 34.7503 294.16ZM44.3938 297.66C44.3938 295.12 47.2538 294.38 51.6738 293.88V293.62C51.6738 291.66 50.5738 291 49.2338 291C47.7338 291 46.8538 291.82 46.7738 293.14H44.8938C45.0738 290.82 47.1138 289.52 49.2138 289.52C52.1738 289.52 53.5138 290.94 53.4938 293.96L53.4738 296.44C53.4538 298.24 53.5538 299.48 53.7538 300.5H51.9138C51.8538 300.1 51.7938 299.66 51.7738 299.02C51.1138 300.12 49.9938 300.76 48.0938 300.76C46.0738 300.76 44.3938 299.64 44.3938 297.66ZM51.8138 295.32C48.5138 295.66 46.4138 296.14 46.4138 297.62C46.4138 298.64 47.1938 299.32 48.4938 299.32C50.1938 299.32 51.8138 298.54 51.8138 296V295.32ZM63.5856 286H65.4056V300.5H63.5856V298.88C62.9256 300.02 61.7856 300.76 60.0656 300.76C57.6056 300.76 55.4656 298.72 55.4656 295.16C55.4656 291.62 57.6056 289.56 60.0656 289.56C61.7856 289.56 62.9256 290.3 63.5856 291.44V286ZM60.5256 291.12C58.6656 291.12 57.4456 292.6 57.4456 295.16C57.4456 297.72 58.6656 299.2 60.5256 299.2C62.1456 299.2 63.6656 298 63.6656 295.16C63.6656 292.32 62.1456 291.12 60.5256 291.12ZM70.0959 300.5H68.2759V286H70.0959V300.5ZM74.803 286V288.2H72.983V286H74.803ZM74.803 289.74V300.5H72.983V289.74H74.803ZM78.15 288.96C78.15 286.72 78.61 286 81.05 286H81.99V287.52H81.09C80.13 287.52 79.97 287.74 79.97 288.86V289.74H81.99V291.2H79.97V300.5H78.15V291.2H76.65V289.74H78.15V288.96ZM84.4795 287.04H86.2995V289.74H88.3395V291.2H86.2995V297.58C86.2995 298.7 86.3795 298.98 87.4195 298.98H88.3395V300.5H87.0195C84.9595 300.5 84.4795 300.04 84.4795 297.8V291.2H82.7795V289.74H84.4795V287.04Z" fill="black"/>
<path d="M363.2 299.9L359.72 296.44L356.38 299.76L355.08 298.48L358.44 295.14L355.08 291.76L356.38 290.48L359.72 293.82L363.08 290.5L364.38 291.78L361.02 295.14L364.48 298.6L363.2 299.9ZM375.475 296.44C375.475 294.36 373.615 293.68 371.295 293.68H370.995V292.02H371.235C373.755 292.02 375.095 291.32 375.095 289.62C375.095 288.06 373.815 287.26 372.275 287.26C370.335 287.26 369.275 288.44 369.115 290.08H367.235C367.455 287.52 369.275 285.74 372.315 285.74C374.835 285.74 377.015 286.74 377.015 289.42C377.015 290.9 376.175 292.16 374.655 292.78C376.815 293.46 377.415 294.9 377.415 296.42C377.415 299.34 374.935 300.76 372.175 300.76C368.775 300.76 367.215 298.64 367.015 296.22H368.895C369.095 298 370.155 299.24 372.195 299.24C374.115 299.24 375.475 298.24 375.475 296.44Z" fill="black"/>
<line x1="20" y1="314.85" x2="372" y2="314.85" stroke="black" stroke-width="0.3"/>
<path d="M23.26 329V334.44C23.92 333.3 25.06 332.56 26.78 332.56C29.24 332.56 31.38 334.62 31.38 338.16C31.38 341.72 29.24 343.76 26.78 343.76C25.06 343.76 23.92 343.02 23.26 341.88V343.5H21.44V329H23.26ZM26.32 342.2C28.18 342.2 29.4 340.72 29.4 338.16C29.4 335.6 28.18 334.12 26.32 334.12C24.7 334.12 23.18 335.32 23.18 338.16C23.18 341 24.7 342.2 26.32 342.2ZM34.828 338.72C34.908 341.04 36.548 342.16 38.148 342.16C39.748 342.16 40.628 341.44 41.088 340.38H42.968C42.468 342.24 40.768 343.76 38.148 343.76C34.748 343.76 32.868 341.32 32.868 338.14C32.868 334.74 35.148 332.56 38.088 332.56C41.368 332.56 43.348 335.32 43.108 338.72H34.828ZM34.848 337.16H41.188C41.148 335.64 40.008 334.12 38.088 334.12C36.468 334.12 35.008 335 34.848 337.16ZM47.0491 334.36C47.6691 333.34 48.7091 332.56 50.5291 332.56C53.1291 332.56 54.0691 334.24 54.0691 336.7V343.5H52.2491V337.24C52.2491 335.58 51.9691 334.14 49.8891 334.14C48.1291 334.14 47.0491 335.36 47.0491 337.66V343.5H45.2291V332.74H47.0491V334.36ZM65.7516 336.34H63.9116C63.6516 335.06 62.5316 334.16 61.1316 334.16C59.5116 334.16 58.0316 335.42 58.0316 338.12C58.0316 340.86 59.5316 342.16 61.1316 342.16C62.6516 342.16 63.7316 341.14 63.9916 340H65.8716C65.5116 342.02 63.5716 343.76 61.0716 343.76C57.9916 343.76 56.0516 341.42 56.0516 338.14C56.0516 334.94 58.0716 332.56 61.2516 332.56C63.8516 332.56 65.5116 334.52 65.7516 336.34ZM69.7444 334.36C70.3644 333.34 71.4044 332.56 73.2244 332.56C75.8244 332.56 76.7644 334.24 76.7644 336.7V343.5H74.9444V337.24C74.9444 335.58 74.6644 334.14 72.5844 334.14C70.8244 334.14 69.7444 335.36 69.7444 337.66V343.5H67.9244V329H69.7444V334.36ZM86.053 332.74V334.44C86.713 333.3 87.853 332.56 89.573 332.56C92.033 332.56 94.173 334.62 94.173 338.16C94.173 341.72 92.033 343.76 89.573 343.76C87.853 343.76 86.713 343.02 86.053 341.88V347H84.233V332.74H86.053ZM89.113 342.2C90.973 342.2 92.193 340.72 92.193 338.16C92.193 335.6 90.973 334.12 89.113 334.12C87.493 334.12 85.973 335.32 85.973 338.16C85.973 341 87.493 342.2 89.113 342.2ZM101.663 334.64C101.283 334.6 100.943 334.56 100.643 334.56C98.9633 334.56 98.1233 335.5 98.1233 337.86V343.5H96.3033V332.74H98.0833V334.62C98.6233 333.4 99.7233 332.72 101.123 332.68C101.303 332.68 101.463 332.68 101.663 332.7V334.64ZM104.437 338.72C104.517 341.04 106.157 342.16 107.757 342.16C109.357 342.16 110.237 341.44 110.697 340.38H112.577C112.077 342.24 110.377 343.76 107.757 343.76C104.357 343.76 102.477 341.32 102.477 338.14C102.477 334.74 104.757 332.56 107.697 332.56C110.977 332.56 112.957 335.32 112.717 338.72H104.437ZM104.457 337.16H110.797C110.757 335.64 109.617 334.12 107.697 334.12C106.077 334.12 104.617 335 104.457 337.16ZM121.038 335.88C120.758 334.6 119.758 334.1 118.498 334.1C117.438 334.1 116.238 334.48 116.238 335.46C116.238 336.32 116.838 336.72 117.878 336.92L119.398 337.22C121.358 337.6 123.078 338.34 123.078 340.42C123.078 342.54 121.158 343.76 118.698 343.76C115.878 343.76 114.278 341.9 114.078 340.02H115.998C116.278 341.4 117.138 342.22 118.738 342.22C120.118 342.22 121.238 341.62 121.238 340.62C121.238 339.54 120.218 339.08 119.058 338.84L117.458 338.52C115.998 338.22 114.398 337.54 114.398 335.54C114.398 333.64 116.318 332.54 118.698 332.54C121.018 332.54 122.598 333.84 122.938 335.88H121.038ZM131.545 335.88C131.265 334.6 130.265 334.1 129.005 334.1C127.945 334.1 126.745 334.48 126.745 335.46C126.745 336.32 127.345 336.72 128.385 336.92L129.905 337.22C131.865 337.6 133.585 338.34 133.585 340.42C133.585 342.54 131.665 343.76 129.205 343.76C126.385 343.76 124.785 341.9 124.585 340.02H126.505C126.785 341.4 127.645 342.22 129.245 342.22C130.625 342.22 131.745 341.62 131.745 340.62C131.745 339.54 130.725 339.08 129.565 338.84L127.965 338.52C126.505 338.22 124.905 337.54 124.905 335.54C124.905 333.64 126.825 332.54 129.205 332.54C131.525 332.54 133.105 333.84 133.445 335.88H131.545Z" fill="black"/>
<path d="M363.2 342.9L359.72 339.44L356.38 342.76L355.08 341.48L358.44 338.14L355.08 334.76L356.38 333.48L359.72 336.82L363.08 333.5L364.38 334.78L361.02 338.14L364.48 341.6L363.2 342.9ZM375.475 339.44C375.475 337.36 373.615 336.68 371.295 336.68H370.995V335.02H371.235C373.755 335.02 375.095 334.32 375.095 332.62C375.095 331.06 373.815 330.26 372.275 330.26C370.335 330.26 369.275 331.44 369.115 333.08H367.235C367.455 330.52 369.275 328.74 372.315 328.74C374.835 328.74 377.015 329.74 377.015 332.42C377.015 333.9 376.175 335.16 374.655 335.78C376.815 336.46 377.415 337.9 377.415 339.42C377.415 342.34 374.935 343.76 372.175 343.76C368.775 343.76 367.215 341.64 367.015 339.22H368.895C369.095 341 370.155 342.24 372.195 342.24C374.115 342.24 375.475 341.24 375.475 339.44Z" fill="black"/>
<line x1="20" y1="357.85" x2="372" y2="357.85" stroke="black" stroke-width="0.3"/>
<rect x="20.5" y="725.5" width="358" height="59" rx="29.5" stroke="black"/>
<path d="M146.6 754.38C146.32 753.1 145.32 752.6 144.06 752.6C143 752.6 141.8 752.98 141.8 753.96C141.8 754.82 142.4 755.22 143.44 755.42L144.96 755.72C146.92 756.1 148.64 756.84 148.64 758.92C148.64 761.04 146.72 762.26 144.26 762.26C141.44 762.26 139.84 760.4 139.64 758.52H141.56C141.84 759.9 142.7 760.72 144.3 760.72C145.68 760.72 146.8 760.12 146.8 759.12C146.8 758.04 145.78 757.58 144.62 757.34L143.02 757.02C141.56 756.72 139.96 756.04 139.96 754.04C139.96 752.14 141.88 751.04 144.26 751.04C146.58 751.04 148.16 752.34 148.5 754.38H146.6ZM150.308 759.16C150.308 756.62 153.168 755.88 157.588 755.38V755.12C157.588 753.16 156.488 752.5 155.148 752.5C153.648 752.5 152.768 753.32 152.688 754.64H150.808C150.988 752.32 153.028 751.02 155.128 751.02C158.088 751.02 159.428 752.44 159.408 755.46L159.388 757.94C159.368 759.74 159.468 760.98 159.668 762H157.828C157.768 761.6 157.708 761.16 157.688 760.52C157.028 761.62 155.908 762.26 154.008 762.26C151.988 762.26 150.308 761.14 150.308 759.16ZM157.728 756.82C154.428 757.16 152.328 757.64 152.328 759.12C152.328 760.14 153.108 760.82 154.408 760.82C156.108 760.82 157.728 760.04 157.728 757.5V756.82ZM165.522 759.48L168.442 751.24H170.322L166.262 762H164.642L160.582 751.24H162.602L165.522 759.48ZM172.793 757.22C172.873 759.54 174.513 760.66 176.113 760.66C177.713 760.66 178.593 759.94 179.053 758.88H180.933C180.433 760.74 178.733 762.26 176.113 762.26C172.713 762.26 170.833 759.82 170.833 756.64C170.833 753.24 173.113 751.06 176.053 751.06C179.333 751.06 181.313 753.82 181.073 757.22H172.793ZM172.813 755.66H179.153C179.113 754.14 177.973 752.62 176.053 752.62C174.433 752.62 172.973 753.5 172.813 755.66ZM187.3 759.16C187.3 756.62 190.16 755.88 194.58 755.38V755.12C194.58 753.16 193.48 752.5 192.14 752.5C190.64 752.5 189.76 753.32 189.68 754.64H187.8C187.98 752.32 190.02 751.02 192.12 751.02C195.08 751.02 196.42 752.44 196.4 755.46L196.38 757.94C196.36 759.74 196.46 760.98 196.66 762H194.82C194.76 761.6 194.7 761.16 194.68 760.52C194.02 761.62 192.9 762.26 191 762.26C188.98 762.26 187.3 761.14 187.3 759.16ZM194.72 756.82C191.42 757.16 189.32 757.64 189.32 759.12C189.32 760.14 190.1 760.82 191.4 760.82C193.1 760.82 194.72 760.04 194.72 757.5V756.82ZM205.272 754.38C204.992 753.1 203.992 752.6 202.732 752.6C201.672 752.6 200.472 752.98 200.472 753.96C200.472 754.82 201.072 755.22 202.112 755.42L203.632 755.72C205.592 756.1 207.312 756.84 207.312 758.92C207.312 761.04 205.392 762.26 202.932 762.26C200.112 762.26 198.512 760.4 198.312 758.52H200.232C200.512 759.9 201.372 760.72 202.972 760.72C204.352 760.72 205.472 760.12 205.472 759.12C205.472 758.04 204.452 757.58 203.292 757.34L201.692 757.02C200.232 756.72 198.632 756.04 198.632 754.04C198.632 752.14 200.552 751.04 202.932 751.04C205.252 751.04 206.832 752.34 207.172 754.38H205.272ZM221.746 747.5H223.566V762H221.746V760.38C221.086 761.52 219.946 762.26 218.226 762.26C215.766 762.26 213.626 760.22 213.626 756.66C213.626 753.12 215.766 751.06 218.226 751.06C219.946 751.06 221.086 751.8 221.746 752.94V747.5ZM218.686 752.62C216.826 752.62 215.606 754.1 215.606 756.66C215.606 759.22 216.826 760.7 218.686 760.7C220.306 760.7 221.826 759.5 221.826 756.66C221.826 753.82 220.306 752.62 218.686 752.62ZM236.056 756.66C236.056 760.56 233.396 762.26 230.896 762.26C228.396 762.26 225.736 760.56 225.736 756.66C225.736 752.76 228.396 751.06 230.896 751.06C233.396 751.06 236.056 752.76 236.056 756.66ZM230.896 760.66C232.536 760.66 234.116 759.42 234.116 756.66C234.116 753.8 232.536 752.66 230.896 752.66C229.256 752.66 227.676 753.72 227.676 756.66C227.676 759.52 229.256 760.66 230.896 760.66ZM240.053 752.86C240.673 751.84 241.713 751.06 243.533 751.06C246.133 751.06 247.073 752.74 247.073 755.2V762H245.253V755.74C245.253 754.08 244.973 752.64 242.893 752.64C241.133 752.64 240.053 753.86 240.053 756.16V762H238.233V751.24H240.053V752.86ZM251.015 757.22C251.095 759.54 252.735 760.66 254.335 760.66C255.935 760.66 256.815 759.94 257.275 758.88H259.155C258.655 760.74 256.955 762.26 254.335 762.26C250.935 762.26 249.055 759.82 249.055 756.64C249.055 753.24 251.335 751.06 254.275 751.06C257.555 751.06 259.535 753.82 259.295 757.22H251.015ZM251.035 755.66H257.375C257.335 754.14 256.195 752.62 254.275 752.62C252.655 752.62 251.195 753.5 251.035 755.66Z" fill="black"/>
<rect x="20.5" y="658.5" width="358" height="59" rx="29.5" stroke="black"/>
<path d="M171.8 692.16C171.8 689.62 174.66 688.88 179.08 688.38V688.12C179.08 686.16 177.98 685.5 176.64 685.5C175.14 685.5 174.26 686.32 174.18 687.64H172.3C172.48 685.32 174.52 684.02 176.62 684.02C179.58 684.02 180.92 685.44 180.9 688.46L180.88 690.94C180.86 692.74 180.96 693.98 181.16 695H179.32C179.26 694.6 179.2 694.16 179.18 693.52C178.52 694.62 177.4 695.26 175.5 695.26C173.48 695.26 171.8 694.14 171.8 692.16ZM179.22 689.82C175.92 690.16 173.82 690.64 173.82 692.12C173.82 693.14 174.6 693.82 175.9 693.82C177.6 693.82 179.22 693.04 179.22 690.5V689.82ZM190.992 680.5H192.812V695H190.992V693.38C190.332 694.52 189.192 695.26 187.472 695.26C185.012 695.26 182.872 693.22 182.872 689.66C182.872 686.12 185.012 684.06 187.472 684.06C189.192 684.06 190.332 684.8 190.992 685.94V680.5ZM187.932 685.62C186.072 685.62 184.852 687.1 184.852 689.66C184.852 692.22 186.072 693.7 187.932 693.7C189.552 693.7 191.072 692.5 191.072 689.66C191.072 686.82 189.552 685.62 187.932 685.62ZM197.502 680.5V682.7H195.682V680.5H197.502ZM195.682 684.24H197.502V695.54C197.502 697.78 197.042 698.5 194.962 698.5H194.042V696.98H194.562C195.502 696.98 195.682 696.7 195.682 695.58V684.24ZM207.049 693.46C206.429 694.48 205.449 695.26 203.669 695.26C201.169 695.26 200.229 693.58 200.229 691.12V684.24H202.049V690.58C202.049 692.24 202.329 693.68 204.309 693.68C206.029 693.68 207.049 692.46 207.049 690.16V684.24H208.869V695H207.049V693.46ZM217.916 687.38C217.636 686.1 216.636 685.6 215.376 685.6C214.316 685.6 213.116 685.98 213.116 686.96C213.116 687.82 213.716 688.22 214.756 688.42L216.276 688.72C218.236 689.1 219.956 689.84 219.956 691.92C219.956 694.04 218.036 695.26 215.576 695.26C212.756 695.26 211.156 693.4 210.956 691.52H212.876C213.156 692.9 214.016 693.72 215.616 693.72C216.996 693.72 218.116 693.12 218.116 692.12C218.116 691.04 217.096 690.58 215.936 690.34L214.336 690.02C212.876 689.72 211.276 689.04 211.276 687.04C211.276 685.14 213.196 684.04 215.576 684.04C217.896 684.04 219.476 685.34 219.816 687.38H217.916ZM222.784 681.54H224.604V684.24H226.644V685.7H224.604V692.08C224.604 693.2 224.684 693.48 225.724 693.48H226.644V695H225.324C223.264 695 222.784 694.54 222.784 692.3V685.7H221.084V684.24H222.784V681.54Z" fill="black"/>
<rect x="20" y="792" width="359" height="60" rx="30" fill="black"/>
<path d="M186.1 821.38C185.82 820.1 184.82 819.6 183.56 819.6C182.5 819.6 181.3 819.98 181.3 820.96C181.3 821.82 181.9 822.22 182.94 822.42L184.46 822.72C186.42 823.1 188.14 823.84 188.14 825.92C188.14 828.04 186.22 829.26 183.76 829.26C180.94 829.26 179.34 827.4 179.14 825.52H181.06C181.34 826.9 182.2 827.72 183.8 827.72C185.18 827.72 186.3 827.12 186.3 826.12C186.3 825.04 185.28 824.58 184.12 824.34L182.52 824.02C181.06 823.72 179.46 823.04 179.46 821.04C179.46 819.14 181.38 818.04 183.76 818.04C186.08 818.04 187.66 819.34 188 821.38H186.1ZM190.968 815.54H192.788V818.24H194.828V819.7H192.788V826.08C192.788 827.2 192.868 827.48 193.908 827.48H194.828V829H193.508C191.448 829 190.968 828.54 190.968 826.3V819.7H189.268V818.24H190.968V815.54ZM196.312 826.16C196.312 823.62 199.172 822.88 203.592 822.38V822.12C203.592 820.16 202.492 819.5 201.152 819.5C199.652 819.5 198.772 820.32 198.692 821.64H196.812C196.992 819.32 199.032 818.02 201.132 818.02C204.092 818.02 205.432 819.44 205.412 822.46L205.392 824.94C205.372 826.74 205.472 827.98 205.672 829H203.832C203.772 828.6 203.712 828.16 203.692 827.52C203.032 828.62 201.912 829.26 200.012 829.26C197.992 829.26 196.312 828.14 196.312 826.16ZM203.732 823.82C200.432 824.16 198.332 824.64 198.332 826.12C198.332 827.14 199.112 827.82 200.412 827.82C202.112 827.82 203.732 827.04 203.732 824.5V823.82ZM213.484 820.14C213.104 820.1 212.764 820.06 212.464 820.06C210.784 820.06 209.944 821 209.944 823.36V829H208.124V818.24H209.904V820.12C210.444 818.9 211.544 818.22 212.944 818.18C213.124 818.18 213.284 818.18 213.484 818.2V820.14ZM215.753 815.54H217.573V818.24H219.613V819.7H217.573V826.08C217.573 827.2 217.653 827.48 218.693 827.48H219.613V829H218.293C216.233 829 215.753 828.54 215.753 826.3V819.7H214.053V818.24H215.753V815.54Z" fill="white"/>
<path d="M25.216 60.376C26.208 58.744 27.872 57.496 30.784 57.496C34.944 57.496 36.448 60.184 36.448 64.12V75H33.536V64.984C33.536 62.328 33.088 60.024 29.76 60.024C26.944 60.024 25.216 61.976 25.216 65.656V75H22.304V57.784H25.216V60.376ZM42.756 67.352C42.884 71.064 45.508 72.856 48.068 72.856C50.628 72.856 52.036 71.704 52.772 70.008H55.78C54.98 72.984 52.26 75.416 48.068 75.416C42.628 75.416 39.62 71.512 39.62 66.424C39.62 60.984 43.268 57.496 47.972 57.496C53.22 57.496 56.388 61.912 56.004 67.352H42.756ZM42.788 64.856H52.932C52.868 62.424 51.044 59.992 47.972 59.992C45.38 59.992 43.044 61.4 42.788 64.856ZM67.016 57.784H70.024L73.448 70.52L76.744 57.784H79.88L74.92 75H72.264L68.456 61.144L64.776 75H62.12L57.16 57.784H60.296L63.592 70.52L67.016 57.784ZM97.641 57.784H100.649L104.073 70.52L107.369 57.784H110.505L105.545 75H102.889L99.081 61.144L95.401 75H92.745L87.785 57.784H90.921L94.217 70.52L97.641 57.784ZM128.196 66.456C128.196 72.696 123.94 75.416 119.94 75.416C115.94 75.416 111.684 72.696 111.684 66.456C111.684 60.216 115.94 57.496 119.94 57.496C123.94 57.496 128.196 60.216 128.196 66.456ZM119.94 72.856C122.564 72.856 125.092 70.872 125.092 66.456C125.092 61.88 122.564 60.056 119.94 60.056C117.316 60.056 114.788 61.752 114.788 66.456C114.788 71.032 117.316 72.856 119.94 72.856ZM140.255 60.824C139.647 60.76 139.103 60.696 138.623 60.696C135.935 60.696 134.591 62.2 134.591 65.976V75H131.679V57.784H134.527V60.792C135.391 58.84 137.151 57.752 139.391 57.688C139.679 57.688 139.935 57.688 140.255 57.72V60.824ZM145.966 51.8V65.528L152.91 57.784H156.494L149.934 64.92L157.39 75H153.838L147.982 67.064L145.966 69.24V75H143.054V51.8H145.966ZM174.134 66.456C174.134 72.696 169.878 75.416 165.878 75.416C161.878 75.416 157.622 72.696 157.622 66.456C157.622 60.216 161.878 57.496 165.878 57.496C169.878 57.496 174.134 60.216 174.134 66.456ZM165.878 72.856C168.502 72.856 171.03 70.872 171.03 66.456C171.03 61.88 168.502 60.056 165.878 60.056C163.254 60.056 160.726 61.752 160.726 66.456C160.726 71.032 163.254 72.856 165.878 72.856ZM188.273 72.536C187.281 74.168 185.713 75.416 182.865 75.416C178.865 75.416 177.361 72.728 177.361 68.792V57.784H180.273V67.928C180.273 70.584 180.721 72.888 183.889 72.888C186.641 72.888 188.273 70.936 188.273 67.256V57.784H191.185V75H188.273V72.536ZM196.636 53.464H199.548V57.784H202.812V60.12H199.548V70.328C199.548 72.12 199.676 72.568 201.34 72.568H202.812V75H200.7C197.404 75 196.636 74.264 196.636 70.68V60.12H193.916V57.784H196.636V53.464Z" fill="black"/>
<path d="M361.4 71L360 69.6L365.6 64L360 58.4L361.4 57L367 62.6L372.6 57L374 58.4L368.4 64L374 69.6L372.6 71L367 65.4L361.4 71Z" fill="#1D1B20"/>
<rect x="95" y="122" width="60" height="60" rx="30" fill="#EEEEEE"/>
<path d="M123.82 144.5H125.64V159H123.82V157.38C123.16 158.52 122.02 159.26 120.3 159.26C117.84 159.26 115.7 157.22 115.7 153.66C115.7 150.12 117.84 148.06 120.3 148.06C122.02 148.06 123.16 148.8 123.82 149.94V144.5ZM120.76 149.62C118.9 149.62 117.68 151.1 117.68 153.66C117.68 156.22 118.9 157.7 120.76 157.7C122.38 157.7 123.9 156.5 123.9 153.66C123.9 150.82 122.38 149.62 120.76 149.62ZM130.67 159V147.66H127.31V146.42C129.39 146.34 130.45 146.08 131.25 144.5H132.49V159H130.67Z" fill="#ABABAB"/>
<rect x="25" y="122" width="60" height="60" rx="30" fill="black"/>
<path d="M43.9999 152L50.9142 147.914L55 141L59.0858 147.914L66 152L59.0858 156.086L55 163L50.9142 156.086L43.9999 152Z" fill="white"/>
<rect x="165" y="122" width="60" height="60" rx="30" fill="#EEEEEE"/>
<path d="M191.82 144.5H193.64V159H191.82V157.38C191.16 158.52 190.02 159.26 188.3 159.26C185.84 159.26 183.7 157.22 183.7 153.66C183.7 150.12 185.84 148.06 188.3 148.06C190.02 148.06 191.16 148.8 191.82 149.94V144.5ZM188.76 149.62C186.9 149.62 185.68 151.1 185.68 153.66C185.68 156.22 186.9 157.7 188.76 157.7C190.38 157.7 191.9 156.5 191.9 153.66C191.9 150.82 190.38 149.62 188.76 149.62ZM205.71 148.04C205.71 151.4 202.21 154.38 198.15 157.3H206.11V159H195.67V157.36C200.79 153.58 203.79 150.84 203.79 148.28C203.79 146.78 202.79 145.76 201.07 145.76C199.51 145.76 197.99 146.62 197.95 149.02H196.07C196.03 146.14 198.03 144.24 201.11 144.24C203.79 144.24 205.71 145.6 205.71 148.04Z" fill="#ABABAB"/>
<rect x="235" y="122" width="60" height="60" rx="30" fill="#EEEEEE"/>
<path d="M261.82 144.5H263.64V159H261.82V157.38C261.16 158.52 260.02 159.26 258.3 159.26C255.84 159.26 253.7 157.22 253.7 153.66C253.7 150.12 255.84 148.06 258.3 148.06C260.02 148.06 261.16 148.8 261.82 149.94V144.5ZM258.76 149.62C256.9 149.62 255.68 151.1 255.68 153.66C255.68 156.22 256.9 157.7 258.76 157.7C260.38 157.7 261.9 156.5 261.9 153.66C261.9 150.82 260.38 149.62 258.76 149.62ZM273.99 154.94C273.99 152.86 272.13 152.18 269.81 152.18H269.51V150.52H269.75C272.27 150.52 273.61 149.82 273.61 148.12C273.61 146.56 272.33 145.76 270.79 145.76C268.85 145.76 267.79 146.94 267.63 148.58H265.75C265.97 146.02 267.79 144.24 270.83 144.24C273.35 144.24 275.53 145.24 275.53 147.92C275.53 149.4 274.69 150.66 273.17 151.28C275.33 151.96 275.93 153.4 275.93 154.92C275.93 157.84 273.45 159.26 270.69 159.26C267.29 159.26 265.73 157.14 265.53 154.72H267.41C267.61 156.5 268.67 157.74 270.71 157.74C272.63 157.74 273.99 156.74 273.99 154.94Z" fill="#ABABAB"/>
<rect x="305" y="122" width="60" height="60" rx="30" fill="#EEEEEE"/>
<path d="M325 162.4H345V142.4H325V162.4Z" fill="#ABABAB"/>
<g opacity="0.3">
<rect x="375.5" y="124.5" width="59" height="59" rx="29.5" stroke="black"/>
<path d="M404.09 159.32V154.8H399.57V153.08H404.09V148.68H405.91V153.08H410.43V154.8H405.91V159.32H404.09Z" fill="black"/>
</g>
</g>
<defs>
<clipPath id="clip0_4_273">
<rect width="402" height="874" rx="47" fill="white"/>
</clipPath>
</defs>
</svg>
