<svg width="402" height="874" viewBox="0 0 402 874" fill="none" xmlns="http://www.w3.org/2000/svg">
<g clip-path="url(#clip0_35_253)">
<rect width="402" height="874" rx="47" fill="white"/>
<line x1="20" y1="225.85" x2="372" y2="225.85" stroke="black" stroke-width="0.3"/>
<path d="M26.26 245.24H28.14L30.28 253.2L32.34 245.24H34.3L31.2 256H29.54L27.16 247.34L24.86 256H23.2L20.1 245.24H22.06L24.12 253.2L26.26 245.24ZM34.9992 253.16C34.9992 250.62 37.8592 249.88 42.2792 249.38V249.12C42.2792 247.16 41.1792 246.5 39.8392 246.5C38.3392 246.5 37.4592 247.32 37.3792 248.64H35.4992C35.6792 246.32 37.7192 245.02 39.8192 245.02C42.7792 245.02 44.1192 246.44 44.0992 249.46L44.0792 251.94C44.0592 253.74 44.1592 254.98 44.3592 256H42.5192C42.4592 255.6 42.3992 255.16 42.3792 254.52C41.7192 255.62 40.5992 256.26 38.6992 256.26C36.6792 256.26 34.9992 255.14 34.9992 253.16ZM42.4192 250.82C39.1192 251.16 37.0192 251.64 37.0192 253.12C37.0192 254.14 37.7992 254.82 39.0992 254.82C40.7992 254.82 42.4192 254.04 42.4192 251.5V250.82ZM52.1711 247.14C51.7911 247.1 51.4511 247.06 51.1511 247.06C49.4711 247.06 48.6311 248 48.6311 250.36V256H46.8111V245.24H48.5911V247.12C49.1311 245.9 50.2311 245.22 51.6311 245.18C51.8111 245.18 51.9711 245.18 52.1711 245.2V247.14ZM55.7405 256H53.9205V245.24H55.7405V246.86C56.3605 245.84 57.3605 245.06 58.9805 245.06C60.6205 245.06 61.6005 245.78 62.0805 246.96C62.9405 245.64 64.2005 245.06 65.7005 245.06C68.2005 245.06 69.1805 246.74 69.1805 249.2V256H67.3605V249.74C67.3605 248.08 67.0405 246.64 65.0605 246.64C63.5005 246.64 62.4605 247.86 62.4605 250.16V256H60.6405V249.74C60.6405 248.08 60.3205 246.64 58.3405 246.64C56.7805 246.64 55.7405 247.86 55.7405 250.16V256ZM83.3148 254.46C82.6948 255.48 81.7148 256.26 79.9348 256.26C77.4348 256.26 76.4948 254.58 76.4948 252.12V245.24H78.3148V251.58C78.3148 253.24 78.5948 254.68 80.5748 254.68C82.2948 254.68 83.3148 253.46 83.3148 251.16V245.24H85.1348V256H83.3148V254.46ZM89.842 245.24V246.94C90.502 245.8 91.642 245.06 93.362 245.06C95.822 245.06 97.962 247.12 97.962 250.66C97.962 254.22 95.822 256.26 93.362 256.26C91.642 256.26 90.502 255.52 89.842 254.38V259.5H88.022V245.24H89.842ZM92.902 254.7C94.762 254.7 95.982 253.22 95.982 250.66C95.982 248.1 94.762 246.62 92.902 246.62C91.282 246.62 89.762 247.82 89.762 250.66C89.762 253.5 91.282 254.7 92.902 254.7Z" fill="black"/>
<line x1="20" y1="271.85" x2="372" y2="271.85" stroke="black" stroke-width="0.3"/>
<path d="M28.82 286H30.64V300.5H28.82V298.88C28.16 300.02 27.02 300.76 25.3 300.76C22.84 300.76 20.7 298.72 20.7 295.16C20.7 291.62 22.84 289.56 25.3 289.56C27.02 289.56 28.16 290.3 28.82 291.44V286ZM25.76 291.12C23.9 291.12 22.68 292.6 22.68 295.16C22.68 297.72 23.9 299.2 25.76 299.2C27.38 299.2 28.9 298 28.9 295.16C28.9 292.32 27.38 291.12 25.76 291.12ZM34.7303 295.72C34.8103 298.04 36.4503 299.16 38.0503 299.16C39.6503 299.16 40.5303 298.44 40.9903 297.38H42.8703C42.3703 299.24 40.6703 300.76 38.0503 300.76C34.6503 300.76 32.7703 298.32 32.7703 295.14C32.7703 291.74 35.0503 289.56 37.9903 289.56C41.2703 289.56 43.2503 292.32 43.0103 295.72H34.7303ZM34.7503 294.16H41.0903C41.0503 292.64 39.9103 291.12 37.9903 291.12C36.3703 291.12 34.9103 292 34.7503 294.16ZM44.3938 297.66C44.3938 295.12 47.2538 294.38 51.6738 293.88V293.62C51.6738 291.66 50.5738 291 49.2338 291C47.7338 291 46.8538 291.82 46.7738 293.14H44.8938C45.0738 290.82 47.1138 289.52 49.2138 289.52C52.1738 289.52 53.5138 290.94 53.4938 293.96L53.4738 296.44C53.4538 298.24 53.5538 299.48 53.7538 300.5H51.9138C51.8538 300.1 51.7938 299.66 51.7738 299.02C51.1138 300.12 49.9938 300.76 48.0938 300.76C46.0738 300.76 44.3938 299.64 44.3938 297.66ZM51.8138 295.32C48.5138 295.66 46.4138 296.14 46.4138 297.62C46.4138 298.64 47.1938 299.32 48.4938 299.32C50.1938 299.32 51.8138 298.54 51.8138 296V295.32ZM63.5856 286H65.4056V300.5H63.5856V298.88C62.9256 300.02 61.7856 300.76 60.0656 300.76C57.6056 300.76 55.4656 298.72 55.4656 295.16C55.4656 291.62 57.6056 289.56 60.0656 289.56C61.7856 289.56 62.9256 290.3 63.5856 291.44V286ZM60.5256 291.12C58.6656 291.12 57.4456 292.6 57.4456 295.16C57.4456 297.72 58.6656 299.2 60.5256 299.2C62.1456 299.2 63.6656 298 63.6656 295.16C63.6656 292.32 62.1456 291.12 60.5256 291.12ZM70.0959 300.5H68.2759V286H70.0959V300.5ZM74.803 286V288.2H72.983V286H74.803ZM74.803 289.74V300.5H72.983V289.74H74.803ZM78.15 288.96C78.15 286.72 78.61 286 81.05 286H81.99V287.52H81.09C80.13 287.52 79.97 287.74 79.97 288.86V289.74H81.99V291.2H79.97V300.5H78.15V291.2H76.65V289.74H78.15V288.96ZM84.4795 287.04H86.2995V289.74H88.3395V291.2H86.2995V297.58C86.2995 298.7 86.3795 298.98 87.4195 298.98H88.3395V300.5H87.0195C84.9595 300.5 84.4795 300.04 84.4795 297.8V291.2H82.7795V289.74H84.4795V287.04Z" fill="black"/>
<path d="M363.2 299.9L359.72 296.44L356.38 299.76L355.08 298.48L358.44 295.14L355.08 291.76L356.38 290.48L359.72 293.82L363.08 290.5L364.38 291.78L361.02 295.14L364.48 298.6L363.2 299.9ZM375.475 296.44C375.475 294.36 373.615 293.68 371.295 293.68H370.995V292.02H371.235C373.755 292.02 375.095 291.32 375.095 289.62C375.095 288.06 373.815 287.26 372.275 287.26C370.335 287.26 369.275 288.44 369.115 290.08H367.235C367.455 287.52 369.275 285.74 372.315 285.74C374.835 285.74 377.015 286.74 377.015 289.42C377.015 290.9 376.175 292.16 374.655 292.78C376.815 293.46 377.415 294.9 377.415 296.42C377.415 299.34 374.935 300.76 372.175 300.76C368.775 300.76 367.215 298.64 367.015 296.22H368.895C369.095 298 370.155 299.24 372.195 299.24C374.115 299.24 375.475 298.24 375.475 296.44Z" fill="black"/>
<line x1="20" y1="314.85" x2="372" y2="314.85" stroke="black" stroke-width="0.3"/>
<path d="M23.26 329V334.44C23.92 333.3 25.06 332.56 26.78 332.56C29.24 332.56 31.38 334.62 31.38 338.16C31.38 341.72 29.24 343.76 26.78 343.76C25.06 343.76 23.92 343.02 23.26 341.88V343.5H21.44V329H23.26ZM26.32 342.2C28.18 342.2 29.4 340.72 29.4 338.16C29.4 335.6 28.18 334.12 26.32 334.12C24.7 334.12 23.18 335.32 23.18 338.16C23.18 341 24.7 342.2 26.32 342.2ZM34.828 338.72C34.908 341.04 36.548 342.16 38.148 342.16C39.748 342.16 40.628 341.44 41.088 340.38H42.968C42.468 342.24 40.768 343.76 38.148 343.76C34.748 343.76 32.868 341.32 32.868 338.14C32.868 334.74 35.148 332.56 38.088 332.56C41.368 332.56 43.348 335.32 43.108 338.72H34.828ZM34.848 337.16H41.188C41.148 335.64 40.008 334.12 38.088 334.12C36.468 334.12 35.008 335 34.848 337.16ZM47.0491 334.36C47.6691 333.34 48.7091 332.56 50.5291 332.56C53.1291 332.56 54.0691 334.24 54.0691 336.7V343.5H52.2491V337.24C52.2491 335.58 51.9691 334.14 49.8891 334.14C48.1291 334.14 47.0491 335.36 47.0491 337.66V343.5H45.2291V332.74H47.0491V334.36ZM65.7516 336.34H63.9116C63.6516 335.06 62.5316 334.16 61.1316 334.16C59.5116 334.16 58.0316 335.42 58.0316 338.12C58.0316 340.86 59.5316 342.16 61.1316 342.16C62.6516 342.16 63.7316 341.14 63.9916 340H65.8716C65.5116 342.02 63.5716 343.76 61.0716 343.76C57.9916 343.76 56.0516 341.42 56.0516 338.14C56.0516 334.94 58.0716 332.56 61.2516 332.56C63.8516 332.56 65.5116 334.52 65.7516 336.34ZM69.7444 334.36C70.3644 333.34 71.4044 332.56 73.2244 332.56C75.8244 332.56 76.7644 334.24 76.7644 336.7V343.5H74.9444V337.24C74.9444 335.58 74.6644 334.14 72.5844 334.14C70.8244 334.14 69.7444 335.36 69.7444 337.66V343.5H67.9244V329H69.7444V334.36ZM86.053 332.74V334.44C86.713 333.3 87.853 332.56 89.573 332.56C92.033 332.56 94.173 334.62 94.173 338.16C94.173 341.72 92.033 343.76 89.573 343.76C87.853 343.76 86.713 343.02 86.053 341.88V347H84.233V332.74H86.053ZM89.113 342.2C90.973 342.2 92.193 340.72 92.193 338.16C92.193 335.6 90.973 334.12 89.113 334.12C87.493 334.12 85.973 335.32 85.973 338.16C85.973 341 87.493 342.2 89.113 342.2ZM101.663 334.64C101.283 334.6 100.943 334.56 100.643 334.56C98.9633 334.56 98.1233 335.5 98.1233 337.86V343.5H96.3033V332.74H98.0833V334.62C98.6233 333.4 99.7233 332.72 101.123 332.68C101.303 332.68 101.463 332.68 101.663 332.7V334.64ZM104.437 338.72C104.517 341.04 106.157 342.16 107.757 342.16C109.357 342.16 110.237 341.44 110.697 340.38H112.577C112.077 342.24 110.377 343.76 107.757 343.76C104.357 343.76 102.477 341.32 102.477 338.14C102.477 334.74 104.757 332.56 107.697 332.56C110.977 332.56 112.957 335.32 112.717 338.72H104.437ZM104.457 337.16H110.797C110.757 335.64 109.617 334.12 107.697 334.12C106.077 334.12 104.617 335 104.457 337.16ZM121.038 335.88C120.758 334.6 119.758 334.1 118.498 334.1C117.438 334.1 116.238 334.48 116.238 335.46C116.238 336.32 116.838 336.72 117.878 336.92L119.398 337.22C121.358 337.6 123.078 338.34 123.078 340.42C123.078 342.54 121.158 343.76 118.698 343.76C115.878 343.76 114.278 341.9 114.078 340.02H115.998C116.278 341.4 117.138 342.22 118.738 342.22C120.118 342.22 121.238 341.62 121.238 340.62C121.238 339.54 120.218 339.08 119.058 338.84L117.458 338.52C115.998 338.22 114.398 337.54 114.398 335.54C114.398 333.64 116.318 332.54 118.698 332.54C121.018 332.54 122.598 333.84 122.938 335.88H121.038ZM131.545 335.88C131.265 334.6 130.265 334.1 129.005 334.1C127.945 334.1 126.745 334.48 126.745 335.46C126.745 336.32 127.345 336.72 128.385 336.92L129.905 337.22C131.865 337.6 133.585 338.34 133.585 340.42C133.585 342.54 131.665 343.76 129.205 343.76C126.385 343.76 124.785 341.9 124.585 340.02H126.505C126.785 341.4 127.645 342.22 129.245 342.22C130.625 342.22 131.745 341.62 131.745 340.62C131.745 339.54 130.725 339.08 129.565 338.84L127.965 338.52C126.505 338.22 124.905 337.54 124.905 335.54C124.905 333.64 126.825 332.54 129.205 332.54C131.525 332.54 133.105 333.84 133.445 335.88H131.545Z" fill="black"/>
<path d="M363.2 342.9L359.72 339.44L356.38 342.76L355.08 341.48L358.44 338.14L355.08 334.76L356.38 333.48L359.72 336.82L363.08 333.5L364.38 334.78L361.02 338.14L364.48 341.6L363.2 342.9ZM375.475 339.44C375.475 337.36 373.615 336.68 371.295 336.68H370.995V335.02H371.235C373.755 335.02 375.095 334.32 375.095 332.62C375.095 331.06 373.815 330.26 372.275 330.26C370.335 330.26 369.275 331.44 369.115 333.08H367.235C367.455 330.52 369.275 328.74 372.315 328.74C374.835 328.74 377.015 329.74 377.015 332.42C377.015 333.9 376.175 335.16 374.655 335.78C376.815 336.46 377.415 337.9 377.415 339.42C377.415 342.34 374.935 343.76 372.175 343.76C368.775 343.76 367.215 341.64 367.015 339.22H368.895C369.095 341 370.155 342.24 372.195 342.24C374.115 342.24 375.475 341.24 375.475 339.44Z" fill="black"/>
<line x1="20" y1="357.85" x2="372" y2="357.85" stroke="black" stroke-width="0.3"/>
<rect x="20.5" y="725.5" width="358" height="59" rx="29.5" stroke="black"/>
<path d="M146.6 754.38C146.32 753.1 145.32 752.6 144.06 752.6C143 752.6 141.8 752.98 141.8 753.96C141.8 754.82 142.4 755.22 143.44 755.42L144.96 755.72C146.92 756.1 148.64 756.84 148.64 758.92C148.64 761.04 146.72 762.26 144.26 762.26C141.44 762.26 139.84 760.4 139.64 758.52H141.56C141.84 759.9 142.7 760.72 144.3 760.72C145.68 760.72 146.8 760.12 146.8 759.12C146.8 758.04 145.78 757.58 144.62 757.34L143.02 757.02C141.56 756.72 139.96 756.04 139.96 754.04C139.96 752.14 141.88 751.04 144.26 751.04C146.58 751.04 148.16 752.34 148.5 754.38H146.6ZM150.308 759.16C150.308 756.62 153.168 755.88 157.588 755.38V755.12C157.588 753.16 156.488 752.5 155.148 752.5C153.648 752.5 152.768 753.32 152.688 754.64H150.808C150.988 752.32 153.028 751.02 155.128 751.02C158.088 751.02 159.428 752.44 159.408 755.46L159.388 757.94C159.368 759.74 159.468 760.98 159.668 762H157.828C157.768 761.6 157.708 761.16 157.688 760.52C157.028 761.62 155.908 762.26 154.008 762.26C151.988 762.26 150.308 761.14 150.308 759.16ZM157.728 756.82C154.428 757.16 152.328 757.64 152.328 759.12C152.328 760.14 153.108 760.82 154.408 760.82C156.108 760.82 157.728 760.04 157.728 757.5V756.82ZM165.522 759.48L168.442 751.24H170.322L166.262 762H164.642L160.582 751.24H162.602L165.522 759.48ZM172.793 757.22C172.873 759.54 174.513 760.66 176.113 760.66C177.713 760.66 178.593 759.94 179.053 758.88H180.933C180.433 760.74 178.733 762.26 176.113 762.26C172.713 762.26 170.833 759.82 170.833 756.64C170.833 753.24 173.113 751.06 176.053 751.06C179.333 751.06 181.313 753.82 181.073 757.22H172.793ZM172.813 755.66H179.153C179.113 754.14 177.973 752.62 176.053 752.62C174.433 752.62 172.973 753.5 172.813 755.66ZM187.3 759.16C187.3 756.62 190.16 755.88 194.58 755.38V755.12C194.58 753.16 193.48 752.5 192.14 752.5C190.64 752.5 189.76 753.32 189.68 754.64H187.8C187.98 752.32 190.02 751.02 192.12 751.02C195.08 751.02 196.42 752.44 196.4 755.46L196.38 757.94C196.36 759.74 196.46 760.98 196.66 762H194.82C194.76 761.6 194.7 761.16 194.68 760.52C194.02 761.62 192.9 762.26 191 762.26C188.98 762.26 187.3 761.14 187.3 759.16ZM194.72 756.82C191.42 757.16 189.32 757.64 189.32 759.12C189.32 760.14 190.1 760.82 191.4 760.82C193.1 760.82 194.72 760.04 194.72 757.5V756.82ZM205.272 754.38C204.992 753.1 203.992 752.6 202.732 752.6C201.672 752.6 200.472 752.98 200.472 753.96C200.472 754.82 201.072 755.22 202.112 755.42L203.632 755.72C205.592 756.1 207.312 756.84 207.312 758.92C207.312 761.04 205.392 762.26 202.932 762.26C200.112 762.26 198.512 760.4 198.312 758.52H200.232C200.512 759.9 201.372 760.72 202.972 760.72C204.352 760.72 205.472 760.12 205.472 759.12C205.472 758.04 204.452 757.58 203.292 757.34L201.692 757.02C200.232 756.72 198.632 756.04 198.632 754.04C198.632 752.14 200.552 751.04 202.932 751.04C205.252 751.04 206.832 752.34 207.172 754.38H205.272ZM221.746 747.5H223.566V762H221.746V760.38C221.086 761.52 219.946 762.26 218.226 762.26C215.766 762.26 213.626 760.22 213.626 756.66C213.626 753.12 215.766 751.06 218.226 751.06C219.946 751.06 221.086 751.8 221.746 752.94V747.5ZM218.686 752.62C216.826 752.62 215.606 754.1 215.606 756.66C215.606 759.22 216.826 760.7 218.686 760.7C220.306 760.7 221.826 759.5 221.826 756.66C221.826 753.82 220.306 752.62 218.686 752.62ZM236.056 756.66C236.056 760.56 233.396 762.26 230.896 762.26C228.396 762.26 225.736 760.56 225.736 756.66C225.736 752.76 228.396 751.06 230.896 751.06C233.396 751.06 236.056 752.76 236.056 756.66ZM230.896 760.66C232.536 760.66 234.116 759.42 234.116 756.66C234.116 753.8 232.536 752.66 230.896 752.66C229.256 752.66 227.676 753.72 227.676 756.66C227.676 759.52 229.256 760.66 230.896 760.66ZM240.053 752.86C240.673 751.84 241.713 751.06 243.533 751.06C246.133 751.06 247.073 752.74 247.073 755.2V762H245.253V755.74C245.253 754.08 244.973 752.64 242.893 752.64C241.133 752.64 240.053 753.86 240.053 756.16V762H238.233V751.24H240.053V752.86ZM251.015 757.22C251.095 759.54 252.735 760.66 254.335 760.66C255.935 760.66 256.815 759.94 257.275 758.88H259.155C258.655 760.74 256.955 762.26 254.335 762.26C250.935 762.26 249.055 759.82 249.055 756.64C249.055 753.24 251.335 751.06 254.275 751.06C257.555 751.06 259.535 753.82 259.295 757.22H251.015ZM251.035 755.66H257.375C257.335 754.14 256.195 752.62 254.275 752.62C252.655 752.62 251.195 753.5 251.035 755.66Z" fill="black"/>
<rect x="20.5" y="658.5" width="358" height="59" rx="29.5" stroke="black"/>
<path d="M171.8 692.16C171.8 689.62 174.66 688.88 179.08 688.38V688.12C179.08 686.16 177.98 685.5 176.64 685.5C175.14 685.5 174.26 686.32 174.18 687.64H172.3C172.48 685.32 174.52 684.02 176.62 684.02C179.58 684.02 180.92 685.44 180.9 688.46L180.88 690.94C180.86 692.74 180.96 693.98 181.16 695H179.32C179.26 694.6 179.2 694.16 179.18 693.52C178.52 694.62 177.4 695.26 175.5 695.26C173.48 695.26 171.8 694.14 171.8 692.16ZM179.22 689.82C175.92 690.16 173.82 690.64 173.82 692.12C173.82 693.14 174.6 693.82 175.9 693.82C177.6 693.82 179.22 693.04 179.22 690.5V689.82ZM190.992 680.5H192.812V695H190.992V693.38C190.332 694.52 189.192 695.26 187.472 695.26C185.012 695.26 182.872 693.22 182.872 689.66C182.872 686.12 185.012 684.06 187.472 684.06C189.192 684.06 190.332 684.8 190.992 685.94V680.5ZM187.932 685.62C186.072 685.62 184.852 687.1 184.852 689.66C184.852 692.22 186.072 693.7 187.932 693.7C189.552 693.7 191.072 692.5 191.072 689.66C191.072 686.82 189.552 685.62 187.932 685.62ZM197.502 680.5V682.7H195.682V680.5H197.502ZM195.682 684.24H197.502V695.54C197.502 697.78 197.042 698.5 194.962 698.5H194.042V696.98H194.562C195.502 696.98 195.682 696.7 195.682 695.58V684.24ZM207.049 693.46C206.429 694.48 205.449 695.26 203.669 695.26C201.169 695.26 200.229 693.58 200.229 691.12V684.24H202.049V690.58C202.049 692.24 202.329 693.68 204.309 693.68C206.029 693.68 207.049 692.46 207.049 690.16V684.24H208.869V695H207.049V693.46ZM217.916 687.38C217.636 686.1 216.636 685.6 215.376 685.6C214.316 685.6 213.116 685.98 213.116 686.96C213.116 687.82 213.716 688.22 214.756 688.42L216.276 688.72C218.236 689.1 219.956 689.84 219.956 691.92C219.956 694.04 218.036 695.26 215.576 695.26C212.756 695.26 211.156 693.4 210.956 691.52H212.876C213.156 692.9 214.016 693.72 215.616 693.72C216.996 693.72 218.116 693.12 218.116 692.12C218.116 691.04 217.096 690.58 215.936 690.34L214.336 690.02C212.876 689.72 211.276 689.04 211.276 687.04C211.276 685.14 213.196 684.04 215.576 684.04C217.896 684.04 219.476 685.34 219.816 687.38H217.916ZM222.784 681.54H224.604V684.24H226.644V685.7H224.604V692.08C224.604 693.2 224.684 693.48 225.724 693.48H226.644V695H225.324C223.264 695 222.784 694.54 222.784 692.3V685.7H221.084V684.24H222.784V681.54Z" fill="black"/>
<rect x="20" y="792" width="359" height="60" rx="30" fill="black"/>
<path d="M186.1 821.38C185.82 820.1 184.82 819.6 183.56 819.6C182.5 819.6 181.3 819.98 181.3 820.96C181.3 821.82 181.9 822.22 182.94 822.42L184.46 822.72C186.42 823.1 188.14 823.84 188.14 825.92C188.14 828.04 186.22 829.26 183.76 829.26C180.94 829.26 179.34 827.4 179.14 825.52H181.06C181.34 826.9 182.2 827.72 183.8 827.72C185.18 827.72 186.3 827.12 186.3 826.12C186.3 825.04 185.28 824.58 184.12 824.34L182.52 824.02C181.06 823.72 179.46 823.04 179.46 821.04C179.46 819.14 181.38 818.04 183.76 818.04C186.08 818.04 187.66 819.34 188 821.38H186.1ZM190.968 815.54H192.788V818.24H194.828V819.7H192.788V826.08C192.788 827.2 192.868 827.48 193.908 827.48H194.828V829H193.508C191.448 829 190.968 828.54 190.968 826.3V819.7H189.268V818.24H190.968V815.54ZM196.312 826.16C196.312 823.62 199.172 822.88 203.592 822.38V822.12C203.592 820.16 202.492 819.5 201.152 819.5C199.652 819.5 198.772 820.32 198.692 821.64H196.812C196.992 819.32 199.032 818.02 201.132 818.02C204.092 818.02 205.432 819.44 205.412 822.46L205.392 824.94C205.372 826.74 205.472 827.98 205.672 829H203.832C203.772 828.6 203.712 828.16 203.692 827.52C203.032 828.62 201.912 829.26 200.012 829.26C197.992 829.26 196.312 828.14 196.312 826.16ZM203.732 823.82C200.432 824.16 198.332 824.64 198.332 826.12C198.332 827.14 199.112 827.82 200.412 827.82C202.112 827.82 203.732 827.04 203.732 824.5V823.82ZM213.484 820.14C213.104 820.1 212.764 820.06 212.464 820.06C210.784 820.06 209.944 821 209.944 823.36V829H208.124V818.24H209.904V820.12C210.444 818.9 211.544 818.22 212.944 818.18C213.124 818.18 213.284 818.18 213.484 818.2V820.14ZM215.753 815.54H217.573V818.24H219.613V819.7H217.573V826.08C217.573 827.2 217.653 827.48 218.693 827.48H219.613V829H218.293C216.233 829 215.753 828.54 215.753 826.3V819.7H214.053V818.24H215.753V815.54Z" fill="white"/>
<path d="M25.216 60.376C26.208 58.744 27.872 57.496 30.784 57.496C34.944 57.496 36.448 60.184 36.448 64.12V75H33.536V64.984C33.536 62.328 33.088 60.024 29.76 60.024C26.944 60.024 25.216 61.976 25.216 65.656V75H22.304V57.784H25.216V60.376ZM42.756 67.352C42.884 71.064 45.508 72.856 48.068 72.856C50.628 72.856 52.036 71.704 52.772 70.008H55.78C54.98 72.984 52.26 75.416 48.068 75.416C42.628 75.416 39.62 71.512 39.62 66.424C39.62 60.984 43.268 57.496 47.972 57.496C53.22 57.496 56.388 61.912 56.004 67.352H42.756ZM42.788 64.856H52.932C52.868 62.424 51.044 59.992 47.972 59.992C45.38 59.992 43.044 61.4 42.788 64.856ZM67.016 57.784H70.024L73.448 70.52L76.744 57.784H79.88L74.92 75H72.264L68.456 61.144L64.776 75H62.12L57.16 57.784H60.296L63.592 70.52L67.016 57.784ZM97.641 57.784H100.649L104.073 70.52L107.369 57.784H110.505L105.545 75H102.889L99.081 61.144L95.401 75H92.745L87.785 57.784H90.921L94.217 70.52L97.641 57.784ZM128.196 66.456C128.196 72.696 123.94 75.416 119.94 75.416C115.94 75.416 111.684 72.696 111.684 66.456C111.684 60.216 115.94 57.496 119.94 57.496C123.94 57.496 128.196 60.216 128.196 66.456ZM119.94 72.856C122.564 72.856 125.092 70.872 125.092 66.456C125.092 61.88 122.564 60.056 119.94 60.056C117.316 60.056 114.788 61.752 114.788 66.456C114.788 71.032 117.316 72.856 119.94 72.856ZM140.255 60.824C139.647 60.76 139.103 60.696 138.623 60.696C135.935 60.696 134.591 62.2 134.591 65.976V75H131.679V57.784H134.527V60.792C135.391 58.84 137.151 57.752 139.391 57.688C139.679 57.688 139.935 57.688 140.255 57.72V60.824ZM145.966 51.8V65.528L152.91 57.784H156.494L149.934 64.92L157.39 75H153.838L147.982 67.064L145.966 69.24V75H143.054V51.8H145.966ZM174.134 66.456C174.134 72.696 169.878 75.416 165.878 75.416C161.878 75.416 157.622 72.696 157.622 66.456C157.622 60.216 161.878 57.496 165.878 57.496C169.878 57.496 174.134 60.216 174.134 66.456ZM165.878 72.856C168.502 72.856 171.03 70.872 171.03 66.456C171.03 61.88 168.502 60.056 165.878 60.056C163.254 60.056 160.726 61.752 160.726 66.456C160.726 71.032 163.254 72.856 165.878 72.856ZM188.273 72.536C187.281 74.168 185.713 75.416 182.865 75.416C178.865 75.416 177.361 72.728 177.361 68.792V57.784H180.273V67.928C180.273 70.584 180.721 72.888 183.889 72.888C186.641 72.888 188.273 70.936 188.273 67.256V57.784H191.185V75H188.273V72.536ZM196.636 53.464H199.548V57.784H202.812V60.12H199.548V70.328C199.548 72.12 199.676 72.568 201.34 72.568H202.812V75H200.7C197.404 75 196.636 74.264 196.636 70.68V60.12H193.916V57.784H196.636V53.464Z" fill="black"/>
<path d="M361.4 71L360 69.6L365.6 64L360 58.4L361.4 57L367 62.6L372.6 57L374 58.4L368.4 64L374 69.6L372.6 71L367 65.4L361.4 71Z" fill="#1D1B20"/>
<rect x="95" y="122" width="60" height="60" rx="30" fill="#EEEEEE"/>
<path d="M123.82 144.5H125.64V159H123.82V157.38C123.16 158.52 122.02 159.26 120.3 159.26C117.84 159.26 115.7 157.22 115.7 153.66C115.7 150.12 117.84 148.06 120.3 148.06C122.02 148.06 123.16 148.8 123.82 149.94V144.5ZM120.76 149.62C118.9 149.62 117.68 151.1 117.68 153.66C117.68 156.22 118.9 157.7 120.76 157.7C122.38 157.7 123.9 156.5 123.9 153.66C123.9 150.82 122.38 149.62 120.76 149.62ZM130.67 159V147.66H127.31V146.42C129.39 146.34 130.45 146.08 131.25 144.5H132.49V159H130.67Z" fill="#ABABAB"/>
<rect x="25" y="122" width="60" height="60" rx="30" fill="black"/>
<path d="M43.9999 152L50.9142 147.914L55 141L59.0858 147.914L66 152L59.0858 156.086L55 163L50.9142 156.086L43.9999 152Z" fill="white"/>
<rect x="165" y="122" width="60" height="60" rx="30" fill="#EEEEEE"/>
<path d="M191.82 144.5H193.64V159H191.82V157.38C191.16 158.52 190.02 159.26 188.3 159.26C185.84 159.26 183.7 157.22 183.7 153.66C183.7 150.12 185.84 148.06 188.3 148.06C190.02 148.06 191.16 148.8 191.82 149.94V144.5ZM188.76 149.62C186.9 149.62 185.68 151.1 185.68 153.66C185.68 156.22 186.9 157.7 188.76 157.7C190.38 157.7 191.9 156.5 191.9 153.66C191.9 150.82 190.38 149.62 188.76 149.62ZM205.71 148.04C205.71 151.4 202.21 154.38 198.15 157.3H206.11V159H195.67V157.36C200.79 153.58 203.79 150.84 203.79 148.28C203.79 146.78 202.79 145.76 201.07 145.76C199.51 145.76 197.99 146.62 197.95 149.02H196.07C196.03 146.14 198.03 144.24 201.11 144.24C203.79 144.24 205.71 145.6 205.71 148.04Z" fill="#ABABAB"/>
<rect x="235" y="122" width="60" height="60" rx="30" fill="#EEEEEE"/>
<path d="M261.82 144.5H263.64V159H261.82V157.38C261.16 158.52 260.02 159.26 258.3 159.26C255.84 159.26 253.7 157.22 253.7 153.66C253.7 150.12 255.84 148.06 258.3 148.06C260.02 148.06 261.16 148.8 261.82 149.94V144.5ZM258.76 149.62C256.9 149.62 255.68 151.1 255.68 153.66C255.68 156.22 256.9 157.7 258.76 157.7C260.38 157.7 261.9 156.5 261.9 153.66C261.9 150.82 260.38 149.62 258.76 149.62ZM273.99 154.94C273.99 152.86 272.13 152.18 269.81 152.18H269.51V150.52H269.75C272.27 150.52 273.61 149.82 273.61 148.12C273.61 146.56 272.33 145.76 270.79 145.76C268.85 145.76 267.79 146.94 267.63 148.58H265.75C265.97 146.02 267.79 144.24 270.83 144.24C273.35 144.24 275.53 145.24 275.53 147.92C275.53 149.4 274.69 150.66 273.17 151.28C275.33 151.96 275.93 153.4 275.93 154.92C275.93 157.84 273.45 159.26 270.69 159.26C267.29 159.26 265.73 157.14 265.53 154.72H267.41C267.61 156.5 268.67 157.74 270.71 157.74C272.63 157.74 273.99 156.74 273.99 154.94Z" fill="#ABABAB"/>
<rect x="305" y="122" width="60" height="60" rx="30" fill="#EEEEEE"/>
<path d="M325 162.4H345V142.4H325V162.4Z" fill="#ABABAB"/>
<g opacity="0.3">
<rect x="375.5" y="124.5" width="59" height="59" rx="29.5" stroke="black"/>
<path d="M404.09 159.32V154.8H399.57V153.08H404.09V148.68H405.91V153.08H410.43V154.8H405.91V159.32H404.09Z" fill="black"/>
</g>
<rect y="464" width="402" height="438" rx="38" fill="#F2F2F2"/>
<g filter="url(#filter0_d_35_253)">
<rect x="20" y="492" width="359" height="44" rx="10" fill="white" shape-rendering="crispEdges"/>
<path d="M34.5783 519V514.752H30V513.135H34.5783V509H36.4217V513.135H41V514.752H36.4217V519H34.5783Z" fill="black"/>
<path opacity="0.3" d="M51.56 517.012C51.56 515.234 53.562 514.716 56.656 514.366V514.184C56.656 512.812 55.886 512.35 54.948 512.35C53.898 512.35 53.282 512.924 53.226 513.848H51.91C52.036 512.224 53.464 511.314 54.934 511.314C57.006 511.314 57.944 512.308 57.93 514.422L57.916 516.158C57.902 517.418 57.972 518.286 58.112 519H56.824C56.782 518.72 56.74 518.412 56.726 517.964C56.264 518.734 55.48 519.182 54.15 519.182C52.736 519.182 51.56 518.398 51.56 517.012ZM56.754 515.374C54.444 515.612 52.974 515.948 52.974 516.984C52.974 517.698 53.52 518.174 54.43 518.174C55.62 518.174 56.754 517.628 56.754 515.85V515.374ZM64.9943 508.85H66.2683V519H64.9943V517.866C64.5323 518.664 63.7343 519.182 62.5303 519.182C60.8083 519.182 59.3103 517.754 59.3103 515.262C59.3103 512.784 60.8083 511.342 62.5303 511.342C63.7343 511.342 64.5323 511.86 64.9943 512.658V508.85ZM62.8523 512.434C61.5503 512.434 60.6963 513.47 60.6963 515.262C60.6963 517.054 61.5503 518.09 62.8523 518.09C63.9863 518.09 65.0503 517.25 65.0503 515.262C65.0503 513.274 63.9863 512.434 62.8523 512.434ZM69.5515 508.85V510.39H68.2775V508.85H69.5515ZM68.2775 511.468H69.5515V519.378C69.5515 520.946 69.2295 521.45 67.7735 521.45H67.1295V520.386H67.4935C68.1515 520.386 68.2775 520.19 68.2775 519.406V511.468ZM76.2345 517.922C75.8005 518.636 75.1145 519.182 73.8685 519.182C72.1185 519.182 71.4605 518.006 71.4605 516.284V511.468H72.7345V515.906C72.7345 517.068 72.9305 518.076 74.3165 518.076C75.5205 518.076 76.2345 517.222 76.2345 515.612V511.468H77.5085V519H76.2345V517.922ZM83.8415 513.666C83.6455 512.77 82.9455 512.42 82.0635 512.42C81.3215 512.42 80.4815 512.686 80.4815 513.372C80.4815 513.974 80.9015 514.254 81.6295 514.394L82.6935 514.604C84.0655 514.87 85.2695 515.388 85.2695 516.844C85.2695 518.328 83.9255 519.182 82.2035 519.182C80.2295 519.182 79.1095 517.88 78.9695 516.564H80.3135C80.5095 517.53 81.1115 518.104 82.2315 518.104C83.1975 518.104 83.9815 517.684 83.9815 516.984C83.9815 516.228 83.2675 515.906 82.4555 515.738L81.3355 515.514C80.3135 515.304 79.1935 514.828 79.1935 513.428C79.1935 512.098 80.5375 511.328 82.2035 511.328C83.8275 511.328 84.9335 512.238 85.1715 513.666H83.8415ZM87.249 509.578H88.523V511.468H89.951V512.49H88.523V516.956C88.523 517.74 88.579 517.936 89.307 517.936H89.951V519H89.027C87.585 519 87.249 518.678 87.249 517.11V512.49H86.059V511.468H87.249V509.578ZM98.134 511.468H99.45L100.948 517.04L102.39 511.468H103.762L101.592 519H100.43L98.764 512.938L97.154 519H95.992L93.822 511.468H95.194L96.636 517.04L98.134 511.468ZM111.502 515.262C111.502 517.992 109.64 519.182 107.89 519.182C106.14 519.182 104.278 517.992 104.278 515.262C104.278 512.532 106.14 511.342 107.89 511.342C109.64 511.342 111.502 512.532 111.502 515.262ZM107.89 518.062C109.038 518.062 110.144 517.194 110.144 515.262C110.144 513.26 109.038 512.462 107.89 512.462C106.742 512.462 105.636 513.204 105.636 515.262C105.636 517.264 106.742 518.062 107.89 518.062ZM116.778 512.798C116.512 512.77 116.274 512.742 116.064 512.742C114.888 512.742 114.3 513.4 114.3 515.052V519H113.026V511.468H114.272V512.784C114.65 511.93 115.42 511.454 116.4 511.426C116.526 511.426 116.638 511.426 116.778 511.44V512.798ZM119.276 508.85V514.856L122.314 511.468H123.882L121.012 514.59L124.274 519H122.72L120.158 515.528L119.276 516.48V519H118.002V508.85H119.276ZM131.599 515.262C131.599 517.992 129.737 519.182 127.987 519.182C126.237 519.182 124.375 517.992 124.375 515.262C124.375 512.532 126.237 511.342 127.987 511.342C129.737 511.342 131.599 512.532 131.599 515.262ZM127.987 518.062C129.135 518.062 130.241 517.194 130.241 515.262C130.241 513.26 129.135 512.462 127.987 512.462C126.839 512.462 125.733 513.204 125.733 515.262C125.733 517.264 126.839 518.062 127.987 518.062ZM137.785 517.922C137.351 518.636 136.665 519.182 135.419 519.182C133.669 519.182 133.011 518.006 133.011 516.284V511.468H134.285V515.906C134.285 517.068 134.481 518.076 135.867 518.076C137.071 518.076 137.785 517.222 137.785 515.612V511.468H139.059V519H137.785V517.922ZM141.444 509.578H142.718V511.468H144.146V512.49H142.718V516.956C142.718 517.74 142.774 517.936 143.502 517.936H144.146V519H143.222C141.78 519 141.444 518.678 141.444 517.11V512.49H140.254V511.468H141.444V509.578Z" fill="black"/>
<path d="M359 513.909V512.486C359 512.341 359.051 512.217 359.154 512.114C359.256 512.012 359.38 511.96 359.524 511.96C359.673 511.96 359.799 512.012 359.901 512.114C360.004 512.217 360.055 512.341 360.055 512.486V513.867C360.055 514.661 360.218 515.357 360.544 515.956C360.87 516.554 361.329 517.019 361.921 517.35C362.513 517.678 363.207 517.841 364.003 517.841C364.8 517.841 365.492 517.678 366.079 517.35C366.671 517.019 367.13 516.554 367.456 515.956C367.782 515.357 367.945 514.661 367.945 513.867V512.486C367.945 512.341 367.996 512.217 368.099 512.114C368.201 512.012 368.327 511.96 368.476 511.96C368.62 511.96 368.744 512.012 368.846 512.114C368.949 512.217 369 512.341 369 512.486V513.909C369 514.825 368.811 515.638 368.434 516.348C368.061 517.058 367.539 517.629 366.869 518.058C366.198 518.484 365.417 518.734 364.528 518.808V520.442H367.12C367.269 520.442 367.395 520.493 367.498 520.596C367.6 520.699 367.651 520.825 367.651 520.974C367.651 521.119 367.6 521.243 367.498 521.346C367.395 521.449 367.269 521.5 367.12 521.5H360.88C360.731 521.5 360.605 521.449 360.502 521.346C360.4 521.243 360.349 521.119 360.349 520.974C360.349 520.825 360.4 520.699 360.502 520.596C360.605 520.493 360.731 520.442 360.88 520.442H363.472V518.808C362.583 518.734 361.802 518.484 361.131 518.058C360.461 517.629 359.936 517.058 359.559 516.348C359.186 515.638 359 514.825 359 513.909ZM361.46 513.657V509.248C361.46 508.71 361.567 508.236 361.781 507.825C361.996 507.409 362.294 507.084 362.676 506.85C363.058 506.617 363.5 506.5 364.003 506.5C364.502 506.5 364.942 506.617 365.324 506.85C365.706 507.084 366.004 507.409 366.219 507.825C366.433 508.236 366.54 508.71 366.54 509.248V513.657C366.54 514.194 366.433 514.671 366.219 515.086C366.004 515.498 365.706 515.82 365.324 516.054C364.942 516.287 364.502 516.404 364.003 516.404C363.5 516.404 363.058 516.287 362.676 516.054C362.294 515.82 361.996 515.498 361.781 515.086C361.567 514.671 361.46 514.194 361.46 513.657ZM362.515 513.657C362.515 514.175 362.65 514.589 362.92 514.897C363.195 515.206 363.556 515.36 364.003 515.36C364.451 515.36 364.809 515.206 365.08 514.897C365.35 514.589 365.485 514.175 365.485 513.657V509.248C365.485 508.729 365.35 508.315 365.08 508.007C364.809 507.699 364.451 507.544 364.003 507.544C363.556 507.544 363.195 507.699 362.92 508.007C362.65 508.315 362.515 508.729 362.515 509.248V513.657Z" fill="black"/>
</g>
<rect y="554" width="402" height="322" rx="27" fill="white" fill-opacity="0.6"/>
<rect y="554" width="402" height="322" rx="27" fill="#333333" fill-opacity="0.2" style="mix-blend-mode:plus-lighter"/>
<rect y="554" width="402" height="322" rx="27" fill="black" fill-opacity="0.05"/>
<g style="mix-blend-mode:plus-darker">
<path d="M48.1858 580.022L47.4637 584.745H45.8118L47.115 580.022H48.1858ZM50.9417 580.022L50.2195 584.745H48.5677L49.8709 580.022H50.9417ZM56.4883 592V581.367H52.6284V580.022H61.8423V581.367H57.9824V592H56.4883ZM63.6203 592V579.499H65.0646V584.396H65.1974C65.4243 583.921 65.7508 583.553 66.1769 583.292C66.603 583.027 67.1453 582.894 67.8039 582.894C68.4735 582.894 69.0407 583.024 69.5055 583.284C69.9704 583.539 70.3245 583.912 70.568 584.405C70.8115 584.897 70.9333 585.498 70.9333 586.206V592H69.4889V586.555C69.4889 585.747 69.3174 585.149 68.9743 584.762C68.6367 584.369 68.111 584.172 67.3971 584.172C66.9212 584.172 66.509 584.275 66.1603 584.479C65.8117 584.684 65.5405 584.975 65.3468 585.351C65.1587 585.727 65.0646 586.178 65.0646 586.704V592H63.6203ZM76.7704 592.158C75.9181 592.158 75.1849 591.97 74.5707 591.593C73.9619 591.217 73.4916 590.686 73.1595 590C72.833 589.308 72.6698 588.494 72.6698 587.559V587.551C72.6698 586.627 72.833 585.816 73.1595 585.119C73.4916 584.421 73.9592 583.876 74.5624 583.483C75.1655 583.09 75.8711 582.894 76.6791 582.894C77.4925 582.894 78.1898 583.082 78.7708 583.458C79.3574 583.835 79.8057 584.361 80.1156 585.036C80.431 585.705 80.5887 586.486 80.5887 587.376V587.941H73.4168V586.787H79.8499L79.1361 587.841V587.269C79.1361 586.566 79.0309 585.987 78.8207 585.534C78.6104 585.08 78.3198 584.742 77.9491 584.521C77.5783 584.294 77.1522 584.181 76.6707 584.181C76.1893 584.181 75.7577 584.3 75.3758 584.538C74.9995 584.77 74.7007 585.116 74.4793 585.575C74.258 586.035 74.1473 586.599 74.1473 587.269V587.841C74.1473 588.478 74.2552 589.023 74.471 589.477C74.6869 589.925 74.994 590.271 75.3924 590.514C75.7909 590.752 76.2612 590.871 76.8036 590.871C77.2075 590.871 77.5589 590.816 77.8578 590.705C78.1566 590.594 78.4028 590.453 78.5965 590.282C78.7902 590.11 78.9258 589.936 79.0033 589.759L79.0365 589.684H80.4808L80.4642 589.75C80.3867 590.055 80.2484 590.351 80.0492 590.639C79.8555 590.921 79.6037 591.178 79.2938 591.411C78.9839 591.638 78.6159 591.82 78.1898 591.958C77.7692 592.091 77.2961 592.158 76.7704 592.158ZM82.3916 584.745L83.1138 580.022H84.7657L83.4624 584.745H82.3916ZM85.1475 584.745L85.8697 580.022H87.5215L86.2183 584.745H85.1475Z" fill="#333333"/>
</g>
<g style="mix-blend-mode:plus-darker" opacity="0.1">
<rect x="133.333" y="573" width="1" height="25" fill="#CCCCCC"/>
</g>
<g style="mix-blend-mode:plus-darker">
<path d="M193.005 592.066C192.086 592.066 191.419 591.881 191.004 591.51C190.595 591.139 190.39 590.528 190.39 589.676V584.247H188.979V583.052H190.39V580.736H191.884V583.052H193.843V584.247H191.884V589.311C191.884 589.836 191.984 590.215 192.183 590.448C192.382 590.675 192.714 590.788 193.179 590.788C193.306 590.788 193.414 590.785 193.503 590.78C193.597 590.774 193.71 590.766 193.843 590.755V591.983C193.705 592.006 193.566 592.025 193.428 592.042C193.29 592.058 193.149 592.066 193.005 592.066ZM195.654 592V579.499H197.099V584.396H197.231C197.458 583.921 197.785 583.553 198.211 583.292C198.637 583.027 199.179 582.894 199.838 582.894C200.508 582.894 201.075 583.024 201.54 583.284C202.004 583.539 202.359 583.912 202.602 584.405C202.846 584.897 202.967 585.498 202.967 586.206V592H201.523V586.555C201.523 585.747 201.351 585.149 201.008 584.762C200.671 584.369 200.145 584.172 199.431 584.172C198.955 584.172 198.543 584.275 198.194 584.479C197.846 584.684 197.575 584.975 197.381 585.351C197.193 585.727 197.099 586.178 197.099 586.704V592H195.654ZM208.804 592.158C207.952 592.158 207.219 591.97 206.605 591.593C205.996 591.217 205.526 590.686 205.194 590C204.867 589.308 204.704 588.494 204.704 587.559V587.551C204.704 586.627 204.867 585.816 205.194 585.119C205.526 584.421 205.993 583.876 206.596 583.483C207.2 583.09 207.905 582.894 208.713 582.894C209.527 582.894 210.224 583.082 210.805 583.458C211.391 583.835 211.84 584.361 212.15 585.036C212.465 585.705 212.623 586.486 212.623 587.376V587.941H205.451V586.787H211.884L211.17 587.841V587.269C211.17 586.566 211.065 585.987 210.855 585.534C210.644 585.08 210.354 584.742 209.983 584.521C209.612 584.294 209.186 584.181 208.705 584.181C208.223 584.181 207.792 584.3 207.41 584.538C207.034 584.77 206.735 585.116 206.513 585.575C206.292 586.035 206.181 586.599 206.181 587.269V587.841C206.181 588.478 206.289 589.023 206.505 589.477C206.721 589.925 207.028 590.271 207.426 590.514C207.825 590.752 208.295 590.871 208.838 590.871C209.242 590.871 209.593 590.816 209.892 590.705C210.191 590.594 210.437 590.453 210.631 590.282C210.824 590.11 210.96 589.936 211.037 589.759L211.071 589.684H212.515L212.498 589.75C212.421 590.055 212.282 590.351 212.083 590.639C211.89 590.921 211.638 591.178 211.328 591.411C211.018 591.638 210.65 591.82 210.224 591.958C209.803 592.091 209.33 592.158 208.804 592.158Z" fill="#333333"/>
</g>
<g style="mix-blend-mode:plus-darker" opacity="0.1">
<rect x="267.667" y="573" width="1" height="25" fill="#CCCCCC"/>
</g>
<g style="mix-blend-mode:plus-darker">
<path d="M332.021 592.066C331.102 592.066 330.435 591.881 330.02 591.51C329.611 591.139 329.406 590.528 329.406 589.676V584.247H327.995V583.052H329.406V580.736H330.9V583.052H332.859V584.247H330.9V589.311C330.9 589.836 331 590.215 331.199 590.448C331.398 590.675 331.73 590.788 332.195 590.788C332.322 590.788 332.43 590.785 332.519 590.78C332.613 590.774 332.726 590.766 332.859 590.755V591.983C332.721 592.006 332.582 592.025 332.444 592.042C332.306 592.058 332.164 592.066 332.021 592.066ZM338.148 592.158C337.302 592.158 336.568 591.972 335.948 591.602C335.334 591.225 334.858 590.691 334.521 590C334.189 589.308 334.023 588.486 334.023 587.534V587.518C334.023 586.56 334.189 585.736 334.521 585.044C334.858 584.352 335.334 583.821 335.948 583.45C336.568 583.079 337.302 582.894 338.148 582.894C339 582.894 339.734 583.079 340.348 583.45C340.962 583.821 341.435 584.352 341.767 585.044C342.105 585.736 342.274 586.56 342.274 587.518V587.534C342.274 588.486 342.105 589.308 341.767 590C341.435 590.691 340.962 591.225 340.348 591.602C339.734 591.972 339 592.158 338.148 592.158ZM338.148 590.879C338.713 590.879 339.191 590.747 339.584 590.481C339.977 590.215 340.276 589.833 340.481 589.335C340.691 588.837 340.796 588.237 340.796 587.534V587.518C340.796 586.809 340.691 586.206 340.481 585.708C340.276 585.21 339.977 584.831 339.584 584.571C339.191 584.305 338.713 584.172 338.148 584.172C337.584 584.172 337.105 584.305 336.712 584.571C336.319 584.831 336.018 585.21 335.807 585.708C335.603 586.206 335.5 586.809 335.5 587.518V587.534C335.5 588.237 335.603 588.837 335.807 589.335C336.018 589.833 336.319 590.215 336.712 590.481C337.105 590.747 337.584 590.879 338.148 590.879Z" fill="#333333"/>
</g>
<path style="mix-blend-mode:plus-lighter" d="M6.5 624.6C6.5 619.84 6.5 617.459 7.42644 615.641C8.24137 614.042 9.5417 612.741 11.1411 611.926C12.9593 611 15.3396 611 20.1 611H25.9C30.6604 611 33.0407 611 34.8589 611.926C36.4583 612.741 37.7586 614.042 38.5736 615.641C39.5 617.459 39.5 619.84 39.5 624.6V639.4C39.5 644.16 39.5 646.541 38.5736 648.359C37.7586 649.958 36.4583 651.259 34.8589 652.074C33.0407 653 30.6604 653 25.9 653H20.1C15.3396 653 12.9593 653 11.1411 652.074C9.5417 651.259 8.24137 649.958 7.42644 648.359C6.5 646.541 6.5 644.16 6.5 639.4V624.6Z" fill="#141414"/>
<g style="mix-blend-mode:plus-darker">
<path d="M22.1821 625.963C22.8088 625.963 23.3703 626.044 23.8667 626.207C24.3631 626.37 24.7944 626.602 25.1606 626.903C25.5269 627.204 25.832 627.562 26.0762 627.977H26.1494V626.158H28.2734V643.26H26.064V637.169H25.9907C25.8605 637.438 25.6733 637.698 25.4292 637.95C25.1932 638.194 24.9084 638.41 24.5747 638.597C24.2492 638.784 23.883 638.931 23.4761 639.037C23.0773 639.142 22.6379 639.195 22.1577 639.195C21.1486 639.195 20.2697 638.947 19.521 638.451C18.7804 637.954 18.2026 637.246 17.7876 636.327C17.3807 635.399 17.1772 634.3 17.1772 633.031V632.005C17.1772 630.777 17.3807 629.71 17.7876 628.807C18.2026 627.904 18.7845 627.204 19.5332 626.708C20.29 626.211 21.173 625.963 22.1821 625.963ZM22.6704 627.867C22.0031 627.867 21.4253 628.034 20.937 628.368C20.4487 628.701 20.0703 629.186 19.8018 629.82C19.5413 630.455 19.4111 631.224 19.4111 632.127V632.958C19.4111 633.853 19.5413 634.626 19.8018 635.277C20.0622 635.928 20.4365 636.432 20.9248 636.791C21.4131 637.14 22.0031 637.315 22.6948 637.315C23.4028 637.315 24.0091 637.136 24.5137 636.778C25.0264 636.42 25.417 635.916 25.6855 635.265C25.9541 634.614 26.0884 633.845 26.0884 632.958V632.127C26.0884 631.265 25.9541 630.516 25.6855 629.881C25.417 629.247 25.0264 628.754 24.5137 628.404C24.001 628.046 23.3866 627.867 22.6704 627.867Z" fill="#595959"/>
</g>
<path style="mix-blend-mode:plus-lighter" d="M46.05 624.6C46.05 619.84 46.05 617.459 46.9764 615.641C47.7914 614.042 49.0917 612.741 50.6911 611.926C52.5093 611 54.8895 611 59.65 611H65.45C70.2104 611 72.5907 611 74.4089 611.926C76.0083 612.741 77.3086 614.042 78.1235 615.641C79.05 617.459 79.05 619.84 79.05 624.6V639.4C79.05 644.16 79.05 646.541 78.1235 648.359C77.3086 649.958 76.0083 651.259 74.4089 652.074C72.5907 653 70.2104 653 65.45 653H59.65C54.8895 653 52.5093 653 50.6911 652.074C49.0917 651.259 47.7914 649.958 46.9764 648.359C46.05 646.541 46.05 644.16 46.05 639.4V624.6Z" fill="#141414"/>
<g style="mix-blend-mode:plus-darker">
<path d="M71.1071 626.158L67.7502 639H65.4553L62.5866 629.173H62.5256L59.6447 639H57.3376L53.9929 626.158H56.239L58.5461 636.253H58.6437L61.5002 626.158H63.5998L66.4684 636.253H66.5661L68.8732 626.158H71.1071Z" fill="#595959"/>
</g>
<path style="mix-blend-mode:plus-lighter" d="M85.6 624.6C85.6 619.84 85.6 617.459 86.5264 615.641C87.3413 614.042 88.6417 612.741 90.2411 611.926C92.0593 611 94.4395 611 99.2 611H105C109.76 611 112.141 611 113.959 611.926C115.558 612.741 116.859 614.042 117.674 615.641C118.6 617.459 118.6 619.84 118.6 624.6V639.4C118.6 644.16 118.6 646.541 117.674 648.359C116.859 649.958 115.558 651.259 113.959 652.074C112.141 653 109.76 653 105 653H99.2C94.4395 653 92.0593 653 90.2411 652.074C88.6417 651.259 87.3413 649.958 86.5264 648.359C85.6 646.541 85.6 644.16 85.6 639.4V624.6Z" fill="#141414"/>
<g style="mix-blend-mode:plus-darker">
<path d="M102.222 639.208C101.107 639.208 100.143 638.963 99.329 638.475C98.5152 637.979 97.8885 637.279 97.4491 636.375C97.0178 635.472 96.8021 634.41 96.8021 633.189V631.773C96.8021 630.626 97.0096 629.617 97.4247 628.746C97.8479 627.875 98.4541 627.192 99.2435 626.695C100.041 626.199 101.005 625.951 102.137 625.951C103.26 625.951 104.216 626.203 105.005 626.708C105.803 627.204 106.409 627.9 106.824 628.795C107.247 629.69 107.459 630.732 107.459 631.92V633.116H98.9994V633.36C98.9994 634.549 99.2883 635.517 99.8661 636.266C100.452 637.014 101.258 637.389 102.283 637.389C102.771 637.389 103.203 637.311 103.577 637.157C103.951 637.002 104.265 636.782 104.517 636.498C104.777 636.205 104.977 635.863 105.115 635.472H107.288C107.174 636.001 106.983 636.493 106.714 636.949C106.446 637.397 106.1 637.792 105.677 638.133C105.253 638.467 104.753 638.731 104.175 638.927C103.606 639.114 102.954 639.208 102.222 639.208ZM98.9994 631.383H105.262C105.262 631.375 105.262 631.371 105.262 631.371C105.262 631.362 105.262 631.354 105.262 631.346C105.262 630.679 105.131 630.077 104.871 629.54C104.611 628.994 104.244 628.563 103.772 628.246C103.308 627.928 102.763 627.77 102.137 627.77C101.502 627.77 100.948 627.928 100.476 628.246C100.013 628.563 99.6504 628.994 99.39 629.54C99.1296 630.077 98.9994 630.679 98.9994 631.346C98.9994 631.354 98.9994 631.362 98.9994 631.371C98.9994 631.371 98.9994 631.375 98.9994 631.383Z" fill="#595959"/>
</g>
<path style="mix-blend-mode:plus-lighter" d="M125.15 624.6C125.15 619.84 125.15 617.459 126.076 615.641C126.891 614.042 128.192 612.741 129.791 611.926C131.609 611 133.99 611 138.75 611H144.55C149.31 611 151.691 611 153.509 611.926C155.108 612.741 156.409 614.042 157.224 615.641C158.15 617.459 158.15 619.84 158.15 624.6V639.4C158.15 644.16 158.15 646.541 157.224 648.359C156.409 649.958 155.108 651.259 153.509 652.074C151.691 653 149.31 653 144.55 653H138.75C133.99 653 131.609 653 129.791 652.074C128.192 651.259 126.891 649.958 126.076 648.359C125.15 646.541 125.15 644.16 125.15 639.4V624.6Z" fill="#141414"/>
<g style="mix-blend-mode:plus-darker">
<path d="M139.221 639V626.158H141.43V627.757H141.504C141.626 627.497 141.817 627.228 142.077 626.952C142.338 626.675 142.679 626.443 143.103 626.256C143.526 626.061 144.043 625.963 144.653 625.963C144.791 625.963 144.926 625.971 145.056 625.987C145.194 625.995 145.328 626.008 145.459 626.024V628.038C145.345 628.014 145.19 627.997 144.995 627.989C144.808 627.973 144.612 627.965 144.409 627.965C143.66 627.965 143.07 628.107 142.639 628.392C142.207 628.677 141.898 629.059 141.711 629.54C141.532 630.012 141.443 630.536 141.443 631.114V639H139.221Z" fill="#595959"/>
</g>
<path style="mix-blend-mode:plus-lighter" d="M164.7 624.6C164.7 619.84 164.7 617.459 165.626 615.641C166.441 614.042 167.742 612.741 169.341 611.926C171.159 611 173.54 611 178.3 611H184.1C188.86 611 191.241 611 193.059 611.926C194.658 612.741 195.959 614.042 196.774 615.641C197.7 617.459 197.7 619.84 197.7 624.6V639.4C197.7 644.16 197.7 646.541 196.774 648.359C195.959 649.958 194.658 651.259 193.059 652.074C191.241 653 188.86 653 184.1 653H178.3C173.54 653 171.159 653 169.341 652.074C167.742 651.259 166.441 649.958 165.626 648.359C164.7 646.541 164.7 644.16 164.7 639.4V624.6Z" fill="#141414"/>
<g style="mix-blend-mode:plus-darker">
<path d="M179.613 626.158V622.972H181.798V626.158H184.325V627.989H181.798V635.387C181.798 636.144 181.949 636.652 182.25 636.913C182.551 637.165 183.092 637.291 183.873 637.291C183.979 637.291 184.077 637.291 184.166 637.291C184.256 637.283 184.341 637.275 184.423 637.267V639.024C184.333 639.041 184.183 639.057 183.971 639.073C183.759 639.098 183.54 639.11 183.312 639.11C182.295 639.11 181.517 638.98 180.98 638.719C180.451 638.451 180.085 638.044 179.882 637.499C179.686 636.945 179.589 636.245 179.589 635.399V627.989H177.855V626.158H179.613Z" fill="#595959"/>
</g>
<path style="mix-blend-mode:plus-lighter" d="M204.25 624.6C204.25 619.84 204.25 617.459 205.176 615.641C205.991 614.042 207.292 612.741 208.891 611.926C210.709 611 213.09 611 217.85 611H223.65C228.41 611 230.791 611 232.609 611.926C234.208 612.741 235.509 614.042 236.324 615.641C237.25 617.459 237.25 619.84 237.25 624.6V639.4C237.25 644.16 237.25 646.541 236.324 648.359C235.509 649.958 234.208 651.259 232.609 652.074C230.791 653 228.41 653 223.65 653H217.85C213.09 653 210.709 653 208.891 652.074C207.292 651.259 205.991 649.958 205.176 648.359C204.25 646.541 204.25 644.16 204.25 639.4V624.6Z" fill="#141414"/>
<g style="mix-blend-mode:plus-darker">
<path d="M226.585 626.158C226.194 627.298 225.8 628.425 225.401 629.54C225.01 630.654 224.624 631.753 224.241 632.835C223.859 633.91 223.484 634.964 223.118 635.997C222.752 637.031 222.394 638.04 222.044 639.024L221.714 639.916C221.21 641.283 220.608 642.223 219.908 642.735C219.208 643.248 218.3 643.504 217.186 643.504C216.99 643.504 216.783 643.492 216.563 643.468C216.343 643.451 216.144 643.427 215.965 643.395V641.625C216.071 641.633 216.213 641.645 216.392 641.661C216.571 641.677 216.742 641.686 216.905 641.686C217.637 641.686 218.195 641.543 218.577 641.258C218.96 640.982 219.24 640.51 219.419 639.842L219.603 639.171L214.891 626.158H217.356L220.75 636.62H220.823L224.241 626.158H226.585Z" fill="#595959"/>
</g>
<path style="mix-blend-mode:plus-lighter" d="M243.8 624.6C243.8 619.84 243.8 617.459 244.726 615.641C245.541 614.042 246.842 612.741 248.441 611.926C250.259 611 252.64 611 257.4 611H263.2C267.96 611 270.341 611 272.159 611.926C273.758 612.741 275.059 614.042 275.874 615.641C276.8 617.459 276.8 619.84 276.8 624.6V639.4C276.8 644.16 276.8 646.541 275.874 648.359C275.059 649.958 273.758 651.259 272.159 652.074C270.341 653 267.96 653 263.2 653H257.4C252.64 653 250.259 653 248.441 652.074C246.842 651.259 245.541 649.958 244.726 648.359C243.8 646.541 243.8 644.16 243.8 639.4V624.6Z" fill="#141414"/>
<g style="mix-blend-mode:plus-darker">
<path d="M265.464 626.158V639H263.279V637.303H263.181C263.034 637.637 262.798 637.95 262.473 638.243C262.156 638.536 261.749 638.772 261.252 638.951C260.756 639.122 260.166 639.208 259.482 639.208C258.595 639.208 257.81 639.041 257.126 638.707C256.443 638.365 255.906 637.865 255.515 637.206C255.132 636.546 254.941 635.724 254.941 634.74V626.158H257.163V634.117C257.163 634.907 257.297 635.529 257.566 635.985C257.842 636.432 258.209 636.754 258.664 636.949C259.12 637.136 259.621 637.23 260.166 637.23C260.776 637.23 261.309 637.108 261.765 636.864C262.229 636.62 262.591 636.262 262.851 635.79C263.12 635.318 263.254 634.748 263.254 634.081V626.158H265.464Z" fill="#595959"/>
</g>
<path style="mix-blend-mode:plus-lighter" d="M283.35 624.6C283.35 619.84 283.35 617.459 284.277 615.641C285.091 614.042 286.392 612.741 287.991 611.926C289.809 611 292.19 611 296.95 611H302.75C307.511 611 309.891 611 311.709 611.926C313.308 612.741 314.609 614.042 315.424 615.641C316.35 617.459 316.35 619.84 316.35 624.6V639.4C316.35 644.16 316.35 646.541 315.424 648.359C314.609 649.958 313.308 651.259 311.709 652.074C309.891 653 307.511 653 302.75 653H296.95C292.19 653 289.809 653 287.991 652.074C286.392 651.259 285.091 649.958 284.277 648.359C283.35 646.541 283.35 644.16 283.35 639.4V624.6Z" fill="#141414"/>
<g style="mix-blend-mode:plus-darker">
<path d="M298.739 639V626.158H300.949V639H298.739ZM298.446 623.058C298.446 622.667 298.581 622.341 298.849 622.081C299.126 621.812 299.455 621.678 299.838 621.678C300.229 621.678 300.558 621.812 300.827 622.081C301.103 622.341 301.242 622.667 301.242 623.058C301.242 623.44 301.103 623.766 300.827 624.034C300.558 624.295 300.229 624.425 299.838 624.425C299.455 624.425 299.126 624.295 298.849 624.034C298.581 623.766 298.446 623.44 298.446 623.058Z" fill="#595959"/>
</g>
<path style="mix-blend-mode:plus-lighter" d="M322.9 624.6C322.9 619.84 322.9 617.459 323.826 615.641C324.641 614.042 325.942 612.741 327.541 611.926C329.359 611 331.74 611 336.5 611H342.3C347.06 611 349.441 611 351.259 611.926C352.858 612.741 354.159 614.042 354.974 615.641C355.9 617.459 355.9 619.84 355.9 624.6V639.4C355.9 644.16 355.9 646.541 354.974 648.359C354.159 649.958 352.858 651.259 351.259 652.074C349.441 653 347.06 653 342.3 653H336.5C331.74 653 329.359 653 327.541 652.074C325.942 651.259 324.641 649.958 323.826 648.359C322.9 646.541 322.9 644.16 322.9 639.4V624.6Z" fill="#141414"/>
<g style="mix-blend-mode:plus-darker">
<path d="M339.4 625.951C340.604 625.951 341.618 626.215 342.44 626.744C343.262 627.273 343.884 627.993 344.307 628.905C344.73 629.816 344.942 630.846 344.942 631.993V633.116C344.942 634.28 344.73 635.326 344.307 636.253C343.884 637.173 343.262 637.897 342.44 638.426C341.618 638.947 340.604 639.208 339.4 639.208C338.196 639.208 337.178 638.947 336.348 638.426C335.518 637.897 334.892 637.173 334.468 636.253C334.053 635.326 333.846 634.28 333.846 633.116V631.993C333.846 630.846 334.057 629.816 334.481 628.905C334.904 627.993 335.526 627.273 336.348 626.744C337.178 626.215 338.196 625.951 339.4 625.951ZM339.4 627.818C338.684 627.818 338.074 627.993 337.569 628.343C337.073 628.693 336.694 629.186 336.434 629.82C336.181 630.455 336.055 631.204 336.055 632.066V633.067C336.055 633.914 336.181 634.658 336.434 635.301C336.694 635.936 337.073 636.432 337.569 636.791C338.065 637.149 338.676 637.328 339.4 637.328C340.124 637.328 340.731 637.149 341.219 636.791C341.715 636.432 342.09 635.936 342.342 635.301C342.594 634.667 342.72 633.922 342.72 633.067V632.066C342.72 631.204 342.594 630.455 342.342 629.82C342.09 629.186 341.715 628.693 341.219 628.343C340.731 627.993 340.124 627.818 339.4 627.818Z" fill="#595959"/>
</g>
<path style="mix-blend-mode:plus-lighter" d="M362.45 624.6C362.45 619.84 362.45 617.459 363.376 615.641C364.191 614.042 365.492 612.741 367.091 611.926C368.909 611 371.29 611 376.05 611H381.85C386.61 611 388.991 611 390.809 611.926C392.408 612.741 393.709 614.042 394.524 615.641C395.45 617.459 395.45 619.84 395.45 624.6V639.4C395.45 644.16 395.45 646.541 394.524 648.359C393.709 649.958 392.408 651.259 390.809 652.074C388.991 653 386.61 653 381.85 653H376.05C371.29 653 368.909 653 367.091 652.074C365.492 651.259 364.191 649.958 363.376 648.359C362.45 646.541 362.45 644.16 362.45 639.4V624.6Z" fill="#141414"/>
<g style="mix-blend-mode:plus-darker">
<path d="M379.621 639.195C379.076 639.195 378.572 639.118 378.108 638.963C377.652 638.801 377.245 638.573 376.887 638.28C376.537 637.987 376.24 637.653 375.996 637.279H375.935V643.26H373.725V626.158H375.849V628.001H375.91C376.098 627.7 376.317 627.424 376.57 627.171C376.83 626.919 377.119 626.703 377.436 626.524C377.754 626.345 378.104 626.207 378.486 626.109C378.869 626.012 379.271 625.963 379.695 625.963C380.663 625.963 381.522 626.203 382.27 626.683C383.027 627.155 383.621 627.839 384.052 628.734C384.492 629.629 384.712 630.711 384.712 631.981V633.177C384.712 634.422 384.492 635.497 384.052 636.4C383.621 637.303 383.023 637.995 382.258 638.475C381.501 638.955 380.622 639.195 379.621 639.195ZM379.328 637.291C379.955 637.291 380.504 637.128 380.976 636.803C381.456 636.477 381.827 635.997 382.087 635.362C382.356 634.719 382.49 633.934 382.49 633.006V632.066C382.49 631.179 382.36 630.423 382.099 629.796C381.847 629.161 381.481 628.677 381.001 628.343C380.529 628.01 379.955 627.843 379.28 627.843C378.58 627.843 377.977 628.022 377.473 628.38C376.968 628.73 376.578 629.218 376.301 629.845C376.032 630.471 375.898 631.208 375.898 632.054V633.006C375.898 633.869 376.037 634.626 376.313 635.277C376.59 635.92 376.985 636.416 377.497 636.766C378.01 637.116 378.62 637.291 379.328 637.291Z" fill="#595959"/>
</g>
<path style="mix-blend-mode:plus-lighter" d="M26.5 679.6C26.5 674.84 26.5 672.459 27.4264 670.641C28.2414 669.042 29.5417 667.741 31.1411 666.926C32.9593 666 35.3396 666 40.1 666H45.9C50.6604 666 53.0407 666 54.8589 666.926C56.4583 667.741 57.7586 669.042 58.5736 670.641C59.5 672.459 59.5 674.84 59.5 679.6V694.4C59.5 699.16 59.5 701.541 58.5736 703.359C57.7586 704.958 56.4583 706.259 54.8589 707.074C53.0407 708 50.6604 708 45.9 708H40.1C35.3396 708 32.9593 708 31.1411 707.074C29.5417 706.259 28.2414 704.958 27.4264 703.359C26.5 701.541 26.5 699.16 26.5 694.4V679.6Z" fill="#141414"/>
<g style="mix-blend-mode:plus-darker">
<path d="M41.8525 694.208C40.6074 694.208 39.5942 693.854 38.813 693.146C38.0399 692.438 37.6533 691.493 37.6533 690.313C37.6533 689.19 38.0358 688.295 38.8008 687.628C39.5739 686.961 40.6969 686.623 42.1699 686.615H45.5269V685.333C45.5269 684.511 45.2949 683.88 44.8311 683.441C44.3753 683.001 43.7243 682.782 42.8779 682.782C42.3408 682.782 41.881 682.867 41.4985 683.038C41.116 683.209 40.819 683.453 40.6074 683.771C40.3958 684.08 40.2656 684.442 40.2168 684.857H38.1416C38.1742 684.304 38.2922 683.791 38.4956 683.319C38.7072 682.839 39.0083 682.424 39.3989 682.074C39.7977 681.724 40.29 681.451 40.876 681.256C41.4701 681.052 42.1618 680.951 42.9512 680.951C43.8708 680.951 44.6886 681.113 45.4048 681.439C46.1291 681.764 46.6947 682.241 47.1016 682.867C47.5166 683.486 47.7241 684.251 47.7241 685.162V694H45.6123V692.401H45.5391C45.3275 692.751 45.0549 693.06 44.7212 693.329C44.3875 693.597 43.9847 693.813 43.5127 693.976C43.0407 694.13 42.4873 694.208 41.8525 694.208ZM42.4629 692.401C43.0488 692.401 43.5737 692.287 44.0376 692.059C44.5015 691.831 44.8636 691.518 45.124 691.119C45.3926 690.72 45.5269 690.261 45.5269 689.74V688.263H42.3896C41.5189 688.263 40.8882 688.446 40.4976 688.812C40.1069 689.178 39.9116 689.65 39.9116 690.228C39.9116 690.969 40.172 691.518 40.6929 691.876C41.2137 692.226 41.8037 692.401 42.4629 692.401Z" fill="#595959"/>
</g>
<path style="mix-blend-mode:plus-lighter" d="M66 679.6C66 674.84 66 672.459 66.9264 670.641C67.7414 669.042 69.0417 667.741 70.6411 666.926C72.4593 666 74.8396 666 79.6 666H85.4C90.1604 666 92.5407 666 94.3589 666.926C95.9583 667.741 97.2586 669.042 98.0736 670.641C99 672.459 99 674.84 99 679.6V694.4C99 699.16 99 701.541 98.0736 703.359C97.2586 704.958 95.9583 706.259 94.3589 707.074C92.5407 708 90.1604 708 85.4 708H79.6C74.8396 708 72.4593 708 70.6411 707.074C69.0417 706.259 67.7414 704.958 66.9264 703.359C66 701.541 66 699.16 66 694.4V679.6Z" fill="#141414"/>
<g style="mix-blend-mode:plus-darker">
<path d="M77.7515 684.845C77.7515 683.933 77.9753 683.193 78.4229 682.623C78.8786 682.045 79.4727 681.622 80.2051 681.354C80.9375 681.085 81.7147 680.951 82.5366 680.951C83.5457 680.951 84.388 681.122 85.0635 681.463C85.7471 681.805 86.2638 682.269 86.6138 682.855C86.9637 683.433 87.1387 684.084 87.1387 684.808H85.1001C85.0757 684.483 84.978 684.161 84.8071 683.844C84.6444 683.518 84.3758 683.25 84.0015 683.038C83.6271 682.826 83.1144 682.721 82.4634 682.721C81.7147 682.721 81.1003 682.883 80.6201 683.209C80.14 683.526 79.8999 683.994 79.8999 684.613C79.8999 684.971 79.9935 685.264 80.1807 685.492C80.376 685.72 80.6283 685.907 80.9375 686.053C81.2467 686.192 81.5885 686.306 81.9629 686.395C82.3454 686.476 82.7197 686.55 83.0859 686.615C83.8835 686.753 84.6118 686.944 85.271 687.188C85.9383 687.424 86.4714 687.778 86.8701 688.25C87.2689 688.714 87.4683 689.361 87.4683 690.191C87.4683 691.046 87.2526 691.774 86.8213 692.376C86.3981 692.979 85.8 693.434 85.0269 693.744C84.2619 694.053 83.3708 694.208 82.3535 694.208C81.3932 694.208 80.5509 694.061 79.8267 693.768C79.1024 693.475 78.5368 693.056 78.1299 692.511C77.723 691.957 77.5195 691.298 77.5195 690.533H79.6802C79.7453 690.916 79.8918 691.249 80.1196 691.534C80.3556 691.819 80.673 692.043 81.0718 692.206C81.4787 692.36 81.9588 692.438 82.5122 692.438C83.1551 692.438 83.68 692.348 84.0869 692.169C84.502 691.99 84.8071 691.75 85.0024 691.449C85.2059 691.148 85.3076 690.822 85.3076 690.472C85.3076 689.992 85.1611 689.626 84.8682 689.374C84.5833 689.121 84.1968 688.926 83.7085 688.788C83.2202 688.649 82.679 688.523 82.085 688.409C81.2956 688.246 80.5713 688.039 79.9121 687.787C79.2529 687.526 78.728 687.164 78.3374 686.7C77.9468 686.236 77.7515 685.618 77.7515 684.845Z" fill="#595959"/>
</g>
<path style="mix-blend-mode:plus-lighter" d="M105.5 679.6C105.5 674.84 105.5 672.459 106.426 670.641C107.241 669.042 108.542 667.741 110.141 666.926C111.959 666 114.34 666 119.1 666H124.9C129.66 666 132.041 666 133.859 666.926C135.458 667.741 136.759 669.042 137.574 670.641C138.5 672.459 138.5 674.84 138.5 679.6V694.4C138.5 699.16 138.5 701.541 137.574 703.359C136.759 704.958 135.458 706.259 133.859 707.074C132.041 708 129.66 708 124.9 708H119.1C114.34 708 111.959 708 110.141 707.074C108.542 706.259 107.241 704.958 106.426 703.359C105.5 701.541 105.5 699.16 105.5 694.4V679.6Z" fill="#141414"/>
<g style="mix-blend-mode:plus-darker">
<path d="M121.304 680.963C121.866 680.963 122.387 681.048 122.867 681.219C123.347 681.39 123.766 681.626 124.124 681.927C124.482 682.228 124.767 682.57 124.979 682.953H125.052V676.458H127.261V694H125.137V692.059H125.076C124.897 692.393 124.677 692.694 124.417 692.962C124.165 693.223 123.88 693.443 123.562 693.622C123.245 693.801 122.895 693.939 122.513 694.037C122.138 694.134 121.736 694.183 121.304 694.183C120.197 694.183 119.262 693.931 118.497 693.426C117.74 692.922 117.166 692.218 116.775 691.314C116.385 690.403 116.189 689.349 116.189 688.153V686.993C116.189 685.821 116.393 684.784 116.8 683.88C117.207 682.977 117.789 682.265 118.545 681.744C119.31 681.223 120.23 680.963 121.304 680.963ZM121.658 682.867C121.04 682.867 120.482 683.022 119.986 683.331C119.498 683.64 119.115 684.108 118.838 684.735C118.562 685.361 118.423 686.143 118.423 687.079V688.08C118.423 689.015 118.562 689.797 118.838 690.423C119.123 691.05 119.51 691.518 119.998 691.827C120.494 692.136 121.06 692.291 121.695 692.291C122.395 692.291 122.997 692.128 123.501 691.803C124.014 691.469 124.405 690.993 124.673 690.375C124.95 689.748 125.088 688.987 125.088 688.092V687.079C125.088 686.224 124.95 685.484 124.673 684.857C124.397 684.222 124.002 683.734 123.489 683.392C122.977 683.042 122.366 682.867 121.658 682.867Z" fill="#595959"/>
</g>
<path style="mix-blend-mode:plus-lighter" d="M145 679.6C145 674.84 145 672.459 145.926 670.641C146.741 669.042 148.042 667.741 149.641 666.926C151.459 666 153.84 666 158.6 666H164.4C169.16 666 171.541 666 173.359 666.926C174.958 667.741 176.259 669.042 177.074 670.641C178 672.459 178 674.84 178 679.6V694.4C178 699.16 178 701.541 177.074 703.359C176.259 704.958 174.958 706.259 173.359 707.074C171.541 708 169.16 708 164.4 708H158.6C153.84 708 151.459 708 149.641 707.074C148.042 706.259 146.741 704.958 145.926 703.359C145 701.541 145 699.16 145 694.4V679.6Z" fill="#141414"/>
<g style="mix-blend-mode:plus-darker">
<path d="M159.986 694V682.989H158.253V681.158H159.986V679.876C159.986 678.648 160.304 677.74 160.938 677.154C161.581 676.568 162.57 676.275 163.905 676.275C164.133 676.275 164.328 676.288 164.491 676.312C164.653 676.328 164.788 676.345 164.894 676.361V678.131C164.804 678.115 164.71 678.102 164.613 678.094C164.515 678.086 164.385 678.082 164.222 678.082C163.539 678.082 163.026 678.22 162.684 678.497C162.35 678.774 162.184 679.291 162.184 680.047V681.158H164.71V682.989H162.196V694H159.986Z" fill="#595959"/>
</g>
<path style="mix-blend-mode:plus-lighter" d="M184.5 679.6C184.5 674.84 184.5 672.459 185.426 670.641C186.241 669.042 187.542 667.741 189.141 666.926C190.959 666 193.34 666 198.1 666H203.9C208.66 666 211.041 666 212.859 666.926C214.458 667.741 215.759 669.042 216.574 670.641C217.5 672.459 217.5 674.84 217.5 679.6V694.4C217.5 699.16 217.5 701.541 216.574 703.359C215.759 704.958 214.458 706.259 212.859 707.074C211.041 708 208.66 708 203.9 708H198.1C193.34 708 190.959 708 189.141 707.074C187.542 706.259 186.241 704.958 185.426 703.359C184.5 701.541 184.5 699.16 184.5 694.4V679.6Z" fill="#141414"/>
<g style="mix-blend-mode:plus-darker">
<path d="M200.756 696.893C201.765 696.893 202.567 696.612 203.161 696.051C203.755 695.497 204.052 694.724 204.052 693.731V691.852H203.979C203.856 692.128 203.677 692.389 203.441 692.633C203.214 692.877 202.937 693.093 202.611 693.28C202.294 693.467 201.94 693.613 201.549 693.719C201.167 693.825 200.756 693.878 200.316 693.878C199.324 693.878 198.441 693.65 197.667 693.194C196.903 692.73 196.3 692.055 195.861 691.168C195.43 690.281 195.214 689.199 195.214 687.921V686.871C195.214 685.61 195.43 684.54 195.861 683.661C196.292 682.782 196.89 682.114 197.655 681.659C198.428 681.195 199.315 680.963 200.316 680.963C200.902 680.963 201.439 681.056 201.928 681.244C202.424 681.423 202.851 681.667 203.209 681.976C203.576 682.277 203.856 682.611 204.052 682.977H204.113V681.158H206.261V693.78C206.261 694.61 206.111 695.331 205.81 695.941C205.508 696.559 205.102 697.072 204.589 697.479C204.076 697.894 203.49 698.199 202.831 698.395C202.172 698.598 201.48 698.7 200.756 698.7C199.657 698.7 198.734 698.533 197.985 698.199C197.236 697.874 196.654 697.426 196.239 696.856C195.832 696.287 195.584 695.648 195.495 694.94H197.741C197.822 695.274 197.989 695.591 198.241 695.892C198.502 696.193 198.843 696.433 199.267 696.612C199.69 696.799 200.186 696.893 200.756 696.893ZM200.792 682.843C200.084 682.843 199.478 683.01 198.974 683.343C198.477 683.669 198.095 684.141 197.826 684.759C197.566 685.378 197.436 686.135 197.436 687.03V687.823C197.436 688.694 197.566 689.443 197.826 690.069C198.095 690.696 198.477 691.18 198.974 691.522C199.478 691.856 200.084 692.022 200.792 692.022C201.484 692.022 202.07 691.852 202.55 691.51C203.039 691.168 203.409 690.688 203.661 690.069C203.922 689.443 204.052 688.694 204.052 687.823V687.03C204.052 686.175 203.917 685.435 203.649 684.808C203.38 684.181 203.002 683.697 202.514 683.355C202.034 683.014 201.46 682.843 200.792 682.843Z" fill="#595959"/>
</g>
<path style="mix-blend-mode:plus-lighter" d="M224 679.6C224 674.84 224 672.459 224.926 670.641C225.741 669.042 227.042 667.741 228.641 666.926C230.459 666 232.84 666 237.6 666H243.4C248.16 666 250.541 666 252.359 666.926C253.958 667.741 255.259 669.042 256.074 670.641C257 672.459 257 674.84 257 679.6V694.4C257 699.16 257 701.541 256.074 703.359C255.259 704.958 253.958 706.259 252.359 707.074C250.541 708 248.16 708 243.4 708H237.6C232.84 708 230.459 708 228.641 707.074C227.042 706.259 225.741 704.958 224.926 703.359C224 701.541 224 699.16 224 694.4V679.6Z" fill="#141414"/>
<g style="mix-blend-mode:plus-darker">
<path d="M235.312 694V676.458H237.521V682.879H237.595C237.749 682.603 237.985 682.318 238.303 682.025C238.62 681.724 239.027 681.472 239.523 681.268C240.028 681.056 240.626 680.951 241.318 680.951C242.644 680.951 243.739 681.362 244.602 682.184C245.472 683.006 245.908 684.198 245.908 685.76V694H243.698V686.151C243.698 685.435 243.568 684.841 243.308 684.369C243.055 683.889 242.697 683.53 242.233 683.294C241.77 683.05 241.232 682.928 240.622 682.928C239.906 682.928 239.32 683.083 238.864 683.392C238.409 683.693 238.071 684.092 237.851 684.588C237.631 685.085 237.521 685.626 237.521 686.212V694H235.312Z" fill="#595959"/>
</g>
<path style="mix-blend-mode:plus-lighter" d="M263.5 679.6C263.5 674.84 263.5 672.459 264.426 670.641C265.241 669.042 266.542 667.741 268.141 666.926C269.959 666 272.34 666 277.1 666H282.9C287.66 666 290.041 666 291.859 666.926C293.458 667.741 294.759 669.042 295.574 670.641C296.5 672.459 296.5 674.84 296.5 679.6V694.4C296.5 699.16 296.5 701.541 295.574 703.359C294.759 704.958 293.458 706.259 291.859 707.074C290.041 708 287.66 708 282.9 708H277.1C272.34 708 269.959 708 268.141 707.074C266.542 706.259 265.241 704.958 264.426 703.359C263.5 701.541 263.5 699.16 263.5 694.4V679.6Z" fill="#141414"/>
<g style="mix-blend-mode:plus-darker">
<path d="M278.596 678.058C278.596 677.667 278.73 677.341 278.999 677.081C279.276 676.812 279.605 676.678 279.988 676.678C280.378 676.678 280.708 676.812 280.977 677.081C281.253 677.341 281.392 677.667 281.392 678.058C281.392 678.44 281.253 678.766 280.977 679.034C280.708 679.295 280.378 679.425 279.988 679.425C279.605 679.425 279.276 679.295 278.999 679.034C278.73 678.766 278.596 678.44 278.596 678.058ZM281.099 681.158V694.305C281.099 695.298 280.952 696.104 280.659 696.722C280.374 697.341 279.967 697.792 279.438 698.077C278.91 698.362 278.279 698.504 277.546 698.504C277.335 698.504 277.103 698.492 276.851 698.468C276.59 698.443 276.411 698.419 276.313 698.395V696.661C276.411 696.677 276.533 696.69 276.68 696.698C276.826 696.714 276.969 696.722 277.107 696.722C277.758 696.722 278.218 696.527 278.486 696.136C278.755 695.746 278.889 695.127 278.889 694.281V681.158H281.099Z" fill="#595959"/>
</g>
<path style="mix-blend-mode:plus-lighter" d="M303 679.6C303 674.84 303 672.459 303.926 670.641C304.741 669.042 306.042 667.741 307.641 666.926C309.459 666 311.84 666 316.6 666H322.4C327.16 666 329.541 666 331.359 666.926C332.958 667.741 334.259 669.042 335.074 670.641C336 672.459 336 674.84 336 679.6V694.4C336 699.16 336 701.541 335.074 703.359C334.259 704.958 332.958 706.259 331.359 707.074C329.541 708 327.16 708 322.4 708H316.6C311.84 708 309.459 708 307.641 707.074C306.042 706.259 304.741 704.958 303.926 703.359C303 701.541 303 699.16 303 694.4V679.6Z" fill="#141414"/>
<g style="mix-blend-mode:plus-darker">
<path d="M317.583 689.386V694H315.374V676.458H317.583V686.798H317.669L322.698 681.158H325.408L320.379 686.737L325.726 694H323.028L318.731 688.116L317.583 689.386Z" fill="#595959"/>
</g>
<path style="mix-blend-mode:plus-lighter" d="M342.5 679.6C342.5 674.84 342.5 672.459 343.426 670.641C344.241 669.042 345.542 667.741 347.141 666.926C348.959 666 351.34 666 356.1 666H361.9C366.66 666 369.041 666 370.859 666.926C372.458 667.741 373.759 669.042 374.574 670.641C375.5 672.459 375.5 674.84 375.5 679.6V694.4C375.5 699.16 375.5 701.541 374.574 703.359C373.759 704.958 372.458 706.259 370.859 707.074C369.041 708 366.66 708 361.9 708H356.1C351.34 708 348.959 708 347.141 707.074C345.542 706.259 344.241 704.958 343.426 703.359C342.5 701.541 342.5 699.16 342.5 694.4V679.6Z" fill="#141414"/>
<g style="mix-blend-mode:plus-darker">
<path d="M357.889 694V676.458H360.099V694H357.889Z" fill="#595959"/>
</g>
<path style="mix-blend-mode:plus-lighter" d="M6.5 734.6C6.5 729.84 6.5 727.459 7.42644 725.641C8.24137 724.042 9.5417 722.741 11.1411 721.926C12.9593 721 15.3396 721 20.1 721H37.9C42.6604 721 45.0407 721 46.8589 721.926C48.4583 722.741 49.7586 724.042 50.5736 725.641C51.5 727.459 51.5 729.84 51.5 734.6V749.4C51.5 754.16 51.5 756.541 50.5736 758.359C49.7586 759.958 48.4583 761.259 46.8589 762.074C45.0407 763 42.6604 763 37.9 763H20.1C15.3396 763 12.9593 763 11.1411 762.074C9.5417 761.259 8.24137 759.958 7.42644 758.359C6.5 756.541 6.5 754.16 6.5 749.4V734.6Z" fill="#141414"/>
<g style="mix-blend-mode:plus-darker">
<path d="M25.687 751.201C24.9233 751.201 24.3394 750.992 23.9351 750.572C23.5308 750.153 23.3286 749.584 23.3286 748.865V744.16H19.0947C18.638 744.16 18.2562 744.036 17.9492 743.789C17.6423 743.535 17.4888 743.198 17.4888 742.778C17.4888 742.509 17.5449 742.277 17.6572 742.082C17.7695 741.887 17.938 741.681 18.1626 741.464L27.6523 731.975C27.862 731.757 28.0754 731.593 28.2925 731.48C28.5171 731.368 28.7529 731.312 29 731.312C29.2471 731.312 29.4829 731.368 29.7075 731.48C29.9321 731.593 30.1455 731.757 30.3477 731.975L39.8486 741.464C40.0583 741.674 40.223 741.88 40.3428 742.082C40.4626 742.284 40.5225 742.516 40.5225 742.778C40.5225 743.198 40.369 743.535 40.062 743.789C39.755 744.036 39.3732 744.16 38.9165 744.16H34.6714V748.865C34.6714 749.584 34.4692 750.153 34.0649 750.572C33.6681 750.992 33.0841 751.201 32.313 751.201H25.687ZM25.979 749.337H32.021C32.2082 749.337 32.3617 749.273 32.4814 749.146C32.6087 749.026 32.6724 748.873 32.6724 748.686V742.756C32.6724 742.516 32.7922 742.396 33.0317 742.396H37.7935C37.8683 742.396 37.9058 742.37 37.9058 742.318C37.9058 742.28 37.887 742.239 37.8496 742.194L29.2134 733.614C29.1759 733.577 29.1385 733.551 29.1011 733.536C29.0711 733.513 29.0374 733.502 29 733.502C28.9626 733.502 28.9289 733.513 28.8989 733.536C28.869 733.551 28.8315 733.577 28.7866 733.614L20.1616 742.194C20.1167 742.239 20.0942 742.28 20.0942 742.318C20.0942 742.37 20.1317 742.396 20.2065 742.396H24.9795C25.2116 742.396 25.3276 742.516 25.3276 742.756V748.686C25.3276 748.873 25.3875 749.026 25.5073 749.146C25.6271 749.273 25.7843 749.337 25.979 749.337Z" fill="#595959"/>
</g>
<path style="mix-blend-mode:plus-lighter" d="M65.75 734.6C65.75 729.84 65.75 727.459 66.6764 725.641C67.4914 724.042 68.7917 722.741 70.3911 721.926C72.2093 721 74.5896 721 79.35 721H85.15C89.9104 721 92.2907 721 94.1089 721.926C95.7083 722.741 97.0086 724.042 97.8236 725.641C98.75 727.459 98.75 729.84 98.75 734.6V749.4C98.75 754.16 98.75 756.541 97.8236 758.359C97.0086 759.958 95.7083 761.259 94.1089 762.074C92.2907 763 89.9104 763 85.15 763H79.35C74.5896 763 72.2093 763 70.3911 762.074C68.7917 761.259 67.4914 759.958 66.6764 758.359C65.75 756.541 65.75 754.16 65.75 749.4V734.6Z" fill="#141414"/>
<g style="mix-blend-mode:plus-darker">
<path d="M77.5381 749V747.413L84.3618 738.124V738.05H77.5869V736.158H87.0962V737.77L80.3091 747.035V747.108H87.1816V749H77.5381Z" fill="#595959"/>
</g>
<path style="mix-blend-mode:plus-lighter" d="M105.321 734.6C105.321 729.84 105.321 727.459 106.248 725.641C107.063 724.042 108.363 722.741 109.962 721.926C111.781 721 114.161 721 118.921 721H124.721C129.482 721 131.862 721 133.68 721.926C135.28 722.741 136.58 724.042 137.395 725.641C138.321 727.459 138.321 729.84 138.321 734.6V749.4C138.321 754.16 138.321 756.541 137.395 758.359C136.58 759.958 135.28 761.259 133.68 762.074C131.862 763 129.482 763 124.721 763H118.921C114.161 763 111.781 763 109.962 762.074C108.363 761.259 107.063 759.958 106.248 758.359C105.321 756.541 105.321 754.16 105.321 749.4V734.6Z" fill="#141414"/>
<g style="mix-blend-mode:plus-darker">
<path d="M124.971 749L121.76 744.19H121.736L118.55 749H116.072L120.442 742.579C120.206 742.213 119.97 741.855 119.734 741.505C119.498 741.147 119.258 740.793 119.014 740.443C118.778 740.085 118.542 739.727 118.306 739.369C118.07 739.011 117.83 738.657 117.586 738.307C117.35 737.949 117.114 737.59 116.878 737.232C116.642 736.874 116.401 736.516 116.157 736.158H118.794L121.882 740.98H121.895L124.983 736.158H127.498L123.189 742.579C123.425 742.937 123.665 743.295 123.909 743.653C124.161 744.003 124.409 744.357 124.653 744.715C124.898 745.073 125.142 745.431 125.386 745.79C125.63 746.139 125.874 746.498 126.118 746.864C126.362 747.222 126.607 747.58 126.851 747.938C127.095 748.288 127.339 748.642 127.583 749H124.971Z" fill="#595959"/>
</g>
<path style="mix-blend-mode:plus-lighter" d="M144.893 734.6C144.893 729.84 144.893 727.459 145.819 725.641C146.634 724.042 147.935 722.741 149.534 721.926C151.352 721 153.732 721 158.493 721H164.293C169.053 721 171.434 721 173.252 721.926C174.851 722.741 176.152 724.042 176.966 725.641C177.893 727.459 177.893 729.84 177.893 734.6V749.4C177.893 754.16 177.893 756.541 176.966 758.359C176.152 759.958 174.851 761.259 173.252 762.074C171.434 763 169.053 763 164.293 763H158.493C153.732 763 151.352 763 149.534 762.074C147.935 761.259 146.634 759.958 145.819 758.359C144.893 756.541 144.893 754.16 144.893 749.4V734.6Z" fill="#141414"/>
<g style="mix-blend-mode:plus-darker">
<path d="M156.339 743.141V741.896C156.339 740.74 156.551 739.715 156.974 738.819C157.397 737.916 158.007 737.212 158.805 736.708C159.611 736.203 160.575 735.951 161.698 735.951C162.707 735.951 163.57 736.146 164.286 736.537C165.002 736.919 165.564 737.416 165.971 738.026C166.377 738.636 166.597 739.275 166.63 739.942H164.481C164.392 739.584 164.225 739.247 163.981 738.929C163.737 738.612 163.431 738.355 163.065 738.16C162.707 737.965 162.3 737.867 161.845 737.867C160.803 737.867 159.993 738.233 159.415 738.966C158.838 739.698 158.549 740.703 158.549 741.981V743.165C158.549 744.41 158.846 745.407 159.44 746.156C160.042 746.904 160.848 747.279 161.857 747.279C162.386 747.279 162.837 747.193 163.212 747.022C163.586 746.852 163.887 746.624 164.115 746.339C164.343 746.054 164.493 745.745 164.567 745.411H166.715C166.585 746.16 166.308 746.823 165.885 747.401C165.47 747.971 164.917 748.414 164.225 748.731C163.533 749.049 162.691 749.208 161.698 749.208C160.559 749.208 159.59 748.943 158.793 748.414C157.995 747.885 157.385 747.165 156.962 746.253C156.547 745.334 156.339 744.296 156.339 743.141Z" fill="#595959"/>
</g>
<path style="mix-blend-mode:plus-lighter" d="M184.464 734.6C184.464 729.84 184.464 727.459 185.391 725.641C186.206 724.042 187.506 722.741 189.105 721.926C190.924 721 193.304 721 198.064 721H203.864C208.625 721 211.005 721 212.823 721.926C214.423 722.741 215.723 724.042 216.538 725.641C217.464 727.459 217.464 729.84 217.464 734.6V749.4C217.464 754.16 217.464 756.541 216.538 758.359C215.723 759.958 214.423 761.259 212.823 762.074C211.005 763 208.625 763 203.864 763H198.064C193.304 763 190.924 763 189.105 762.074C187.506 761.259 186.206 759.958 185.391 758.359C184.464 756.541 184.464 754.16 184.464 749.4V734.6Z" fill="#141414"/>
<g style="mix-blend-mode:plus-darker">
<path d="M199.707 749L195.239 736.158H197.571L200.854 746.412H200.928L204.456 736.158H206.689L202.1 749H199.707Z" fill="#595959"/>
</g>
<path style="mix-blend-mode:plus-lighter" d="M224.036 734.6C224.036 729.84 224.036 727.459 224.962 725.641C225.777 724.042 227.077 722.741 228.677 721.926C230.495 721 232.875 721 237.636 721H243.436C248.196 721 250.576 721 252.395 721.926C253.994 722.741 255.294 724.042 256.109 725.641C257.036 727.459 257.036 729.84 257.036 734.6V749.4C257.036 754.16 257.036 756.541 256.109 758.359C255.294 759.958 253.994 761.259 252.395 762.074C250.576 763 248.196 763 243.436 763H237.636C232.875 763 230.495 763 228.677 762.074C227.077 761.259 225.777 759.958 224.962 758.359C224.036 756.541 224.036 754.16 224.036 749.4V734.6Z" fill="#141414"/>
<g style="mix-blend-mode:plus-darker">
<path d="M241.268 749.195C240.658 749.195 240.113 749.11 239.632 748.939C239.152 748.768 238.729 748.524 238.363 748.207C237.997 747.889 237.691 747.507 237.447 747.059H237.374V749H235.25V731.458H237.46V737.928H237.533C237.696 737.643 237.903 737.383 238.155 737.147C238.416 736.903 238.709 736.695 239.034 736.524C239.368 736.345 239.726 736.207 240.108 736.109C240.491 736.012 240.886 735.963 241.293 735.963C242.294 735.963 243.172 736.195 243.929 736.659C244.694 737.123 245.292 737.802 245.724 738.697C246.155 739.584 246.371 740.671 246.371 741.957V743.189C246.371 744.435 246.159 745.509 245.736 746.412C245.313 747.307 244.719 747.995 243.954 748.475C243.189 748.955 242.294 749.195 241.268 749.195ZM240.939 747.291C241.573 747.291 242.127 747.128 242.599 746.803C243.079 746.477 243.453 746.001 243.722 745.375C243.998 744.748 244.137 743.983 244.137 743.08V742.079C244.137 741.167 243.998 740.402 243.722 739.784C243.453 739.157 243.079 738.681 242.599 738.355C242.119 738.03 241.565 737.867 240.939 737.867C240.214 737.867 239.588 738.03 239.059 738.355C238.538 738.673 238.135 739.145 237.85 739.771C237.573 740.39 237.435 741.159 237.435 742.079V743.055C237.435 743.967 237.573 744.74 237.85 745.375C238.127 746.001 238.526 746.477 239.046 746.803C239.575 747.128 240.206 747.291 240.939 747.291Z" fill="#595959"/>
</g>
<path style="mix-blend-mode:plus-lighter" d="M263.607 734.6C263.607 729.84 263.607 727.459 264.534 725.641C265.349 724.042 266.649 722.741 268.248 721.926C270.067 721 272.447 721 277.207 721H283.007C287.768 721 290.148 721 291.966 721.926C293.565 722.741 294.866 724.042 295.681 725.641C296.607 727.459 296.607 729.84 296.607 734.6V749.4C296.607 754.16 296.607 756.541 295.681 758.359C294.866 759.958 293.565 761.259 291.966 762.074C290.148 763 287.768 763 283.007 763H277.207C272.447 763 270.067 763 268.248 762.074C266.649 761.259 265.349 759.958 264.534 758.359C263.607 756.541 263.607 754.16 263.607 749.4V734.6Z" fill="#141414"/>
<g style="mix-blend-mode:plus-darker">
<path d="M274.907 749V736.158H277.104V737.879H277.165C277.32 737.603 277.556 737.318 277.873 737.025C278.199 736.724 278.614 736.472 279.118 736.268C279.623 736.056 280.221 735.951 280.913 735.951C282.231 735.951 283.326 736.362 284.197 737.184C285.067 738.006 285.503 739.198 285.503 740.76V749H283.293V741.151C283.293 740.435 283.163 739.841 282.903 739.369C282.642 738.889 282.28 738.53 281.816 738.294C281.36 738.05 280.827 737.928 280.217 737.928C279.501 737.928 278.911 738.083 278.447 738.392C277.991 738.693 277.654 739.092 277.434 739.588C277.222 740.085 277.116 740.626 277.116 741.212V749H274.907Z" fill="#595959"/>
</g>
<path style="mix-blend-mode:plus-lighter" d="M303.179 734.6C303.179 729.84 303.179 727.459 304.105 725.641C304.92 724.042 306.22 722.741 307.82 721.926C309.638 721 312.018 721 316.779 721H322.579C327.339 721 329.719 721 331.538 721.926C333.137 722.741 334.437 724.042 335.252 725.641C336.179 727.459 336.179 729.84 336.179 734.6V749.4C336.179 754.16 336.179 756.541 335.252 758.359C334.437 759.958 333.137 761.259 331.538 762.074C329.719 763 327.339 763 322.579 763H316.779C312.018 763 309.638 763 307.82 762.074C306.22 761.259 304.92 759.958 304.105 758.359C303.179 756.541 303.179 754.16 303.179 749.4V734.6Z" fill="#141414"/>
<g style="mix-blend-mode:plus-darker">
<path d="M310.914 749V736.158H313.111V737.757H313.221C313.359 737.464 313.575 737.18 313.868 736.903C314.161 736.626 314.523 736.398 314.954 736.219C315.394 736.04 315.903 735.951 316.48 735.951C317.148 735.951 317.725 736.036 318.214 736.207C318.71 736.378 319.117 736.618 319.434 736.927C319.76 737.236 320.004 737.607 320.167 738.038H320.265C320.435 737.664 320.692 737.322 321.034 737.013C321.384 736.695 321.823 736.439 322.352 736.244C322.889 736.048 323.508 735.951 324.207 735.951C325.558 735.951 326.612 736.341 327.369 737.123C328.126 737.896 328.504 738.941 328.504 740.26V749H326.307V740.736C326.307 740.191 326.201 739.706 325.99 739.283C325.786 738.86 325.485 738.526 325.086 738.282C324.688 738.038 324.187 737.916 323.585 737.916C322.999 737.916 322.494 738.046 322.071 738.307C321.656 738.559 321.339 738.909 321.119 739.356C320.907 739.804 320.802 740.325 320.802 740.919V749H318.617V740.931C318.617 740.272 318.507 739.723 318.287 739.283C318.067 738.836 317.754 738.498 317.347 738.27C316.94 738.034 316.452 737.916 315.882 737.916C315.37 737.916 314.902 738.03 314.478 738.258C314.063 738.486 313.734 738.823 313.49 739.271C313.245 739.71 313.123 740.252 313.123 740.895V749H310.914Z" fill="#595959"/>
</g>
<path style="mix-blend-mode:plus-lighter" d="M350.5 734.6C350.5 729.84 350.5 727.459 351.426 725.641C352.241 724.042 353.542 722.741 355.141 721.926C356.959 721 359.34 721 364.1 721H381.9C386.66 721 389.041 721 390.859 721.926C392.458 722.741 393.759 724.042 394.574 725.641C395.5 727.459 395.5 729.84 395.5 734.6V749.4C395.5 754.16 395.5 756.541 394.574 758.359C393.759 759.958 392.458 761.259 390.859 762.074C389.041 763 386.66 763 381.9 763H364.1C359.34 763 356.959 763 355.141 762.074C353.542 761.259 352.241 759.958 351.426 758.359C350.5 756.541 350.5 754.16 350.5 749.4V734.6Z" fill="#141414"/>
<g style="mix-blend-mode:plus-darker">
<path d="M380.861 751.19H371.664C371.214 751.19 370.795 751.141 370.406 751.044C370.024 750.954 369.661 750.808 369.316 750.606C368.979 750.404 368.658 750.142 368.351 749.82L362.219 743.407C361.844 743.018 361.575 742.659 361.41 742.329C361.253 741.992 361.174 741.659 361.174 741.33C361.174 741.105 361.208 740.884 361.275 740.667C361.35 740.45 361.463 740.225 361.612 739.993C361.77 739.761 361.972 739.514 362.219 739.252L368.339 732.817C368.646 732.487 368.968 732.229 369.305 732.042C369.65 731.847 370.013 731.709 370.395 731.626C370.784 731.537 371.203 731.492 371.652 731.492H380.861C381.992 731.492 382.845 731.776 383.422 732.345C383.998 732.907 384.287 733.749 384.287 734.872V747.866C384.287 748.989 383.998 749.824 383.422 750.37C382.845 750.917 381.992 751.19 380.861 751.19ZM380.794 749.292C381.303 749.292 381.692 749.157 381.962 748.888C382.239 748.618 382.377 748.218 382.377 747.686V735.007C382.377 734.475 382.239 734.075 381.962 733.805C381.692 733.536 381.303 733.401 380.794 733.401H371.596C371.214 733.401 370.885 733.45 370.608 733.547C370.331 733.637 370.058 733.82 369.788 734.097L363.701 740.487C363.409 740.802 363.263 741.083 363.263 741.33C363.263 741.457 363.293 741.588 363.353 741.723C363.42 741.85 363.536 742.003 363.701 742.183L369.799 748.54C370.069 748.817 370.338 749.011 370.608 749.124C370.885 749.236 371.218 749.292 371.607 749.292H380.794ZM371.136 745.822C370.881 745.822 370.664 745.732 370.484 745.552C370.312 745.373 370.226 745.159 370.226 744.912C370.226 744.658 370.32 744.444 370.507 744.272L373.416 741.352L370.507 738.432C370.32 738.26 370.226 738.05 370.226 737.803C370.226 737.549 370.312 737.335 370.484 737.163C370.664 736.991 370.881 736.905 371.136 736.905C371.39 736.905 371.6 736.995 371.765 737.174L374.685 740.083L377.627 737.163C377.814 736.983 378.028 736.894 378.267 736.894C378.514 736.894 378.728 736.98 378.907 737.152C379.087 737.324 379.177 737.541 379.177 737.803C379.177 738.043 379.083 738.249 378.896 738.421L375.976 741.352L378.885 744.261C379.072 744.448 379.166 744.665 379.166 744.912C379.166 745.159 379.076 745.373 378.896 745.552C378.716 745.732 378.503 745.822 378.256 745.822C378.001 745.822 377.784 745.728 377.604 745.541L374.685 742.644L371.787 745.541C371.622 745.728 371.405 745.822 371.136 745.822Z" fill="#595959"/>
</g>
<path style="mix-blend-mode:plus-lighter" d="M6.5 789.6C6.5 784.84 6.5 782.459 7.42644 780.641C8.24137 779.042 9.5417 777.741 11.1411 776.926C12.9593 776 15.3396 776 20.1 776H84.9C89.6604 776 92.0407 776 93.8589 776.926C95.4583 777.741 96.7586 779.042 97.5736 780.641C98.5 782.459 98.5 784.84 98.5 789.6V804.4C98.5 809.16 98.5 811.541 97.5736 813.359C96.7586 814.958 95.4583 816.259 93.8589 817.074C92.0407 818 89.6604 818 84.9 818H20.1C15.3396 818 12.9593 818 11.1411 817.074C9.5417 816.259 8.24137 814.958 7.42644 813.359C6.5 811.541 6.5 809.16 6.5 804.4V789.6Z" fill="#141414"/>
<g style="mix-blend-mode:plus-darker">
<path d="M37.5586 803.114C37.1191 803.114 36.8291 802.859 36.8291 802.455C36.8291 802.279 36.873 802.112 36.9434 801.901L40.5557 791.803C40.7754 791.188 41.083 790.906 41.6455 790.906C42.208 790.906 42.5156 791.188 42.7354 791.803L46.3477 801.901C46.418 802.095 46.4619 802.279 46.4619 802.446C46.4619 802.859 46.1719 803.114 45.7236 803.114C45.3018 803.114 45.0645 802.912 44.8975 802.394L43.8867 799.396H39.3955L38.3848 802.394C38.2178 802.921 37.9805 803.114 37.5586 803.114ZM39.8086 798.157H43.4736L41.6719 792.813H41.6104L39.8086 798.157ZM48.3604 801.699V792.304C48.3604 791.372 48.7646 791.003 49.7754 791.003H52.8604C54.9082 791.003 56.1914 792.146 56.1914 793.956C56.1914 795.292 55.5146 796.224 54.2754 796.61V796.672C55.9014 796.892 56.877 797.99 56.877 799.643C56.877 801.726 55.2861 803 52.6846 803H49.7754C48.7646 803 48.3604 802.631 48.3604 801.699ZM49.8896 796.171H51.7266C53.7393 796.171 54.6445 795.556 54.6445 794.22C54.6445 793.033 53.8975 792.348 52.6143 792.348H49.8896V796.171ZM49.8896 801.655H51.9727C54.3457 801.655 55.3037 801.066 55.3037 799.651C55.3037 798.28 54.3809 797.489 52.7812 797.489H49.8896V801.655ZM58.626 797.955V796.048C58.626 792.717 60.3486 790.748 63.3193 790.748C64.7783 790.748 65.9209 791.214 66.7646 792.075C67.3535 792.69 67.7314 793.464 67.7314 793.974C67.7314 794.404 67.4678 794.659 67.0635 794.659C66.7207 794.659 66.501 794.519 66.2549 794.053C65.5518 792.743 64.6465 792.137 63.3809 792.137C61.3154 792.137 60.1641 793.561 60.1641 796.057V797.946C60.1641 800.469 61.3154 801.875 63.3809 801.875C64.6641 801.875 65.6309 801.277 66.29 799.994C66.5361 799.555 66.7207 799.388 67.0459 799.388C67.4854 799.388 67.7314 799.66 67.7314 800.073C67.7314 800.609 67.3359 801.392 66.7383 801.989C65.9121 802.815 64.7607 803.255 63.3193 803.255C60.3398 803.255 58.626 801.321 58.626 797.955Z" fill="#595959"/>
</g>
<path style="mix-blend-mode:plus-lighter" d="M104.75 789.6C104.75 784.84 104.75 782.459 105.676 780.641C106.491 779.042 107.792 777.741 109.391 776.926C111.209 776 113.59 776 118.35 776H284.15C288.91 776 291.291 776 293.109 776.926C294.708 777.741 296.009 779.042 296.824 780.641C297.75 782.459 297.75 784.84 297.75 789.6V804.4C297.75 809.16 297.75 811.541 296.824 813.359C296.009 814.958 294.708 816.259 293.109 817.074C291.291 818 288.91 818 284.15 818H118.35C113.59 818 111.209 818 109.391 817.074C107.792 816.259 106.491 814.958 105.676 813.359C104.75 811.541 104.75 809.16 104.75 804.4V789.6Z" fill="#141414"/>
<path d="M303.25 789.6C303.25 784.84 303.25 782.459 304.176 780.641C304.991 779.042 306.292 777.741 307.891 776.926C309.709 776 312.09 776 316.85 776H381.65C386.41 776 388.791 776 390.609 776.926C392.208 777.741 393.509 779.042 394.324 780.641C395.25 782.459 395.25 784.84 395.25 789.6V804.4C395.25 809.16 395.25 811.541 394.324 813.359C393.509 814.958 392.208 816.259 390.609 817.074C388.791 818 386.41 818 381.65 818H316.85C312.09 818 309.709 818 307.891 817.074C306.292 816.259 304.991 814.958 304.176 813.359C303.25 811.541 303.25 809.16 303.25 804.4V789.6Z" fill="#0088FF"/>
<path d="M345.79 807.373C345.561 807.373 345.363 807.29 345.196 807.123L339.741 801.77C339.648 801.677 339.577 801.578 339.527 801.473C339.484 801.368 339.462 801.259 339.462 801.148C339.462 801.03 339.484 800.919 339.527 800.814C339.577 800.709 339.648 800.613 339.741 800.526L345.196 795.173C345.363 795 345.561 794.914 345.79 794.914C346.037 794.914 346.235 794.991 346.383 795.146C346.538 795.3 346.615 795.495 346.615 795.73C346.615 795.854 346.594 795.962 346.55 796.055C346.513 796.147 346.461 796.231 346.393 796.305L343.711 798.912L341.42 800.87L341.253 800.443L344.129 800.322H355.976C356.465 800.322 356.82 800.211 357.043 799.988C357.266 799.759 357.377 799.391 357.377 798.884V793.401C357.377 792.907 357.266 792.548 357.043 792.325C356.82 792.103 356.465 791.991 355.976 791.991H350.781C350.521 791.991 350.314 791.911 350.159 791.75C350.011 791.589 349.937 791.394 349.937 791.166C349.937 790.937 350.014 790.742 350.168 790.581C350.323 790.42 350.527 790.34 350.781 790.34H355.976C357.058 790.34 357.838 790.581 358.314 791.063C358.796 791.54 359.038 792.319 359.038 793.401V798.884C359.038 799.936 358.796 800.715 358.314 801.222C357.838 801.723 357.058 801.974 355.976 801.974H344.129L341.253 801.844L341.42 801.417L343.711 803.384L346.393 805.991C346.461 806.065 346.513 806.148 346.55 806.241C346.594 806.334 346.615 806.439 346.615 806.557C346.615 806.798 346.538 806.993 346.383 807.141C346.235 807.296 346.037 807.373 345.79 807.373Z" fill="white"/>
<path d="M49.45 848.39C47.34 848.39 45.1 848.09 43.06 847.57C42.68 846.99 42.4 846.37 42.27 845.74C44.42 846.35 46.92 846.77 49.46 846.77C52 846.77 54.5 846.35 56.66 845.74C56.51 846.37 56.24 846.99 55.87 847.57C53.83 848.08 51.59 848.39 49.46 848.39H49.45ZM49.45 852.46C53.97 852.46 57.6 849.14 58.1 845.2C58.21 844.41 57.69 844.05 56.99 844.25C54.45 845 52.07 845.42 49.45 845.42C46.83 845.42 44.47 845 41.92 844.25C41.22 844.05 40.71 844.41 40.81 845.2C41.3 849.14 44.92 852.46 49.45 852.46ZM53.35 842.28C54.18 842.28 54.92 841.53 54.92 840.47C54.92 839.41 54.18 838.65 53.35 838.65C52.52 838.65 51.79 839.41 51.79 840.47C51.79 841.53 52.52 842.28 53.35 842.28ZM45.53 842.28C46.37 842.28 47.11 841.53 47.11 840.47C47.11 839.41 46.37 838.65 45.53 838.65C44.69 838.65 43.99 839.41 43.99 840.47C43.99 841.53 44.7 842.28 45.53 842.28ZM49.46 854.63C43.26 854.63 38.29 849.66 38.29 843.45C38.29 837.24 43.25 832.28 49.45 832.28C55.65 832.28 60.64 837.25 60.64 843.46C60.64 849.67 55.67 854.64 49.46 854.64V854.63ZM49.46 856.91C56.82 856.91 62.92 850.81 62.92 843.45C62.92 836.09 56.82 830 49.45 830C42.08 830 36 836.1 36 843.46C36 850.82 42.1 856.92 49.46 856.92V856.91Z" fill="#222B59" fill-opacity="0.63"/>
<path d="M344.134 843.935V841.259C344.134 840.986 344.231 840.753 344.424 840.56C344.618 840.367 344.851 840.27 345.123 840.27C345.404 840.27 345.642 840.367 345.835 840.56C346.028 840.753 346.125 840.986 346.125 841.259V843.856C346.125 845.35 346.433 846.66 347.048 847.785C347.663 848.91 348.529 849.784 349.645 850.408C350.761 851.023 352.071 851.331 353.574 851.331C355.077 851.331 356.382 851.023 357.489 850.408C358.605 849.784 359.471 848.91 360.086 847.785C360.702 846.66 361.009 845.35 361.009 843.856V841.259C361.009 840.986 361.106 840.753 361.299 840.56C361.493 840.367 361.73 840.27 362.011 840.27C362.284 840.27 362.517 840.367 362.71 840.56C362.903 840.753 363 840.986 363 841.259V843.935C363 845.658 362.644 847.187 361.932 848.523C361.229 849.859 360.245 850.931 358.979 851.74C357.713 852.54 356.241 853.01 354.562 853.15V856.222H359.454C359.735 856.222 359.972 856.319 360.166 856.512C360.359 856.706 360.456 856.943 360.456 857.224C360.456 857.497 360.359 857.729 360.166 857.923C359.972 858.116 359.735 858.213 359.454 858.213H347.681C347.399 858.213 347.162 858.116 346.969 857.923C346.775 857.729 346.679 857.497 346.679 857.224C346.679 856.943 346.775 856.706 346.969 856.512C347.162 856.319 347.399 856.222 347.681 856.222H352.572V853.15C350.893 853.01 349.421 852.54 348.155 851.74C346.89 850.931 345.901 849.859 345.189 848.523C344.486 847.187 344.134 845.658 344.134 843.935ZM348.775 843.46V835.168C348.775 834.157 348.977 833.265 349.381 832.492C349.786 831.709 350.348 831.099 351.069 830.659C351.79 830.22 352.625 830 353.574 830C354.514 830 355.345 830.22 356.065 830.659C356.786 831.099 357.349 831.709 357.753 832.492C358.157 833.265 358.359 834.157 358.359 835.168V843.46C358.359 844.471 358.157 845.368 357.753 846.15C357.349 846.923 356.786 847.53 356.065 847.969C355.345 848.409 354.514 848.628 353.574 848.628C352.625 848.628 351.79 848.409 351.069 847.969C350.348 847.53 349.786 846.923 349.381 846.15C348.977 845.368 348.775 844.471 348.775 843.46ZM350.766 843.46C350.766 844.436 351.021 845.214 351.53 845.794C352.049 846.374 352.73 846.664 353.574 846.664C354.417 846.664 355.094 846.374 355.604 845.794C356.114 845.214 356.369 844.436 356.369 843.46V835.168C356.369 834.192 356.114 833.415 355.604 832.834C355.094 832.254 354.417 831.964 353.574 831.964C352.73 831.964 352.049 832.254 351.53 832.834C351.021 833.415 350.766 834.192 350.766 835.168V843.46Z" fill="#222B59" fill-opacity="0.63"/>
</g>
<defs>
<filter id="filter0_d_35_253" x="0" y="472" width="399" height="84" filterUnits="userSpaceOnUse" color-interpolation-filters="sRGB">
<feFlood flood-opacity="0" result="BackgroundImageFix"/>
<feColorMatrix in="SourceAlpha" type="matrix" values="0 0 0 0 0 0 0 0 0 0 0 0 0 0 0 0 0 0 127 0" result="hardAlpha"/>
<feOffset/>
<feGaussianBlur stdDeviation="10"/>
<feComposite in2="hardAlpha" operator="out"/>
<feColorMatrix type="matrix" values="0 0 0 0 0 0 0 0 0 0 0 0 0 0 0 0 0 0 0.1 0"/>
<feBlend mode="normal" in2="BackgroundImageFix" result="effect1_dropShadow_35_253"/>
<feBlend mode="normal" in="SourceGraphic" in2="effect1_dropShadow_35_253" result="shape"/>
</filter>
<clipPath id="clip0_35_253">
<rect width="402" height="874" rx="47" fill="white"/>
</clipPath>
</defs>
</svg>
